<svg xmlns="http://www.w3.org/2000/svg" width="73.705" height="58.964" viewBox="0 0 73.705 58.964">
  <path id="Icon_awesome-project-diagram" data-name="Icon awesome-project-diagram" d="M44.223,36.852H29.482A3.686,3.686,0,0,0,25.8,40.538V55.279a3.686,3.686,0,0,0,3.685,3.685H44.223a3.686,3.686,0,0,0,3.685-3.685V40.538A3.686,3.686,0,0,0,44.223,36.852ZM22.111,3.685A3.686,3.686,0,0,0,18.426,0H3.685A3.686,3.686,0,0,0,0,3.685V18.426a3.686,3.686,0,0,0,3.685,3.685H14.709l8.425,14.746a7.346,7.346,0,0,1,6.348-3.69h.032l-7.4-12.955V14.741h25.8V7.37h-25.8ZM70.02,0H55.279a3.686,3.686,0,0,0-3.685,3.685V18.426a3.686,3.686,0,0,0,3.685,3.685H70.02A3.686,3.686,0,0,0,73.7,18.426V3.685A3.686,3.686,0,0,0,70.02,0Z" fill="#fff"/>
</svg>
