<svg xmlns="http://www.w3.org/2000/svg" width="40.444" height="40.444" viewBox="0 0 40.444 40.444">
  <path id="Icon_map-health" data-name="Icon map-health" d="M41.164,14.2a.845.845,0,0,0-.843-.843H29.368a.845.845,0,0,1-.843-.843V1.563A.845.845,0,0,0,27.683.72H14.2a.845.845,0,0,0-.843.843V12.516a.845.845,0,0,1-.843.843H1.563A.845.845,0,0,0,.72,14.2V27.683a.845.845,0,0,0,.843.843H12.516a.845.845,0,0,1,.843.843V40.322a.845.845,0,0,0,.843.843H27.683a.845.845,0,0,0,.843-.843V29.368a.845.845,0,0,1,.843-.843H40.322a.845.845,0,0,0,.843-.843Z" transform="translate(-0.72 -0.72)" fill="#ffad02"/>
</svg>
