<svg xmlns="http://www.w3.org/2000/svg" width="35.108" height="35.108" viewBox="0 0 35.108 35.108">
  <path id="Icon_material-group-work" data-name="Icon material-group-work" d="M20.554,3A17.554,17.554,0,1,0,38.108,20.554,17.56,17.56,0,0,0,20.554,3ZM13.532,30.209a4.388,4.388,0,1,1,4.388-4.388A4.39,4.39,0,0,1,13.532,30.209Zm2.633-16.676a4.388,4.388,0,1,1,4.388,4.388A4.39,4.39,0,0,1,16.165,13.532Zm11.41,16.676a4.388,4.388,0,1,1,4.388-4.388A4.39,4.39,0,0,1,27.575,30.209Z" transform="translate(-3 -3)" fill="#ffad02"/>
</svg>
