<svg xmlns="http://www.w3.org/2000/svg" width="45.459" height="36.378" viewBox="0 0 45.459 36.378">
  <path id="Icon_open-people" data-name="Icon open-people" d="M31.253,0a8.234,8.234,0,0,0-6.933,4,13.2,13.2,0,0,1,4.091,9.674,12.962,12.962,0,0,1-.511,3.679,7.9,7.9,0,0,0,3.353.863c4.716,0,8.524-4.087,8.524-9.083S35.97.045,31.253.045ZM14.206,4.542c-4.716,0-8.524,4.087-8.524,9.083s3.807,9.083,8.524,9.083,8.524-4.087,8.524-9.083S18.922,4.542,14.206,4.542ZM41.2,18.893a14.309,14.309,0,0,1-9.6,3.815,9.177,9.177,0,0,1,2.5,6.086v3H45.459V24.252c0-2.362-1.762-4.405-4.262-5.4ZM4.262,23.435c-2.5,1-4.262,3.043-4.262,5.4v7.539H28.412V28.839c0-2.362-1.762-4.405-4.262-5.4a14.324,14.324,0,0,1-9.944,3.815,14.533,14.533,0,0,1-9.944-3.815Z" fill="#ffad02"/>
</svg>
