<svg xmlns="http://www.w3.org/2000/svg" width="158" height="156" viewBox="0 0 158 156">
  <g id="Grupo_940161" data-name="Grupo 940161" transform="translate(-807.396 -1177)">
    <ellipse id="Elipse_7689" data-name="Elipse 7689" cx="79" cy="78" rx="79" ry="78" transform="translate(807.396 1177)" fill="#0b5999"/>
    <path id="Icon_awesome-tv" data-name="Icon awesome-tv" d="M65.039,0H5.273A5.275,5.275,0,0,0,0,5.273V40.43A5.275,5.275,0,0,0,5.273,45.7H32.2v3.516H14.623a3.516,3.516,0,0,0,0,7.031H56.81a3.516,3.516,0,0,0,0-7.031H39.232V45.7H65.039a5.275,5.275,0,0,0,5.273-5.273V5.273A5.275,5.275,0,0,0,65.039,0ZM63.281,38.672H7.031V7.031h56.25Z" transform="translate(842.709 1228)" fill="#fff"/>
  </g>
</svg>
