<svg xmlns="http://www.w3.org/2000/svg" width="68.69" height="60.104" viewBox="0 0 68.69 60.104">
  <path id="Icon_awesome-list-alt" data-name="Icon awesome-list-alt" d="M62.251,62.354H6.44A6.44,6.44,0,0,1,0,55.914V8.69A6.44,6.44,0,0,1,6.44,2.25H62.251a6.44,6.44,0,0,1,6.44,6.44V55.914A6.44,6.44,0,0,1,62.251,62.354Zm-45.078-48.3a5.366,5.366,0,1,0,5.366,5.366A5.366,5.366,0,0,0,17.173,14.056Zm0,12.879A5.366,5.366,0,1,0,22.539,32.3,5.366,5.366,0,0,0,17.173,26.936Zm0,12.879a5.366,5.366,0,1,0,5.366,5.366A5.366,5.366,0,0,0,17.173,39.815ZM55.811,21.569V17.276a1.61,1.61,0,0,0-1.61-1.61H27.369a1.61,1.61,0,0,0-1.61,1.61v4.293a1.61,1.61,0,0,0,1.61,1.61H54.2A1.61,1.61,0,0,0,55.811,21.569Zm0,12.879V30.155a1.61,1.61,0,0,0-1.61-1.61H27.369a1.61,1.61,0,0,0-1.61,1.61v4.293a1.61,1.61,0,0,0,1.61,1.61H54.2A1.61,1.61,0,0,0,55.811,34.449Zm0,12.879V43.035a1.61,1.61,0,0,0-1.61-1.61H27.369a1.61,1.61,0,0,0-1.61,1.61v4.293a1.61,1.61,0,0,0,1.61,1.61H54.2A1.61,1.61,0,0,0,55.811,47.328Z" transform="translate(0 -2.25)" fill="#fff"/>
</svg>
