<svg xmlns="http://www.w3.org/2000/svg" width="158" height="156" viewBox="0 0 158 156">
  <g id="Grupo_940162" data-name="Grupo 940162" transform="translate(-192.397 -1490)">
    <ellipse id="Elipse_7689" data-name="Elipse 7689" cx="79" cy="78" rx="79" ry="78" transform="translate(192.397 1490)" fill="#0b5999"/>
    <path id="Icon_awesome-headphones-alt" data-name="Icon awesome-headphones-alt" d="M21.749,37.048H19.574a8.707,8.707,0,0,0-8.7,8.716v8.667a8.708,8.708,0,0,0,8.7,8.716h2.175a4.355,4.355,0,0,0,4.35-4.358V41.406A4.354,4.354,0,0,0,21.749,37.048Zm28.273,0H47.847a4.354,4.354,0,0,0-4.35,4.358V58.789a4.355,4.355,0,0,0,4.35,4.358h2.175a8.708,8.708,0,0,0,8.7-8.716V45.764A8.708,8.708,0,0,0,50.022,37.048ZM34.8,2.25C15.348,2.25.621,18.443,0,37.048V52.272a2.174,2.174,0,0,0,2.175,2.175H4.35a2.174,2.174,0,0,0,2.175-2.175V37.048a28.273,28.273,0,0,1,56.547,0V52.272a2.174,2.174,0,0,0,2.175,2.175h2.175A2.174,2.174,0,0,0,69.6,52.272V37.048C68.975,18.443,54.248,2.25,34.8,2.25Z" transform="translate(238.334 1533.75)" fill="#fff"/>
  </g>
</svg>
