<svg xmlns="http://www.w3.org/2000/svg" xmlns:xlink="http://www.w3.org/1999/xlink" width="97.129" height="107.362" viewBox="0 0 97.129 107.362">
  <defs>
    <linearGradient id="linear-gradient" x1="0.493" y1="0.181" x2="0.467" y2="0.901" gradientUnits="objectBoundingBox">
      <stop offset="0.037" stop-color="#93fffd" stop-opacity="0"/>
      <stop offset="0.135" stop-color="#95fefd" stop-opacity="0.071"/>
      <stop offset="0.332" stop-color="#9afdfd" stop-opacity="0.251"/>
      <stop offset="0.608" stop-color="#a3fcfe" stop-opacity="0.545"/>
      <stop offset="0.951" stop-color="#b0fbfe" stop-opacity="0.941"/>
      <stop offset="1" stop-color="#b2fbff"/>
    </linearGradient>
  </defs>
  <g id="Grupo_940140" data-name="Grupo 940140" transform="translate(-1234.691 -289.443)">
    <path id="Trazado_695172" data-name="Trazado 695172" d="M539.709,263.877c.2,12.417,13.269,93.581,13.269,93.581l.019,0a2.021,2.021,0,0,0,1.065,1.289L574.6,370.6a5.874,5.874,0,0,0,5.322,0L624.5,344.7a1.868,1.868,0,0,0,1.089-1.526h0s7.562-49.778,11.252-79.3Z" transform="translate(694.982 25.566)" opacity="0.561" fill="url(#linear-gradient)" style="mix-blend-mode: overlay;isolation: isolate"/>
    <g id="Grupo_920859" data-name="Grupo 920859" transform="translate(1278.298 321.014)">
      <g id="Grupo_920858" data-name="Grupo 920858" style="isolation: isolate">
        <g id="Grupo_920857" data-name="Grupo 920857">
          <path id="Trazado_695173" data-name="Trazado 695173" d="M622.612,361.224c-.29.168-.522.035-.523-.3a1.14,1.14,0,0,1,.519-.9l2.547-1.47c.289-.167.522-.035.522.3a1.137,1.137,0,0,1-.519.9l-2.546,1.47m-12.824,4.88c-.289.167-.522.035-.523-.3a1.137,1.137,0,0,1,.52-.892l4.245-2.451c.282-.163.515-.031.516.295a1.136,1.136,0,0,1-.512.9l-4.245,2.451m-.007-2.512c-.289.167-.522.034-.522-.3a1.139,1.139,0,0,1,.519-.9l10.206-5.892c.283-.163.516-.031.516.3a1.136,1.136,0,0,1-.512.9l-10.206,5.892m12.226-7.059c-.29.167-.522.035-.523-.3a1.138,1.138,0,0,1,.52-.9l3.138-1.812c.29-.167.522-.035.523.3a1.14,1.14,0,0,1-.519.9l-3.138,1.812m5.75,1.721-.025-8.727,6.148-3.55.025,8.727-6.148,3.55m-17.983,2.818c-.289.167-.521.035-.522-.291a1.139,1.139,0,0,1,.519-.9l3.139-1.812c.289-.167.522-.035.522.3a1.138,1.138,0,0,1-.519.892l-3.139,1.812m5.158-2.978c-.29.168-.522.035-.523-.29a1.14,1.14,0,0,1,.519-.9l10.206-5.892c.289-.167.522-.034.522.3a1.137,1.137,0,0,1-.519.892l-10.206,5.892m-5.172-2.054c-.289.167-.522.035-.522-.291a1.137,1.137,0,0,1,.519-.9l4.868-2.811c.289-.167.522-.035.522.3a1.135,1.135,0,0,1-.519.892l-4.868,2.811m-.007-2.513c-.289.168-.521.035-.522-.3a1.139,1.139,0,0,1,.519-.892l19.023-10.983c.289-.167.522-.035.522.291a1.138,1.138,0,0,1-.519.9l-19.023,10.983m21.043-12.148c-.283.163-.522.035-.523-.3a1.147,1.147,0,0,1,.52-.892l2.546-1.47c.289-.167.522-.035.522.291a1.138,1.138,0,0,1-.519.9l-2.546,1.47m-21.049,9.636c-.289.167-.522.027-.523-.3a1.138,1.138,0,0,1,.52-.9l14.907-8.607c.289-.167.522-.035.522.3a1.15,1.15,0,0,1-.519.9l-14.907,8.607m17.177-9.917c-.283.164-.515.023-.516-.3a1.137,1.137,0,0,1,.513-.9l6.411-3.7c.29-.167.522-.034.523.3a1.151,1.151,0,0,1-.52.9l-6.411,3.7m-17.184,7.4c-.289.167-.522.035-.522-.3a1.135,1.135,0,0,1,.519-.892l23.589-13.619c.289-.167.522-.035.522.291a1.139,1.139,0,0,1-.519.9l-23.589,13.619m-.319-3.657-.037-12.947,24.418-14.1.037,12.947-24.418,14.1m27.275-33.5L606.461,328.8a3.25,3.25,0,0,0-1.474,2.554l.12,42.343c0,.939.667,1.317,1.484.846l30.232-17.454a3.252,3.252,0,0,0,1.474-2.554l-.12-42.342c0-.939-.667-1.317-1.484-.846" transform="translate(-604.987 -311.138)" fill="#00edf9" opacity="0.6"/>
          <path id="Trazado_695174" data-name="Trazado 695174" d="M635.984,321.1l-24.418,14.1.037,12.947,24.418-14.1-.037-12.947" transform="translate(-607.171 -314.446)" fill="#a5ffff"/>
          <path id="Trazado_695175" data-name="Trazado 695175" d="M635.425,344.856l-23.589,13.619a1.135,1.135,0,0,0-.519.892c0,.333.233.465.522.3l23.589-13.619a1.139,1.139,0,0,0,.519-.9c0-.325-.233-.458-.522-.291" transform="translate(-607.089 -322.309)" fill="#a5ffff"/>
          <path id="Trazado_695176" data-name="Trazado 695176" d="M626.754,356.121l-14.907,8.607a1.139,1.139,0,0,0-.52.9c0,.325.234.465.523.3l14.907-8.607a1.15,1.15,0,0,0,.519-.9c0-.333-.233-.465-.522-.3" transform="translate(-607.092 -326.049)" fill="#a5ffff"/>
          <path id="Trazado_695177" data-name="Trazado 695177" d="M643.975,348.617l-6.411,3.7a1.137,1.137,0,0,0-.513.9c0,.325.234.465.516.3l6.411-3.7a1.151,1.151,0,0,0,.52-.9c0-.332-.233-.465-.523-.3" transform="translate(-615.632 -323.557)" fill="#a5ffff"/>
          <path id="Trazado_695178" data-name="Trazado 695178" d="M630.88,356.336l-19.023,10.983a1.139,1.139,0,0,0-.519.892c0,.332.233.465.522.3l19.023-10.983a1.139,1.139,0,0,0,.519-.9c0-.325-.233-.458-.522-.291" transform="translate(-607.096 -326.12)" fill="#a5ffff"/>
          <path id="Trazado_695179" data-name="Trazado 695179" d="M645.9,352.39l-2.546,1.47a1.147,1.147,0,0,0-.52.892c0,.333.24.461.523.3l2.546-1.47a1.138,1.138,0,0,0,.519-.9c0-.325-.233-.458-.522-.291" transform="translate(-617.554 -324.81)" fill="#a5ffff"/>
          <path id="Trazado_695180" data-name="Trazado 695180" d="M616.736,372.331l-4.868,2.811a1.137,1.137,0,0,0-.519.9c0,.325.233.458.522.291l4.868-2.811a1.135,1.135,0,0,0,.519-.892c0-.333-.233-.465-.522-.3" transform="translate(-607.099 -331.43)" fill="#a5ffff"/>
          <path id="Trazado_695181" data-name="Trazado 695181" d="M633.339,374.555l-3.138,1.812a1.137,1.137,0,0,0-.52.9c0,.333.233.465.523.3l3.138-1.812a1.14,1.14,0,0,0,.519-.9c0-.333-.233-.465-.523-.3" transform="translate(-613.186 -332.169)" fill="#a5ffff"/>
          <path id="Trazado_695182" data-name="Trazado 695182" d="M622.106,379.013,611.9,384.906a1.139,1.139,0,0,0-.519.9c0,.332.233.465.522.3l10.206-5.892a1.137,1.137,0,0,0,.512-.9c0-.333-.233-.465-.516-.3" transform="translate(-607.11 -333.65)" fill="#a5ffff"/>
          <path id="Trazado_695183" data-name="Trazado 695183" d="M633.655,382.088l-2.547,1.47a1.14,1.14,0,0,0-.519.9c0,.332.233.465.523.3l2.546-1.47a1.137,1.137,0,0,0,.519-.9c0-.333-.233-.465-.522-.3" transform="translate(-613.487 -334.67)" fill="#a5ffff"/>
          <path id="Trazado_695184" data-name="Trazado 695184" d="M616.155,387.938l-4.245,2.451a1.138,1.138,0,0,0-.52.892c0,.333.234.465.523.3l4.245-2.451a1.135,1.135,0,0,0,.512-.9c0-.325-.233-.458-.516-.295" transform="translate(-607.113 -336.613)" fill="#a5ffff"/>
          <path id="Trazado_695185" data-name="Trazado 695185" d="M615.028,381.36l-3.139,1.812a1.14,1.14,0,0,0-.519.9c0,.325.233.458.522.291l3.139-1.812a1.138,1.138,0,0,0,.519-.892c0-.333-.233-.465-.522-.3" transform="translate(-607.106 -334.428)" fill="#a5ffff"/>
          <path id="Trazado_695186" data-name="Trazado 695186" d="M629.816,370.793l-10.206,5.892a1.14,1.14,0,0,0-.519.9c0,.325.233.458.523.29l10.206-5.892a1.137,1.137,0,0,0,.519-.892c0-.332-.233-.465-.522-.3" transform="translate(-609.669 -330.92)" fill="#a5ffff"/>
          <path id="Trazado_695187" data-name="Trazado 695187" d="M645.184,363.292l-6.148,3.55.025,8.727,6.148-3.55-.025-8.727" transform="translate(-616.291 -328.453)" fill="#a5ffff"/>
        </g>
      </g>
    </g>
  </g>
</svg>
