<svg xmlns="http://www.w3.org/2000/svg" xmlns:xlink="http://www.w3.org/1999/xlink" width="501" height="433" viewBox="0 0 501 433">
  <defs>
    <linearGradient id="linear-gradient" x1="0.58" y1="0.111" x2="0.421" y2="0.887" gradientUnits="objectBoundingBox">
      <stop offset="0" stop-color="#89daf4"/>
      <stop offset="1" stop-color="#008dd7"/>
    </linearGradient>
    <linearGradient id="linear-gradient-2" y1="0.5" x2="1" y2="0.5" gradientUnits="objectBoundingBox">
      <stop offset="0" stop-color="#144188"/>
      <stop offset="0.997" stop-color="#1a7cde"/>
    </linearGradient>
    <linearGradient id="linear-gradient-3" y1="0.5" x2="1" y2="0.5" gradientUnits="objectBoundingBox">
      <stop offset="0" stop-color="#144188"/>
      <stop offset="0.998" stop-color="#102465"/>
    </linearGradient>
    <linearGradient id="linear-gradient-4" x1="0.521" y1="0.177" x2="0.485" y2="0.729" gradientUnits="objectBoundingBox">
      <stop offset="0" stop-color="#0276ce" stop-opacity="0"/>
      <stop offset="0.061" stop-color="#0276ce" stop-opacity="0.165"/>
      <stop offset="0.154" stop-color="#0276ce" stop-opacity="0.384"/>
      <stop offset="0.251" stop-color="#0276ce" stop-opacity="0.573"/>
      <stop offset="0.351" stop-color="#0276ce" stop-opacity="0.729"/>
      <stop offset="0.453" stop-color="#0276ce" stop-opacity="0.847"/>
      <stop offset="0.561" stop-color="#0276ce" stop-opacity="0.933"/>
      <stop offset="0.676" stop-color="#0276ce" stop-opacity="0.984"/>
      <stop offset="0.812" stop-color="#0276ce"/>
    </linearGradient>
    <linearGradient id="linear-gradient-8" x1="0.521" y1="0.177" x2="0.485" y2="0.729" gradientUnits="objectBoundingBox">
      <stop offset="0" stop-color="#006ac6" stop-opacity="0"/>
      <stop offset="0.05" stop-color="#006ac6" stop-opacity="0.133"/>
      <stop offset="0.145" stop-color="#006ac6" stop-opacity="0.361"/>
      <stop offset="0.244" stop-color="#006bc6" stop-opacity="0.561"/>
      <stop offset="0.345" stop-color="#006bc6" stop-opacity="0.718"/>
      <stop offset="0.45" stop-color="#006bc6" stop-opacity="0.843"/>
      <stop offset="0.56" stop-color="#006bc6" stop-opacity="0.929"/>
      <stop offset="0.678" stop-color="#006bc6" stop-opacity="0.984"/>
      <stop offset="0.817" stop-color="#006cc7"/>
    </linearGradient>
    <linearGradient id="linear-gradient-9" x1="0.58" y1="0.111" x2="0.421" y2="0.887" xlink:href="#linear-gradient"/>
    <linearGradient id="linear-gradient-12" x1="0.516" y1="0.177" x2="0.489" y2="0.729" gradientUnits="objectBoundingBox">
      <stop offset="0" stop-color="#0044ae" stop-opacity="0"/>
      <stop offset="0.004" stop-color="#0044ae" stop-opacity="0.012"/>
      <stop offset="0.104" stop-color="#0044ae" stop-opacity="0.271"/>
      <stop offset="0.208" stop-color="#0044ae" stop-opacity="0.494"/>
      <stop offset="0.316" stop-color="#0044ae" stop-opacity="0.678"/>
      <stop offset="0.426" stop-color="#0044ae" stop-opacity="0.82"/>
      <stop offset="0.542" stop-color="#0044ae" stop-opacity="0.922"/>
      <stop offset="0.666" stop-color="#0044ae" stop-opacity="0.98"/>
      <stop offset="0.812" stop-color="#0044ae"/>
    </linearGradient>
    <linearGradient id="linear-gradient-17" x1="0.503" y1="0.08" x2="0.496" y2="0.805" gradientUnits="objectBoundingBox">
      <stop offset="0.037" stop-color="#93fffd" stop-opacity="0"/>
      <stop offset="0.135" stop-color="#95fefd" stop-opacity="0.071"/>
      <stop offset="0.332" stop-color="#9afdfd" stop-opacity="0.251"/>
      <stop offset="0.608" stop-color="#a3fcfe" stop-opacity="0.545"/>
      <stop offset="0.951" stop-color="#b0fbfe" stop-opacity="0.941"/>
      <stop offset="1" stop-color="#b2fbff"/>
    </linearGradient>
    <linearGradient id="linear-gradient-21" x1="0.498" y1="0.128" x2="0.484" y2="0.887" xlink:href="#linear-gradient-17"/>
    <linearGradient id="linear-gradient-22" x1="0.55" y1="-0.018" x2="0.435" y2="1.175" gradientUnits="objectBoundingBox">
      <stop offset="0" stop-color="#cdeffb"/>
      <stop offset="1" stop-color="#89daf4"/>
    </linearGradient>
    <linearGradient id="linear-gradient-23" x1="0" y1="0.5" x2="1" y2="0.5" xlink:href="#linear-gradient-22"/>
    <linearGradient id="linear-gradient-24" x1="0.66" y1="0.289" x2="0.276" y2="0.794" xlink:href="#linear-gradient-2"/>
    <linearGradient id="linear-gradient-25" x1="1.004" y1="0.352" x2="-0.907" y2="0.634" gradientUnits="objectBoundingBox">
      <stop offset="0.153" stop-color="#144188"/>
      <stop offset="0.997" stop-color="#1a7cde"/>
    </linearGradient>
    <linearGradient id="linear-gradient-33" x1="0.986" y1="0.501" x2="-0.233" y2="0.499" xlink:href="#linear-gradient-2"/>
    <linearGradient id="linear-gradient-34" x1="1.343" y1="0.506" x2="0.34" y2="0.489" xlink:href="#linear-gradient-2"/>
    <linearGradient id="linear-gradient-35" x1="0.49" y1="0.926" x2="0.503" y2="0.327" gradientUnits="objectBoundingBox">
      <stop offset="0" stop-color="#0044ae"/>
      <stop offset="0.183" stop-color="#0044ae" stop-opacity="0.765"/>
      <stop offset="0.461" stop-color="#0044ae" stop-opacity="0.435"/>
      <stop offset="0.7" stop-color="#0044ae" stop-opacity="0.2"/>
      <stop offset="0.887" stop-color="#0044ae" stop-opacity="0.055"/>
      <stop offset="1" stop-color="#0044ae" stop-opacity="0"/>
    </linearGradient>
    <linearGradient id="linear-gradient-39" x1="0.476" y1="0.85" x2="0.524" y2="0.308" gradientUnits="objectBoundingBox">
      <stop offset="0" stop-color="#0091de"/>
      <stop offset="0.094" stop-color="#0091de" stop-opacity="0.965"/>
      <stop offset="0.242" stop-color="#0093df" stop-opacity="0.863"/>
      <stop offset="0.424" stop-color="#0095e1" stop-opacity="0.698"/>
      <stop offset="0.634" stop-color="#0098e3" stop-opacity="0.475"/>
      <stop offset="0.863" stop-color="#009de6" stop-opacity="0.184"/>
      <stop offset="1" stop-color="#00a0e8" stop-opacity="0"/>
    </linearGradient>
    <linearGradient id="linear-gradient-43" x1="0.642" y1="0.005" x2="0.238" y2="1.418" xlink:href="#linear-gradient-22"/>
  </defs>
  <g id="Grupo_940138" data-name="Grupo 940138" transform="translate(-874 -114)">
    <g id="Grupo_924232" data-name="Grupo 924232" transform="translate(1335.188 -38.93)">
      <g id="OBJECTS" transform="translate(-461.355 152.93)">
        <g id="Grupo_920771" data-name="Grupo 920771" transform="translate(145.831 104.573)" style="isolation: isolate">
          <g id="Grupo_920770" data-name="Grupo 920770">
            <path id="Trazado_695012" data-name="Trazado 695012" d="M236.205,163.111l-9.177,5.327-9.217-5.327,9.217-5.327Z" transform="translate(-217.811 -157.784)" fill="url(#linear-gradient)"/>
          </g>
          <path id="Trazado_695013" data-name="Trazado 695013" d="M240.786,165.759V345.665l-9.177,5.327V171.086Z" transform="translate(-222.392 -160.432)" fill="url(#linear-gradient-2)"/>
          <path id="Trazado_695014" data-name="Trazado 695014" d="M227.028,171.086V350.993l-9.217-5.327V165.759Z" transform="translate(-217.811 -160.432)" fill="url(#linear-gradient-3)"/>
        </g>
        <path id="Trazado_695015" data-name="Trazado 695015" d="M227.028,157.784l-9.217,5.327V343.018l9.217,5.327,9.177-5.327V163.111Z" transform="translate(-71.98 -53.211)" fill="url(#linear-gradient-4)"/>
        <g id="Grupo_920775" data-name="Grupo 920775" transform="translate(136.918 143.071)" style="isolation: isolate">
          <g id="Grupo_920774" data-name="Grupo 920774">
            <path id="Trazado_695016" data-name="Trazado 695016" d="M216.773,218.981l-6.139,3.564-6.166-3.564,6.166-3.564Z" transform="translate(-204.469 -215.417)" fill="url(#linear-gradient)"/>
          </g>
          <path id="Trazado_695017" data-name="Trazado 695017" d="M219.838,220.752V341.1l-6.139,3.564V224.315Z" transform="translate(-207.533 -217.188)" fill="url(#linear-gradient-2)"/>
          <path id="Trazado_695018" data-name="Trazado 695018" d="M210.635,224.315V344.661l-6.166-3.564V220.752Z" transform="translate(-204.469 -217.188)" fill="url(#linear-gradient-3)"/>
        </g>
        <path id="Trazado_695019" data-name="Trazado 695019" d="M210.634,215.417l-6.166,3.564V339.326l6.166,3.564,6.139-3.564V218.981Z" transform="translate(-67.551 -72.346)" fill="url(#linear-gradient-8)"/>
        <g id="Grupo_920779" data-name="Grupo 920779" transform="translate(33.458 240.198)" style="isolation: isolate">
          <g id="Grupo_920778" data-name="Grupo 920778">
            <path id="Trazado_695020" data-name="Trazado 695020" d="M67.983,366.144l-9.177,5.327-9.217-5.327,9.217-5.327Z" transform="translate(-49.589 -360.816)" fill="url(#linear-gradient-9)"/>
          </g>
          <path id="Trazado_695021" data-name="Trazado 695021" d="M72.564,368.792V499.344l-9.177,5.327V374.119Z" transform="translate(-54.17 -363.464)" fill="url(#linear-gradient-2)"/>
          <path id="Trazado_695022" data-name="Trazado 695022" d="M58.806,374.119V504.671l-9.217-5.327V368.792Z" transform="translate(-49.589 -363.464)" fill="url(#linear-gradient-3)"/>
        </g>
        <path id="Trazado_695023" data-name="Trazado 695023" d="M58.806,360.816l-9.217,5.327V496.7l9.217,5.327,9.177-5.327V366.144Z" transform="translate(-16.131 -120.618)" fill="url(#linear-gradient-12)"/>
        <g id="Grupo_920783" data-name="Grupo 920783" transform="translate(171.036 137.595)" style="isolation: isolate">
          <g id="Grupo_920782" data-name="Grupo 920782">
            <path id="Trazado_695024" data-name="Trazado 695024" d="M267.093,210.563l-5.762,3.345-5.787-3.345,5.787-3.345Z" transform="translate(-255.544 -207.218)" fill="url(#linear-gradient)"/>
          </g>
          <path id="Trazado_695025" data-name="Trazado 695025" d="M269.97,212.225V325.183l-5.762,3.345V215.57Z" transform="translate(-258.421 -208.881)" fill="url(#linear-gradient-2)"/>
          <path id="Trazado_695026" data-name="Trazado 695026" d="M261.331,215.57V328.528l-5.787-3.345V212.225Z" transform="translate(-255.544 -208.881)" fill="url(#linear-gradient-3)"/>
        </g>
        <path id="Trazado_695027" data-name="Trazado 695027" d="M261.331,207.218l-5.787,3.345V323.521l5.787,3.345,5.762-3.345V210.563Z" transform="translate(-84.508 -69.623)" fill="url(#linear-gradient-4)"/>
        <path id="Trazado_695028" data-name="Trazado 695028" d="M276.977,41.675V305.957l120.74,69.785,120.216-69.786V41.674Z" transform="translate(-91.623 -14.662)" opacity="0.561" fill="url(#linear-gradient-17)" style="mix-blend-mode: overlay;isolation: isolate"/>
        <g id="Grupo_920788" data-name="Grupo 920788" transform="translate(185.354 106.048)">
          <g id="Grupo_920787" data-name="Grupo 920787" style="isolation: isolate">
            <g id="Grupo_920786" data-name="Grupo 920786">
              <path id="Trazado_695029" data-name="Trazado 695029" d="M517.932,229.776,397.716,299.562l-120.74-69.785,120.74-69.786Z" transform="translate(-276.976 -159.991)" fill="url(#linear-gradient)"/>
            </g>
            <path id="Trazado_695030" data-name="Trazado 695030" d="M577.94,264.46V439.184L457.724,508.97V334.245Z" transform="translate(-336.985 -194.675)" fill="url(#linear-gradient-2)"/>
            <path id="Trazado_695031" data-name="Trazado 695031" d="M397.716,334.246V508.971l-120.74-69.785V264.461Z" transform="translate(-276.976 -194.675)" fill="url(#linear-gradient-3)"/>
          </g>
        </g>
        <path id="Trazado_695032" data-name="Trazado 695032" d="M457.724,353.427,577.94,283.641v-1.193L457.724,352.234Z" transform="translate(-151.631 -94.6)" fill="#ff65eb"/>
        <path id="Trazado_695033" data-name="Trazado 695033" d="M276.976,283.643l120.74,69.785v-1.193L276.976,282.45Z" transform="translate(-91.623 -94.6)" fill="#ff20ce"/>
        <path id="Trazado_695034" data-name="Trazado 695034" d="M443.287,124.9l4.771,33.947,5.08,2.933,5.047-2.933,4.188-33.947Z" transform="translate(-146.838 -42.295)" opacity="0.561" fill="url(#linear-gradient-21)" style="mix-blend-mode: overlay;isolation: isolate"/>
        <path id="Trazado_695035" data-name="Trazado 695035" d="M450.43,174.266l5.047-2.933,5.08,2.933L455.51,177.2Z" transform="translate(-149.209 -57.709)" fill="#a5ffff"/>
        <g id="Grupo_920791" data-name="Grupo 920791" transform="translate(238.398 71.497)">
          <path id="Trazado_695042" data-name="Trazado 695042" d="M441.416,198.027a3.5,3.5,0,0,1,3.191,0l49.765,28.92a.978.978,0,0,1,0,1.852l-84.107,48.56a3.523,3.523,0,0,1-3.2,0L357.3,248.435a.976.976,0,0,1,.01-1.849Z" transform="translate(-356.469 -137.941)" fill="url(#linear-gradient-22)"/>
          <path id="Trazado_695043" data-name="Trazado 695043" d="M447.969,209.964a.85.85,0,0,1-.762,0l-3.475-2.019a.234.234,0,0,1,0-.442l3.5-2.019a.845.845,0,0,1,.762,0l3.475,2.019a.234.234,0,0,1,0,.442Zm-1.529.882a.234.234,0,0,0,0-.442l-3.475-2.019a.85.85,0,0,0-.762,0l-3.5,2.019a.234.234,0,0,0,0,.442l3.475,2.019a.845.845,0,0,0,.762,0Zm-5.033,2.906c.216-.125.21-.321,0-.442l-3.475-2.019a.834.834,0,0,0-.762,0l-3.49,2.015c-.216.125-.21.321,0,.441l3.475,2.019a.834.834,0,0,0,.762,0Zm20.047,0a.234.234,0,0,0,0-.441l-3.475-2.019a.846.846,0,0,0-.762,0l-3.5,2.019a.234.234,0,0,0,0,.441l3.474,2.019a.846.846,0,0,0,.762,0ZM444.771,217.6l3.49-2.015c.216-.125.21-.321,0-.442l-3.474-2.019a.834.834,0,0,0-.762,0l-3.49,2.015c-.216.125-.218.325-.01.446L444,217.6A.851.851,0,0,0,444.771,217.6Zm8.184-3.405a.845.845,0,0,0-.762,0l-3.5,2.019a.234.234,0,0,0,0,.442l3.475,2.019a.85.85,0,0,0,.762,0l3.5-2.019a.234.234,0,0,0,0-.442Zm-21.6,5.367a.234.234,0,0,0,0-.442l-3.475-2.019a.846.846,0,0,0-.762,0l-3.5,2.019a.234.234,0,0,0,0,.442l3.474,2.019a.846.846,0,0,0,.762,0Zm3.357,3.847,3.5-2.019a.234.234,0,0,0,0-.441l-3.474-2.019a.846.846,0,0,0-.762,0l-3.5,2.019a.234.234,0,0,0,0,.441l3.474,2.019A.846.846,0,0,0,434.711,223.4Zm-8.383-.945a.234.234,0,0,0,0-.441L422.855,220a.845.845,0,0,0-.762,0l-3.5,2.019a.234.234,0,0,0,0,.441l3.475,2.019a.846.846,0,0,0,.762,0Zm15.781,2.019a.846.846,0,0,0,.762,0l3.5-2.019a.234.234,0,0,0,0-.442L442.9,220a.845.845,0,0,0-.762,0l-3.5,2.019a.234.234,0,0,0,0,.441Zm-16.658-.633a.234.234,0,0,0,0,.442l3.475,2.019a.845.845,0,0,0,.762,0l3.5-2.019a.234.234,0,0,0,0-.442l-3.475-2.019a.845.845,0,0,0-.762,0Zm-4.149,1.516a.234.234,0,0,0,0-.442l-3.475-2.019a.846.846,0,0,0-.762,0l-3.5,2.019a.234.234,0,0,0,0,.442l3.474,2.019a.85.85,0,0,0,.762,0Zm15.781,2.019a.847.847,0,0,0,.762,0l3.5-2.019a.234.234,0,0,0,0-.442l-3.475-2.019a.846.846,0,0,0-.762,0l-3.5,2.019a.234.234,0,0,0,0,.442Zm27.567-.229c-.216.125-.21.321,0,.442l1.039.6a.832.832,0,0,0,.762,0l4.176-2.41a.234.234,0,0,0,0-.442l-1.039-.6a.849.849,0,0,0-.762,0Zm-44.226-.4c-.216.125-.21.321,0,.442l3.475,2.019a.834.834,0,0,0,.762,0l3.49-2.015c.216-.125.21-.321,0-.441l-3.475-2.019a.836.836,0,0,0-.762,0Zm12.419-.945a.85.85,0,0,0-.762,0l-3.5,2.019a.234.234,0,0,0,0,.442l3.475,2.019a.846.846,0,0,0,.762,0l3.5-2.019a.234.234,0,0,0,0-.442ZM415.4,229.649c-.216.125-.21.321,0,.442l3.475,2.019a.832.832,0,0,0,.762,0l3.49-2.015c.216-.125.21-.321,0-.441l-3.475-2.019a.832.832,0,0,0-.762,0Zm26.942.921c.209-.121.217-.317,0-.441l-3.468-2.015a.834.834,0,0,0-.762,0l-3.5,2.019c-.209.12-.217.316,0,.441l3.468,2.015a.834.834,0,0,0,.762,0Zm-31.1.6a.234.234,0,0,0,0-.442l-3.475-2.019a.846.846,0,0,0-.762,0l-3.49,2.015c-.216.125-.217.325-.009.446l3.475,2.019a.848.848,0,0,0,.769,0Zm-.878,1.386a.234.234,0,0,0,0,.442l3.474,2.019a.85.85,0,0,0,.762,0L418.1,233a.234.234,0,0,0,0-.442l-3.475-2.019a.846.846,0,0,0-.762,0Zm22.691,2.935a.834.834,0,0,0,.762,0l3.5-2.019c.21-.12.218-.316,0-.441l-3.468-2.015a.832.832,0,0,0-.762,0l-3.5,2.019c-.209.121-.218.317,0,.441Zm-26.839-1.419a.234.234,0,0,0,0-.442l-3.475-2.019a.845.845,0,0,0-.762,0l-3.5,2.019a.234.234,0,0,0,0,.442l3.475,2.019a.85.85,0,0,0,.762,0Zm16.575-2.465a.849.849,0,0,0-.77,0l-3.49,2.015c-.216.125-.21.321,0,.442L422,236.086a.836.836,0,0,0,.762,0l3.49-2.015c.216-.125.217-.325.009-.446Zm-17.453,3.851a.234.234,0,0,0,0,.442l3.475,2.019a.846.846,0,0,0,.762,0l3.5-2.019a.234.234,0,0,0,0-.442l-3.475-2.019a.849.849,0,0,0-.761,0Zm40.037.033a.233.233,0,0,0,0,.442l3.474,2.019a.834.834,0,0,0,.762,0l4.514-2.607a.234.234,0,0,0,0-.441l-3.475-2.019a.845.845,0,0,0-.762,0Zm-27.618-.979a.847.847,0,0,0-.762,0l-3.49,2.015c-.216.125-.218.325-.01.446l3.475,2.019a.848.848,0,0,0,.769,0l3.49-2.015a.234.234,0,0,0,0-.442Zm22.085,3.294c.209-.121.21-.321,0-.446l-3.468-2.015a.836.836,0,0,0-.762,0l-3.5,2.019c-.209.121-.217.317,0,.442l3.468,2.015a.848.848,0,0,0,.769,0Zm-39.53.554a.234.234,0,0,0,0,.441l3.475,2.019a.845.845,0,0,0,.762,0l3.5-2.019a.234.234,0,0,0,0-.441l-3.475-2.019a.846.846,0,0,0-.762,0Zm-4.148,1.515a.233.233,0,0,0,0-.441l-3.474-2.02a.848.848,0,0,0-.762,0l-3.5,2.019a.234.234,0,0,0,0,.442l3.475,2.019a.846.846,0,0,0,.762,0Zm16.568-2.46a.846.846,0,0,0-.762,0l-3.5,2.019a.234.234,0,0,0,0,.441l3.474,2.019a.846.846,0,0,0,.762,0l3.5-2.019a.234.234,0,0,0,0-.441Zm-13.211,6.307,3.49-2.015c.216-.125.217-.325.009-.446l-3.475-2.019a.848.848,0,0,0-.769,0l-3.49,2.015a.234.234,0,0,0,0,.441l3.475,2.019A.846.846,0,0,0,399.519,243.722Zm-8.391-.941c.216-.125.218-.325.01-.446l-3.475-2.019a.848.848,0,0,0-.769,0l-3.49,2.015c-.216.125-.21.321,0,.441l3.475,2.019a.832.832,0,0,0,.762,0Zm16.575-2.465a.845.845,0,0,0-.762,0l-3.5,2.019a.234.234,0,0,0,0,.442l3.475,2.019a.847.847,0,0,0,.762,0l3.5-2.019a.234.234,0,0,0,0-.442Zm22.085,3.293c.209-.12.21-.321,0-.446l-3.468-2.015a.834.834,0,0,0-.762,0l-3.5,2.019c-.209.12-.217.316,0,.441l3.468,2.015a.848.848,0,0,0,.769,0Zm-39.53.554a.233.233,0,0,0,0,.442l3.475,2.019a.834.834,0,0,0,.762,0l3.49-2.015c.216-.125.21-.321,0-.442l-3.475-2.019a.834.834,0,0,0-.762,0ZM401.89,247.7a.846.846,0,0,0,.762,0l3.5-2.019a.234.234,0,0,0,0-.442l-3.475-2.019a.846.846,0,0,0-.762,0l-3.5,2.019a.234.234,0,0,0,0,.442Zm-4.239-1.578a.848.848,0,0,0-.769,0l-3.49,2.015c-.216.124-.21.32,0,.441l3.475,2.019a.832.832,0,0,0,.762,0l3.491-2.015c.216-.125.217-.325.009-.445Zm22.077,3.3c.216-.125.21-.321,0-.446l-3.468-2.015a.822.822,0,0,0-.762,0L412,248.972c-.216.125-.224.321-.009.446l3.468,2.015a.851.851,0,0,0,.776,0Zm-49.55.554a.233.233,0,0,0,0,.441l3.475,2.019a.845.845,0,0,0,.762,0l6.663-3.847a.234.234,0,0,0,0-.441l-3.475-2.019a.845.845,0,0,0-.762,0Zm21.652,3.535a.85.85,0,0,0,.769,0l3.49-2.015a.234.234,0,0,0,0-.442l-3.475-2.019a.846.846,0,0,0-.762,0l-3.49,2.015c-.216.125-.217.325-.009.446Zm24.46-1.224c-.216.125-.218.325-.009.446l3.474,2.019a.849.849,0,0,0,.77,0l27.548-15.9a.234.234,0,0,0,0-.442l-3.474-2.019a.846.846,0,0,0-.762,0Zm-41.119.591a.234.234,0,0,0,0,.441l3.475,2.019a.85.85,0,0,0,.762,0l3.5-2.019a.234.234,0,0,0,0-.441l-3.474-2.019a.846.846,0,0,0-.762,0Zm22.691,2.935a.832.832,0,0,0,.762,0l3.49-2.015c.216-.125.225-.321.01-.446l-3.468-2.015a.837.837,0,0,0-.77,0l-3.49,2.015c-.209.121-.217.317,0,.442Zm11.813-.587c.209-.121.21-.321,0-.446l-3.468-2.015a.834.834,0,0,0-.762,0l-3.5,2.019c-.209.121-.218.317,0,.442l3.468,2.015a.85.85,0,0,0,.769,0Zm-29.51.553a.234.234,0,0,0,0,.442l3.475,2.019a.844.844,0,0,0,.761,0l6.663-3.847a.234.234,0,0,0,0-.442l-3.474-2.019a.85.85,0,0,0-.762,0Zm30.075,0c-.216.125-.21.321,0,.441l3.475,2.019a.832.832,0,0,0,.762,0l4.514-2.607a.234.234,0,0,0,0-.441l-3.475-2.019a.844.844,0,0,0-.762,0Zm-20.08,5.808c-.209.121-.218.317,0,.442l3.468,2.015a.848.848,0,0,0,.769,0l10.255-5.921c.209-.121.21-.321,0-.446l-3.468-2.015a.836.836,0,0,0-.762,0Zm10.02,0a.234.234,0,0,0,0,.442l3.475,2.019a.846.846,0,0,0,.762,0l3.5-2.019a.234.234,0,0,0,0-.441l-3.475-2.019a.847.847,0,0,0-.762,0Zm56.28-50.737a.234.234,0,0,0,0-.442l-3.475-2.019a.849.849,0,0,0-.762,0l-6.663,3.848c-.216.125-.21.321,0,.441l3.474,2.019a.834.834,0,0,0,.762,0Zm-20.08,5.808a.234.234,0,0,0,0-.442l-3.475-2.019a.845.845,0,0,0-.762,0l-3.5,2.019a.234.234,0,0,0,0,.442l3.475,2.019a.846.846,0,0,0,.762,0Zm3.357,3.847,3.5-2.019a.234.234,0,0,0,0-.441l-3.475-2.019a.847.847,0,0,0-.762,0l-3.5,2.019a.234.234,0,0,0,0,.442l3.475,2.019A.845.845,0,0,0,439.737,220.5Zm26.711-3.851c.209-.121.218-.317,0-.442l-3.468-2.015a.838.838,0,0,0-.762,0l-7.492,4.326c-.209.121-.218.317,0,.442l3.468,2.015a.836.836,0,0,0,.762,0Zm-19.306,4.921a.834.834,0,0,0,.762,0l3.49-2.015c.216-.125.21-.321,0-.442l-3.475-2.019a.834.834,0,0,0-.762,0l-3.49,2.015c-.216.125-.21.321,0,.442Zm10.285.287c.209-.121.218-.317,0-.442l-3.468-2.015a.834.834,0,0,0-.762,0l-3.5,2.019c-.209.12-.217.316,0,.441l3.468,2.015a.832.832,0,0,0,.762,0Zm-.178.991c-.209.121-.218.317,0,.442L460.7,225.3a.845.845,0,0,0,.762,0l9.967-5.753a.234.234,0,0,0,0-.442l-3.453-2.007a.834.834,0,0,0-.762,0Zm-4.856,1.916c.216-.125.217-.317,0-.442l-3.468-2.015a.822.822,0,0,0-.762,0l-3.49,2.015c-.216.125-.218.317,0,.442l3.468,2.015a.822.822,0,0,0,.762,0Zm9.885,1.007c-.216.125-.21.321,0,.442l1.032.6a.836.836,0,0,0,.769,0l4.175-2.41c.21-.121.21-.321,0-.446l-1.032-.6a.85.85,0,0,0-.762,0Zm-3.389,4.687c-.216.125-.21.321,0,.442l1.031.6a.839.839,0,0,0,.77,0l4.175-2.411c.209-.121.21-.321,0-.446l-1.031-.6a.85.85,0,0,0-.762,0Zm11.524-6.637c-.216.124-.21.32,0,.441l1.032.6a.836.836,0,0,0,.769,0l4.175-2.411c.21-.121.21-.321,0-.446l-1.032-.6a.846.846,0,0,0-.762,0Zm-10.48,2.357a.234.234,0,0,0,0-.442l-3.453-2.007a.834.834,0,0,0-.762,0l-3.5,2.019c-.209.121-.217.316,0,.441l3.454,2.007a.846.846,0,0,0,.762,0Zm-12.566,1.486c.209-.121.217-.317,0-.442l-3.468-2.015a.834.834,0,0,0-.762,0l-3.491,2.015c-.216.125-.224.321-.009.446l3.468,2.015a.838.838,0,0,0,.769,0Zm-31.1.6c.216-.125.217-.325.009-.446L412.8,225.8a.85.85,0,0,0-.769,0l-3.49,2.015c-.216.125-.21.321,0,.442l3.475,2.019a.832.832,0,0,0,.762,0Zm34.393,2.844a.85.85,0,0,0,.769,0l3.375-1.949.1-.083a.234.234,0,0,0,0-.442l-3.454-2.007a.834.834,0,0,0-.762,0l-3.5,2.019c-.209.121-.218.317,0,.442ZM427.816,228.7a.845.845,0,0,0-.762,0l-3.5,2.019a.234.234,0,0,0,0,.441l3.475,2.019a.845.845,0,0,0,.762,0l3.5-2.019a.234.234,0,0,0,0-.441Zm17.818,5.309a.835.835,0,0,0,.769,0l3.49-2.015a.237.237,0,0,0,0-.45l-3.468-2.015a.835.835,0,0,0-.77,0l-3.49,2.015c-.216.125-.217.317,0,.442Zm5.79-2.015c-.216.125-.21.321,0,.442l3.475,2.019a.836.836,0,0,0,.762,0l3.461-2c.216-.125.218-.325.01-.446l-3.475-2.019a.848.848,0,0,0-.769,0Zm-6.558,2.906c.216-.125.21-.32,0-.445l-3.468-2.015a.821.821,0,0,0-.762,0l-3.49,2.015c-.216.125-.225.32-.01.445l3.468,2.015a.851.851,0,0,0,.776,0Zm-16.839,3.489a.833.833,0,0,0,.762,0l3.5-2.019c.209-.121.217-.317,0-.442l-3.468-2.015a.836.836,0,0,0-.762,0l-3.5,2.019c-.209.121-.217.317,0,.442Zm-26.84-1.42a.234.234,0,0,0,0-.442l-3.475-2.019a.85.85,0,0,0-.762,0l-3.5,2.019a.234.234,0,0,0,0,.442l3.475,2.019a.845.845,0,0,0,.761,0ZM423,241.295a.836.836,0,0,0,.762,0l3.49-2.015c.216-.125.224-.321.009-.446l-3.468-2.015a.836.836,0,0,0-.769,0l-3.49,2.015c-.209.121-.218.317,0,.442Zm11.813-.587c.209-.121.21-.321,0-.446l-3.468-2.015a.832.832,0,0,0-.762,0l-3.5,2.019c-.209.121-.218.317,0,.442l3.468,2.015a.849.849,0,0,0,.77,0ZM417.968,244.2a.836.836,0,0,0,.769,0l3.49-2.015c.216-.125.218-.316,0-.441l-3.468-2.015a.822.822,0,0,0-.762,0l-3.49,2.015c-.216.125-.224.321-.009.446Zm-5.027,2.9a.836.836,0,0,0,.762,0l3.5-2.019c.209-.121.217-.317,0-.442l-3.468-2.015a.832.832,0,0,0-.762,0l-3.5,2.019c-.209.121-.218.317,0,.442Zm-26.839-1.42a.234.234,0,0,0,0-.442l-3.475-2.019a.85.85,0,0,0-.762,0l-3.49,2.015c-.216.125-.217.325-.009.446l3.474,2.019a.849.849,0,0,0,.77,0Zm38.652.833c.216-.125.218-.325,0-.45l-3.468-2.015a.836.836,0,0,0-.769,0l-3.49,2.015c-.216.125-.218.317,0,.442l3.468,2.015a.837.837,0,0,0,.77,0Zm-35.288,3.01,3.49-2.015a.234.234,0,0,0,0-.442l-3.474-2.019a.846.846,0,0,0-.762,0l-3.49,2.015c-.216.125-.218.325-.009.446l3.474,2.019A.849.849,0,0,0,389.466,249.526Zm18.449.479a.832.832,0,0,0,.762,0l3.5-2.019c.209-.121.218-.317,0-.442l-3.468-2.015a.834.834,0,0,0-.762,0l-3.5,2.019c-.209.121-.217.317,0,.442Zm-24.244,2.427a.845.845,0,0,0,.762,0l3.5-2.019a.234.234,0,0,0,0-.442l-3.475-2.019a.844.844,0,0,0-.761,0l-3.5,2.019a.234.234,0,0,0,0,.442Zm23.478-1.544c.209-.121.217-.317,0-.441l-3.468-2.015a.832.832,0,0,0-.762,0l-3.5,2.019c-.209.12-.218.316,0,.441l3.468,2.015a.834.834,0,0,0,.762,0Zm3.287,3.448a.848.848,0,0,0,.769,0l3.5-2.019c.209-.12.21-.321,0-.446l-3.468-2.015a.834.834,0,0,0-.762,0l-3.5,2.019c-.209.12-.217.316,0,.441Zm-25.269,4.347c-.209.121-.217.317,0,.442l3.468,2.015a.832.832,0,0,0,.762,0l7.695-4.442c.216-.125.217-.317,0-.442l-3.468-2.015a.824.824,0,0,0-.762,0Zm20.047,0c-.216.125-.217.325-.009.446l3.474,2.019a.849.849,0,0,0,.77,0l3.49-2.015a.234.234,0,0,0,0-.442l-3.475-2.019a.846.846,0,0,0-.762,0Zm14.231-1.095a.489.489,0,0,0-.005.925l10.439,6.066a1.767,1.767,0,0,0,1.6,0l18.744-10.789a.488.488,0,0,0,0-.925l-10.438-6.067a1.755,1.755,0,0,0-1.6,0Zm-24.291,6.9a.234.234,0,0,0,0,.441l3.474,2.019a.846.846,0,0,0,.762,0l3.5-2.019a.234.234,0,0,0,0-.441l-3.475-2.019a.846.846,0,0,0-.762,0Z" transform="translate(-360.911 -140.514)" fill="#193164"/>
          <path id="Trazado_695044" data-name="Trazado 695044" d="M441.283,108.6c1.327-.766,2.4-.152,2.409,1.373l.166,58.486L356.55,218.865l-.166-58.485a5.275,5.275,0,0,1,2.393-4.146Z" transform="translate(-356.384 -108.269)" fill="#1a6cbe"/>
          <path id="Trazado_695045" data-name="Trazado 695045" d="M495.034,242.895a1.124,1.124,0,0,1-.665.929l-84.107,48.56a3.523,3.523,0,0,1-3.2,0L357.3,263.459c-.052-.031-.091-.065-.137-.1a1.667,1.667,0,0,1-.163-.121,1.287,1.287,0,0,1-.18-.2l-.025-.036a.949.949,0,0,1-.108-.21c0-.008,0-.016-.007-.024a.777.777,0,0,1-.039-.232l.011,3.683v.019a.649.649,0,0,0,.039.212c0,.008,0,.016.007.024s0,.013.006.019a.85.85,0,0,0,.059.128c.012.021.029.042.043.063l.025.036a.392.392,0,0,0,.023.035,1.325,1.325,0,0,0,.14.15l.015.012a1.928,1.928,0,0,0,.164.121c.037.026.067.055.109.08l.027.017,49.765,28.92a3.522,3.522,0,0,0,3.2,0l84.107-48.559a1.128,1.128,0,0,0,.665-.929Z" transform="translate(-356.469 -152.965)" fill="#1a6cbe"/>
        </g>
        <g id="Grupo_920793" data-name="Grupo 920793" transform="translate(236.464 70.343)">
          <g id="Grupo_920792" data-name="Grupo 920792" transform="translate(5.942 7.008)">
            <path id="Trazado_695046" data-name="Trazado 695046" d="M441.687,117.031l.148,52.039-79.3,45.786-.148-52.039Z" transform="translate(-362.383 -117.031)" fill="#102465"/>
          </g>
          <path id="Trazado_695047" data-name="Trazado 695047" d="M441.692,118.682l0-1.651-79.3,45.786,0,1.651Z" transform="translate(-356.441 -110.023)" fill="#00154f"/>
          <path id="Trazado_695048" data-name="Trazado 695048" d="M440.85,107.791a1.941,1.941,0,0,1,.393-.085l.035,0a1.438,1.438,0,0,1,.386.02l.019,0a1.178,1.178,0,0,1,.347.131L440.1,106.7l-.013-.007a1.161,1.161,0,0,0-.247-.1c-.028-.008-.057-.014-.087-.02l-.019,0-.029-.007a1.458,1.458,0,0,0-.145-.017,1.4,1.4,0,0,0-.159,0c-.017,0-.035,0-.053.005l-.035,0c-.03,0-.059,0-.09.009a1.96,1.96,0,0,0-.211.045c-.03.009-.061.023-.092.032s-.056.019-.084.029-.07.021-.107.036a2.977,2.977,0,0,0-.337.168l-82.506,47.635a3.723,3.723,0,0,0-.452.313c-.047.037-.092.081-.139.122-.071.062-.144.12-.212.187-.031.03-.059.064-.09.1l-.08.086c-.03.033-.062.063-.092.1-.067.077-.132.156-.2.237-.022.029-.042.058-.064.087l-.033.045c-.021.029-.043.056-.063.085-.047.068-.094.138-.139.208s-.084.134-.124.2l-.009.017-.009.016c-.032.055-.064.112-.094.168s-.07.136-.1.2-.059.125-.086.188l0,.01-.005.011c-.031.071-.06.143-.087.215s-.056.151-.081.226c-.013.038-.023.076-.035.114l-.015.049c-.008.027-.017.054-.025.081-.025.092-.048.184-.068.276-.012.056-.019.112-.029.167-.005.029-.011.057-.015.086s-.011.053-.014.08a3.524,3.524,0,0,0-.031.47l.162,56.879a2.8,2.8,0,0,0,1.393,2.415l.545.347-.166-58.485a3.621,3.621,0,0,1,.045-.55c0-.029.009-.057.015-.087a4.456,4.456,0,0,1,.121-.524l.015-.048a5.483,5.483,0,0,1,.209-.567l0-.009a5.886,5.886,0,0,1,.283-.561l.009-.016a5.689,5.689,0,0,1,.335-.513l.033-.044a5.4,5.4,0,0,1,.351-.422l.08-.085c.1-.1.2-.193.3-.283.047-.041.092-.085.14-.123a3.725,3.725,0,0,1,.452-.313l82.506-47.634a2.678,2.678,0,0,1,.444-.2Z" transform="translate(-353.488 -106.541)" fill="url(#linear-gradient-23)"/>
        </g>
        <g id="Grupo_920798" data-name="Grupo 920798" transform="translate(355.427 142.523)">
          <g id="Grupo_920797" data-name="Grupo 920797" transform="translate(0 0.722)">
            <path id="Trazado_695049" data-name="Trazado 695049" d="M543.483,275.416a10.884,10.884,0,0,0-9.874-.007c-2.729,1.587-2.7,4.148.032,5.727a10.863,10.863,0,0,0,9.874-.007C546.232,279.549,546.218,276.995,543.483,275.416Z" transform="translate(-531.577 -235.116)" fill="#1a9bdb"/>
            <g id="Grupo_920796" data-name="Grupo 920796" transform="translate(1.914)">
              <g id="Grupo_920795" data-name="Grupo 920795">
                <path id="Trazado_695050" data-name="Trazado 695050" d="M536.986,281.653s-2.474-1.607-2.54-2,.532-.812.949-.8,2.166.161,2.166.161l.561.636S539.124,282.049,536.986,281.653Z" transform="translate(-534.441 -236.653)" fill="#103450"/>
                <path id="Trazado_695051" data-name="Trazado 695051" d="M545.086,278.626s-2.474-1.607-2.541-2,.532-.812.949-.8,2.166.161,2.166.161l.561.636S547.224,279.022,545.086,278.626Z" transform="translate(-537.13 -235.648)" fill="#103450"/>
                <path id="Trazado_695052" data-name="Trazado 695052" d="M537,248.687l-.072,20.348a2.5,2.5,0,0,0,2.431-.053s2.3-17.578,2.342-18c.036-.385.325,16.047.325,16.047a2.134,2.134,0,0,0,2.514-.293l1.281-19.467Z" transform="translate(-535.267 -226.167)" fill="#103450"/>
                <path id="Trazado_695053" data-name="Trazado 695053" d="M548.4,236.028l.138,3.578s2.808-1.482,2.735-3.651c-.016-.491-.945-3.6-1.149-4.389C549.181,232.078,549.124,235.269,548.4,236.028Z" transform="translate(-539.075 -220.952)" fill="#ffc6a0"/>
                <path id="Trazado_695054" data-name="Trazado 695054" d="M538.882,226.238a6.42,6.42,0,0,0-2.389,1.331l.362,13.872s1.752,1.282,5.332.345c2.917-.763,3.683-1.991,3.683-1.991s-.066-6.43-.34-9.244a21.63,21.63,0,0,0-1.084-4.972,8.354,8.354,0,0,0-2.04-.112Z" transform="translate(-535.123 -218.922)" fill="#fdf7fb"/>
                <path id="Trazado_695055" data-name="Trazado 695055" d="M543,222.146l.08-2.711a.633.633,0,0,0,.565-.8c-.117-.747-.816-.256-.939-.036,0,0-.157-2.572-1.52-2.82s-1.928-.05-1.963.614-.079,2.983,0,3.845,0,1.31,1.243,1.275l.108.9s.564.526,2.309.1Z" transform="translate(-536.016 -215.677)" fill="#ffc6a0"/>
              </g>
            </g>
          </g>
          <path id="Trazado_695056" data-name="Trazado 695056" d="M540.069,226.032c.009-.53.094-.818,1.325-.959s2.232-.47,2.357,0-.124.762-1.356.867S540.069,226.032,540.069,226.032Z" transform="translate(-534.396 -217.994)" fill="#fff"/>
          <path id="Trazado_695057" data-name="Trazado 695057" d="M541.267,218.354a.407.407,0,0,0-.236-.545.452.452,0,0,0-.462.194,3.679,3.679,0,0,0-.449.924c-.125-.108-.255-.211-.386-.312l.016-.245a1.967,1.967,0,0,0-.021-.6c-.1-.414-.535-.479-.743-.789a1.319,1.319,0,0,1,.106-1.409,2.29,2.29,0,0,1,1.206-.848c1.623-.532,4.054.661,3.582,2.636-.271,1.135-.668,2.234-.963,3.363-.039.148-.376.206-.522.161a1.068,1.068,0,0,1-.38-.25,6.016,6.016,0,0,1-1.3-1.708C540.745,218.989,541.241,218.441,541.267,218.354Z" transform="translate(-533.984 -214.596)" fill="#103450"/>
        </g>
        <path id="Trazado_695058" data-name="Trazado 695058" d="M536.412,249.11a.39.39,0,0,0,.331.345c.2,0,.329-.2.417-.381l.168-.339a.548.548,0,0,0,.081-.294c-.011-.1-.073-.186-.078-.285-.008-.192.2-.325.251-.509.064-.219-.1-.434-.251-.6a1.724,1.724,0,0,0-.342-.319c-.524-.334-1,.262-.894.773.045.23.2.436.265.661A7.875,7.875,0,0,1,536.412,249.11Z" transform="translate(-177.646 -82.706)" fill="#ffc6a0"/>
        <path id="Trazado_695059" data-name="Trazado 695059" d="M534.948,242.7s-3.023-4.637-3.107-5.675,2.5-6.477,2.5-6.477l1.991,2.215-2.244,4.037,1.271,4.494Z" transform="translate(-176.236 -77.37)" fill="#ffc6a0"/>
        <path id="Trazado_695060" data-name="Trazado 695060" d="M536.11,234.587a6.9,6.9,0,0,0,.488-1.693,6.725,6.725,0,0,0-1.24-4.273c-.568.256-1.475,2.147-2.284,4.239C534.061,233.481,535.075,234.052,536.11,234.587Z" transform="translate(-176.647 -76.729)" fill="#fdf7fb"/>
        <path id="Trazado_695061" data-name="Trazado 695061" d="M550.7,230.225c-.767-2.222-1.774-4.4-2.3-4.581l.223,5.789C549.291,231,550.007,230.617,550.7,230.225Z" transform="translate(-181.735 -75.74)" fill="#fdf7fb"/>
        <g id="Grupo_920801" data-name="Grupo 920801" transform="translate(250.065 94.703)" style="isolation: isolate">
          <g id="Grupo_920800" data-name="Grupo 920800">
            <path id="Trazado_695062" data-name="Trazado 695062" d="M376.193,187.4a5.162,5.162,0,0,0-2.343,4.059c0,1.492,1.059,2.1,2.358,1.349a5.182,5.182,0,0,0,2.349-4.067c0-1.492-1.065-2.091-2.364-1.341" transform="translate(-373.85 -157.639)" fill="#00edf9"/>
            <path id="Trazado_695063" data-name="Trazado 695063" d="M407.745,164.223l-23.286,13.444a1.108,1.108,0,0,0-.5.869v.093c0,.318.228.448.505.288l23.286-13.445a1.1,1.1,0,0,0,.5-.869v-.093c0-.318-.223-.45-.505-.287" transform="translate(-377.206 -150.028)" fill="#fdf7fb"/>
            <path id="Trazado_695064" data-name="Trazado 695064" d="M390.235,184.036l-5.764,3.327a1.112,1.112,0,0,0-.5.869v.087c0,.324.228.454.505.294l5.764-3.328a1.113,1.113,0,0,0,.5-.874v-.087c0-.319-.228-.448-.505-.288" transform="translate(-377.21 -156.607)" fill="#fdf7fb"/>
            <path id="Trazado_695065" data-name="Trazado 695065" d="M411.634,168.919l-15.343,8.859a1.2,1.2,0,0,0-.542.939c0,.341.249.482.546.311l15.343-8.858a1.194,1.194,0,0,0,.536-.936c0-.347-.243-.485-.54-.314" transform="translate(-381.12 -151.586)" fill="#fdf7fb"/>
            <path id="Trazado_695066" data-name="Trazado 695066" d="M387.626,190.959l-3.1,1.79a1.2,1.2,0,0,0-.542.939c0,.347.244.486.546.311l3.1-1.79a1.19,1.19,0,0,0,.537-.936c0-.341-.244-.485-.541-.314" transform="translate(-377.214 -158.904)" fill="#fdf7fb"/>
            <path id="Trazado_695067" data-name="Trazado 695067" d="M376.245,205.757a5.163,5.163,0,0,0-2.343,4.059c0,1.492,1.059,2.094,2.358,1.344a5.172,5.172,0,0,0,2.349-4.061c0-1.492-1.065-2.091-2.364-1.341" transform="translate(-373.867 -163.734)" fill="#00edf9"/>
            <path id="Trazado_695068" data-name="Trazado 695068" d="M407.8,182.58l-23.286,13.445a1.106,1.106,0,0,0-.5.869v.092c0,.318.228.448.505.288L407.8,183.829a1.1,1.1,0,0,0,.5-.869v-.092c0-.318-.223-.451-.505-.288" transform="translate(-377.223 -156.123)" fill="#fdf7fb"/>
            <path id="Trazado_695069" data-name="Trazado 695069" d="M390.287,202.392l-5.763,3.328a1.1,1.1,0,0,0-.5.869v.087c0,.324.228.448.505.288l5.764-3.328a1.1,1.1,0,0,0,.5-.869v-.087c0-.324-.228-.448-.506-.288" transform="translate(-377.227 -162.701)" fill="#fdf7fb"/>
            <path id="Trazado_695070" data-name="Trazado 695070" d="M411.686,187.276l-15.343,8.858a1.2,1.2,0,0,0-.542.933c0,.347.248.482.546.311l15.343-8.859a1.186,1.186,0,0,0,.537-.935c0-.341-.244-.48-.54-.308" transform="translate(-381.137 -157.681)" fill="#fdf7fb"/>
            <path id="Trazado_695071" data-name="Trazado 695071" d="M387.678,209.317l-3.1,1.79a1.2,1.2,0,0,0-.542.939c0,.347.244.485.546.311l3.1-1.79a1.189,1.189,0,0,0,.537-.936c0-.341-.244-.485-.541-.313" transform="translate(-377.231 -164.998)" fill="#fdf7fb"/>
            <path id="Trazado_695072" data-name="Trazado 695072" d="M376.3,224.115a5.16,5.16,0,0,0-2.343,4.059c0,1.492,1.059,2.094,2.358,1.344a5.173,5.173,0,0,0,2.349-4.061c0-1.492-1.065-2.092-2.363-1.341" transform="translate(-373.884 -169.828)" fill="#00edf9"/>
            <path id="Trazado_695073" data-name="Trazado 695073" d="M407.849,200.937l-23.286,13.445a1.108,1.108,0,0,0-.5.869v.092c0,.319.228.448.5.288l23.287-13.444a1.1,1.1,0,0,0,.5-.869v-.093c0-.318-.223-.45-.505-.288" transform="translate(-377.24 -162.217)" fill="#fdf7fb"/>
            <path id="Trazado_695074" data-name="Trazado 695074" d="M390.339,220.742l-5.764,3.328a1.112,1.112,0,0,0-.5.874v.087c0,.324.228.448.505.288l5.764-3.328a1.1,1.1,0,0,0,.5-.869v-.086c0-.325-.228-.454-.506-.294" transform="translate(-377.244 -168.793)" fill="#fdf7fb"/>
            <path id="Trazado_695075" data-name="Trazado 695075" d="M411.738,205.625l-15.343,8.859a1.206,1.206,0,0,0-.542.939c0,.347.248.482.546.311l15.343-8.858a1.187,1.187,0,0,0,.537-.936c0-.341-.244-.485-.54-.314" transform="translate(-381.155 -163.773)" fill="#fdf7fb"/>
            <path id="Trazado_695076" data-name="Trazado 695076" d="M387.73,227.673l-3.1,1.79a1.188,1.188,0,0,0-.542.939c0,.347.244.485.546.311l3.1-1.791a1.188,1.188,0,0,0,.537-.935c0-.347-.244-.486-.54-.314" transform="translate(-377.249 -171.092)" fill="#fdf7fb"/>
            <path id="Trazado_695077" data-name="Trazado 695077" d="M451.422,144.918l.014,5.015c5.281-3.049,9.573-.6,9.59,5.466l4.364-2.52c-.025-8.833-6.277-12.4-13.969-7.961" transform="translate(-399.604 -143.008)" fill="#00edf9"/>
            <path id="Trazado_695078" data-name="Trazado 695078" d="M444.524,145.867c-7.692,4.441-13.9,15.206-13.878,24.038.012,4.419,1.579,7.524,4.11,8.966l3.075-5.333c-1.737-.984-2.812-3.116-2.821-6.152-.017-6.062,4.248-13.455,9.528-16.5l-.014-5.015" transform="translate(-392.706 -143.957)" fill="#fdf7fb"/>
            <path id="Trazado_695079" data-name="Trazado 695079" d="M460.535,157.784l-4.364,2.52c.017,6.067-4.248,13.461-9.528,16.509-2.643,1.526-5.032,1.672-6.77.681l-3.075,5.333c2.525,1.439,6.013,1.221,9.86-1,7.691-4.441,13.9-15.206,13.878-24.044" transform="translate(-394.749 -147.914)" fill="#ff20ce"/>
            <path id="Trazado_695080" data-name="Trazado 695080" d="M407.263,219.32l-25.331,14.625a1.1,1.1,0,0,0-.5.869v.092c0,.318.223.451.505.288l25.331-14.625a1.112,1.112,0,0,0,.507-.872V219.6c0-.318-.228-.448-.51-.285" transform="translate(-376.367 -168.32)" fill="#fdf7fb"/>
            <path id="Trazado_695081" data-name="Trazado 695081" d="M375.474,244.664l-.971.561a1.109,1.109,0,0,0-.5.869v.092c0,.318.228.448.5.288l.971-.561a1.107,1.107,0,0,0,.5-.869v-.092c0-.319-.228-.448-.505-.288" transform="translate(-373.9 -176.735)" fill="#ff20ce"/>
            <path id="Trazado_695082" data-name="Trazado 695082" d="M457.7,190.2l-25.33,14.625a1.113,1.113,0,0,0-.507.872v.093c0,.318.228.448.51.285L457.7,191.449a1.1,1.1,0,0,0,.5-.869v-.092c0-.318-.223-.451-.505-.288" transform="translate(-393.109 -158.653)" fill="#fdf7fb"/>
            <path id="Trazado_695083" data-name="Trazado 695083" d="M425.905,215.548l-.967.558a1.1,1.1,0,0,0-.5.869v.092c0,.319.223.451.505.288l.966-.558a1.1,1.1,0,0,0,.5-.869v-.093c0-.318-.223-.45-.5-.287" transform="translate(-390.645 -167.068)" fill="#ff20ce"/>
          </g>
        </g>
        <g id="Grupo_920809" data-name="Grupo 920809" transform="translate(243.974 242.637)">
          <path id="Trazado_695096" data-name="Trazado 695096" d="M411.953,416.715V391.758l-47.221-27.293v24.957Z" transform="translate(-364.731 -364.466)" fill="url(#linear-gradient-24)"/>
          <path id="Trazado_695097" data-name="Trazado 695097" d="M364.847,364.566l-.116.067v24.823l21.59-12.479Z" transform="translate(-364.731 -364.499)" fill="url(#linear-gradient-25)"/>
        </g>
        <g id="Grupo_920810" data-name="Grupo 920810" transform="translate(243.974 279.807)">
          <path id="Trazado_695098" data-name="Trazado 695098" d="M411.953,472.358V447.4l-47.221-27.293v24.957Z" transform="translate(-364.731 -420.109)" fill="url(#linear-gradient-24)"/>
          <path id="Trazado_695099" data-name="Trazado 695099" d="M364.847,420.209l-.116.067V445.1l21.59-12.479Z" transform="translate(-364.731 -420.142)" fill="url(#linear-gradient-25)"/>
        </g>
        <g id="Grupo_920811" data-name="Grupo 920811" transform="translate(243.974 316.977)">
          <path id="Trazado_695100" data-name="Trazado 695100" d="M411.953,528V503.045l-47.221-27.293v24.957Z" transform="translate(-364.731 -475.752)" fill="url(#linear-gradient-24)"/>
          <path id="Trazado_695101" data-name="Trazado 695101" d="M364.847,475.852l-.116.067v24.823l21.59-12.479Z" transform="translate(-364.731 -475.785)" fill="url(#linear-gradient-25)"/>
        </g>
        <g id="Grupo_920818" data-name="Grupo 920818" transform="translate(62.507 159.642)" style="isolation: isolate">
          <g id="Grupo_920817" data-name="Grupo 920817">
            <path id="Trazado_695112" data-name="Trazado 695112" d="M160.095,259.632l-33.437,19.41-33.583-19.41,33.583-19.41Z" transform="translate(-93.075 -240.222)" fill="url(#linear-gradient)"/>
          </g>
          <path id="Trazado_695113" data-name="Trazado 695113" d="M176.786,269.279V445.767l-33.437,19.41V288.689Z" transform="translate(-109.766 -249.869)" fill="url(#linear-gradient-2)"/>
          <path id="Trazado_695114" data-name="Trazado 695114" d="M126.658,288.689V465.177l-33.583-19.41V269.279Z" transform="translate(-93.075 -249.869)" fill="url(#linear-gradient-3)"/>
        </g>
        <path id="Trazado_695115" data-name="Trazado 695115" d="M143.348,294.5l33.437-19.41v-.807l-33.437,19.41Z" transform="translate(-47.259 -91.889)" fill="#ff65eb"/>
        <path id="Trazado_695116" data-name="Trazado 695116" d="M93.075,275.09l33.583,19.41v-.807l-33.583-19.41Z" transform="translate(-30.568 -91.889)" fill="#ff20ce"/>
        <path id="Trazado_695123" data-name="Trazado 695123" d="M119.509,314.012l-9.4-5.432v103.36l9.4,5.432Z" transform="translate(-36.224 -103.275)" fill="url(#linear-gradient-33)"/>
        <path id="Trazado_695124" data-name="Trazado 695124" d="M110.111,460.612l9.4,5.432V455.18Z" transform="translate(-36.225 -151.947)" fill="url(#linear-gradient-34)"/>
        <path id="Trazado_695125" data-name="Trazado 695125" d="M126.658,288.689l-33.583-19.41V445.767l33.583,19.41,33.437-19.41V269.279Z" transform="translate(-30.568 -90.228)" fill="url(#linear-gradient-35)"/>
        <g id="Grupo_920829" data-name="Grupo 920829" transform="translate(433.56 87.865)">
          <g id="Grupo_920828" data-name="Grupo 920828" style="isolation: isolate">
            <g id="Grupo_920827" data-name="Grupo 920827">
              <path id="Trazado_695126" data-name="Trazado 695126" d="M684,143.04l-17.688,10.268-17.765-10.268,17.765-10.268Z" transform="translate(-648.542 -132.773)" fill="url(#linear-gradient)"/>
            </g>
            <path id="Trazado_695127" data-name="Trazado 695127" d="M692.825,148.144v156.44l-17.688,10.268V158.412Z" transform="translate(-657.372 -137.876)" fill="url(#linear-gradient-2)"/>
            <path id="Trazado_695128" data-name="Trazado 695128" d="M666.308,158.412v156.44l-17.765-10.268V148.144Z" transform="translate(-648.542 -137.876)" fill="url(#linear-gradient-3)"/>
          </g>
        </g>
        <path id="Trazado_695129" data-name="Trazado 695129" d="M675.137,161.485l17.688-10.268v-.427l-17.688,10.268Z" transform="translate(-223.813 -50.89)" fill="#ff65eb"/>
        <path id="Trazado_695130" data-name="Trazado 695130" d="M648.542,151.217l17.765,10.268v-.427l-17.765-10.268Z" transform="translate(-214.983 -50.89)" fill="#ff20ce"/>
        <path id="Trazado_695137" data-name="Trazado 695137" d="M655.53,122.8l-6.987,4.039v156.44l17.765,10.268L684,283.282V126.843Z" transform="translate(-214.983 -28.71)" fill="url(#linear-gradient-39)"/>
        <g id="Grupo_920846" data-name="Grupo 920846" transform="translate(339.534 223.569)">
          <g id="Grupo_920845" data-name="Grupo 920845" style="isolation: isolate">
            <g id="Grupo_920844" data-name="Grupo 920844">
              <path id="Trazado_695149" data-name="Trazado 695149" d="M654.144,378.309,581.124,420.7,507.786,378.31l73.338-42.388Z" transform="translate(-507.786 -335.921)" fill="url(#linear-gradient)"/>
            </g>
            <path id="Trazado_695150" data-name="Trazado 695150" d="M690.594,399.376V504.206l-73.02,42.388V441.764Z" transform="translate(-544.236 -356.988)" fill="url(#linear-gradient-2)"/>
            <path id="Trazado_695151" data-name="Trazado 695151" d="M581.124,441.765V546.6l-73.338-42.388V399.377Z" transform="translate(-507.786 -356.988)" fill="url(#linear-gradient-3)"/>
          </g>
        </g>
        <path id="Trazado_695152" data-name="Trazado 695152" d="M617.574,453.785l73.02-42.388V410.3l-73.02,42.388Z" transform="translate(-204.701 -137.047)" fill="#ff65eb"/>
        <path id="Trazado_695153" data-name="Trazado 695153" d="M507.786,411.4l73.338,42.388v-1.094L507.786,410.3Z" transform="translate(-168.252 -137.047)" fill="#ff20ce"/>
        <g id="Grupo_920851" data-name="Grupo 920851" transform="translate(372.585 239.812)" style="isolation: isolate">
          <path id="Trazado_695154" data-name="Trazado 695154" d="M632.913,382.738c-.005.055-.009.112-.019.167s-.021.09-.033.134-.027.106-.045.158-.035.085-.053.128-.048.111-.077.165-.047.078-.071.117c-.038.062-.079.124-.124.184-.027.036-.055.071-.085.106a2.989,2.989,0,0,1-.224.24c-.029.029-.055.057-.087.086-.05.045-.106.089-.161.133s-.1.079-.148.117-.124.084-.188.126-.13.087-.2.13l-44.572,25.9a8.222,8.222,0,0,1-7.456,0l-20.54-11.858a2.638,2.638,0,0,1-1.555-2.175l-.008,2.723a2.638,2.638,0,0,0,1.556,2.174l20.54,11.859a8.222,8.222,0,0,0,7.456,0l44.572-25.9.064-.038c.049-.029.091-.061.137-.091.064-.041.129-.083.188-.126s.1-.078.148-.117.11-.088.161-.133l.032-.027c.021-.019.035-.04.055-.059a3.1,3.1,0,0,0,.223-.24c.015-.017.035-.034.049-.052s.023-.037.037-.054c.045-.061.085-.122.124-.184.016-.026.037-.051.052-.077s.012-.027.019-.041c.029-.054.053-.109.077-.164.014-.032.033-.063.045-.1,0-.011.006-.022.01-.033.018-.052.031-.1.045-.158.009-.035.023-.07.031-.106,0-.009,0-.019,0-.029.01-.055.014-.111.019-.166,0-.036.011-.072.012-.108,0-.015,0-.031,0-.047l.008-2.722C632.926,382.635,632.918,382.686,632.913,382.738Z" transform="translate(-557.264 -367.656)" fill="#162a56"/>
          <g id="Grupo_920848" data-name="Grupo 920848" transform="translate(0.008)">
            <path id="Trazado_695155" data-name="Trazado 695155" d="M631.375,372.99c2.064,1.192,2.075,3.128.025,4.319l-44.572,25.9a8.222,8.222,0,0,1-7.456,0l-20.54-11.858c-2.064-1.192-2.075-3.128-.024-4.319l44.571-25.9a8.223,8.223,0,0,1,7.457,0Zm-45.618,29.6,44.572-25.9c1.462-.85,1.454-2.234-.017-3.083l-1.851-1.068-2.792.076-14.168-8.18.123-1.617-1.851-1.069a5.876,5.876,0,0,0-5.323,0l-44.572,25.9c-1.462.85-1.454,2.234.017,3.083l20.54,11.859a5.874,5.874,0,0,0,5.322,0" transform="translate(-557.276 -360.237)" fill="url(#linear-gradient-43)"/>
          </g>
          <g id="Grupo_920849" data-name="Grupo 920849" transform="translate(1.518 0.875)">
            <path id="Trazado_695156" data-name="Trazado 695156" d="M631.062,374.043c1.472.85,1.48,2.234.017,3.084l-44.572,25.9a5.874,5.874,0,0,1-5.322,0l-20.54-11.859c-1.471-.849-1.479-2.233-.017-3.083l44.572-25.9a5.876,5.876,0,0,1,5.323,0l1.851,1.069-.123,1.617,14.168,8.18,2.792-.076Z" transform="translate(-559.537 -361.547)" fill="#165da4"/>
          </g>
          <g id="Grupo_920850" data-name="Grupo 920850" transform="translate(1.518 0.875)">
            <path id="Trazado_695157" data-name="Trazado 695157" d="M631.062,374.043c1.472.85,1.48,2.234.017,3.084l-44.572,25.9a5.874,5.874,0,0,1-5.322,0l-20.54-11.859c-1.471-.849-1.479-2.233-.017-3.083l44.572-25.9a5.876,5.876,0,0,1,5.323,0l1.851,1.069-.123,1.617,14.168,8.18,2.792-.076Z" transform="translate(-559.537 -361.547)" fill="#165da4"/>
          </g>
        </g>
        <g id="Grupo_920853" data-name="Grupo 920853" transform="translate(378.354 248.928)" opacity="0.3" style="mix-blend-mode: multiply;isolation: isolate">
          <path id="Trazado_695158" data-name="Trazado 695158" d="M577.129,375c2.578,1.489,2.592,3.9.03,5.387a10.243,10.243,0,0,1-9.311.007c-2.579-1.489-2.6-3.9-.031-5.4A10.265,10.265,0,0,1,577.129,375Z" transform="translate(-565.901 -373.883)" fill="#1a9bdb"/>
        </g>
        <g id="Grupo_920855" data-name="Grupo 920855" transform="translate(378.837 210.074)">
          <g id="Grupo_920854" data-name="Grupo 920854">
            <path id="Trazado_695159" data-name="Trazado 695159" d="M569.694,377.275s-.372.046-.442.19a10.143,10.143,0,0,0-.1,1.54,9.553,9.553,0,0,0,1.9,1.432c.916.47,1.707.675,2.061.365s.136-.665-.619-1.277a7.81,7.81,0,0,1-1.481-2.25Z" transform="translate(-567.462 -336.156)" fill="#103450"/>
            <path id="Trazado_695160" data-name="Trazado 695160" d="M576.9,374.375s-.371.047-.441.19a10.23,10.23,0,0,0-.1,1.54,9.551,9.551,0,0,0,1.9,1.432c.916.47,1.707.675,2.061.366s.135-.665-.619-1.277a7.8,7.8,0,0,1-1.481-2.25Z" transform="translate(-569.855 -335.193)" fill="#103450"/>
            <path id="Trazado_695161" data-name="Trazado 695161" d="M580.906,342.873s-.028.489-.047.582a5.906,5.906,0,0,0-.447.918.543.543,0,0,0,.214.375,2.852,2.852,0,0,0,.053.549c.045.092.463.033.509.057s.314.194.492.119a6.633,6.633,0,0,0,.734-.293,9.566,9.566,0,0,0-.114-2.747c-.075-.39-.422-9.407-.63-9.34C581.258,333.227,580.906,342.873,580.906,342.873Z" transform="translate(-571.2 -321.487)" fill="#ffc6a0"/>
            <path id="Trazado_695162" data-name="Trazado 695162" d="M581.883,332.049c-.185-.892-.412-1.927-.607-2.641-.411-1.5-.709-2.669-1.586-2.694l-.3,5.095s.094.769.255,1.64A16.306,16.306,0,0,0,581.883,332.049Z" transform="translate(-570.861 -319.369)" fill="#fff"/>
            <path id="Trazado_695163" data-name="Trazado 695163" d="M569.089,348.445l-.068,19.189a2.357,2.357,0,0,0,2.293-.05s2.172-16.576,2.208-16.971c.034-.363.307,15.134.307,15.134a2.014,2.014,0,0,0,2.371-.277l1.208-18.359Z" transform="translate(-567.418 -326.141)" fill="#103450"/>
            <path id="Trazado_695164" data-name="Trazado 695164" d="M570.641,327.273a10.653,10.653,0,0,0-2.7,1.568l.791,12.77s1.652,1.208,5.028.325c2.751-.72,3.474-1.878,3.474-1.878s.251-6.275-.007-8.929a11.843,11.843,0,0,0-1.336-4.476,7.857,7.857,0,0,0-1.924-.106Z" transform="translate(-567.059 -319.309)" fill="#fff"/>
            <path id="Trazado_695165" data-name="Trazado 695165" d="M575.228,315.9a3.579,3.579,0,0,0-1.722-.141,2.435,2.435,0,0,0-2.424,2.008,5.272,5.272,0,0,0,.6,2.848c.511,1.164.866.742.866.742l2.957-1.192a3.3,3.3,0,0,0,.91-.39c.361-.317.243-.858.309-1.283a2.147,2.147,0,0,0-.137-1.576,2.364,2.364,0,0,0-1.1-.915C575.394,315.963,575.31,315.93,575.228,315.9Z" transform="translate(-568.091 -315.719)" fill="#103450"/>
            <path id="Trazado_695166" data-name="Trazado 695166" d="M572.507,323.694l-.076-2.557a.6.6,0,0,1-.533-.754c.111-.7.77-.241.886-.034,0,0,.148-2.426,1.434-2.659s2.531.043,2.564.669.074,2.813,0,3.626-.711,1.146-1.885,1.113l.08,1.315s-.589.432-2.233.031Z" transform="translate(-568.369 -316.346)" fill="#ffc6a0"/>
            <path id="Trazado_695167" data-name="Trazado 695167" d="M574.945,326.232a.884.884,0,0,1,.313.046,1.567,1.567,0,0,1,.569,1.038,3.706,3.706,0,0,1-.2,1.112l-1.065-.96-.669,1.293a2.728,2.728,0,0,1-.991-.514,3.737,3.737,0,0,1-.918-1.073c.184-.468.309-.746.309-.746.043-.107.246-.157.246-.157a4.435,4.435,0,0,0,2.023,1.079S574.88,327.2,574.945,326.232Z" transform="translate(-568.402 -319.209)" fill="#fff"/>
            <path id="Trazado_695168" data-name="Trazado 695168" d="M568.388,345.714s.126.473.164.56.573.611.623.81a.543.543,0,0,1-.134.411,2.832,2.832,0,0,1,.059.548c-.025.1-.446.126-.486.158s-.269.253-.458.216a6.549,6.549,0,0,1-.779-.139,9.57,9.57,0,0,1-.442-2.713c-.005-.444.148-9.3.148-9.3.123.029,1.932.723,1.932.723Z" transform="translate(-566.726 -322.539)" fill="#ffc6a0"/>
            <path id="Trazado_695169" data-name="Trazado 695169" d="M569.018,335.455c.024-1.122.069-2.342.055-2.638-.049-1-.048-3.83-1.571-2.916-.615.369-.753,3.107-.88,4.953A4.652,4.652,0,0,0,569.018,335.455Z" transform="translate(-566.622 -320.368)" fill="#fff"/>
          </g>
        </g>
        <path id="Trazado_695170" data-name="Trazado 695170" d="M577.581,318.311a.906.906,0,0,0-.07-.9,1.711,1.711,0,0,0-.721-.589c-.7-.34-2.671-.711-2.725.51-.027.609.5,1.621,1.226,1.495.312-.055.5-.347.84-.25.172.049.638.487.659.019A.64.64,0,0,0,577.581,318.311Z" transform="translate(-190.257 -105.901)" fill="#103450"/>
        <path id="Trazado_695171" data-name="Trazado 695171" d="M572.606,319.852a1.87,1.87,0,0,1,.657,1.216l.245.006c-.012-.324.012-.612,0-.936a2.236,2.236,0,0,0,.521-1.917c-.059-.275-.224-.58-.5-.6s-.5.249-.618.506A3.225,3.225,0,0,0,572.606,319.852Z" transform="translate(-189.766 -106.274)" fill="#103450"/>
        <g id="Grupo_920863" data-name="Grupo 920863" transform="translate(115.239 224.322)">
          <g id="Grupo_920862" data-name="Grupo 920862" style="isolation: isolate">
            <g id="Grupo_920861" data-name="Grupo 920861">
              <path id="Trazado_695189" data-name="Trazado 695189" d="M266.253,364.342l-47.016,27.293-47.221-27.293,47.221-27.293Z" transform="translate(-172.015 -337.05)" fill="url(#linear-gradient)"/>
            </g>
            <path id="Trazado_695190" data-name="Trazado 695190" d="M289.722,377.907V481.268l-47.016,27.293V405.2Z" transform="translate(-195.484 -350.614)" fill="url(#linear-gradient-2)"/>
            <path id="Trazado_695191" data-name="Trazado 695191" d="M219.236,405.2v103.36l-47.221-27.293V377.908Z" transform="translate(-172.015 -350.614)" fill="url(#linear-gradient-3)"/>
          </g>
        </g>
        <path id="Trazado_695192" data-name="Trazado 695192" d="M242.705,413.37l47.016-27.293v-1.134l-47.016,27.293Z" transform="translate(-80.245 -128.628)" fill="#ff65eb"/>
        <path id="Trazado_695193" data-name="Trazado 695193" d="M172.015,386.078l47.221,27.293v-1.134l-47.221-27.293Z" transform="translate(-56.775 -128.628)" fill="#ff20ce"/>
        <path id="Trazado_695194" data-name="Trazado 695194" d="M266.44,392.7a10.881,10.881,0,0,0-9.874-.007c-2.729,1.586-2.7,4.147.032,5.726a10.863,10.863,0,0,0,9.874-.007C269.189,396.834,269.175,394.28,266.44,392.7Z" transform="translate(-84.172 -130.81)" fill="#1a9bdb" opacity="0.4" style="mix-blend-mode: multiply;isolation: isolate"/>
        <path id="Trazado_695195" data-name="Trazado 695195" d="M272.329,419.28s-.357.045-.424.182a9.78,9.78,0,0,0-.1,1.478,9.206,9.206,0,0,0,1.82,1.375c.879.451,1.639.647,1.979.351s.13-.638-.594-1.226a7.47,7.47,0,0,1-1.422-2.161Z" transform="translate(-89.907 -140.027)" fill="#103450"/>
        <path id="Trazado_695196" data-name="Trazado 695196" d="M274.779,413.873s-.357-.047-.456.069a9.813,9.813,0,0,0-.469,1.4,9.179,9.179,0,0,0,1.411,1.793c.735.66,1.421,1.043,1.825.842s.287-.585-.263-1.337a7.5,7.5,0,0,1-.826-2.452Z" transform="translate(-90.587 -138.229)" fill="#103450"/>
        <path id="Trazado_695197" data-name="Trazado 695197" d="M257.75,391.8c-.027,1.672.188,4.328,1.051,4.92,1.315.9,6.716,5.051,6.716,5.051l1.47,8.534a1.842,1.842,0,0,0,2.34,0s-.958-9.6-1.165-10.439-5.2-6.267-5.2-6.267Z" transform="translate(-85.239 -130.905)" fill="#103450"/>
        <path id="Trazado_695198" data-name="Trazado 695198" d="M264.288,390.488c-.452,1.61-.766,3.516-.034,4.265.792.811,8.984,3.254,8.984,3.254l-2.426,8.16a1.843,1.843,0,0,0,2.264.595s4.369-9.323,4.383-10.19-8.247-4.868-8.247-4.868Z" transform="translate(-87.255 -130.469)" fill="#103450"/>
        <g id="Grupo_920873" data-name="Grupo 920873" transform="translate(176.191 258.474)">
          <g id="Grupo_920871" data-name="Grupo 920871">
            <g id="Grupo_920870" data-name="Grupo 920870" style="isolation: isolate">
              <g id="Grupo_920865" data-name="Grupo 920865" transform="translate(5.994 4.949)">
                <path id="Trazado_695199" data-name="Trazado 695199" d="M280.251,395.667l-8.017,4.659a.093.093,0,0,0,.039-.085l8.017-4.659A.093.093,0,0,1,280.251,395.667Z" transform="translate(-272.234 -395.582)" fill="#011c63"/>
              </g>
              <g id="Grupo_920866" data-name="Grupo 920866" transform="translate(6.033 4.775)">
                <path id="Trazado_695200" data-name="Trazado 695200" d="M272.294,399.982l8.017-4.659v.173l-8.017,4.659Z" transform="translate(-272.293 -395.323)" fill="#011c63"/>
              </g>
              <g id="Grupo_920867" data-name="Grupo 920867" transform="translate(0 1.228)">
                <path id="Trazado_695201" data-name="Trazado 695201" d="M263.262,394.671l8.017-4.659,5.983,3.455-8.017,4.659Z" transform="translate(-263.262 -390.012)" fill="#fcfefb"/>
              </g>
              <g id="Grupo_920868" data-name="Grupo 920868" transform="translate(3.4 3.089)">
                <path id="Trazado_695202" data-name="Trazado 695202" d="M277.186,394.165c.121.069.128.185,0,.258l-6.023,3.5a.5.5,0,0,1-.446,0l-2.279-1.315c-.121-.07-.116-.185,0-.255l6.023-3.5a.48.48,0,0,1,.44,0Z" transform="translate(-268.351 -392.798)" fill="#103450"/>
              </g>
              <path id="Trazado_695203" data-name="Trazado 695203" d="M272.733,398.06l2.486-4.39,8.017-4.659-2.486,4.39a.063.063,0,0,1-.025.029l-8.017,4.659A.063.063,0,0,0,272.733,398.06Z" transform="translate(-266.397 -388.452)" fill="#fcfefb"/>
              <g id="Grupo_920869" data-name="Grupo 920869" transform="translate(0 4.659)">
                <path id="Trazado_695204" data-name="Trazado 695204" d="M271.894,395.149l.068.071a.483.483,0,0,1,.122.488L269.6,400.1c-.094.2-.364.118-.436.076l-5.626-3.248a.6.6,0,0,1-.273-.472v-.077l5.983,3.455Z" transform="translate(-263.261 -395.149)" fill="#fcfefb"/>
              </g>
              <path id="Trazado_695205" data-name="Trazado 695205" d="M276.184,392.833l8.017-4.659.067.071a.483.483,0,0,1,.122.488l-8.017,4.659a.483.483,0,0,0-.122-.488Z" transform="translate(-267.551 -388.174)" fill="#fcfefb"/>
            </g>
          </g>
          <g id="Grupo_920872" data-name="Grupo 920872" transform="translate(4.679 2.677)">
            <path id="Trazado_695206" data-name="Trazado 695206" d="M273.487,392.78c.053.031.056.081,0,.113L271.5,394.05a.218.218,0,0,1-.2,0l-1-.576c-.053-.031-.051-.081,0-.112l1.991-1.156a.208.208,0,0,1,.192,0Z" transform="translate(-270.266 -392.182)" fill="#103450"/>
          </g>
        </g>
        <path id="Trazado_695207" data-name="Trazado 695207" d="M269.724,379.955s.881,2.238,1.064,2.848,2.258,4.271,2.38,4.454,1.647,1.4,1.647,1.588a.612.612,0,0,1-.61.585c-.488.056-1.8-.9-1.8-.9s-.335.844-.473-.17.257-.854-.078-1.373a7.341,7.341,0,0,1-2.714-3.363,7.039,7.039,0,0,1-.061-3.479Z" transform="translate(-88.939 -126.972)" fill="#ffc6a0"/>
        <path id="Trazado_695208" data-name="Trazado 695208" d="M270.1,378.267c-.4-1.879-1.253-4.336-2.06-4.434l.742,5.363A3.2,3.2,0,0,0,270.1,378.267Z" transform="translate(-88.656 -124.939)" fill="#fcfefb"/>
        <path id="Trazado_695209" data-name="Trazado 695209" d="M259.21,374.37a10.22,10.22,0,0,0-2.595,1.506l.759,10.689s1.586,1.161,4.828.313c2.641-.691,3.335-1.8,3.335-1.8a77.366,77.366,0,0,0-.007-7.787,5.664,5.664,0,0,0-1.283-3.512,7.552,7.552,0,0,0-1.847-.1Z" transform="translate(-84.863 -124.881)" fill="#fcfefb"/>
        <path id="Trazado_695210" data-name="Trazado 695210" d="M263.724,363.779a6.4,6.4,0,0,0-3.375.206c-1.666.624-.693,3-.2,4.115s.831.711.831.711l3.63-1.464s.108-.113.037-1.628A2.171,2.171,0,0,0,263.724,363.779Z" transform="translate(-85.793 -121.556)" fill="#103450"/>
        <path id="Trazado_695211" data-name="Trazado 695211" d="M261,370.932l-.073-2.455a.573.573,0,0,1-.512-.723c.106-.676.739-.232.851-.033,0,0,.142-2.329,1.376-2.553s2.43.041,2.462.642.072,2.7,0,3.482-.683,1.1-1.81,1.069l.078,1.263s-.566.415-2.144.029Z" transform="translate(-86.121 -122.036)" fill="#ffc6a0"/>
        <path id="Trazado_695212" data-name="Trazado 695212" d="M263.342,373.37a.849.849,0,0,1,.3.044,1.506,1.506,0,0,1,.546,1,3.561,3.561,0,0,1-.191,1.067l-1.023-.922-.643,1.242a2.62,2.62,0,0,1-.952-.493,3.582,3.582,0,0,1-.882-1.031c.176-.449.3-.717.3-.717.042-.1.236-.151.236-.151a4.265,4.265,0,0,0,1.943,1.037S263.28,374.3,263.342,373.37Z" transform="translate(-86.152 -124.785)" fill="#103450"/>
        <path id="Trazado_695213" data-name="Trazado 695213" d="M256.372,382.52c.327-.832,1.049-2.838.85-3.892a2.114,2.114,0,0,0-1.472-1.65,15.645,15.645,0,0,0-1.738,4.106C254.806,381.551,255.582,382.047,256.372,382.52Z" transform="translate(-83.999 -125.983)" fill="#fcfefb"/>
        <path id="Trazado_695214" data-name="Trazado 695214" d="M266.425,363.95a1.929,1.929,0,0,0-.344-.652c-.828-1.013-2.031-.42-3.1-.6a5.287,5.287,0,0,0-.747-.179,1.738,1.738,0,0,0-1.645.947c-.047.11-.095.228-.137.35a1.943,1.943,0,0,0-.116.577,10.524,10.524,0,0,0,.222,1.188,4.793,4.793,0,0,0,.708,1.747c.1-.029.191-.052.287-.077a1.542,1.542,0,0,1,.166-.776,1.3,1.3,0,0,0,.127-1.214,1.67,1.67,0,0,0,1.49.228,2.473,2.473,0,0,1,1.349.323,1.474,1.474,0,0,0,1.351.048,1.264,1.264,0,0,0,.473-.938A2.422,2.422,0,0,0,266.425,363.95Z" transform="translate(-86.1 -121.182)" fill="#103450"/>
        <path id="Trazado_695215" data-name="Trazado 695215" d="M254.976,383.784s-.554,2.834-.065,3.4,5.129,3.335,5.511,3.731,1.665,1.495,2.527,1.476,1.3.794,1.733.875.365-1.03.238-1.455c-.153-.508-1.19-.6-1.19-.6s1.118-.549-.635-.32l-1.012-.168-5.127-4.913.1-.844Z" transform="translate(-84.23 -128.243)" fill="#ffc6a0"/>
        <g id="Grupo_920878" data-name="Grupo 920878" transform="translate(55.389 287.165)" style="isolation: isolate">
          <g id="Grupo_920877" data-name="Grupo 920877">
            <path id="Trazado_695233" data-name="Trazado 695233" d="M97.123,435.385l-7.336,4.259-7.369-4.259,7.369-4.259Z" transform="translate(-82.418 -431.126)" fill="url(#linear-gradient-9)"/>
          </g>
          <path id="Trazado_695234" data-name="Trazado 695234" d="M100.785,437.5V541.87l-7.337,4.259V441.76Z" transform="translate(-86.08 -433.242)" fill="url(#linear-gradient-2)"/>
          <path id="Trazado_695235" data-name="Trazado 695235" d="M89.787,441.76V546.129l-7.369-4.259V437.5Z" transform="translate(-82.418 -433.242)" fill="url(#linear-gradient-3)"/>
        </g>
        <path id="Trazado_695236" data-name="Trazado 695236" d="M89.787,431.126l-7.368,4.259V539.753l7.368,4.259,7.337-4.259V435.385Z" transform="translate(-27.029 -143.961)" fill="url(#linear-gradient-12)"/>
        <rect id="Rectngulo_321407" data-name="Rectngulo 321407" width="501" height="433" transform="translate(0.167)" fill="none"/>
      </g>
    </g>
  </g>
</svg>
