<svg xmlns="http://www.w3.org/2000/svg" width="55.56" height="75.64" viewBox="0 0 55.56 75.64">
  <g id="Grupo_940139" data-name="Grupo 940139" transform="translate(-1081.611 -174.868)">
    <g id="Grupo_920805" data-name="Grupo 920805" transform="translate(1099.858 174.868)">
      <g id="Grupo_920804" data-name="Grupo 920804" style="isolation: isolate">
        <g id="Grupo_920803" data-name="Grupo 920803">
          <path id="Trazado_695084" data-name="Trazado 695084" d="M364.271,106.983l3.23-3.683a2.562,2.562,0,0,1-.019-.276,4.121,4.121,0,0,1,1.867-3.234c1.033-.6,1.876-.116,1.88,1.071a4.121,4.121,0,0,1-1.867,3.234,1.315,1.315,0,0,1-1.34.123l-3.23,3.681a2.238,2.238,0,0,1,.019.275,4.12,4.12,0,0,1-1.868,3.234,1.9,1.9,0,0,1-.591.232l-4.285,9.122a1.485,1.485,0,0,1,.343,1.037,4.121,4.121,0,0,1-1.868,3.234c-1.033.6-1.876.116-1.88-1.071a3.368,3.368,0,0,1,.214-1.128L350.9,120.4a3.345,3.345,0,0,1-.81.682,1.755,1.755,0,0,1-.81.253l-3.948,7a1.655,1.655,0,0,1,.22.878,4.12,4.12,0,0,1-1.868,3.234c-1.033.6-1.876.116-1.88-1.071a4.12,4.12,0,0,1,1.868-3.234,1.71,1.71,0,0,1,.81-.254l3.948-7.007a1.636,1.636,0,0,1-.219-.875,4.121,4.121,0,0,1,1.867-3.234c1.033-.6,1.876-.116,1.88,1.071a3.354,3.354,0,0,1-.214,1.125l3.977,2.432a3.322,3.322,0,0,1,.81-.681,1.989,1.989,0,0,1,.591-.232l4.285-9.119a1.484,1.484,0,0,1-.343-1.039,4.119,4.119,0,0,1,1.868-3.232,1.309,1.309,0,0,1,1.34-.123m9.955-14.507-35.494,20.493a1.923,1.923,0,0,0-.87,1.509l.07,24.791c0,.554.394.777.876.5L374.3,119.275a1.925,1.925,0,0,0,.872-1.508L375.1,92.976c0-.553-.4-.778-.878-.5" transform="translate(-337.862 -92.357)" fill="#00edf9" opacity="0.6" style="mix-blend-mode: overlay;isolation: isolate"/>
          <path id="Trazado_695085" data-name="Trazado 695085" d="M371.309,103.356a4.121,4.121,0,0,0-1.867,3.234,2.562,2.562,0,0,0,.019.276l-3.23,3.683a1.309,1.309,0,0,0-1.34.123,4.119,4.119,0,0,0-1.868,3.232,1.484,1.484,0,0,0,.343,1.039l-4.285,9.119a1.989,1.989,0,0,0-.591.232,3.323,3.323,0,0,0-.81.681l-3.977-2.432a3.354,3.354,0,0,0,.214-1.125c0-1.188-.846-1.668-1.88-1.071a4.12,4.12,0,0,0-1.867,3.234,1.636,1.636,0,0,0,.219.875l-3.948,7.007a1.71,1.71,0,0,0-.81.254,4.12,4.12,0,0,0-1.868,3.234c0,1.187.846,1.667,1.88,1.071a4.12,4.12,0,0,0,1.868-3.234,1.655,1.655,0,0,0-.22-.878l3.948-7a1.755,1.755,0,0,0,.81-.253,3.344,3.344,0,0,0,.81-.682l3.977,2.429a3.368,3.368,0,0,0-.214,1.128c0,1.188.846,1.668,1.88,1.071a4.121,4.121,0,0,0,1.868-3.234,1.485,1.485,0,0,0-.343-1.037l4.285-9.122a1.9,1.9,0,0,0,.591-.232,4.12,4.12,0,0,0,1.868-3.234,2.238,2.238,0,0,0-.019-.275l3.23-3.681a1.315,1.315,0,0,0,1.34-.123,4.121,4.121,0,0,0,1.867-3.234c0-1.188-.846-1.668-1.88-1.071" transform="translate(-339.822 -95.923)" fill="#a5ffff"/>
        </g>
      </g>
    </g>
    <g id="Grupo_920808" data-name="Grupo 920808" transform="translate(1081.611 226.562)">
      <g id="Grupo_920807" data-name="Grupo 920807" style="isolation: isolate">
        <g id="Grupo_920806" data-name="Grupo 920806">
          <path id="Trazado_695086" data-name="Trazado 695086" d="M316.874,188.175c-.155.09-.281.017-.281-.16a.615.615,0,0,1,.279-.484l1.181-.682c.155-.09.281-.017.281.16a.615.615,0,0,1-.279.484l-1.181.682m2.369-1.368c-.155.09-.281.018-.281-.16a.615.615,0,0,1,.279-.484l1.184-.683c.154-.09.281-.018.281.16a.615.615,0,0,1-.279.484l-1.183.683m-2.375-.883c-.154.09-.281.017-.281-.16a.614.614,0,0,1,.279-.484l10.262-5.924c.155-.09.281-.02.281.16a.616.616,0,0,1-.279.484l-10.262,5.924m-.006-2.254c-.155.09-.281.018-.281-.16a.615.615,0,0,1,.279-.484l5.76-3.325c.157-.09.283-.019.283.159a.62.62,0,0,1-.281.485l-5.76,3.325m6.96-4.018c-.154.089-.281.017-.281-.16a.618.618,0,0,1,.279-.484l.719-.415c.155-.09.281-.017.281.16a.616.616,0,0,1-.279.484l-.719.415m1.976-1.141c-.155.09-.281.017-.281-.16a.617.617,0,0,1,.279-.484l4.7-2.713c.155-.09.281-.018.281.16a.615.615,0,0,1-.279.484l-4.7,2.713m-8.943,2.908c-.155.09-.281.018-.281-.16a.614.614,0,0,1,.279-.484l9.787-5.65c.155-.09.281-.02.281.16a.615.615,0,0,1-.279.484l-9.787,5.65m11.01-6.357c-.154.09-.281.018-.281-.16a.612.612,0,0,1,.28-.484l2.626-1.516c.154-.09.281-.02.281.16a.615.615,0,0,1-.279.484l-2.626,1.516m-14.637,9.305c-.452.261-.821.051-.822-.468a1.8,1.8,0,0,1,.817-1.417c.454-.262.823-.051.824.47a1.805,1.805,0,0,1-.819,1.416m18.922-14.536-20.967,12.1a1.4,1.4,0,0,0-.635,1.1l.029,10.2c0,.4.287.568.64.365l20.967-12.1a1.4,1.4,0,0,0,.635-1.1l-.029-10.2c0-.406-.287-.569-.64-.365" transform="translate(-310.547 -169.743)" fill="#00edf9" opacity="0.6"/>
          <path id="Trazado_695087" data-name="Trazado 695087" d="M329.634,177.781l-9.787,5.65a.614.614,0,0,0-.279.484c0,.178.126.249.281.16l9.787-5.65a.615.615,0,0,0,.279-.484c0-.18-.126-.249-.281-.16" transform="translate(-313.542 -172.399)" fill="#a5ffff"/>
          <path id="Trazado_695088" data-name="Trazado 695088" d="M325.617,184.631l-5.76,3.325a.615.615,0,0,0-.279.484c0,.178.126.249.281.16l5.76-3.325a.619.619,0,0,0,.281-.485c0-.178-.126-.249-.283-.159" transform="translate(-313.545 -174.673)" fill="#a5ffff"/>
          <path id="Trazado_695089" data-name="Trazado 695089" d="M330.128,184.114l-10.262,5.924a.614.614,0,0,0-.279.484c0,.178.127.25.281.16l10.262-5.924a.616.616,0,0,0,.279-.484c0-.18-.126-.25-.281-.16" transform="translate(-313.548 -174.501)" fill="#a5ffff"/>
          <path id="Trazado_695090" data-name="Trazado 695090" d="M321.057,195.332l-1.181.682a.615.615,0,0,0-.279.484c0,.178.126.25.281.16l1.181-.682a.615.615,0,0,0,.279-.484c0-.178-.126-.25-.281-.16" transform="translate(-313.552 -178.226)" fill="#a5ffff"/>
          <path id="Trazado_695091" data-name="Trazado 695091" d="M331,182.972l-.719.415a.618.618,0,0,0-.279.484c0,.178.127.249.281.16l.719-.415a.616.616,0,0,0,.279-.484c0-.178-.126-.25-.281-.16" transform="translate(-317.004 -174.122)" fill="#a5ffff"/>
          <path id="Trazado_695092" data-name="Trazado 695092" d="M337.934,177.824l-4.7,2.713a.616.616,0,0,0-.279.484c0,.178.126.25.281.16l4.7-2.713a.615.615,0,0,0,.279-.484c0-.178-.126-.25-.281-.16" transform="translate(-317.986 -172.413)" fill="#a5ffff"/>
          <path id="Trazado_695093" data-name="Trazado 695093" d="M338.956,174.454l-2.626,1.516a.612.612,0,0,0-.28.484c0,.178.127.249.281.16l2.626-1.516a.615.615,0,0,0,.279-.484c0-.18-.126-.25-.281-.16" transform="translate(-319.014 -171.294)" fill="#a5ffff"/>
          <path id="Trazado_695094" data-name="Trazado 695094" d="M314.145,188.757a1.8,1.8,0,0,0-.817,1.418c0,.519.371.729.822.468a1.805,1.805,0,0,0,.819-1.416c0-.521-.371-.731-.824-.47" transform="translate(-311.47 -176.018)" fill="#a5ffff"/>
          <path id="Trazado_695095" data-name="Trazado 695095" d="M324.606,193.283l-1.184.683a.615.615,0,0,0-.279.484c0,.178.126.249.281.16l1.183-.683a.615.615,0,0,0,.279-.484c0-.178-.126-.25-.281-.16" transform="translate(-314.729 -177.545)" fill="#a5ffff"/>
        </g>
      </g>
    </g>
  </g>
</svg>
