<svg id="Grupo_920824" data-name="Grupo 920824" xmlns="http://www.w3.org/2000/svg" width="45.327" height="31.643" viewBox="0 0 45.327 31.643">
  <path id="Trazado_695119" data-name="Trazado 695119" d="M154.214,187.226c-.128.077-.257.154-.385.23q-.439.263-.89.52c-.138.079-.277.159-.418.237q-.513.288-1.039.566c-.09.047-.177.1-.267.143q-.659.346-1.337.679c-.116.057-.234.112-.35.168-.343.166-.69.33-1.041.49q-.229.106-.461.209-.511.229-1.031.45c-.139.059-.276.119-.415.177q-.719.3-1.454.586l-.159.06q-.659.253-1.332.493c-.158.056-.317.11-.475.166q-.537.187-1.081.365l-.478.156c-.565.18-1.134.355-1.71.52l-.18.049c-.524.149-1.053.29-1.586.426l-.47.118c-.563.139-1.13.273-1.7.4l-.094.021c-.6.129-1.2.247-1.809.358l-.447.08c-.692.122-1.387.236-2.089.335l-.163.021c-.671.092-1.347.172-2.027.242-.138.014-.275.03-.413.043-.568.055-1.138.1-1.711.143l-.053,0c-.555.037-1.113.063-1.673.085-.2.007-.4.012-.606.017-.329.009-.657.017-.987.019-.217,0-.434,0-.652,0q-.486,0-.973-.009c-.225,0-.45-.009-.676-.016-.283-.008-.566-.02-.85-.033-.235-.011-.471-.022-.707-.035-.285-.017-.57-.037-.856-.058-.236-.017-.471-.035-.707-.055-.284-.025-.569-.053-.854-.083-.234-.024-.469-.047-.7-.074-.291-.033-.581-.072-.872-.11-.229-.03-.458-.059-.687-.092-.343-.049-.688-.106-1.032-.162-.19-.031-.379-.059-.568-.093-.439-.077-.877-.162-1.316-.25-.1-.021-.205-.037-.308-.059a12.2,12.2,0,0,1-2-6.574l-.015,5.395a12.2,12.2,0,0,0,2,6.574l.041.009c.09.018.178.033.267.051.439.088.877.173,1.316.25.19.033.379.061.569.093.344.057.688.113,1.031.163l.152.024c.179.025.357.044.536.067.291.038.581.077.871.11.235.027.469.05.7.074.285.029.57.058.854.083.077.007.153.016.229.022.16.013.319.021.478.033.285.021.571.041.856.058.236.014.471.025.706.035.284.013.567.025.85.033.1,0,.2.009.306.012.124,0,.246,0,.37,0q.487.009.973.01c.218,0,.435,0,.652,0,.329,0,.658-.011.987-.019.141,0,.283,0,.424-.009.061,0,.122-.007.182-.009.563-.021,1.124-.048,1.683-.086l.041,0c.574-.039,1.145-.088,1.714-.143l.166-.013c.081-.008.161-.021.242-.029.68-.07,1.357-.15,2.029-.242l.163-.021c.7-.1,1.4-.212,2.089-.335.076-.013.154-.023.23-.037l.217-.043c.607-.112,1.21-.229,1.808-.358l.094-.021c.572-.124,1.138-.258,1.7-.4l.471-.118q.8-.2,1.585-.426l.18-.05c.576-.165,1.145-.34,1.71-.52l.184-.056c.1-.031.2-.067.293-.1q.545-.178,1.083-.366c.158-.055.317-.11.474-.166q.67-.24,1.329-.492l.162-.061q.735-.285,1.453-.586c.14-.058.277-.118.415-.177q.519-.22,1.031-.45l.461-.209q.526-.241,1.041-.491c.116-.056.234-.112.35-.168q.677-.333,1.337-.678c.091-.047.179-.1.269-.145q.525-.279,1.037-.564l.418-.237q.45-.257.89-.52c.083-.05.17-.1.252-.148.045-.027.088-.056.133-.083.415-.253.824-.507,1.224-.767l.015-5.395C155.038,186.718,154.629,186.973,154.214,187.226Z" transform="translate(-110.111 -169.554)" fill="#102465"/>
  <g id="Grupo_920821" data-name="Grupo 920821" transform="translate(0.015)">
    <path id="Trazado_695120" data-name="Trazado 695120" d="M155.446,178.057c-10.8,7-27.036,11.592-43.314,8.212-5.89-9.419,1.979-18.839,14.033-25.117l18.56,6.176Z" transform="translate(-110.134 -161.152)" fill="#00edf9"/>
  </g>
  <g id="Grupo_920822" data-name="Grupo 920822" transform="translate(2.653 1.893)">
    <path id="Trazado_695121" data-name="Trazado 695121" d="M153.487,178.784a56.479,56.479,0,0,1-17.262,6.776,52.906,52.906,0,0,1-20.7.44c-2.13-3.878-1.9-7.908.691-11.993,2.275-3.586,6.281-7.032,11.642-10.021l16.246,5.406Z" transform="translate(-114.083 -163.986)" fill="#1a6cbe"/>
  </g>
  <g id="Grupo_920823" data-name="Grupo 920823" transform="translate(12.869 11.015)">
    <path id="Trazado_695122" data-name="Trazado 695122" d="M145.582,181.5l.011,2.3H129.411l-.035-6.16h3.968l.024,3.861Z" transform="translate(-129.377 -177.641)" fill="#fdf7fb"/>
  </g>
</svg>
