<svg id="Grupo_920815" data-name="Grupo 920815" xmlns="http://www.w3.org/2000/svg" width="62.306" height="85.626" viewBox="0 0 62.306 85.626">
  <g id="Grupo_920814" data-name="Grupo 920814" style="isolation: isolate">
    <g id="Grupo_920813" data-name="Grupo 920813">
      <path id="Trazado_695102" data-name="Trazado 695102" d="M579.213,152.624l-34.044-19.655-.057,20.124,34.044,19.655.057-20.124" transform="translate(-517.305 -97.128)" fill="#a5ffff" opacity="0.561"/>
      <path id="Trazado_695103" data-name="Trazado 695103" d="M586.249,190.244l-21.122-12.195-.021,7.477,21.122,12.195.021-7.476" transform="translate(-523.943 -112.095)" fill="#a5ffff" opacity="0.561"/>
      <path id="Trazado_695104" data-name="Trazado 695104" d="M585.133,134.289l-6.507-3.757-.021,7.477,6.506,3.757.021-7.476" transform="translate(-528.425 -96.319)" fill="#a5ffff" opacity="0.561"/>
      <path id="Trazado_695105" data-name="Trazado 695105" d="M517.078,97.984s2.4-9.208,5.846-7.22,4.126,9.82,6.832,11.383,2.854-3.078,4.528-2.113,1.682,6.051,3.429,7.059,2.986-3.154,5.827-1.513c3.51,2.027,5.546,10.884,5.546,10.884l-32.008-18.48m34.366,2.477L514.818,79.315l-.061,21.838L551.382,122.3l.062-21.838" transform="translate(-507.227 -79.315)" fill="#a5ffff" opacity="0.561"/>
      <path id="Trazado_695106" data-name="Trazado 695106" d="M524.078,96.314c-3.443-1.988-5.846,7.22-5.846,7.22l32.008,18.48s-2.035-8.858-5.546-10.884c-2.841-1.641-4.084,2.52-5.827,1.513s-1.759-6.095-3.429-7.059-1.821,3.675-4.528,2.113-3.389-9.395-6.832-11.383" transform="translate(-508.381 -84.865)" fill="#b4ffff"/>
      <path id="Trazado_695107" data-name="Trazado 695107" d="M522.523,143.509l.01-3.508.01-3.508,2.641,3.279,2.641,3.284-2.651.228-2.651.224m2.148-11.89c-4.6-2.657-8.346-.526-8.361,4.765s3.706,11.736,8.307,14.393,8.35.524,8.365-4.767-3.705-11.732-8.311-14.391" transform="translate(-507.742 -96.3)" fill="#a5ffff" opacity="0.561"/>
      <path id="Trazado_695108" data-name="Trazado 695108" d="M525.631,139.483l-.01,3.508-.01,3.508,2.651-.225,2.651-.228-2.641-3.283-2.641-3.28" transform="translate(-510.831 -99.291)" fill="#b8ffff" opacity="0.808"/>
      <path id="Trazado_695109" data-name="Trazado 695109" d="M511.359,163.428A4.113,4.113,0,0,1,509.5,160.2c0-1.187.844-1.667,1.874-1.071a4.111,4.111,0,0,1,1.865,3.231c0,1.183-.844,1.663-1.878,1.066m13.038-1.186-20.87-12.049-.043,15.182,20.869,12.049-20.869-12.049.007-2.333,3.873-2.2,3.923,6.793,7.919-4.509,5.163,8.944.028-9.824" transform="translate(-503.485 -102.846)" fill="#a5ffff" opacity="0.561"/>
      <path id="Trazado_695110" data-name="Trazado 695110" d="M519.206,168.414l-7.919,4.509-3.922-6.793-3.873,2.2-.007,2.332,20.869,12.049.015-5.357-5.163-8.943" transform="translate(-503.485 -108.137)" fill="#b4ffff"/>
      <path id="Trazado_695111" data-name="Trazado 695111" d="M514.36,163.446c-1.03-.6-1.871-.116-1.874,1.071a4.113,4.113,0,0,0,1.862,3.226c1.033.6,1.874.117,1.878-1.066a4.111,4.111,0,0,0-1.865-3.231" transform="translate(-506.473 -107.162)" fill="#b4ffff"/>
    </g>
  </g>
</svg>
