<svg xmlns="http://www.w3.org/2000/svg" xmlns:xlink="http://www.w3.org/1999/xlink" width="94.238" height="130.654" viewBox="0 0 94.238 130.654">
  <defs>
    <linearGradient id="linear-gradient" x1="0.499" y1="0.097" x2="0.501" y2="0.818" gradientUnits="objectBoundingBox">
      <stop offset="0.037" stop-color="#93fffd" stop-opacity="0"/>
      <stop offset="0.135" stop-color="#95fefd" stop-opacity="0.071"/>
      <stop offset="0.332" stop-color="#9afdfd" stop-opacity="0.251"/>
      <stop offset="0.608" stop-color="#a3fcfe" stop-opacity="0.545"/>
      <stop offset="0.951" stop-color="#b0fbfe" stop-opacity="0.941"/>
      <stop offset="1" stop-color="#b2fbff"/>
    </linearGradient>
  </defs>
  <g id="Grupo_940138" data-name="Grupo 940138" transform="translate(-989.073 -285.872)">
    <path id="Trazado_695188" data-name="Trazado 695188" d="M172.015,258.531V361.892l47.221,27.293,47.016-27.293V258.531Z" transform="translate(817.058 27.341)" opacity="0.561" fill="url(#linear-gradient)" style="mix-blend-mode: overlay;isolation: isolate"/>
    <g id="Grupo_920875" data-name="Grupo 920875" transform="translate(1015.552 307.219)" opacity="0.6">
      <path id="Trazado_695216" data-name="Trazado 695216" d="M218.63,340.206l-.013-4.91,3.339-1.928.014,4.91-3.34,1.928m12.714-7.341-.021-7.39,3.339-1.928.021,7.39-3.339,1.928m-12.727,2.43-.009-3.039,3.339-1.928.009,3.039-3.339,1.928m6.373,1.239-.025-8.606L228.3,326l.025,8.606-3.335,1.926M237.7,329.2l-.033-11.645L241,315.625l.033,11.645L237.7,329.2m-6.375-3.721-.013-4.577,3.339-1.928.013,4.577-3.339,1.928m-6.359,2.454-.015-5.332,3.335-1.926L228.3,326l-3.335,1.926m12.7-10.377-.021-7.208,3.339-1.929.021,7.209-3.339,1.928M216.157,344.8c-.149.086-.269.018-.27-.148l-.065-23.2a.586.586,0,0,1,.268-.464c.145-.083.265-.015.265.156l.065,22.892,29.215-16.868c.15-.086.269-.018.27.154a.587.587,0,0,1-.268.459L216.157,344.8m5.745-30.335c-.295.17-.534.033-.535-.305a1.17,1.17,0,0,1,.531-.92l8.526-4.923c.295-.17.534-.033.535.3a1.173,1.173,0,0,1-.531.921l-8.526,4.922m10.329-5.964c-.294.17-.534.033-.535-.3a1.171,1.171,0,0,1,.532-.92l1.966-1.136c.295-.17.534-.033.535.305a1.171,1.171,0,0,1-.532.92l-1.966,1.136m-16.151,9.433,0-1.441,3.2-1.847,0,1.441-3.2,1.847m11.51-9.827a.387.387,0,0,1-.38.038.375.375,0,0,1-.154-.343l.012-.13.025-.128.051-.138.064-.13a1.09,1.09,0,0,1,.379-.388.4.4,0,0,1,.38-.05l.064.056.047.081.035.093.009.118a1.078,1.078,0,0,1-.152.52,1.12,1.12,0,0,1-.379.4m-5.7,3.29c-.295.17-.534.033-.535-.3a1.171,1.171,0,0,1,.531-.921l4.129-2.383c.294-.17.534-.033.534.3a1.171,1.171,0,0,1-.531.92l-4.128,2.383m7.348-4.242c-.294.17-.534.033-.534-.3a1.17,1.17,0,0,1,.531-.92l4.947-2.856c.295-.17.534-.033.535.3a1.173,1.173,0,0,1-.532.921l-4.947,2.856m-13.17,7.711,0-1.441,3.2-1.846,0,1.441-3.2,1.846m31.847-24.16-34.665,20.014a3.526,3.526,0,0,0-1.6,2.769l.1,36.77c0,1.015.721,1.424,1.609.912l34.666-20.015a3.517,3.517,0,0,0,1.6-2.764l-.1-36.77c0-1.015-.722-1.43-1.609-.917" transform="translate(-211.655 -290.487)" fill="#00edf9"/>
      <path id="Trazado_695217" data-name="Trazado 695217" d="M218.16,336.128a.586.586,0,0,0-.268.464l.065,23.2c0,.166.121.234.27.148l29.48-17.02a.587.587,0,0,0,.268-.459c0-.172-.12-.24-.27-.154L218.49,359.176l-.065-22.892c0-.172-.12-.24-.265-.156" transform="translate(-213.726 -305.628)" fill="#a5ffff"/>
      <path id="Trazado_695218" data-name="Trazado 695218" d="M225.415,354.68l-3.339,1.928.014,4.911,3.339-1.928-.014-4.911" transform="translate(-215.115 -311.799)" fill="#fdf7fb"/>
      <path id="Trazado_695219" data-name="Trazado 695219" d="M234.915,343.655l-3.335,1.926.024,8.606,3.335-1.926-.024-8.606" transform="translate(-218.27 -308.139)" fill="#fdf7fb"/>
      <path id="Trazado_695220" data-name="Trazado 695220" d="M244.437,339.979l-3.339,1.928.021,7.39,3.339-1.928-.021-7.39" transform="translate(-221.43 -306.918)" fill="#fdf7fb"/>
      <path id="Trazado_695221" data-name="Trazado 695221" d="M253.932,328.118l-3.339,1.928.033,11.644,3.339-1.928-.033-11.644" transform="translate(-224.582 -302.981)" fill="#fdf7fb"/>
      <path id="Trazado_695222" data-name="Trazado 695222" d="M225.4,350.131l-3.339,1.928.009,3.038,3.339-1.928-.009-3.039" transform="translate(-215.11 -310.289)" fill="#a5ffff"/>
      <path id="Trazado_695223" data-name="Trazado 695223" d="M234.892,335.673l-3.335,1.926.015,5.332,3.335-1.926-.015-5.332" transform="translate(-218.262 -305.489)" fill="#a5ffff"/>
      <path id="Trazado_695224" data-name="Trazado 695224" d="M244.418,333.126l-3.339,1.928.013,4.577,3.339-1.928-.013-4.577" transform="translate(-221.424 -304.643)" fill="#a5ffff"/>
      <path id="Trazado_695225" data-name="Trazado 695225" d="M253.9,317.326l-3.339,1.928.02,7.209,3.339-1.928-.02-7.209" transform="translate(-224.572 -299.398)" fill="#a5ffff"/>
      <path id="Trazado_695226" data-name="Trazado 695226" d="M221.46,322.062l-3.2,1.847,0,1.441,3.2-1.847,0-1.441" transform="translate(-213.848 -300.97)" fill="#fdf7fb"/>
      <path id="Trazado_695227" data-name="Trazado 695227" d="M221.473,326.654l-3.2,1.847,0,1.441,3.2-1.847,0-1.441" transform="translate(-213.852 -302.495)" fill="#fdf7fb"/>
      <path id="Trazado_695228" data-name="Trazado 695228" d="M230.841,316.352l-4.129,2.383a1.171,1.171,0,0,0-.531.921c0,.338.24.475.535.3l4.128-2.383a1.171,1.171,0,0,0,.531-.921c0-.338-.24-.475-.534-.3" transform="translate(-216.478 -299.05)" fill="#a5ffff"/>
      <path id="Trazado_695229" data-name="Trazado 695229" d="M235.242,315a1.089,1.089,0,0,0-.379.388l-.064.13-.051.138-.025.128-.012.13a.375.375,0,0,0,.154.343.388.388,0,0,0,.38-.038,1.12,1.12,0,0,0,.379-.4,1.078,1.078,0,0,0,.152-.52l-.009-.118-.035-.093-.047-.081-.064-.056a.4.4,0,0,0-.38.05" transform="translate(-219.31 -298.6)" fill="#a5ffff"/>
      <path id="Trazado_695230" data-name="Trazado 695230" d="M242.66,309.293l-4.947,2.856a1.17,1.17,0,0,0-.531.921c0,.338.24.474.534.3l4.947-2.856a1.173,1.173,0,0,0,.532-.92c0-.338-.24-.475-.535-.3" transform="translate(-220.13 -296.706)" fill="#a5ffff"/>
      <path id="Trazado_695231" data-name="Trazado 695231" d="M235.251,317.144l-8.526,4.922a1.17,1.17,0,0,0-.531.92c0,.339.24.475.535.305l8.526-4.922a1.173,1.173,0,0,0,.531-.921c0-.338-.24-.474-.535-.3" transform="translate(-216.482 -299.313)" fill="#a5ffff"/>
      <path id="Trazado_695232" data-name="Trazado 695232" d="M244.155,313.885l-1.966,1.136a1.171,1.171,0,0,0-.532.921c0,.338.241.474.535.3l1.966-1.136a1.171,1.171,0,0,0,.532-.92c0-.339-.24-.475-.535-.305" transform="translate(-221.616 -298.231)" fill="#a5ffff"/>
    </g>
  </g>
</svg>
