<svg xmlns="http://www.w3.org/2000/svg" width="253.436" height="261.526" viewBox="0 0 253.436 261.526">
  <g id="Grupo_926962" data-name="Grupo 926962" transform="translate(-50.631 -66.353)">
    <g id="Grupo_926975" data-name="Grupo 926975" transform="translate(50.631 66.353)">
      <g id="Grupo_926964" data-name="Grupo 926964" transform="translate(0 112.603)">
        <path id="Trazado_710114" data-name="Trazado 710114" d="M183.887,436.59l4.235-4.583a2.149,2.149,0,0,0,.179-2.9l-3.951-4.568a28.378,28.378,0,0,0,3.519-9.552l5.973-.91a2.149,2.149,0,0,0,1.749-2.326l-.246-6.235a2.149,2.149,0,0,0-1.928-2.181l-6.027-.436a28.374,28.374,0,0,0-4.262-9.245l3.579-4.865a2.15,2.15,0,0,0-.408-2.882l-4.583-4.235a2.149,2.149,0,0,0-2.9-.179l-4.568,3.951a28.382,28.382,0,0,0-9.552-3.519l-.91-5.974a2.15,2.15,0,0,0-2.327-1.749l-6.235.247a2.149,2.149,0,0,0-2.181,1.927L152.6,382.4a28.376,28.376,0,0,0-9.245,4.262l-4.865-3.579a2.149,2.149,0,0,0-2.882.408l-4.235,4.583a2.15,2.15,0,0,0-.179,2.905l3.951,4.568a28.381,28.381,0,0,0-3.519,9.552l-5.974.91a2.149,2.149,0,0,0-1.749,2.326l.246,6.235a2.149,2.149,0,0,0,1.928,2.181l6.027.436a28.38,28.38,0,0,0,4.262,9.245l-3.579,4.865a2.15,2.15,0,0,0,.408,2.882l4.583,4.235a2.15,2.15,0,0,0,2.9.179l4.568-3.951a28.388,28.388,0,0,0,9.552,3.519l.91,5.973a2.149,2.149,0,0,0,2.326,1.75l6.236-.246a2.149,2.149,0,0,0,2.181-1.928l.436-6.027a28.389,28.389,0,0,0,9.245-4.262L181,437A2.15,2.15,0,0,0,183.887,436.59Zm-30.861-19.276a9.906,9.906,0,1,1,14-.553A9.906,9.906,0,0,1,153.026,417.315Z" transform="translate(-123.904 -374.194)" fill="#0b5999" opacity="0.25"/>
        <path id="Trazado_710115" data-name="Trazado 710115" d="M322.6,523.3l2.68-2.9a1.36,1.36,0,0,0,.113-1.839l-2.5-2.891a17.967,17.967,0,0,0,2.227-6.046l3.781-.576A1.36,1.36,0,0,0,330,507.574l-.156-3.946a1.36,1.36,0,0,0-1.22-1.38l-3.814-.276a17.954,17.954,0,0,0-2.7-5.851l2.265-3.08a1.361,1.361,0,0,0-.258-1.824l-2.9-2.68a1.36,1.36,0,0,0-1.838-.113l-2.891,2.5a17.954,17.954,0,0,0-6.046-2.227l-.576-3.781a1.361,1.361,0,0,0-1.472-1.107l-3.946.156a1.361,1.361,0,0,0-1.381,1.22L302.794,489a17.979,17.979,0,0,0-5.851,2.7l-3.079-2.265a1.36,1.36,0,0,0-1.824.258l-2.68,2.9a1.36,1.36,0,0,0-.113,1.839l2.5,2.891a17.966,17.966,0,0,0-2.228,6.046l-3.781.576a1.36,1.36,0,0,0-1.107,1.472l.156,3.947a1.36,1.36,0,0,0,1.22,1.38l3.814.276a17.961,17.961,0,0,0,2.7,5.851l-2.265,3.079a1.361,1.361,0,0,0,.258,1.824l2.9,2.681a1.36,1.36,0,0,0,1.838.113l2.891-2.5a17.96,17.96,0,0,0,6.046,2.227l.576,3.781a1.36,1.36,0,0,0,1.472,1.107l3.946-.156a1.36,1.36,0,0,0,1.381-1.22l.276-3.815a17.963,17.963,0,0,0,5.851-2.7l3.079,2.265A1.36,1.36,0,0,0,322.6,523.3Zm-19.532-12.2a6.27,6.27,0,1,1,8.86-.35A6.27,6.27,0,0,1,303.063,511.1Z" transform="translate(-222.226 -441.249)" fill="#0b5999" opacity="0.5"/>
      </g>
      <g id="Grupo_926966" data-name="Grupo 926966" transform="translate(82.499 72.745)">
        <g id="Grupo_926965" data-name="Grupo 926965" opacity="0.5">
          <path id="Trazado_710116" data-name="Trazado 710116" d="M427.51,272.708l-4.634,2.249a1.774,1.774,0,0,0-1.012,2.179l1.663,4.7a23.432,23.432,0,0,0-5.579,6.284l-4.865-1.1a1.774,1.774,0,0,0-2.045,1.262l-1.687,4.867a1.774,1.774,0,0,0,.826,2.257l4.5,2.148a23.431,23.431,0,0,0,.494,8.388l-4.215,2.663a1.775,1.775,0,0,0-.554,2.338l2.249,4.634a1.774,1.774,0,0,0,2.179,1.012l4.7-1.663a23.436,23.436,0,0,0,6.284,5.579l-1.1,4.866a1.775,1.775,0,0,0,1.262,2.045l4.867,1.687a1.774,1.774,0,0,0,2.256-.825l2.149-4.5a23.421,23.421,0,0,0,8.388-.494L446.3,327.5a1.774,1.774,0,0,0,2.338.554l4.634-2.249a1.775,1.775,0,0,0,1.012-2.18l-1.663-4.7a23.432,23.432,0,0,0,5.579-6.284l4.865,1.1a1.775,1.775,0,0,0,2.045-1.262l1.687-4.867a1.774,1.774,0,0,0-.825-2.256l-4.5-2.149a23.434,23.434,0,0,0-.494-8.389l4.215-2.663a1.775,1.775,0,0,0,.554-2.338L463.5,285.18a1.774,1.774,0,0,0-2.179-1.012l-4.7,1.663a23.43,23.43,0,0,0-6.284-5.579l1.1-4.866a1.774,1.774,0,0,0-1.262-2.045l-4.867-1.687a1.774,1.774,0,0,0-2.257.826l-2.148,4.5a23.432,23.432,0,0,0-8.388.495l-2.663-4.215A1.774,1.774,0,0,0,427.51,272.708Zm17.923,24.1a8.177,8.177,0,1,1-10.926-3.786A8.177,8.177,0,0,1,445.433,296.81Z" transform="translate(-380.95 -271.537)" fill="#b0c0d2" opacity="0.35"/>
          <path id="Trazado_710117" data-name="Trazado 710117" d="M345.673,387.612l-2.936,2.518a1.332,1.332,0,0,0-.319,1.776l2.105,3.1a17.588,17.588,0,0,0-2.851,5.628l-3.743.132a1.332,1.332,0,0,0-1.244,1.306l-.3,3.857a1.332,1.332,0,0,0,1.03,1.481l3.679.7a17.587,17.587,0,0,0,1.961,6l-2.552,2.739a1.333,1.333,0,0,0,.044,1.8l2.518,2.936a1.332,1.332,0,0,0,1.776.319l3.1-2.105a17.589,17.589,0,0,0,5.628,2.852l.132,3.743a1.332,1.332,0,0,0,1.307,1.244l3.857.3a1.332,1.332,0,0,0,1.481-1.03l.7-3.679a17.6,17.6,0,0,0,6-1.961l2.739,2.552a1.333,1.333,0,0,0,1.8-.045l2.936-2.518a1.333,1.333,0,0,0,.319-1.776l-2.105-3.1a17.593,17.593,0,0,0,2.851-5.628l3.743-.132a1.332,1.332,0,0,0,1.244-1.307l.3-3.856a1.332,1.332,0,0,0-1.03-1.481l-3.679-.7a17.594,17.594,0,0,0-1.961-6l2.552-2.738a1.333,1.333,0,0,0-.045-1.8l-2.518-2.936a1.332,1.332,0,0,0-1.776-.319l-3.1,2.105a17.591,17.591,0,0,0-5.629-2.852l-.132-3.743a1.333,1.333,0,0,0-1.307-1.244l-3.856-.3a1.332,1.332,0,0,0-1.481,1.03l-.7,3.679a17.588,17.588,0,0,0-6,1.961l-2.739-2.552A1.332,1.332,0,0,0,345.673,387.612Zm17.617,14.081a6.14,6.14,0,1,1-8.658-.664A6.14,6.14,0,0,1,363.291,401.692Z" transform="translate(-336.386 -339.995)" fill="#b0c0d2"/>
        </g>
      </g>
      <g id="Grupo_926978" data-name="Grupo 926978" transform="matrix(-0.485, 0.875, -0.875, -0.485, 214.235, 170.319)">
        <g id="Grupo_926965-2" data-name="Grupo 926965" opacity="0.5">
          <path id="Trazado_710116-2" data-name="Trazado 710116" d="M18.277,1.171,13.643,3.42A1.774,1.774,0,0,0,12.631,5.6l1.663,4.7a23.432,23.432,0,0,0-5.579,6.284l-4.865-1.1A1.774,1.774,0,0,0,1.8,16.747L.118,21.614a1.774,1.774,0,0,0,.826,2.257l4.5,2.148a23.431,23.431,0,0,0,.494,8.388L1.724,37.071a1.775,1.775,0,0,0-.554,2.338L3.42,44.043A1.774,1.774,0,0,0,5.6,45.055l4.7-1.663a23.436,23.436,0,0,0,6.284,5.579l-1.1,4.866a1.775,1.775,0,0,0,1.262,2.045l4.867,1.687a1.774,1.774,0,0,0,2.256-.825l2.149-4.5a23.421,23.421,0,0,0,8.388-.494l2.664,4.215a1.774,1.774,0,0,0,2.338.554l4.634-2.249a1.775,1.775,0,0,0,1.012-2.18l-1.663-4.7A23.432,23.432,0,0,0,48.971,41.1l4.865,1.1a1.775,1.775,0,0,0,2.045-1.262l1.687-4.867a1.774,1.774,0,0,0-.825-2.256l-4.5-2.149a23.434,23.434,0,0,0-.494-8.389l4.215-2.663a1.775,1.775,0,0,0,.554-2.338l-2.249-4.634a1.774,1.774,0,0,0-2.179-1.012l-4.7,1.663A23.43,23.43,0,0,0,41.1,8.715l1.1-4.866A1.774,1.774,0,0,0,40.939,1.8L36.072.118a1.774,1.774,0,0,0-2.257.826l-2.148,4.5a23.432,23.432,0,0,0-8.388.495L20.615,1.724A1.774,1.774,0,0,0,18.277,1.171ZM36.2,25.273a8.177,8.177,0,1,1-10.926-3.786A8.177,8.177,0,0,1,36.2,25.273Z" transform="translate(28.284 0)" fill="#b0c0d2" opacity="0.35"/>
          <path id="Trazado_710117-2" data-name="Trazado 710117" d="M9.288,4.167,6.352,6.685a1.332,1.332,0,0,0-.319,1.776l2.105,3.1a17.588,17.588,0,0,0-2.851,5.628l-3.743.132A1.332,1.332,0,0,0,.3,18.624L0,22.48a1.332,1.332,0,0,0,1.03,1.481l3.679.7a17.587,17.587,0,0,0,1.961,6L4.123,33.4a1.333,1.333,0,0,0,.044,1.8l2.518,2.936a1.332,1.332,0,0,0,1.776.319l3.1-2.105A17.589,17.589,0,0,0,17.185,39.2l.132,3.743a1.332,1.332,0,0,0,1.307,1.244l3.857.3a1.332,1.332,0,0,0,1.481-1.03l.7-3.679a17.6,17.6,0,0,0,6-1.961L33.4,40.367a1.333,1.333,0,0,0,1.8-.045L38.137,37.8a1.333,1.333,0,0,0,.319-1.776l-2.105-3.1A17.593,17.593,0,0,0,39.2,27.305l3.743-.132a1.332,1.332,0,0,0,1.244-1.307l.3-3.856a1.332,1.332,0,0,0-1.03-1.481l-3.679-.7a17.594,17.594,0,0,0-1.961-6l2.552-2.738a1.333,1.333,0,0,0-.045-1.8L37.8,6.353a1.332,1.332,0,0,0-1.776-.319l-3.1,2.105A17.591,17.591,0,0,0,27.3,5.287l-.132-3.743A1.333,1.333,0,0,0,25.865.3L22.009,0a1.332,1.332,0,0,0-1.481,1.03l-.7,3.679a17.588,17.588,0,0,0-6,1.961L11.091,4.123A1.332,1.332,0,0,0,9.288,4.167ZM26.905,18.248a6.14,6.14,0,1,1-8.658-.664A6.14,6.14,0,0,1,26.905,18.248Z" transform="translate(0 43.45)" fill="#b0c0d2"/>
        </g>
      </g>
      <g id="Grupo_926968" data-name="Grupo 926968" transform="translate(16.54 127.189)">
        <path id="Trazado_710118" data-name="Trazado 710118" d="M205.551,443.789l-18.082-31.24a1.58,1.58,0,0,0-2.737,0l-18.013,31.279a1.58,1.58,0,0,0,1.371,2.369l36.1-.04A1.58,1.58,0,0,0,205.551,443.789Z" transform="translate(-166.505 -411.76)" fill="#fd9927"/>
        <path id="Trazado_710119" data-name="Trazado 710119" d="M207.853,448.6l-15.219-26.294a.65.65,0,0,0-1.125,0l-15.161,26.327a.649.649,0,0,0,.563.973l30.381-.033A.649.649,0,0,0,207.853,448.6Z" transform="translate(-172.472 -418.013)" fill="#fff"/>
        <g id="Grupo_926967" data-name="Grupo 926967" transform="translate(17.802 11.294)">
          <path id="Trazado_710120" data-name="Trazado 710120" d="M213.343,453.15l1.662,0a.579.579,0,0,0,.578-.565l.383-11.142a.579.579,0,0,0-.579-.592l-2.453,0a.579.579,0,0,0-.578.593l.408,11.141A.579.579,0,0,0,213.343,453.15Z" transform="translate(-212.356 -440.849)" fill="#fd9927"/>
          <path id="Trazado_710121" data-name="Trazado 710121" d="M214.476,477.044a1.631,1.631,0,1,0,1.633,1.63A1.631,1.631,0,0,0,214.476,477.044Z" transform="translate(-212.656 -462.991)" fill="#fd9927"/>
        </g>
      </g>
      <g id="Grupo_926969" data-name="Grupo 926969" transform="translate(79.171 62.434)">
        <path id="Trazado_710122" data-name="Trazado 710122" d="M360.757,296.914l2.715-.115a.946.946,0,0,0,.906-.962l-.122-18.222a.947.947,0,0,0-.986-.928l-4.005.169a.946.946,0,0,0-.9,1.008l1.413,18.168A.946.946,0,0,0,360.757,296.914Z" transform="translate(-358.359 -276.686)" fill="#0b5999"/>
        <path id="Trazado_710123" data-name="Trazado 710123" d="M364.32,336.008a2.666,2.666,0,1,0,2.776,2.552A2.667,2.667,0,0,0,364.32,336.008Z" transform="translate(-360.443 -312.974)" fill="#0b5999"/>
      </g>
      <g id="Grupo_926974" data-name="Grupo 926974" transform="translate(90.909 0)">
        <path id="Trazado_710124" data-name="Trazado 710124" d="M577.7,335.114c.423.272.847.549,1.279.825.709.428,1.431.851,2.157,1.279a86.02,86.02,0,0,0,9.352,4.721c.366.16.731.316,1.1.477.366.143.731.29,1.1.433.735.29,1.458.575,2.184.856h0a5.758,5.758,0,0,0,5.725-.9l.373-.3v0a79.842,79.842,0,0,0,7.444-6.308,68.163,68.163,0,0,0,6.1-6.691c.776-.958,1.5-1.925,2.175-2.888a41.843,41.843,0,0,1-8.924-11.675c-.045.058-.089.12-.134.183-1.355,1.752-2.733,3.651-4.275,5.6s-3.138,4.026-4.9,6.107c-1.079,1.279-2.2,2.581-3.374,3.887h-.005c-3.071-1.051-6.017-2.242-8.848-3.456q-1.036-.461-2.059-.909l-2.006-.95c-.321-.151-.651-.3-.976-.459Q579.3,329.976,577.7,335.114Z" transform="translate(-492.418 -255.702)" fill="#fa7e7c"/>
        <path id="Trazado_710125" data-name="Trazado 710125" d="M728.1,220.586l-4.366,8.273c-1.016,1.925-2.166,3.98-4.148,4.879a5.081,5.081,0,0,1-5.549-1.013,19.546,19.546,0,0,0,7.05-6.923,21.588,21.588,0,0,1,2.536-3.987A4.549,4.549,0,0,1,728.1,220.586Z" transform="translate(-575.821 -197.877)" fill="#8a4632"/>
        <path id="Trazado_710126" data-name="Trazado 710126" d="M605.6,784.606c-.543,3.622-1.864,7.688-6.523,9.785-2.447,1.1-6.694,2.2-9.226,3.084a13.955,13.955,0,0,0-4.747,2.708,1.631,1.631,0,0,0,.94,2.823,104.061,104.061,0,0,0,22.523-.172,1.629,1.629,0,0,0,1.411-1.374l2.219-14.777C609.574,786.707,608.056,783.7,605.6,784.606Z" transform="translate(-496.619 -542.915)" fill="#16162b"/>
        <path id="Trazado_710127" data-name="Trazado 710127" d="M742.828,802.685l-.079.027a24.089,24.089,0,0,1-15.758,0l-.1-.034a1.611,1.611,0,0,1-1.084-1.656c.468-4.872,5.587-7.125,4.648-13.58,1.564-.05,3-.109,4.413-.146,1.417.036,2.722-3.569,4.286-3.519a19.99,19.99,0,0,0,1.182,10.2c.816,1.82,3.166,3.866,3.565,6.948A1.64,1.64,0,0,1,742.828,802.685Z" transform="translate(-583.016 -542.511)" fill="#16162b"/>
        <path id="Trazado_710128" data-name="Trazado 710128" d="M623.316,575.439c.831,3.725,12.061,6.827,14.279,5.794l3.5-18.106,15.767-92.581,6.846,90.826,1.222,13.881a19.722,19.722,0,0,0,6.727,1.139,20.534,20.534,0,0,0,4.385-.463c.32-.069.634-.148.94-.231a16.834,16.834,0,0,0,2.3-.806c-.032-2.825-.092-7.617-.162-13.733-.3-27.193-.81-80.568-.412-103.543.185-10.673.31-17.845.315-17.909-8.422-2.644-13.853-4.121-23.831-4.121-7.8,0-9.339.9-16.247,2.56,0,.107-.458,4.149-1.19,10.645-2.37,21.026-9.4,82.564-12.844,112.632C624.2,567.67,623.645,572.56,623.316,575.439Z" transform="translate(-520.322 -329.51)" fill="#343256"/>
        <path id="Trazado_710129" data-name="Trazado 710129" d="M746.673,487.711q.139,10.827.287,21.66c.264,19.849.523,58.4.792,78.253q.069,5.14.139,10.274c.32-.07.634-.148.94-.231q-.229-16.96-.453-33.925c-.25-18.942-.5-56.58-.755-75.522,0-.4-.009-.792-.014-1.19-.009-.509-.014-1.023-.023-1.533q-.091-6.778-.181-13.543a.473.473,0,0,0-.945,0q.1,7.244.195,14.5a11.1,11.1,0,0,1-4.825-9.927c.033-.676-1.018-.676-1.056,0A12.117,12.117,0,0,0,746.673,487.711Z" transform="translate(-592.164 -351.478)" fill="#16162b"/>
        <path id="Trazado_710130" data-name="Trazado 710130" d="M695.77,266.764s4.952-3.373,13.574-1.687v4.352l-11.477,1.357-2.519-1.5Z" transform="translate(-564.386 -224.914)" fill="#6d1526"/>
        <path id="Trazado_710131" data-name="Trazado 710131" d="M696.626,295.99c-.527,3.914-.987,9.18-1.378,14.895-.581,8.626-1.282,26.6-1.522,34.154,0,.194-.011.391-.015.581-.016.345-.023.689-.035,1.026-.054,1.711-.093,3.287-.128,4.693a161.5,161.5,0,0,1-30.878,1.456c-.678-.031-1.343-.07-2.021-.109-2.079-.135-4.159-.3-6.234-.511a.49.49,0,0,1-.073,0c-1.247-.128-2.493-.263-3.736-.418.786-3.736,1.676-13.439,2.327-18.817.116-.945.224-1.758.321-2.381.233-1.448.449-2.877.651-4.3.1-.732.205-1.468.3-2.191.5-3.671.894-7.225,1.22-10.621.031-.325.062-.651.089-.976.353-3.787.608-7.372.79-10.7C646.249,299.5,647,290.2,647,290.2l7.353-11.31v0a11.668,11.668,0,0,1,4.735-4.2c1.471-.712,3.214-1.549,4.309-2.049.654-.3,1.313-.6,1.975-.9,2.985-1.363,5.986-2.718,8.661-4.081,2.319.929,4.623,1.855,6.934,2.788a.762.762,0,0,1,.12.047c1.293.515,2.591,1.03,3.876,1.552,3.4,1.359,6.935,2.823,9.277,5.634C698.306,282.547,697.485,289.694,696.626,295.99Z" transform="translate(-534.802 -226.778)" fill="#fbb62b"/>
        <path id="Trazado_710132" data-name="Trazado 710132" d="M709.925,235.115c0,.663.4,1.214.169,2.055-.269,1.015-.9,8.072-1.006,9.116,0,.061.308,2.332.308,2.4-.221,2.419-2.653,3.19-1.916,5.575-4.5.416-6.992-.8-11.323-2.3.373-.776.841-1.543,1.2-2.337a7.347,7.347,0,0,0,.325-.819c.208-.65.39-1.309.537-1.972.134-.568.221-2.557.312-3.134.07-.442.13-.884.178-1.335a25.15,25.15,0,0,0,.13-3.073,7.277,7.277,0,0,1,.8-.876C702.11,236.043,706.041,234.977,709.925,235.115Z" transform="translate(-564.882 -206.867)" fill="#ffa49c"/>
        <path id="Trazado_710133" data-name="Trazado 710133" d="M710.022,241.51s-3.25,9.618-10.772,12.034a6.752,6.752,0,0,0,.325-.821c.21-.651.391-1.307.539-1.972.136-.566.221-2.557.31-3.132.072-.443.13-.887.178-1.335a24.783,24.783,0,0,0,.132-3.076,7.739,7.739,0,0,1,.8-.873Z" transform="translate(-566.773 -210.786)" fill="#dc6478"/>
        <path id="Trazado_710134" data-name="Trazado 710134" d="M693.9,274.188l-3.549,4.839s-2.048-1.5-1.339-4.859l2.792-4S691.378,274.1,693.9,274.188Z" transform="translate(-560.418 -228.315)" fill="#fff"/>
        <path id="Trazado_710135" data-name="Trazado 710135" d="M713.313,265.821a17.02,17.02,0,0,1-11.477,5.709l2.664,5.487a18.388,18.388,0,0,0,10.969-7.322Z" transform="translate(-568.355 -225.658)" fill="#fff"/>
        <g id="Grupo_926970" data-name="Grupo 926970" transform="translate(120.921 67.15)">
          <path id="Trazado_710136" data-name="Trazado 710136" d="M669.487,345.923a66.326,66.326,0,0,1,.982-10.268c.1-.573.973-.33.874.241a64.726,64.726,0,0,0-.95,10.028.453.453,0,0,1-.906,0Z" transform="translate(-669.487 -335.328)" fill="#cb860e"/>
        </g>
        <path id="Trazado_710137" data-name="Trazado 710137" d="M705.981,193.146a11.031,11.031,0,0,0-1.258,9.061c.819-2.073,1.628-4.057,2.446-6.13.379-.96.744-2.105.175-2.967a.955.955,0,0,0-.77-.477C706.259,192.641,705.883,192.846,705.981,193.146Z" transform="translate(-569.839 -180.887)" fill="#8a4632"/>
        <path id="Trazado_710138" data-name="Trazado 710138" d="M697.463,191.972a20.487,20.487,0,0,1-4.828,11.992c-1.614,1.89-3.675,3.683-4.008,6.146-.438,3.244,2.644,6.195,5.9,6.526s6.419-1.346,8.864-3.523a22.539,22.539,0,0,0,7.445-15.828A24.886,24.886,0,0,0,697.463,191.972Z" transform="translate(-560.25 -180.482)" fill="#ffa49c"/>
        <path id="Trazado_710139" data-name="Trazado 710139" d="M723.754,191.232a20.211,20.211,0,0,1-6.281,4.443,9.388,9.388,0,0,1,2.2-9.645s-17.4.29-14.092-7.668c.667-1.613.889-4,3.576-6.364a16.383,16.383,0,0,1,4.829,1.7c2.12,1.122,5.778,3.381,7.347,6.311,1.864,1.079,3.715,2.363,4.439,4.357C726.628,186.736,725.549,189.463,723.754,191.232Z" transform="translate(-570.392 -168.263)" fill="#8a4632"/>
        <path id="Trazado_710140" data-name="Trazado 710140" d="M731.882,229.325a1.343,1.343,0,0,1,1.367-1.106,1.746,1.746,0,0,1,1.478,1.082,2.523,2.523,0,0,1-.029,1.885,4.644,4.644,0,0,1-1.1,1.571,4.376,4.376,0,0,1-2.468,1.354,2.312,2.312,0,0,1-2.391-1.2C730.089,231.917,731.691,230.99,731.882,229.325Z" transform="translate(-584.812 -202.655)" fill="#ffa49c"/>
        <path id="Trazado_710144" data-name="Trazado 710144" d="M760.455,415.232a43.27,43.27,0,0,1-5.374,7.055c-.415.443.251,1.111.667.667a44.454,44.454,0,0,0,5.521-7.246C761.587,415.189,760.771,414.714,760.455,415.232Z" transform="translate(-600.847 -316.921)" fill="#cb860e"/>
        <path id="Trazado_710145" data-name="Trazado 710145" d="M708.189,504.643a.472.472,0,0,0-.943,0,98.271,98.271,0,0,0,.583,11.93c.066.6,1.01.6.944,0A98.271,98.271,0,0,1,708.189,504.643Z" transform="translate(-571.661 -371.476)" fill="#16162b"/>
        <path id="Trazado_710146" data-name="Trazado 710146" d="M701.063,508.215a15.1,15.1,0,0,1-4.3-4.8.472.472,0,0,0-.815.476,16.183,16.183,0,0,0,4.634,5.141C701.08,509.386,701.552,508.568,701.063,508.215Z" transform="translate(-564.717 -370.861)" fill="#16162b"/>
        <path id="Trazado_710147" data-name="Trazado 710147" d="M570.389,324.064l-6.852-33.045a1.856,1.856,0,0,0-1.821-1.5h-24.5a1.856,1.856,0,0,0-1.821,2.208l6.852,33.045a1.856,1.856,0,0,0,1.822,1.5h24.5A1.855,1.855,0,0,0,570.389,324.064Z" transform="translate(-466.515 -240.154)" fill="#1e1e35"/>
        <path id="Trazado_710148" data-name="Trazado 710148" d="M565.923,324.064l-6.852-33.045a1.856,1.856,0,0,0-1.821-1.5h-24.5a1.856,1.856,0,0,0-1.821,2.208l6.852,33.045a1.856,1.856,0,0,0,1.822,1.5h24.5A1.855,1.855,0,0,0,565.923,324.064Z" transform="translate(-463.783 -240.154)" fill="#272744"/>
        <path id="Trazado_710149" data-name="Trazado 710149" d="M695.569,360.133s-11.817,19.1-33.271,29.237v-.023c.116-.945.224-1.758.321-2.381.233-1.448.449-2.877.651-4.3.1-.732.205-1.468.3-2.191.5-3.671.894-7.225,1.219-10.62.031-.325.062-.651.089-.976C671.505,365.867,689.037,358.364,695.569,360.133Z" transform="translate(-544.168 -283.189)" fill="#cb860e"/>
        <path id="Trazado_710150" data-name="Trazado 710150" d="M647.092,335.249c-.767,1.127-1.6,2.258-2.51,3.381a69.054,69.054,0,0,1-6.1,6.689,79.166,79.166,0,0,1-7.443,6.312l0,0-1.816,1.487a2.539,2.539,0,0,1-2.527.394l-1.751-.685c-.719-.277-1.452-.563-2.185-.854l-1.1-.429c-.36-.156-.719-.317-1.088-.477a86.241,86.241,0,0,1-9.359-4.721c-.724-.433-1.439-.858-2.155-1.283-.7-.451-1.383-.893-2.067-1.339-.338-.217-.681-.442-1.015-.664s-.655-.464-.971-.689l-1.92-1.366c-.611-.477-1.218-.936-1.812-1.4-.3-.234-.594-.459-.889-.689s-.568-.473-.85-.711c-.555-.473-1.11-.937-1.651-1.392s-1.041-.945-1.548-1.409-1.006-.91-1.474-1.379c-.113-.113-.221-.225-.325-.329a17.168,17.168,0,0,1-7.33-3.979,13.2,13.2,0,0,1-2.311-2.931c-.026-.043-.047-.087-.073-.13-.082-.139-.156-.281-.23-.425a.681.681,0,0,1,.607-1.036l-.537-.689c-1.027-1.842.511-1.374.511-1.374-1.574-1.951.789-1.491.789-1.491-1.43-1.331-1.288-2.09-.616-2.272a2.447,2.447,0,0,1,1.483.091l3.164,1.465,6.294,2.306-.594-3.325a2,2,0,0,1,.667.039c2.337.546,3.06,5.332,3.247,7.044.009.065.013.13.022.191l.013.156c.009.1.013.165.017.208a.38.38,0,0,1,0,.048c.065.039.13.082.2.122.5.329,1.049.637,1.582.971s1.071.663,1.639.988,1.131.646,1.708.975c.29.165.581.334.876.5s.594.321.9.481c.6.325,1.209.65,1.825.984.629.316,1.262.633,1.9.958.316.16.637.325.958.49s.659.312.992.464c.655.312,1.322.633,1.994.949q1.027.449,2.059.906c2.787,1.192,5.687,2.375,8.7,3.407a1.566,1.566,0,0,1,.152.052c1.17-1.309,2.3-2.61,3.377-3.888,1.769-2.081,3.368-4.152,4.9-6.112.2-.251.4-.511.594-.759.55-.711,1.079-1.4,1.595-2.089A41.693,41.693,0,0,0,647.092,335.249Z" transform="translate(-496.457 -258.372)" fill="#ffa49c"/>
        <g id="Grupo_926972" data-name="Grupo 926972" transform="translate(125.968 80.054)">
          <path id="Trazado_710151" data-name="Trazado 710151" d="M683.05,368.579a15.753,15.753,0,0,1,5.344,2.5c.468.339.017,1.125-.457.782a15.05,15.05,0,0,0-5.128-2.413.453.453,0,0,1,.241-.874Z" transform="translate(-682.487 -368.563)" fill="#dc6478"/>
        </g>
        <path id="Trazado_710155" data-name="Trazado 710155" d="M538.527,331.968c.13.342.061.937-.693,1.929,0,0,0,0,0,.009-.451.941-1.049,1.543-1.955.854-1.227-.936-2.1-3.268-2.484-4.846a6.231,6.231,0,0,1-.208-2.245,2.819,2.819,0,0,1,.941-1.9,3.141,3.141,0,0,1,2.4-.342,6.791,6.791,0,0,1,1.136.217,1.449,1.449,0,0,1,.2.061c.039.017.078.03.113.048a.383.383,0,0,1,.061.026c.412.2.893.663-.165,1.552,0,0,2.033.134.217,1.816,0,0,1.9.459-.078,2.358a.8.8,0,0,1,.525.464Z" transform="translate(-465.164 -262.071)" fill="#ffa49c"/>
        <path id="Trazado_710156" data-name="Trazado 710156" d="M570.507,334.957l-.453-1.714a.7.7,0,0,0-.679-.523h-6.311a.7.7,0,0,0-.679.881l.453,1.714a.7.7,0,0,0,.679.523h6.31A.7.7,0,0,0,570.507,334.957Z" transform="translate(-483.034 -266.583)" fill="#fff"/>
        <path id="Trazado_710157" data-name="Trazado 710157" d="M503.281,162.378H423.955a3.235,3.235,0,0,0-3.238,3.231v32.385a3.238,3.238,0,0,0,3.238,3.238H493.79a1.215,1.215,0,0,1,.86.357l9.793,9.793a1.216,1.216,0,0,0,2.076-.86V165.609A3.234,3.234,0,0,0,503.281,162.378Z" transform="translate(-420.717 -162.378)" fill="#fd9927"/>
        <g id="Grupo_926973" data-name="Grupo 926973" transform="translate(6.061 9.314)">
          <path id="Trazado_710158" data-name="Trazado 710158" d="M453.964,195.055h-1.607a.381.381,0,0,0-.381.391l.26,5.184a.379.379,0,0,0,.377.372H453.7a.376.376,0,0,0,.377-.372l.261-5.184A.378.378,0,0,0,453.964,195.055Z" transform="translate(-441.095 -186.66)" fill="#fff"/>
          <path id="Trazado_710159" data-name="Trazado 710159" d="M453.256,208.148a1.067,1.067,0,1,0,1.071,1.067A1.067,1.067,0,0,0,453.256,208.148Z" transform="translate(-441.193 -192.657)" fill="#fff"/>
          <path id="Trazado_710160" data-name="Trazado 710160" d="M455.894,199.259,444.8,180.05a.971.971,0,0,0-1.682,0l-11.091,19.209a.972.972,0,0,0,.842,1.457h22.18A.971.971,0,0,0,455.894,199.259Zm-4.1-1.1H436.131a.335.335,0,0,1-.29-.5l7.832-13.565a.334.334,0,0,1,.579,0l7.832,13.565A.335.335,0,0,1,451.794,198.164Z" transform="translate(-431.9 -179.565)" fill="#fff"/>
        </g>
        <rect id="Rectángulo_321819" data-name="Rectángulo 321819" width="23.29" height="3.566" rx="1.783" transform="translate(33.099 10.247)" fill="#fff"/>
        <rect id="Rectángulo_321820" data-name="Rectángulo 321820" width="11.246" height="3.566" rx="1.783" transform="translate(60.207 10.247)" fill="#fff"/>
        <rect id="Rectángulo_321821" data-name="Rectángulo 321821" width="16.271" height="3.566" rx="1.783" transform="translate(33.099 17.51)" fill="#fff"/>
        <rect id="Rectángulo_321822" data-name="Rectángulo 321822" width="18.265" height="3.566" rx="1.783" transform="translate(53.188 17.51)" fill="#fff"/>
        <rect id="Rectángulo_321823" data-name="Rectángulo 321823" width="19.591" height="3.566" rx="1.783" transform="translate(33.099 24.772)" fill="#fff"/>
        <rect id="Rectángulo_321824" data-name="Rectángulo 321824" width="14.945" height="3.566" rx="1.783" transform="translate(56.509 24.772)" fill="#fff"/>
        <path id="Trazado_710161" data-name="Trazado 710161" d="M722.761,308.118c-1.989,2.54-4.184,4.891-6.406,7.226q-1.585,1.666-3.14,3.358a14.7,14.7,0,0,0-2.322,2.639c-.246.455.447.861.693.405a17.339,17.339,0,0,1,2.655-2.986c1.042-1.138,2.112-2.248,3.174-3.367,2.055-2.165,4.072-4.356,5.913-6.708C723.644,308.284,723.08,307.711,722.761,308.118Z" transform="translate(-573.864 -251.447)" fill="#cb860e"/>
        <path id="Trazado_710162" data-name="Trazado 710162" d="M723.283,317.112a7.2,7.2,0,0,1-1.9-3.609c-.106-.506-.88-.292-.775.214a7.977,7.977,0,0,0,2.108,3.964C723.078,318.049,723.646,317.481,723.283,317.112Z" transform="translate(-579.833 -254.65)" fill="#cb860e"/>
        <path id="Trazado_710163" data-name="Trazado 710163" d="M761.524,335.775c-1.037,1.835-1.954,3.741-3.058,5.537-.976,1.587-2.032,3.906-3.626,4.96a.407.407,0,0,0,.1.734l.147.051a.356.356,0,0,0,.48-.334,14.754,14.754,0,0,0,2.856-3.831c1.38-2.178,2.531-4.469,3.8-6.711A.4.4,0,0,0,761.524,335.775Z" transform="translate(-600.663 -268.331)" fill="#cb860e"/>
      </g>
    </g>
  </g>
</svg>
