<svg xmlns="http://www.w3.org/2000/svg" width="320.439" height="299.413" viewBox="0 0 320.439 299.413">
  <g id="Grupo_924251" data-name="Grupo 924251" transform="translate(-8.405 -30.446)">
    <g id="Floor" transform="translate(8.405 144.853)">
      <ellipse id="Floor-2" data-name="Floor" cx="160.219" cy="92.503" rx="160.219" ry="92.503" fill="#fafafa"/>
    </g>
    <g id="Shadows" transform="translate(20.294 162.722)">
      <ellipse id="Shadow" cx="32.099" cy="18.532" rx="32.099" ry="18.532" transform="translate(204 97.097)" fill="#e0e0e0"/>
      <path id="Shadow-2" data-name="Shadow" d="M53.695,336.449l-26.32-15.2c-1.484-.857-1.484-2.246,0-3.1l153.093-88.389a5.938,5.938,0,0,1,5.374,0l26.321,15.2c1.484.857,1.484,2.246,0,3.1L59.068,336.449A5.942,5.942,0,0,1,53.695,336.449Z" transform="translate(-26.261 -229.119)" fill="#e0e0e0"/>
    </g>
    <g id="Clouds" transform="translate(30.488 42.039)">
      <path id="Cloud" d="M76.5,51.109l-5.952,3.436a7.233,7.233,0,0,0,.05-.788V52.033c0-3.069-2.155-4.312-4.812-2.778a9.3,9.3,0,0,0-2.868,2.758c-.435-3.858-3.463-5.3-7.14-3.173a15.91,15.91,0,0,0-7.2,12.468v2.579a6.8,6.8,0,0,0,.61,2.989l-4.944,2.854a5.9,5.9,0,0,0-2.669,4.623c0,1.7,1.2,2.392,2.669,1.541L76.5,57.273a5.9,5.9,0,0,0,2.669-4.623C79.164,50.948,77.969,50.257,76.5,51.109Z" transform="translate(-41.572 -47.858)" fill="#ebebeb"/>
      <path id="Cloud-2" data-name="Cloud" d="M127.091,72.929,122.6,75.522a5.51,5.51,0,0,0,.038-.6v-1.3c0-2.316-1.626-3.254-3.632-2.1a7.023,7.023,0,0,0-2.164,2.081c-.329-2.912-2.613-4-5.388-2.395a12.008,12.008,0,0,0-5.433,9.41v1.947a5.119,5.119,0,0,0,.46,2.255l-3.731,2.155a4.453,4.453,0,0,0-2.015,3.489c0,1.284.9,1.8,2.015,1.163L127.091,77.58a4.452,4.452,0,0,0,2.014-3.489C129.1,72.807,128.2,72.286,127.091,72.929Z" transform="translate(-61.344 -55.417)" fill="#ebebeb"/>
    </g>
    <g id="Device" transform="translate(39.847 30.446)">
      <g id="Monitor">
        <g id="Grupo_920922" data-name="Grupo 920922" transform="translate(63.368 146.382)">
          <g id="Grupo_920921" data-name="Grupo 920921" transform="translate(0.004)">
            <path id="Trazado_695370" data-name="Trazado 695370" d="M189.926,316.446l22.627-13.082c2.332-1.347,3.5-3.111,3.5-4.876s.01-3.147.01-3.147L192.585,282.1a4.978,4.978,0,0,1-2.252-3.9V250.3l-39.52,22.837v27.9a4.979,4.979,0,0,0,2.252,3.9l19.97,11.507C177.7,319.14,185.261,319.139,189.926,316.446Z" transform="translate(-150.811 -250.305)" fill="#263238"/>
          </g>
          <path id="Trazado_695371" data-name="Trazado 695371" d="M160.3,315.261V318.4l-7.243-4.174a4.984,4.984,0,0,1-2.25-3.9V282.426l7.53-4.343c.156,1.911.325,3.888.481,5.813l-5.28,3.056v21.794a4.95,4.95,0,0,0,2.25,3.9Z" transform="translate(-150.805 -259.589)"/>
          <path id="Trazado_695372" data-name="Trazado 695372" d="M154.9,301.741a4.979,4.979,0,0,0,2.252,3.9l17.242,9.931c4.665,2.693,12.228,2.694,16.893,0l22.638-13.082c4.666-2.692,4.666-7.057,0-9.751L196.679,282.8a4.98,4.98,0,0,1-2.252-3.9v-21.8L154.9,279.942Z" transform="translate(-152.175 -252.578)" fill="#37474f"/>
          <path id="Trazado_695373" data-name="Trazado 695373" d="M201.267,285.456v0l-4.588-2.649a4.98,4.98,0,0,1-2.252-3.9v-21.8L154.9,279.942v21.8a4.979,4.979,0,0,0,2.252,3.9l4.509,2.6Z" transform="translate(-152.175 -252.578)" fill="#263238"/>
          <path id="Trazado_695374" data-name="Trazado 695374" d="M231.645,317.949V321.1c0,1.768-1.17,3.524-3.5,4.876l-22.63,13.076a16.94,16.94,0,0,1-8.063,2v-3.134a16.948,16.948,0,0,0,8.063-2l22.63-13.088C230.474,321.486,231.645,319.718,231.645,317.949Z" transform="translate(-166.395 -272.912)" fill="#455a64"/>
        </g>
        <path id="Trazado_695375" data-name="Trazado 695375" d="M58.272,253.084a6.038,6.038,0,0,0,5.457-.1l152.839-88.24a6.222,6.222,0,0,0,2.815-4.876V35.824a6.038,6.038,0,0,0-2.641-4.776,6.039,6.039,0,0,0-5.456.1L58.448,119.39a6.223,6.223,0,0,0-2.816,4.876V248.308A6.038,6.038,0,0,0,58.272,253.084Z" transform="translate(-55.63 -30.446)" fill="#455a64"/>
        <path id="Trazado_695376" data-name="Trazado 695376" d="M66.381,254.668l152.838-88.239a6.221,6.221,0,0,0,2.816-4.876V37.51c0-1.8-1.26-2.523-2.816-1.625L66.383,124.124A6.225,6.225,0,0,0,63.567,129V253.043C63.566,254.839,64.826,255.567,66.381,254.668Z" transform="translate(-58.282 -32.135)" fill="#27debf"/>
        <path id="Trazado_695377" data-name="Trazado 695377" d="M66.381,254.668l152.838-88.239a6.221,6.221,0,0,0,2.816-4.876V37.51c0-1.8-1.26-2.523-2.816-1.625L66.383,124.124A6.225,6.225,0,0,0,63.567,129V253.043C63.566,254.839,64.826,255.567,66.381,254.668Z" transform="translate(-58.282 -32.135)" fill="#37474f"/>
        <path id="Trazado_695378" data-name="Trazado 695378" d="M63.314,361.4a6.078,6.078,0,0,1-5.045-.1,6.045,6.045,0,0,1-2.64-4.785V345.257l5.28,3.055v11.259C60.909,361.21,61.949,361.951,63.314,361.4Z" transform="translate(-55.629 -135.657)" fill="#263238"/>
        <path id="Trazado_695379" data-name="Trazado 695379" d="M63.559,303.909l0,11.254c0,1.795,1.26,2.523,2.815,1.625l152.838-88.239a6.221,6.221,0,0,0,2.816-4.876V212.4Z" transform="translate(-58.279 -91.254)" fill="#37474f"/>
        <path id="Trazado_695380" data-name="Trazado 695380" d="M63.566,303.886v11.277c0,1.795,1.26,2.523,2.815,1.625l152.838-88.239a6.221,6.221,0,0,0,2.816-4.876V212.4Z" transform="translate(-58.282 -91.254)" opacity="0.2"/>
        <path id="Trazado_695381" data-name="Trazado 695381" d="M71.5,235.013V135.1a3.735,3.735,0,0,1,1.689-2.926l144.523-83.44c.933-.539,1.689-.1,1.689.975l0,99.915a3.731,3.731,0,0,1-1.689,2.926L73.186,235.988C72.253,236.527,71.5,236.09,71.5,235.013Z" transform="translate(-60.932 -36.48)" fill="#27debf"/>
        <path id="Trazado_695382" data-name="Trazado 695382" d="M71.5,235.013V135.1a3.735,3.735,0,0,1,1.689-2.926l144.523-83.44c.933-.539,1.689-.1,1.689.975l0,99.915a3.731,3.731,0,0,1-1.689,2.926L73.186,235.988C72.253,236.527,71.5,236.09,71.5,235.013Z" transform="translate(-60.932 -36.48)" opacity="0.3"/>
        <path id="Trazado_695383" data-name="Trazado 695383" d="M181.244,286.319a5.838,5.838,0,0,0-2.642,4.576c0,1.684,1.183,2.367,2.642,1.525a5.838,5.838,0,0,0,2.642-4.576C183.886,286.159,182.7,285.477,181.244,286.319Z" transform="translate(-96.727 -115.839)" fill="#455a64"/>
        <path id="Trazado_695384" data-name="Trazado 695384" d="M61.741,170.224a5.97,5.97,0,0,0-.832,2.783V288.8l-5.28-3.055V169.963a5.827,5.827,0,0,1,.832-2.782Z" transform="translate(-55.629 -76.143)" fill="#263238"/>
      </g>
    </g>
    <g id="Spreadsheets" transform="translate(69.145 35.083)">
      <g id="Window" transform="translate(0 0)">
        <g id="Window-2" data-name="Window">
          <path id="Trazado_695385" data-name="Trazado 695385" d="M255.374,37.561a1.388,1.388,0,0,0-1.437.113L101.612,125.648a4.359,4.359,0,0,0-1.973,3.417v102.7a1.921,1.921,0,0,0,.832,1.714c.322.173,2.017,1.159,2.52,1.43a1.133,1.133,0,0,0,1.143-.066l152.322-88.007a4.351,4.351,0,0,0,1.975-3.414V40.244a1.365,1.365,0,0,0-.611-1.3C257.465,38.762,255.736,37.78,255.374,37.561Z" transform="translate(-99.636 -37.41)" fill="#27debf"/>
          <g id="Grupo_920923" data-name="Grupo 920923" transform="translate(0 1.425)">
            <g id="Trazado_695386" data-name="Trazado 695386" transform="translate(-100.901 -39.55)" fill="#fafafa" stroke-miterlimit="10">
              <path d="M 104.747673034668 235.2451782226562 C 104.2940444946289 235.2451782226562 103.9249954223633 234.6441955566406 103.9249954223633 233.9055328369141 L 103.9249954223633 131.2103576660156 C 103.9249954223633 130.1322021484375 104.713996887207 128.7653961181641 105.6479187011719 128.2257232666016 L 257.9728088378906 40.25270462036133 C 258.2022705078125 40.12025451660156 258.4205627441406 40.05022811889648 258.6040344238281 40.05022811889648 C 259.1379089355469 40.05022811889648 259.1955261230469 40.68567657470703 259.1955261230469 40.95890426635742 L 259.1955261230469 144.1341094970703 C 259.1955261230469 145.2120513916016 258.4060363769531 146.5767822265625 257.4715270996094 147.1142272949219 L 105.1489715576172 235.1217803955078 C 105.0068435668945 235.2034759521484 104.8715438842773 235.2451782226562 104.747673034668 235.2451782226562 Z" stroke="none"/>
              <path d="M 258.60400390625 40.55020141601562 C 258.5696411132812 40.55020141601562 258.4406127929688 40.55996704101562 258.222900390625 40.68565368652344 L 105.8981018066406 128.6586303710938 C 105.1133728027344 129.1121215820312 104.4249877929688 130.3045196533203 104.4249877929688 131.2103271484375 L 104.4249877929688 233.905517578125 C 104.4249877929688 234.46533203125 104.6860656738281 234.7451782226562 104.7476806640625 234.7451782226562 C 104.7565612792969 234.7451782226562 104.8056335449219 234.7424163818359 104.8988037109375 234.6888427734375 L 257.2222595214844 146.6807861328125 C 258.007080078125 146.2294464111328 258.6955261230469 145.0394134521484 258.6955261230469 144.1340942382812 L 258.6955261230469 40.95889282226562 C 258.6955261230469 40.71568298339844 258.6432495117188 40.58975219726562 258.6163635253906 40.55059814453125 C 258.613037109375 40.55036926269531 258.6089172363281 40.55020141601562 258.60400390625 40.55020141601562 M 258.6040344238281 39.55021667480469 C 259.2513427734375 39.55021667480469 259.6955261230469 40.06620788574219 259.6955261230469 40.95889282226562 L 259.6955261230469 144.1340942382812 C 259.6955261230469 145.3918151855469 258.8113403320312 146.9204864501953 257.7207946777344 147.5476531982422 L 105.3990783691406 235.5547027587891 C 104.3084106445312 236.1819152832031 103.4249877929688 235.1638641357422 103.4249877929688 233.905517578125 L 103.4249877929688 131.2103271484375 C 103.4249877929688 129.9519958496094 104.307861328125 128.4226531982422 105.3977661132812 127.7928009033203 L 257.7227783203125 39.8197021484375 C 258.0394897460938 39.63687133789062 258.3388671875 39.55021667480469 258.6040344238281 39.55021667480469 Z" stroke="none" fill="#e0e0e0"/>
            </g>
            <path id="Trazado_695387" data-name="Trazado 695387" d="M100.466,282.7c.214.113,1.748.988,2.42,1.371a2.011,2.011,0,0,1-.726-1.657v-96.24l-2.525-1.477v96.29A1.919,1.919,0,0,0,100.466,282.7Z" transform="translate(-99.634 -88.058)" fill="#f0f0f0"/>
          </g>
          <g id="Grupo_920924" data-name="Grupo 920924">
            <path id="Trazado_695388" data-name="Trazado 695388" d="M259.694,40.944c-.007-1.246-.886-1.75-1.971-1.124L105.4,127.793a4.361,4.361,0,0,0-1.973,3.418v6.454L259.694,47.419Z" transform="translate(-100.901 -38.125)" fill="#27debf"/>
            <path id="Trazado_695389" data-name="Trazado 695389" d="M256.757,39.1,104.435,127.078a4.055,4.055,0,0,0-1.39,1.464l-2.507-1.452a3.939,3.939,0,0,1,1.372-1.439L254.238,37.676a1.387,1.387,0,0,1,1.433-.118c.354.217,1.992,1.148,2.408,1.372A1.426,1.426,0,0,0,256.757,39.1Z" transform="translate(-99.936 -37.41)" fill="#fff" opacity="0.4"/>
            <path id="Trazado_695390" data-name="Trazado 695390" d="M99.634,180.493v-6.414a4.07,4.07,0,0,1,.6-1.973l2.513,1.446a3.988,3.988,0,0,0-.59,1.961v6.452Z" transform="translate(-99.634 -82.425)" opacity="0.15"/>
          </g>
          <g id="Grupo_920930" data-name="Grupo 920930" transform="translate(0 9.294)">
            <path id="Trazado_695391" data-name="Trazado 695391" d="M103.426,141.614l0,11.621,156.27-90.226V51.369Z" transform="translate(-100.901 -51.369)" fill="#ebebeb"/>
            <g id="Grupo_920929" data-name="Grupo 920929" transform="translate(9.029 6.431)">
              <path id="Trazado_695392" data-name="Trazado 695392" d="M113.2,182.7l10.106-5.806v5.793l-10.11,5.837Z" transform="translate(-113.195 -99.751)" fill="#e0e0e0"/>
              <g id="Grupo_920925" data-name="Grupo 920925" transform="translate(12.605 64.03)">
                <path id="Trazado_695393" data-name="Trazado 695393" d="M132.128,173.227v2.29l5.041-2.911v-2.289Z" transform="translate(-132.128 -161.583)" fill="#e0e0e0"/>
                <path id="Trazado_695394" data-name="Trazado 695394" d="M132.128,178.537v2.29l5.041-2.911v-2.289Z" transform="translate(-132.128 -163.358)" fill="#e0e0e0"/>
                <path id="Trazado_695395" data-name="Trazado 695395" d="M143.485,166.668v2.29l5.041-2.911v-2.289Z" transform="translate(-135.923 -159.391)" fill="#e0e0e0"/>
                <path id="Trazado_695396" data-name="Trazado 695396" d="M143.485,171.979v2.29l5.041-2.911v-2.289Z" transform="translate(-135.923 -161.166)" fill="#e0e0e0"/>
                <path id="Trazado_695397" data-name="Trazado 695397" d="M154.842,160.11v2.29l5.041-2.911V157.2Z" transform="translate(-139.719 -157.199)" fill="#e0e0e0"/>
                <path id="Trazado_695398" data-name="Trazado 695398" d="M154.842,165.42v2.29l5.041-2.911V162.51Z" transform="translate(-139.719 -158.974)" fill="#e0e0e0"/>
              </g>
              <g id="Grupo_920926" data-name="Grupo 920926" transform="translate(50.411 42.203)">
                <path id="Trazado_695399" data-name="Trazado 695399" d="M188.91,140.443v2.29l5.041-2.911v-2.289Z" transform="translate(-188.91 -128.8)" fill="#e0e0e0"/>
                <path id="Trazado_695400" data-name="Trazado 695400" d="M188.91,145.754v2.29l5.041-2.911v-2.289Z" transform="translate(-188.91 -130.574)" fill="#e0e0e0"/>
                <path id="Trazado_695401" data-name="Trazado 695401" d="M200.267,133.885v2.29l5.041-2.911v-2.289Z" transform="translate(-192.705 -126.608)" fill="#e0e0e0"/>
                <path id="Trazado_695402" data-name="Trazado 695402" d="M200.267,139.2v2.29l5.041-2.911v-2.289Z" transform="translate(-192.705 -128.383)" fill="#e0e0e0"/>
                <path id="Trazado_695403" data-name="Trazado 695403" d="M211.624,127.326v2.29l5.041-2.911v-2.289Z" transform="translate(-196.501 -124.416)" fill="#e0e0e0"/>
                <path id="Trazado_695404" data-name="Trazado 695404" d="M211.624,132.637v2.29l5.041-2.911v-2.289Z" transform="translate(-196.501 -126.191)" fill="#e0e0e0"/>
              </g>
              <path id="Trazado_695405" data-name="Trazado 695405" d="M166.2,151.365l12.6-7.276v5.821l-12.6,7.275Z" transform="translate(-130.908 -88.787)" fill="#e0e0e0"/>
              <path id="Trazado_695406" data-name="Trazado 695406" d="M222.985,119.317l10.106-5.807V119.3l-10.11,5.837Z" transform="translate(-149.886 -78.568)" fill="#e0e0e0"/>
              <g id="Grupo_920927" data-name="Grupo 920927" transform="translate(85.701 21.83)">
                <path id="Trazado_695407" data-name="Trazado 695407" d="M241.914,109.843v2.29l5.041-2.911v-2.289Z" transform="translate(-241.914 -98.199)" fill="#e0e0e0"/>
                <path id="Trazado_695408" data-name="Trazado 695408" d="M241.914,115.153v2.29l5.041-2.911v-2.289Z" transform="translate(-241.914 -99.974)" fill="#e0e0e0"/>
                <path id="Trazado_695409" data-name="Trazado 695409" d="M253.271,103.284v2.29l5.041-2.911v-2.289Z" transform="translate(-245.71 -96.007)" fill="#e0e0e0"/>
                <path id="Trazado_695410" data-name="Trazado 695410" d="M253.271,108.595v2.29l5.041-2.911v-2.289Z" transform="translate(-245.71 -97.782)" fill="#e0e0e0"/>
                <path id="Trazado_695411" data-name="Trazado 695411" d="M264.628,96.726v2.29L269.67,96.1V93.815Z" transform="translate(-249.505 -93.815)" fill="#e0e0e0"/>
                <path id="Trazado_695412" data-name="Trazado 695412" d="M264.628,102.036v2.29l5.041-2.911V99.126Z" transform="translate(-249.505 -95.59)" fill="#e0e0e0"/>
              </g>
              <g id="Grupo_920928" data-name="Grupo 920928" transform="translate(123.508)">
                <path id="Trazado_695413" data-name="Trazado 695413" d="M298.7,77.056v2.29l5.041-2.911V74.145Z" transform="translate(-298.698 -65.412)" fill="#e0e0e0"/>
                <path id="Trazado_695414" data-name="Trazado 695414" d="M298.7,82.366v2.29l5.041-2.911V79.456Z" transform="translate(-298.698 -67.187)" fill="#e0e0e0"/>
                <path id="Trazado_695415" data-name="Trazado 695415" d="M310.055,70.5v2.29l5.041-2.911V67.587Z" transform="translate(-302.494 -63.22)" fill="#e0e0e0"/>
                <path id="Trazado_695416" data-name="Trazado 695416" d="M310.055,75.808V78.1l5.041-2.911V72.9Z" transform="translate(-302.494 -64.995)" fill="#e0e0e0"/>
                <path id="Trazado_695417" data-name="Trazado 695417" d="M321.412,63.939v2.29l5.041-2.911V61.028Z" transform="translate(-306.289 -61.028)" fill="#e0e0e0"/>
                <path id="Trazado_695418" data-name="Trazado 695418" d="M321.412,69.249v2.29l5.041-2.911V66.339Z" transform="translate(-306.289 -62.803)" fill="#e0e0e0"/>
              </g>
              <path id="Trazado_695419" data-name="Trazado 695419" d="M275.986,87.981l12.6-7.276v5.821l-12.6,7.275Z" transform="translate(-167.6 -67.604)" fill="#e0e0e0"/>
            </g>
            <path id="Trazado_695420" data-name="Trazado 695420" d="M102.16,186.171l-2.525-1.478v11.645l2.523,1.454Z" transform="translate(-99.634 -95.926)" fill="#e0e0e0"/>
          </g>
          <g id="Grupo_920931" data-name="Grupo 920931" transform="translate(118.467 8.313)">
            <path id="Trazado_695421" data-name="Trazado 695421" d="M277.566,69.582v.428c0,.686.481.963,1.074.621l30.617-17.677a2.374,2.374,0,0,0,1.075-1.862v-.429c0-.685-.481-.963-1.075-.621L278.641,67.72A2.376,2.376,0,0,0,277.566,69.582Z" transform="translate(-277.566 -49.896)" fill="#f5f5f5"/>
            <path id="Trazado_695422" data-name="Trazado 695422" d="M324.249,51.092v-.429c0-.685-.481-.963-1.075-.621l-3.966,2.29h0v2.911h0l3.966-2.29A2.374,2.374,0,0,0,324.249,51.092Z" transform="translate(-291.483 -49.896)" fill="#455a64"/>
          </g>
        </g>
        <g id="Spreadsheets-2" data-name="Spreadsheets" transform="translate(4.734 24.763)">
          <path id="Trazado_695423" data-name="Trazado 695423" d="M107.211,162.724l151.232-87.3V81.23L119.809,161.274l0,75.671-12.6,7.272Z" transform="translate(-106.9 -74.877)" fill="#f0f0f0"/>
          <path id="Trazado_695424" data-name="Trazado 695424" d="M126.133,200.718l12.592-7.27v5.806l-12.592,7.282Z" transform="translate(-113.224 -114.321)" fill="#27debf"/>
          <path id="Trazado_695425" data-name="Trazado 695425" d="M126.133,270.65l12.592-7.27v5.806l-12.592,7.282Z" transform="translate(-113.224 -137.693)" fill="#27debf"/>
          <g id="Grupo_920932" data-name="Grupo 920932" transform="translate(12.909 131.508)">
            <path id="Trazado_695426" data-name="Trazado 695426" d="M126.133,279.393l12.592-7.27v5.806l-12.592,7.282Z" transform="translate(-126.133 -272.123)" fill="#27debf"/>
            <path id="Trazado_695427" data-name="Trazado 695427" d="M126.133,279.393l12.592-7.27v5.806l-12.592,7.282Z" transform="translate(-126.133 -272.123)" fill="#fff" opacity="0.8"/>
          </g>
          <g id="Grupo_920933" data-name="Grupo 920933" transform="translate(88.517 82.031)">
            <path id="Trazado_695428" data-name="Trazado 695428" d="M239.692,205.08l12.592-7.27v5.806L239.692,210.9Z" transform="translate(-239.692 -197.81)" fill="#27debf"/>
            <path id="Trazado_695429" data-name="Trazado 695429" d="M239.692,205.08l12.592-7.27v5.806L239.692,210.9Z" transform="translate(-239.692 -197.81)" opacity="0.3"/>
          </g>
          <g id="Grupo_920934" data-name="Grupo 920934" transform="translate(88.517 87.852)">
            <path id="Trazado_695430" data-name="Trazado 695430" d="M239.692,213.823l12.592-7.27v5.806l-12.592,7.282Z" transform="translate(-239.692 -206.553)" fill="#27debf"/>
            <path id="Trazado_695431" data-name="Trazado 695431" d="M239.692,213.823l12.592-7.27v5.806l-12.592,7.282Z" transform="translate(-239.692 -206.553)" opacity="0.4"/>
          </g>
          <g id="Grupo_920935" data-name="Grupo 920935" transform="translate(88.517 93.674)">
            <path id="Trazado_695432" data-name="Trazado 695432" d="M239.692,222.567l12.592-7.27V221.1l-12.592,7.282Z" transform="translate(-239.692 -215.297)" fill="#27debf"/>
            <path id="Trazado_695433" data-name="Trazado 695433" d="M239.692,222.567l12.592-7.27V221.1l-12.592,7.282Z" transform="translate(-239.692 -215.297)" opacity="0.5"/>
          </g>
          <g id="Grupo_920936" data-name="Grupo 920936" transform="translate(88.517 99.495)">
            <path id="Trazado_695434" data-name="Trazado 695434" d="M239.692,231.31l12.592-7.27v5.806l-12.592,7.282Z" transform="translate(-239.692 -224.04)" fill="#27debf"/>
            <path id="Trazado_695435" data-name="Trazado 695435" d="M239.692,231.31l12.592-7.27v5.806l-12.592,7.282Z" transform="translate(-239.692 -224.04)" opacity="0.3"/>
          </g>
          <path id="Trazado_695436" data-name="Trazado 695436" d="M220.78,146.067l12.592-7.27v29.1l-12.592,7.282Z" transform="translate(-144.855 -96.057)" fill="#27debf"/>
          <path id="Trazado_695437" data-name="Trazado 695437" d="M220.78,198.526l12.592-7.27V232l-12.592,7.282Z" transform="translate(-144.855 -113.589)" fill="#27debf"/>
          <g id="Grupo_920937" data-name="Grupo 920937" transform="translate(25.501 106.77)">
            <path id="Trazado_695438" data-name="Trazado 695438" d="M145.046,242.238l12.592-7.27v5.806l-12.592,7.282Z" transform="translate(-145.046 -234.968)" fill="#27debf"/>
            <path id="Trazado_695439" data-name="Trazado 695439" d="M145.046,242.238l12.592-7.27v5.806l-12.592,7.282Z" transform="translate(-145.046 -234.968)" opacity="0.3"/>
          </g>
          <g id="Grupo_920938" data-name="Grupo 920938" transform="translate(50.72 63.113)">
            <path id="Trazado_695440" data-name="Trazado 695440" d="M182.924,176.666l12.592-7.27V175.2l-12.592,7.282Z" transform="translate(-182.924 -169.396)" fill="#27debf"/>
            <path id="Trazado_695441" data-name="Trazado 695441" d="M182.924,176.666l12.592-7.27V175.2l-12.592,7.282Z" transform="translate(-182.924 -169.396)" fill="#fff" opacity="0.6"/>
          </g>
          <g id="Grupo_920939" data-name="Grupo 920939" transform="translate(113.736 61.658)">
            <path id="Trazado_695442" data-name="Trazado 695442" d="M277.571,174.481l12.592-7.27v5.806L277.571,180.3Z" transform="translate(-277.571 -167.211)" fill="#27debf"/>
            <path id="Trazado_695443" data-name="Trazado 695443" d="M277.571,174.481l12.592-7.27v5.806L277.571,180.3Z" transform="translate(-277.571 -167.211)" fill="#fff" opacity="0.8"/>
          </g>
          <path id="Trazado_695444" data-name="Trazado 695444" d="M277.571,191.973l12.592-7.27v5.806l-12.592,7.282Z" transform="translate(-163.835 -111.399)" fill="#27debf"/>
          <path id="Trazado_695445" data-name="Trazado 695445" d="M106.9,162.186l-.155.089v82.209l151.7-87.583.155-.09V74.6Zm151.074-11.535L246,157.566v-5.105l11.977-6.916Zm-150.609,17.8,11.98-6.917v5.106l-11.98,6.917Zm75-8.364v5.106l-11.983,6.918v-5.106Zm-11.983,6.2v-5.107l11.983-6.918v5.106Zm12.6-6.561,11.982-6.918v5.106l-11.982,6.918Zm0-.716v-5.106l11.982-6.918V152.1Zm0-5.822v-5.106l11.982-6.918v5.107Zm0-5.822v-5.106l11.982-6.918v5.106Zm-.621.358-11.983,6.918v-5.106l11.983-6.918Zm0,.716v5.106l-11.983,6.918v-5.106Zm-12.6,12.383-11.982,6.918v-5.107l11.982-6.918Zm0,.716v5.106l-11.982,6.918V168.46Zm0,5.822v5.106l-11.982,6.918v-5.106Zm0,5.822v5.106l-11.982,6.918V180.1Zm.621-.358,11.983-6.918v5.106l-11.983,6.918Zm11.983-1.1v5.106l-11.983,6.918v-5.106Zm.621-.358,11.982-6.918v5.106l-11.982,6.918Zm0-.716v-5.106l11.982-6.918v5.106Zm12.6-12.382,11.982-6.918v5.106l-11.982,6.918Zm0-.716v-5.105l11.982-6.918v5.106Zm0-5.822v-5.106l11.982-6.918v5.106Zm0-5.822v-5.107l11.982-6.918V139Zm0-5.823v-5.106l11.982-6.918v5.106Zm0-5.822v-5.107l11.982-6.918v5.106Zm-.621.358-11.982,6.918V136.44l11.982-6.918Zm-12.6,7.276-11.983,6.918v-5.106l11.983-6.918Zm-12.6,7.277L157.775,156.1v-5.106l11.982-6.918Zm0,.716V155l-11.982,6.918v-5.105Zm-12.6,12.382L145.172,169.2v-5.106l11.982-6.918Zm0,.716V168.1l-11.982,6.918v-5.107Zm0,5.823v5.106l-11.982,6.918v-5.106Zm0,5.822v5.106l-11.982,6.918v-5.106Zm0,5.822v5.106l-11.982,6.918v-5.107Zm0,5.822v5.106l-11.982,6.918V193.2Zm.621-.358,11.982-6.918v5.106l-11.982,6.918Zm11.982-1.1v5.107l-11.982,6.918v-5.107Zm.621-.358,11.983-6.918v5.106l-11.983,6.918Zm12.6-7.276,11.982-6.918v5.106L182.982,182.3Zm12.6-7.276L207.566,163v5.106l-11.982,6.918Zm0-.716V164.1l11.982-6.918v5.106Zm12.6-12.382L220.17,149.9v5.106l-11.983,6.918Zm0-.716V151l11.983-6.918v5.106Zm0-5.822v-5.106l11.983-6.918v5.106Zm0-5.822v-5.106l11.983-6.918v5.106Zm0-5.822v-5.106l11.983-6.918v5.106Zm0-5.822V127.71l11.983-6.918V125.9Zm0-5.822v-5.106l11.983-6.918v5.106Zm0-5.822v-5.106l11.983-6.918v5.106Zm-.621.358-11.982,6.918v-5.105l11.982-6.918Zm-12.6,7.276-11.982,6.918v-5.106l11.982-6.918Zm-12.6,7.276L170.378,143v-5.106l11.983-6.918Zm-12.6,7.277-11.982,6.918v-5.105l11.982-6.918Zm-12.6,7.276-11.982,6.918v-5.105l11.982-6.918Zm0,.717v5.106l-11.982,6.918V158.27Zm-12.6,12.382-11.982,6.918v-5.106l11.982-6.918Zm0,.716v5.106l-11.982,6.918v-5.106Zm0,5.822v5.107L132.57,182.3V177.19Zm0,5.823V181.2l-11.982,6.918v-5.107Zm0,5.822v5.106l-11.982,6.918v-5.106Zm0,5.822v5.107l-11.982,6.918v-5.107Zm0,5.823v5.106l-11.982,6.918V200.48Zm0,5.822v5.107l-11.982,6.918V206.3Zm.621-.358,11.982-6.918v5.107l-11.982,6.918Zm11.982-1.1v5.106l-11.982,6.918v-5.106Zm.621-.358,11.982-6.918v5.107l-11.982,6.918Zm12.6-7.276,11.983-6.918v5.107L170.378,195.4Zm12.6-7.276,11.982-6.918v5.106l-11.982,6.918Zm12.6-7.276,11.982-6.918v5.106l-11.982,6.918Zm12.6-7.276,11.983-6.918v5.106l-11.983,6.918Zm0-.716v-5.106l11.983-6.918v5.106Zm12.6-12.382,11.982-6.918v5.106l-11.982,6.918Zm0-.716v-5.106l11.982-6.918v5.106Zm0-5.822v-5.106l11.982-6.918v5.105Zm0-5.822V137.9l11.982-6.918v5.105Zm0-5.822v-5.106l11.982-6.918v5.106Zm0-5.822v-5.106l11.982-6.918v5.106Zm0-5.822v-5.106l11.982-6.918v5.106Zm0-5.822v-5.106l11.982-6.918V112.8Zm0-5.822v-5.106l11.982-6.918v5.105Zm0-5.822v-5.106l11.982-6.918v5.105Zm-.621.358-11.983,6.918v-5.106l11.983-6.918Zm-12.6,7.276-11.982,6.918V117.52l11.982-6.918Zm-12.6,7.276L182.982,129.9V124.8l11.982-6.918Zm-12.6,7.276-11.983,6.918v-5.106l11.983-6.918Zm-12.6,7.277-11.982,6.918v-5.105l11.982-6.918Zm-12.6,7.276-11.982,6.918v-5.105l11.982-6.918Zm-12.6,7.277-11.982,6.918V153.9l11.982-6.918Zm0,.717v5.105l-11.982,6.918v-5.106Zm-12.6,12.382-11.983,6.918V167l11.983-6.918Zm0,.716v5.107l-11.983,6.918v-5.107Zm0,5.822v5.106l-11.983,6.918v-5.106Zm0,5.822v5.106l-11.983,6.918v-5.106Zm0,5.822v5.107L119.966,195.4v-5.107Zm0,5.822V194.3l-11.983,6.918v-5.106Zm0,5.822v5.107l-11.983,6.918v-5.107Zm0,5.822v5.106l-11.983,6.918v-5.106Zm0,5.822v5.107l-11.983,6.918v-5.107Zm0,5.822v5.107l-11.983,6.918V219.4Zm.621-.358,11.982-6.918v5.106l-11.982,6.918Zm11.982-1.1v5.106l-11.982,6.918v-5.106Zm.621-.358,11.982-6.918v5.106l-11.982,6.918Zm12.6-7.276,11.982-6.918v5.106L157.775,208.5Zm12.6-7.276,11.983-6.918v5.106l-11.983,6.918Zm12.6-7.277,11.982-6.918v5.106l-11.982,6.918Zm12.6-7.276,11.982-6.918v5.106l-11.982,6.918Zm12.6-7.276,11.983-6.918v5.106L208.187,179.4Zm12.6-7.276,11.982-6.918V165.2l-11.982,6.918Zm0-.716v-5.106l11.982-6.918v5.106Zm12.6-12.382L245.376,147V152.1l-11.983,6.919Zm0-.717v-5.105l11.983-6.918v5.105Zm0-5.822v-5.107l11.983-6.918v5.106Zm0-5.823v-5.106l11.983-6.918v5.105Zm0-5.822v-5.105l11.983-6.918v5.105Zm0-5.822V124.8l11.983-6.918v5.105Zm0-5.822V118.98l11.983-6.918v5.106Zm0-5.822v-5.106l11.983-6.918v5.106Zm0-5.822v-5.106l11.983-6.918v5.106Zm0-5.822v-5.105l11.983-6.918V99.7Zm0-5.822V95.691l11.983-6.918v5.105Zm0-5.822v-5.1l11.983-6.918v5.1Zm-.621.358L220.79,102.25v-5.1l11.982-6.918Zm-12.6,7.276-11.983,6.918v-5.1l11.983-6.918Zm-12.6,7.276L195.585,116.8v-5.1l11.982-6.918Zm-12.6,7.276-11.982,6.918v-5.1l11.982-6.918Zm-12.6,7.276-11.983,6.918v-5.1l11.983-6.918Zm-12.6,7.276-11.982,6.918v-5.1l11.982-6.918Zm-12.6,7.277-11.982,6.918v-5.1l11.982-6.918Zm-12.6,7.276-11.982,6.918v-5.1l11.982-6.918Zm-12.6,7.276-11.983,6.918v-5.1l11.983-6.918Zm0,.716v5.106l-11.983,6.918v-5.106Zm-24.584,20.016,11.98-6.917v5.106l-11.98,6.917Zm0,5.822,11.98-6.917v5.107l-11.98,6.917Zm0,5.822L119.346,179v5.106l-11.98,6.918Zm0,5.822,11.98-6.917v5.107l-11.981,6.917Zm0,5.822,11.981-6.917v5.107l-11.981,6.917Zm0,5.823,11.981-6.918v5.106l-11.981,6.918Zm0,5.822,11.981-6.917V207.4l-11.981,6.917Zm0,5.823,11.981-6.918v5.106l-11.981,6.918Zm0,5.822,11.981-6.917v5.107l-11.981,6.917Zm0,5.823,11.981-6.918v5.107l-11.981,6.918Zm0,5.822,11.981-6.917v5.106l-11.981,6.917Zm12.6-7.276,11.983-6.918v5.106l-11.983,6.918Zm11.983-1.1v5.088l-11.983,6.918v-5.088Zm.621-.358,11.982-6.918v5.087l-11.982,6.918Zm12.6-7.276,11.982-6.918v5.087l-11.982,6.918Zm12.6-7.277,11.982-6.918v5.087L157.775,214.3Zm12.6-7.276,11.983-6.918v5.087l-11.983,6.918Zm12.6-7.277,11.982-6.918v5.087l-11.982,6.918Zm12.6-7.276,11.982-6.918v5.087l-11.982,6.918Zm12.6-7.276,11.983-6.918v5.087L208.187,185.2Zm12.6-7.276,11.982-6.918V171l-11.982,6.918Zm12.6-7.276,11.983-6.918v5.086l-11.983,6.918Zm0-.717v-5.105l11.983-6.918v5.105Zm24.581-20.014L246,151.744v-5.105l11.978-6.916Zm0-5.822L246,145.922v-5.106l11.978-6.916Zm0-5.822L246,140.1v-5.107l11.978-6.915Zm0-5.823L246,134.276V129.17l11.978-6.915Zm0-5.822L246,128.454v-5.105l11.978-6.916Zm0-5.822L246,122.632v-5.105l11.978-6.916Zm0-5.822L246,116.809V111.7l11.978-6.916Zm0-5.823L246,110.987v-5.106l11.978-6.916Zm0-5.822L246,105.164v-5.106l11.978-6.916Zm0-5.822L246,99.342V94.237l11.978-6.916Zm0-5.822L246,93.52V88.414L257.975,81.5Zm0-5.822L246,87.7v-5.1l11.978-6.916Zm-138.63,74.935v5.1l-11.98,6.917v-5.1Zm-11.981,82.605,11.981-6.918v5.088l-11.981,6.918ZM246,163.369v-5.086l11.977-6.916v5.086Z" transform="translate(-106.744 -74.603)" fill="#e0e0e0"/>
          <g id="Grupo_920941" data-name="Grupo 920941" transform="translate(101.109 6.357)">
            <path id="Trazado_695446" data-name="Trazado 695446" d="M258.6,113.246l50.434-29.095v29.112L258.6,142.35Z" transform="translate(-258.605 -84.151)" fill="#fafafa" stroke="#e0e0e0" stroke-miterlimit="10" stroke-width="1"/>
            <g id="Grupo_920940" data-name="Grupo 920940" transform="translate(2.55 14.501)">
              <path id="Trazado_695447" data-name="Trazado 695447" d="M262.435,142.859l6.816-18.612,7.536,4.506,7.577-7.719,7.557,4.982,7.557-18.607,7.557,3.876" transform="translate(-262.435 -106.424)" fill="none" stroke="#455a64" stroke-linecap="round" stroke-linejoin="round" stroke-width="0.75"/>
              <path id="Trazado_695448" data-name="Trazado 695448" d="M272.291,131.324a1.683,1.683,0,0,0-.76,1.32c0,.487.34.684.76.44a1.687,1.687,0,0,0,.76-1.32C273.05,131.279,272.71,131.082,272.291,131.324Z" transform="translate(-265.475 -114.382)" fill="#27debf"/>
              <path id="Trazado_695449" data-name="Trazado 695449" d="M283.641,138.092a1.683,1.683,0,0,0-.76,1.32c0,.487.34.684.76.44a1.687,1.687,0,0,0,.76-1.32C284.4,138.047,284.06,137.85,283.641,138.092Z" transform="translate(-269.268 -116.644)" fill="#27debf"/>
              <path id="Trazado_695450" data-name="Trazado 695450" d="M294.991,126.5a1.683,1.683,0,0,0-.76,1.32c0,.487.34.684.76.441a1.688,1.688,0,0,0,.76-1.32C295.75,126.458,295.41,126.261,294.991,126.5Z" transform="translate(-273.061 -112.771)" fill="#27debf"/>
              <path id="Trazado_695451" data-name="Trazado 695451" d="M306.341,133.977a1.684,1.684,0,0,0-.76,1.32c0,.487.34.684.76.44a1.687,1.687,0,0,0,.76-1.32C307.1,133.932,306.76,133.735,306.341,133.977Z" transform="translate(-276.854 -115.269)" fill="#27debf"/>
              <path id="Trazado_695452" data-name="Trazado 695452" d="M317.691,106.034a1.683,1.683,0,0,0-.76,1.32c0,.487.34.684.76.44a1.687,1.687,0,0,0,.76-1.32C318.45,105.989,318.11,105.792,317.691,106.034Z" transform="translate(-280.647 -105.93)" fill="#27debf"/>
              <path id="Trazado_695453" data-name="Trazado 695453" d="M329.041,111.856a1.683,1.683,0,0,0-.76,1.32c0,.487.34.684.76.441a1.688,1.688,0,0,0,.76-1.32C329.8,111.811,329.46,111.614,329.041,111.856Z" transform="translate(-284.441 -107.876)" fill="#27debf"/>
            </g>
          </g>
        </g>
      </g>
    </g>
    <g id="Charts" transform="translate(93.796 173.425)">
      <g id="Charts-2" data-name="Charts" transform="translate(86.267)">
        <g id="Grupo_920942" data-name="Grupo 920942" transform="translate(52.93)">
          <path id="Trazado_695454" data-name="Trazado 695454" d="M359.136,245.195l-13.41,7.742,13.411,7.744,13.411-7.743Z" transform="translate(-345.726 -245.195)" fill="#455a64"/>
          <path id="Trazado_695455" data-name="Trazado 695455" d="M379.282,256.8v30.8l-13.411,7.743V264.56Z" transform="translate(-352.458 -249.073)" fill="#37474f"/>
          <path id="Trazado_695456" data-name="Trazado 695456" d="M359.137,264.561v30.777l-13.411-7.744V256.8Z" transform="translate(-345.726 -249.074)" fill="#263238"/>
        </g>
        <g id="Grupo_920943" data-name="Grupo 920943" transform="translate(35.287 23.54)">
          <path id="Trazado_695457" data-name="Trazado 695457" d="M332.637,280.551l-13.41,7.742,13.411,7.744,13.41-7.743Z" transform="translate(-319.227 -280.551)" fill="#27debf"/>
          <path id="Trazado_695458" data-name="Trazado 695458" d="M332.637,280.551l-13.41,7.742,13.411,7.744,13.41-7.743Z" transform="translate(-319.227 -280.551)" fill="#fff" opacity="0.3"/>
          <path id="Trazado_695459" data-name="Trazado 695459" d="M352.782,292.154V309.6l-13.411,7.743V299.916Z" transform="translate(-325.958 -284.429)" fill="#27debf"/>
          <path id="Trazado_695460" data-name="Trazado 695460" d="M332.638,299.916V317.34L319.228,309.6v-17.44Z" transform="translate(-319.227 -284.43)" fill="#27debf"/>
          <path id="Trazado_695461" data-name="Trazado 695461" d="M332.638,299.916V317.34L319.228,309.6v-17.44Z" transform="translate(-319.227 -284.43)" opacity="0.1"/>
        </g>
        <g id="Grupo_920944" data-name="Grupo 920944" transform="translate(17.643 26.484)">
          <path id="Trazado_695462" data-name="Trazado 695462" d="M306.137,284.972l-13.41,7.742,13.411,7.744,13.411-7.743Z" transform="translate(-292.727 -284.972)" fill="#27debf"/>
          <path id="Trazado_695463" data-name="Trazado 695463" d="M306.137,284.972l-13.41,7.742,13.411,7.744,13.411-7.743Z" transform="translate(-292.727 -284.972)" fill="#fff" opacity="0.88"/>
          <path id="Trazado_695464" data-name="Trazado 695464" d="M326.282,296.576V321.26L312.871,329V304.337Z" transform="translate(-299.458 -288.85)" fill="#27debf"/>
          <path id="Trazado_695465" data-name="Trazado 695465" d="M326.282,296.576V321.26L312.871,329V304.337Z" transform="translate(-299.458 -288.85)" fill="#fff" opacity="0.75"/>
          <path id="Trazado_695466" data-name="Trazado 695466" d="M306.138,304.338V329l-13.411-7.744V296.578Z" transform="translate(-292.727 -288.851)" fill="#27debf"/>
          <path id="Trazado_695467" data-name="Trazado 695467" d="M306.138,304.338V329l-13.411-7.744V296.578Z" transform="translate(-292.727 -288.851)" fill="#fff" opacity="0.6"/>
        </g>
        <g id="Grupo_920945" data-name="Grupo 920945" transform="translate(0 52.633)">
          <path id="Trazado_695468" data-name="Trazado 695468" d="M279.637,324.248l-13.41,7.742,13.411,7.744,13.411-7.743Z" transform="translate(-266.227 -324.248)" fill="#27debf"/>
          <path id="Trazado_695469" data-name="Trazado 695469" d="M279.637,324.248l-13.41,7.742,13.411,7.744,13.411-7.743Z" transform="translate(-266.227 -324.248)" opacity="0.3"/>
          <path id="Trazado_695470" data-name="Trazado 695470" d="M299.783,335.851v8.722l-13.411,7.743v-8.7Z" transform="translate(-272.959 -328.126)" fill="#27debf"/>
          <path id="Trazado_695471" data-name="Trazado 695471" d="M299.783,335.851v8.722l-13.411,7.743v-8.7Z" transform="translate(-272.959 -328.126)" opacity="0.4"/>
          <path id="Trazado_695472" data-name="Trazado 695472" d="M279.638,343.613v8.7l-13.411-7.744v-8.719Z" transform="translate(-266.227 -328.126)" fill="#27debf"/>
          <path id="Trazado_695473" data-name="Trazado 695473" d="M279.638,343.613v8.7l-13.411-7.744v-8.719Z" transform="translate(-266.227 -328.126)" opacity="0.55"/>
        </g>
      </g>
      <g id="Charts-3" data-name="Charts" transform="translate(0 76.547)">
        <g id="Grupo_920948" data-name="Grupo 920948" transform="translate(0 16.419)">
          <path id="Trazado_695474" data-name="Trazado 695474" d="M174.136,398.766v5.076l-5.014-13.626v-5.07l.007.007Z" transform="translate(-147.508 -384.933)" fill="#263238"/>
          <path id="Trazado_695475" data-name="Trazado 695475" d="M176.656,402.006v5.073l20.68-7.174v-5.073Z" transform="translate(-150.026 -388.17)" fill="#37474f"/>
          <path id="Trazado_695476" data-name="Trazado 695476" d="M169.123,385.038l5.015,13.624,20.68-7.173C189.142,386.534,179.271,384.056,169.123,385.038Z" transform="translate(-147.508 -384.826)" fill="#455a64"/>
          <path id="Trazado_695477" data-name="Trazado 695477" d="M136.668,407.02a1.336,1.336,0,0,0-.006.155v-.155Z" transform="translate(-136.66 -392.243)" fill="#27debf"/>
          <path id="Trazado_695478" data-name="Trazado 695478" d="M161.228,412.558,158.156,427c-12.534-1.222-21.593-7.563-21.488-14.811l-.006.013v-4.952c0,7.191,9.034,13.464,21.494,14.681l2.11-9.928Z" transform="translate(-136.66 -392.321)" fill="#27debf"/>
          <path id="Trazado_695479" data-name="Trazado 695479" d="M161.228,412.558,158.156,427c-12.534-1.222-21.593-7.563-21.488-14.811l-.006.013v-4.952c0,7.191,9.034,13.464,21.494,14.681l2.11-9.928Z" transform="translate(-136.66 -392.321)" opacity="0.4"/>
          <g id="Grupo_920946" data-name="Grupo 920946" transform="translate(8.416 3.904)">
            <path id="Trazado_695480" data-name="Trazado 695480" d="M172.48,421.086v5.073a40.01,40.01,0,0,0,15.261-2.087c5.912-2.051,10.084-5.307,11.753-9.169a9.149,9.149,0,0,0,.776-3.542c.005-.481,0-5.243,0-5.243a5.385,5.385,0,0,1-3.11-1.9l-3.872,1.343-17.737,6.153Z" transform="translate(-157.046 -395.21)" fill="#27debf"/>
            <path id="Trazado_695481" data-name="Trazado 695481" d="M172.48,421.086v5.073a40.01,40.01,0,0,0,15.261-2.087c5.912-2.051,10.084-5.307,11.753-9.169a9.149,9.149,0,0,0,.776-3.542c.005-.481,0-5.243,0-5.243a5.385,5.385,0,0,1-3.11-1.9l-3.872,1.343-17.737,6.153Z" transform="translate(-157.046 -395.21)" fill="#fff" opacity="0.6"/>
            <path id="Trazado_695482" data-name="Trazado 695482" d="M149.3,395.762l15.407,8.9v-5.073l-15.407-8.9Z" transform="translate(-149.299 -390.689)" fill="#27debf"/>
            <path id="Trazado_695483" data-name="Trazado 695483" d="M149.3,395.762l15.407,8.9v-5.073l-15.407-8.9Z" transform="translate(-149.299 -390.689)" opacity="0.1"/>
          </g>
          <g id="Grupo_920947" data-name="Grupo 920947" transform="translate(0 0.494)">
            <path id="Trazado_695484" data-name="Trazado 695484" d="M136.853,400.374c-1.686,7.929,7.794,15.191,21.3,16.51l3.073-14.446L143.4,392.145C139.678,394.476,137.533,397.174,136.853,400.374Z" transform="translate(-136.658 -387.766)" fill="#27debf"/>
            <path id="Trazado_695485" data-name="Trazado 695485" d="M136.853,400.374c-1.686,7.929,7.794,15.191,21.3,16.51l3.073-14.446L143.4,392.145C139.678,394.476,137.533,397.174,136.853,400.374Z" transform="translate(-136.658 -387.766)" opacity="0.3"/>
            <path id="Trazado_695486" data-name="Trazado 695486" d="M172.57,418.117l-.09.423a40.009,40.009,0,0,0,15.261-2.087c5.912-2.051,10.084-5.307,11.753-9.169,1.571-3.641.741-7.408-2.333-10.687l-3.872,1.343-17.737,6.153Z" transform="translate(-148.63 -389.254)" fill="#27debf"/>
            <path id="Trazado_695487" data-name="Trazado 695487" d="M172.57,418.117l-.09.423a40.009,40.009,0,0,0,15.261-2.087c5.912-2.051,10.084-5.307,11.753-9.169,1.571-3.641.741-7.408-2.333-10.687l-3.872,1.343-17.737,6.153Z" transform="translate(-148.63 -389.254)" fill="#fff" opacity="0.75"/>
            <path id="Trazado_695488" data-name="Trazado 695488" d="M149.3,388.978l15.408,8.9-4.53-12.305A31.581,31.581,0,0,0,149.3,388.978Z" transform="translate(-140.883 -385.568)" fill="#27debf"/>
          </g>
          <path id="Trazado_695489" data-name="Trazado 695489" d="M172.017,412.677V407.6l-3.072,14.446v5.073Z" transform="translate(-147.449 -392.438)" fill="#27debf"/>
          <path id="Trazado_695490" data-name="Trazado 695490" d="M172.017,412.677V407.6l-3.072,14.446v5.073Z" transform="translate(-147.449 -392.438)" opacity="0.55"/>
        </g>
        <g id="Grupo_920950" data-name="Grupo 920950" transform="translate(40.867)">
          <g id="Grupo_920949" data-name="Grupo 920949" transform="translate(0 9.019)">
            <path id="Trazado_695491" data-name="Trazado 695491" d="M201.4,373.712l-3.356,1.938,3.357,1.938,3.357-1.938Z" transform="translate(-198.039 -373.712)" fill="#27debf"/>
            <path id="Trazado_695492" data-name="Trazado 695492" d="M201.4,373.712l-3.356,1.938,3.357,1.938,3.357-1.938Z" transform="translate(-198.039 -373.712)" opacity="0.3"/>
            <path id="Trazado_695493" data-name="Trazado 695493" d="M206.438,376.616v1.945l-3.357,1.938v-1.94Z" transform="translate(-199.724 -374.682)" fill="#27debf"/>
            <path id="Trazado_695494" data-name="Trazado 695494" d="M206.438,376.616v1.945l-3.357,1.938v-1.94Z" transform="translate(-199.724 -374.682)" opacity="0.4"/>
            <path id="Trazado_695495" data-name="Trazado 695495" d="M201.4,378.559v1.94l-3.357-1.938v-1.944Z" transform="translate(-198.039 -374.682)" fill="#27debf"/>
            <path id="Trazado_695496" data-name="Trazado 695496" d="M201.4,378.559v1.94l-3.357-1.938v-1.944Z" transform="translate(-198.039 -374.682)" opacity="0.55"/>
          </g>
          <path id="Trazado_695497" data-name="Trazado 695497" d="M210.485,367.68l12.436-7.18a2.883,2.883,0,0,1,2.6-.048c.7.4.658,1.075-.083,1.5l-12.436,7.18a2.878,2.878,0,0,1-2.6.048C209.706,368.782,209.743,368.109,210.485,367.68Z" transform="translate(-202.004 -360.165)" fill="#e0e0e0"/>
        </g>
        <g id="Grupo_920952" data-name="Grupo 920952" transform="translate(48.429 4.366)">
          <g id="Grupo_920951" data-name="Grupo 920951" transform="translate(0 9.019)">
            <path id="Trazado_695498" data-name="Trazado 695498" d="M212.753,380.269l-3.356,1.938,3.357,1.938,3.357-1.938Z" transform="translate(-209.397 -380.269)" fill="#27debf"/>
            <path id="Trazado_695499" data-name="Trazado 695499" d="M212.753,380.269l-3.356,1.938,3.357,1.938,3.357-1.938Z" transform="translate(-209.397 -380.269)" fill="#fff" opacity="0.88"/>
            <path id="Trazado_695500" data-name="Trazado 695500" d="M217.8,383.173v1.945l-3.357,1.938v-1.94Z" transform="translate(-211.082 -381.239)" fill="#27debf"/>
            <path id="Trazado_695501" data-name="Trazado 695501" d="M217.8,383.173v1.945l-3.357,1.938v-1.94Z" transform="translate(-211.082 -381.239)" fill="#fff" opacity="0.75"/>
            <path id="Trazado_695502" data-name="Trazado 695502" d="M212.753,385.116v1.94l-3.357-1.938v-1.944Z" transform="translate(-209.397 -381.24)" fill="#27debf"/>
            <path id="Trazado_695503" data-name="Trazado 695503" d="M212.753,385.116v1.94l-3.357-1.938v-1.944Z" transform="translate(-209.397 -381.24)" fill="#fff" opacity="0.6"/>
          </g>
          <path id="Trazado_695504" data-name="Trazado 695504" d="M221.843,374.238l12.436-7.18a2.878,2.878,0,0,1,2.6-.048c.7.4.659,1.075-.083,1.5l-12.436,7.181a2.883,2.883,0,0,1-2.6.048C221.064,375.34,221.1,374.666,221.843,374.238Z" transform="translate(-213.362 -366.722)" fill="#e0e0e0"/>
        </g>
        <g id="Grupo_920954" data-name="Grupo 920954" transform="translate(55.991 8.732)">
          <g id="Grupo_920953" data-name="Grupo 920953" transform="translate(0 9.019)">
            <path id="Trazado_695505" data-name="Trazado 695505" d="M224.111,386.826l-3.356,1.938,3.357,1.938,3.357-1.938Z" transform="translate(-220.754 -386.826)" fill="#27debf"/>
            <path id="Trazado_695506" data-name="Trazado 695506" d="M224.111,386.826l-3.356,1.938,3.357,1.938,3.357-1.938Z" transform="translate(-220.754 -386.826)" fill="#fff" opacity="0.3"/>
            <path id="Trazado_695507" data-name="Trazado 695507" d="M229.153,389.73v1.945l-3.357,1.938v-1.94Z" transform="translate(-222.439 -387.797)" fill="#27debf"/>
            <path id="Trazado_695508" data-name="Trazado 695508" d="M224.111,391.673v1.94l-3.357-1.938v-1.944Z" transform="translate(-220.754 -387.797)" fill="#27debf"/>
            <path id="Trazado_695509" data-name="Trazado 695509" d="M224.111,391.673v1.94l-3.357-1.938v-1.944Z" transform="translate(-220.754 -387.797)" opacity="0.1"/>
          </g>
          <path id="Trazado_695510" data-name="Trazado 695510" d="M233.2,380.8l12.436-7.18a2.881,2.881,0,0,1,2.6-.048c.7.4.658,1.075-.083,1.5l-12.436,7.18a2.881,2.881,0,0,1-2.6.048C232.421,381.9,232.458,381.224,233.2,380.8Z" transform="translate(-224.719 -373.28)" fill="#e0e0e0"/>
        </g>
        <g id="Grupo_920956" data-name="Grupo 920956" transform="translate(63.552 13.098)">
          <g id="Grupo_920955" data-name="Grupo 920955" transform="translate(0 9.019)">
            <path id="Trazado_695511" data-name="Trazado 695511" d="M235.468,393.383l-3.356,1.938,3.357,1.938,3.357-1.938Z" transform="translate(-232.111 -393.383)" fill="#455a64"/>
            <path id="Trazado_695512" data-name="Trazado 695512" d="M240.51,396.287v1.945l-3.357,1.938v-1.94Z" transform="translate(-233.796 -394.354)" fill="#37474f"/>
            <path id="Trazado_695513" data-name="Trazado 695513" d="M235.468,398.23v1.94l-3.357-1.938v-1.944Z" transform="translate(-232.111 -394.354)" fill="#263238"/>
          </g>
          <path id="Trazado_695514" data-name="Trazado 695514" d="M244.558,387.353l12.436-7.181a2.883,2.883,0,0,1,2.6-.048c.7.4.658,1.075-.083,1.5l-12.436,7.18a2.878,2.878,0,0,1-2.6.048C243.779,388.454,243.816,387.781,244.558,387.353Z" transform="translate(-236.077 -379.837)" fill="#e0e0e0"/>
        </g>
      </g>
    </g>
    <g id="Character" transform="translate(217.085 142.933)">
      <g id="Character-2" data-name="Character">
        <g id="Grupo_920975" data-name="Grupo 920975">
          <g id="Grupo_920957" data-name="Grupo 920957" transform="translate(48.869 24.022)">
            <path id="Trazado_695515" data-name="Trazado 695515" d="M395.232,235.478c4.616-.026,6.805,1.3,8.466,5.717s6.069,14.545,6.155,17.556c.089,3.123-9.965,12.589-9.6,12.426.111-.05-3.064-5.737-3.064-5.737l5.655-6.93L399.6,249.1Z" transform="translate(-395.232 -235.477)" fill="#ffa8a7"/>
          </g>
          <g id="Grupo_920961" data-name="Grupo 920961" transform="translate(19.143 52.153)">
            <g id="Grupo_920958" data-name="Grupo 920958" transform="translate(23.055 68.834)">
              <path id="Trazado_695516" data-name="Trazado 695516" d="M397.6,387.6c.282.27.336.531.327,1.515s.407,2.085-.1,3c-.378.686-2.306,1.159-3.286.651a10.169,10.169,0,0,1-2.26-2.032,16.036,16.036,0,0,0-1.979-1.914c-.83-.619-1.8-1.031-2.663-1.6a5.319,5.319,0,0,1-2.414-3.987,2.615,2.615,0,0,1,.309-1.519,1.73,1.73,0,0,1,1.738-.569,23.974,23.974,0,0,1,4.855,2.436C393.045,384.22,397.3,387.32,397.6,387.6Z" transform="translate(-385.213 -381.115)" fill="#263238"/>
            </g>
            <path id="Trazado_695517" data-name="Trazado 695517" d="M394.39,384.328c-.03.707-3.009-.947-4.23-.786a.122.122,0,0,0-.034.016c-1.132.545-.192,2.135.864,2.948s4.5,3.344,4.5,3.344l.705-4.083Z" transform="translate(-363.628 -313.088)" fill="#ffa8a7"/>
            <g id="Grupo_920959" data-name="Grupo 920959" transform="translate(0 82.741)">
              <path id="Trazado_695518" data-name="Trazado 695518" d="M368.435,402c.553,0,.8,1.807.9,3.2.079,1.079.487,2.838.106,3.63s-1.836,1.288-4.08,1.242a13.175,13.175,0,0,0-5.294,1.773,8.066,8.066,0,0,1-5.043.632c-1.994-.26-4.047-1.445-4.36-2.276s.109-1.223,4.84-3.167c.043-.018,4.991-2.176,7.3-4.659Z" transform="translate(-350.586 -402.003)" fill="#263238"/>
            </g>
            <path id="Trazado_695519" data-name="Trazado 695519" d="M357.094,407.215c-.655.269-1.22.506-1.719.721-.128.447.043,1.156,2.134,1.5,3.186.531,12.55-6.516,12.55-6.516s-1.342.37-1.594-.4l-4.07.031C362.085,405.039,357.137,407.2,357.094,407.215Z" transform="translate(-352.176 -319.436)" fill="#ffa8a7"/>
            <g id="Grupo_920960" data-name="Grupo 920960" transform="translate(11.583)">
              <path id="Trazado_695520" data-name="Trazado 695520" d="M393.732,329.887a40.593,40.593,0,0,0-.915-9.235s.555-11.888.619-19.363c.126-14.779-.156-16.949-3.426-23.326,0,0-19.088-2.234-19.891,7.068-1,11.585-2.167,30.97-2.136,36.488.023,4.108.488,8.56.715,17.875.145,5.966.774,14.4-.08,21.455,1.08,1.808,4,1.776,5.664.368.479-6.912,3.91-20.147,4.442-24.765a39.1,39.1,0,0,0-.407-9.978s2.529-19.732,2.973-22.734a55.6,55.6,0,0,1,1.107,9.637c-.013,1.31.453,5.705,1.2,13.1.457,4.5,3.643,22.091,4.332,27.746,1.6,1.543,3.662.479,3.755-.192C392.222,347.126,393.732,334.193,393.732,329.887Z" transform="translate(-367.983 -277.729)" fill="#ffa8a7"/>
            </g>
            <path id="Trazado_695521" data-name="Trazado 695521" d="M387.969,310l1.687-9.582a13.1,13.1,0,0,0,7.514-3.945s-1.011,3.832-5.972,5.136l-1.973,8.67-.334,7.9Z" transform="translate(-363.079 -283.995)" opacity="0.15"/>
          </g>
          <g id="Grupo_920963" data-name="Grupo 920963" transform="translate(39.244 19.398)">
            <g id="Grupo_920962" data-name="Grupo 920962">
              <path id="Trazado_695522" data-name="Trazado 695522" d="M380.776,229.941l.8,8.686,7.629-.462-.585-9.632Z" transform="translate(-380.776 -228.532)" fill="#ffa8a7"/>
            </g>
          </g>
          <g id="Grupo_920965" data-name="Grupo 920965" transform="translate(31.109 24.023)">
            <g id="Grupo_920964" data-name="Grupo 920964">
              <path id="Trazado_695523" data-name="Trazado 695523" d="M392.007,266.176a35.234,35.234,0,0,0-3.3-6.6c3.262-10.5,4.306-14.041,3.672-18.532-.4-2.857-2.648-5.713-5.43-5.564,0,0-1.5,0-2.136,0-.125,1.991-5.657,2.089-7.756.718l-1.932.051c-1.367.484-6.015,7.293-6.528,11.814-.416,3.673,2.461,6.856,2.461,6.856a34.962,34.962,0,0,1-.273,4.657s.014,8.888,0,13.307c0,0,1.079,3.408,12.274,2.342,9.958-.948,10.2-4.351,10.2-4.351A21.092,21.092,0,0,0,392.007,266.176Z" transform="translate(-368.557 -235.478)" fill="#27debf"/>
            </g>
          </g>
          <g id="Grupo_920967" data-name="Grupo 920967" transform="translate(31.109 24.023)" opacity="0.3">
            <g id="Grupo_920966" data-name="Grupo 920966">
              <path id="Trazado_695524" data-name="Trazado 695524" d="M392.007,266.176a35.234,35.234,0,0,0-3.3-6.6c3.262-10.5,4.306-14.041,3.672-18.532-.4-2.857-2.648-5.713-5.43-5.564,0,0-1.5,0-2.136,0-.125,1.991-5.657,2.089-7.756.718l-1.932.051c-1.367.484-6.015,7.293-6.528,11.814-.416,3.673,2.461,6.856,2.461,6.856a34.962,34.962,0,0,1-.273,4.657s.014,8.888,0,13.307c0,0,1.079,3.408,12.274,2.342,9.958-.948,10.2-4.351,10.2-4.351A21.092,21.092,0,0,0,392.007,266.176Z" transform="translate(-368.557 -235.478)"/>
            </g>
          </g>
          <g id="Grupo_920970" data-name="Grupo 920970" transform="translate(32.115)">
            <path id="Trazado_695525" data-name="Trazado 695525" d="M378.61,200.1a7.093,7.093,0,0,0-6.135,2.222c-3.9,4.4.377,7.632.377,7.632l5.758-9.854" transform="translate(-370.324 -199.612)" fill="#263238"/>
            <g id="Grupo_920968" data-name="Grupo 920968" transform="translate(0 11.263)">
              <path id="Trazado_695526" data-name="Trazado 695526" d="M371.564,216.314s-1.7,2.549-1.476,2.82a4.044,4.044,0,0,0,1.292.561Z" transform="translate(-370.068 -216.314)" fill="#f28f8f"/>
            </g>
            <g id="Grupo_920969" data-name="Grupo 920969" transform="translate(1.223 2.522)">
              <path id="Trazado_695527" data-name="Trazado 695527" d="M377.361,203.848c-1.645.844-4.486,2.4-5.232,8.451-.765,6.207.611,8.369,1.455,9.185.57.551,3.518.758,5.057.284,1.926-.593,6.1-2.642,8.063-5.841,2.309-3.764,2.8-8.789.148-10.766A9.915,9.915,0,0,0,377.361,203.848Z" transform="translate(-371.905 -203.185)" fill="#ffa8a7"/>
            </g>
            <path id="Trazado_695528" data-name="Trazado 695528" d="M377.529,209.723c-3.439-1.751-2.563-6.317-2.563-6.317s4.916-7.021,13.98-2.48c3.137,1.571,5.018,5.14,4.942,9.318h0a9.839,9.839,0,0,1-9.839,9.839h0a5.736,5.736,0,0,1-5.736-5.736v-.38l.29.094a2.916,2.916,0,0,0,2.678-.716c1.508-1.3,1.69-3.849-.221-4.493s-2.908,1.569-2.908,1.569l0,0-.74,2.03a1.444,1.444,0,0,1-.863-1.852A1.419,1.419,0,0,1,377.529,209.723Z" transform="translate(-371.672 -199.397)" fill="#263238"/>
          </g>
          <g id="Grupo_920972" data-name="Grupo 920972" transform="translate(0.805 11.728)">
            <path id="Trazado_695529" data-name="Trazado 695529" d="M339.409,217.012l-16.366,8.2,7.7,22.179,15.283-8.23Z" transform="translate(-323.042 -217.012)" fill="#27debf"/>
            <path id="Trazado_695530" data-name="Trazado 695530" d="M339.559,220.234l-13.73,6.877,6.82,19.07,12.822-6.9Z" transform="translate(-323.974 -218.089)" fill="#f5f5f5"/>
            <path id="Trazado_695531" data-name="Trazado 695531" d="M338.444,222.8l-.252-.678c-.14-.375-1.276-.172-2.539.453l-2.418,1.2c-1.262.625-2.173,1.436-2.034,1.811l.252.678Z" transform="translate(-325.764 -218.656)" opacity="0.15"/>
            <g id="Grupo_920971" data-name="Grupo 920971" transform="translate(4.068 1.172)">
              <path id="Trazado_695532" data-name="Trazado 695532" d="M337.546,219.041c-.087-.234-.58-.2-1.1.067l-.947.491s-.554-1.465-2.73-.494-1.71,2.669-1.71,2.669l-1.005.532c-.555.294-.955.725-.892.963l.115.43,8.43-4.222S337.632,219.275,337.546,219.041Z" transform="translate(-329.152 -218.771)" fill="#37474f"/>
              <path id="Trazado_695533" data-name="Trazado 695533" d="M337.486,220.46c-.784.37-1.093.549-.879,1.127.245.66.475,1.135.475,1.135l-3.729,1.872s-.294-.838-.423-1.162-.4-.482-.991-.184l-.215-.235,5.88-2.876Z" transform="translate(-330.012 -219.227)" fill="#263238"/>
              <path id="Trazado_695534" data-name="Trazado 695534" d="M338.681,222.856l-.252-.679c-.139-.375-1.276-.171-2.539.454l-2.417,1.2c-1.263.625-2.174,1.436-2.034,1.811l.252.678Z" transform="translate(-329.912 -219.847)" fill="#37474f"/>
            </g>
          </g>
          <g id="Grupo_920974" data-name="Grupo 920974" transform="translate(18.258 24.794)">
            <g id="Grupo_920973" data-name="Grupo 920973">
              <path id="Trazado_695535" data-name="Trazado 695535" d="M368.676,236.64c-2.577-.043-4.135.186-7.653,5.4s-10.038,14.831-10.8,16.076a6.669,6.669,0,0,0-.437,6.011c.809,1.515,2.231,2.04,6.283-2.266,3-3.189,9.308-11.659,9.308-11.659S370.282,241.06,368.676,236.64Z" transform="translate(-349.256 -236.636)" fill="#ffa8a7"/>
            </g>
          </g>
          <path id="Trazado_695536" data-name="Trazado 695536" d="M342.216,266c-2.125.656-9.917-8.621-12.084-11.41a32.114,32.114,0,0,0-6.085-6.175c-3-2.3-2.5-5.738-1.124-8.878.478-1.087,2.023-.349,2.023-.349l.524,1.509.907,2.614c.634.609,1,.809,1.043.632.087-.334-.444-1.74-.406-3.2.045-1.752,1.253-.58,1.609.041a21.817,21.817,0,0,1,1.247,2.916c.586,1.579.306,3.161,1.034,4.243s11.312,9.873,11.312,9.873Z" transform="translate(-321.833 -212.614)" fill="#ffa8a7"/>
        </g>
        <path id="Trazado_695537" data-name="Trazado 695537" d="M388.276,271.678s-7.467,4.41-17.921,0a154.338,154.338,0,0,0-1.9,16.568c-.372,7.068-1.192,22.244-1.192,22.244s3.088,3.6,14.1,2.869c10.583-.7,12.452-3.46,12.452-3.46s.025-13.63.08-19.588C393.968,282.691,392.9,278.527,388.276,271.678Z" transform="translate(-337.017 -223.553)" fill="#27debf"/>
        <path id="Trazado_695538" data-name="Trazado 695538" d="M388.276,271.678s-7.467,4.41-17.921,0a154.338,154.338,0,0,0-1.9,16.568c-.372,7.068-1.192,22.244-1.192,22.244s3.088,3.6,14.1,2.869c10.583-.7,12.452-3.46,12.452-3.46s.025-13.63.08-19.588C393.968,282.691,392.9,278.527,388.276,271.678Z" transform="translate(-337.017 -223.553)" opacity="0.5"/>
        <path id="Trazado_695539" data-name="Trazado 695539" d="M403.283,210.239l1.746-1.6a1.525,1.525,0,0,0-2.585,1.478c-.217-.019-.435-.033-.657-.033v14.038a7.292,7.292,0,0,0,7.292,7.292V217.376A7.293,7.293,0,0,0,403.283,210.239Z" transform="translate(-348.554 -202.32)" fill="#263238"/>
      </g>
    </g>
  </g>
</svg>
