<svg xmlns="http://www.w3.org/2000/svg" width="64.756" height="64.883" viewBox="0 0 64.756 64.883">
  <path id="Icon_awesome-swatchbook" data-name="Icon awesome-swatchbook" d="M60.708,40.552H47.178L23.59,64.187c-.261.262-.569.454-.845.7H60.708a4.052,4.052,0,0,0,4.048-4.055V44.607A4.052,4.052,0,0,0,60.708,40.552ZM55.069,21.176,43.622,9.706a4.041,4.041,0,0,0-5.724,0L28.33,19.292V52.717c0,.375-.085.726-.11,1.095l26.849-26.9A4.062,4.062,0,0,0,55.069,21.176ZM24.283,4.055A4.052,4.052,0,0,0,20.235,0H4.048A4.052,4.052,0,0,0,0,4.055V52.717a12.141,12.141,0,1,0,24.283,0Zm-12.141,51.7a3.041,3.041,0,1,1,3.035-3.041A3.038,3.038,0,0,1,12.141,55.758Zm4.048-23.317H8.1v-8.11h8.1v8.11Zm0-16.221H8.1V8.11h8.1v8.11Z" fill="#fff"/>
</svg>
