<svg xmlns="http://www.w3.org/2000/svg" width="158" height="156" viewBox="0 0 158 156">
  <g id="Grupo_940160" data-name="Grupo 940160" transform="translate(-192.397 -1177)">
    <ellipse id="Elipse_7689" data-name="Elipse 7689" cx="79" cy="78" rx="79" ry="78" transform="translate(192.397 1177)" fill="#0b5999"/>
    <path id="Icon_awesome-brain" data-name="Icon awesome-brain" d="M26.127,0a8.015,8.015,0,0,0-7.763,6.054c-.1,0-.176-.025-.276-.025a8.047,8.047,0,0,0-8.039,8.039,7.408,7.408,0,0,0,.214,1.759,9.962,9.962,0,0,0-5.2,13.679A10.012,10.012,0,0,0,6.205,47.468a9.2,9.2,0,0,0-.176,1.771,9.038,9.038,0,0,0,9.044,9.044,8.516,8.516,0,0,0,1.507-.151,9.022,9.022,0,0,0,17.585-2.864V8.039A8.047,8.047,0,0,0,26.127,0ZM72.352,38.186a10,10,0,0,0-5.062-8.68,9.886,9.886,0,0,0,1.043-4.384,10.049,10.049,0,0,0-6.243-9.3,7.965,7.965,0,0,0-7.826-9.8c-.1,0-.188.025-.276.025a8.024,8.024,0,0,0-15.8,1.985V55.269a9.022,9.022,0,0,0,17.585,2.864,8.517,8.517,0,0,0,1.507.151,9.038,9.038,0,0,0,9.044-9.044,9.2,9.2,0,0,0-.176-1.771A10.049,10.049,0,0,0,72.352,38.186Z" transform="translate(237.334 1224)" fill="#fff"/>
  </g>
</svg>
