<svg xmlns="http://www.w3.org/2000/svg" width="240" height="235.76" viewBox="0 0 240 235.76">
  <g id="Grupo_940153" data-name="Grupo 940153" transform="translate(-1180.334 -400.054)">
    <g id="Grupo_907401" data-name="Grupo 907401" transform="translate(975.214 -1255.186)">
      <g id="Grupo_109984" data-name="Grupo 109984" transform="translate(29.12 203.09)">
        <g id="image-from-rawpixel-id-5912401-jpeg" transform="translate(199.746 1467.416)" fill="#fff" stroke="#4dd0e1" stroke-width="4">
          <rect width="216.255" height="220.495" rx="49" stroke="none"/>
          <rect x="2" y="2" width="212.255" height="216.495" rx="47" fill="none"/>
        </g>
        <path id="Trazado_114005" data-name="Trazado 114005" d="M162.125,0V139.21s2.421,48.454-45.717,48.188S0,187.4,0,187.4" transform="translate(354.41 1648.031) rotate(180)" fill="none" stroke="#0b5999" stroke-width="4"/>
        <path id="Trazado_114006" data-name="Trazado 114006" d="M31.935,21.014,20.954,32.028a5.83,5.83,0,0,1-8.261,0L1.711,21.014a5.871,5.871,0,0,1,0-8.285L12.693,1.716a5.83,5.83,0,0,1,8.261,0L31.935,12.729A5.87,5.87,0,0,1,31.935,21.014Z" transform="translate(209.647 1667.047) rotate(180)" fill="#0b5999" opacity="0.999"/>
        <path id="Trazado_114007" data-name="Trazado 114007" d="M15.968,10.507l-5.491,5.507a2.915,2.915,0,0,1-4.131,0L.855,10.507a2.936,2.936,0,0,1,0-4.143L6.346.858a2.915,2.915,0,0,1,4.131,0l5.491,5.507A2.935,2.935,0,0,1,15.968,10.507Z" transform="translate(370.248 1469.022) rotate(180)" fill="#0b5999" opacity="0.999"/>
      </g>
    </g>
    <g id="Grupo_924121" data-name="Grupo 924121" transform="translate(606.901 221.641)">
      <g id="Grupo_914039" data-name="Grupo 914039" transform="translate(622.017 220.246)">
        <path id="Trazado_687093" data-name="Trazado 687093" d="M776.144,296.654c22.4,0,19.842,40.868,36.011,53.325,21.4,16.49,58.217,8.325,58.217,36.625,0,49.671-47.754,67.671-99.8,67.671s-96.448-27.554-80.95-77.1S724.105,296.654,776.144,296.654Z" transform="translate(-686.495 -296.654)" fill="#4dd0e1" fill-rule="evenodd" opacity="0.33"/>
      </g>
      <g id="Grupo_914040" data-name="Grupo 914040" transform="translate(617.25 371.967)" opacity="0.42">
        <path id="Trazado_687094" data-name="Trazado 687094" d="M678.93,1709.269c20.111,0,36.511-2.167,36.511-4.818s-16.4-4.822-36.511-4.822-36.515,2.167-36.515,4.822S658.815,1709.269,678.93,1709.269Z" transform="translate(-642.415 -1699.629)" fill="#c4f0f5" fill-rule="evenodd"/>
      </g>
      <g id="Grupo_914041" data-name="Grupo 914041" transform="translate(744.204 371.016)" opacity="0.42">
        <path id="Trazado_687095" data-name="Trazado 687095" d="M1839.759,1701.36c12.884,0,23.389-2.364,23.389-5.262s-10.5-5.262-23.389-5.262-23.385,2.364-23.385,5.262S1826.879,1701.36,1839.759,1701.36Z" transform="translate(-1816.374 -1690.836)" fill="#c4f0f5" fill-rule="evenodd"/>
      </g>
      <g id="Grupo_914042" data-name="Grupo 914042" transform="translate(739.491 326.88)">
        <path id="Trazado_687096" data-name="Trazado 687096" d="M1778.369,1294.128l-1.26-2.823-3.129.332a1.416,1.416,0,0,1-.693-.156.948.948,0,0,1-.425-.462.923.923,0,0,1-.03-.626,1.37,1.37,0,0,1,.377-.582l2.3-2.081-1.275-2.871a1.314,1.314,0,0,1-.071-.712.927.927,0,0,1,.306-.541.951.951,0,0,1,.589-.224,1.364,1.364,0,0,1,.671.179l2.688,1.548c.735-.66,1.578-1.51,2.338-2.1a1.406,1.406,0,0,1,.645-.287.979.979,0,0,1,.608.119.9.9,0,0,1,.4.5,1.315,1.315,0,0,1,.037.69l-.638,3.036,2.719,1.57a1.38,1.38,0,0,1,.47.53.93.93,0,0,1,.078.63.95.95,0,0,1-.347.526,1.307,1.307,0,0,1-.641.246l-3.091.328c-.19.9-.392,2.256-.653,3.08a1.45,1.45,0,0,1-.354.608.938.938,0,0,1-.578.265.955.955,0,0,1-.612-.168,1.34,1.34,0,0,1-.429-.533Z" transform="translate(-1772.791 -1282.711)" fill="#0b5999" fill-rule="evenodd"/>
      </g>
      <g id="Grupo_914043" data-name="Grupo 914043" transform="translate(673.786 291.817)">
        <path id="Trazado_687097" data-name="Trazado 687097" d="M1167.4,965.851l.186-2.045-1.92-.822a.921.921,0,0,1-.354-.313.61.61,0,0,1,.089-.779.947.947,0,0,1,.4-.214l2.014-.459.194-2.079a.912.912,0,0,1,.186-.436.649.649,0,0,1,.351-.214.639.639,0,0,1,.418.062.871.871,0,0,1,.328.323l1.059,1.768c.641-.147,1.4-.362,2.036-.462a.957.957,0,0,1,.47.045.631.631,0,0,1,.313.265.6.6,0,0,1,.071.421.89.89,0,0,1-.2.412l-1.35,1.551,1.067,1.792a.907.907,0,0,1,.1.459.64.64,0,0,1-.16.392.622.622,0,0,1-.373.192.889.889,0,0,1-.447-.063l-1.9-.813c-.4.461-.955,1.18-1.38,1.574a.923.923,0,0,1-.4.237.611.611,0,0,1-.418-.034.633.633,0,0,1-.3-.295.892.892,0,0,1-.075-.449Z" transform="translate(-1165.207 -958.477)" fill="#0b5999" fill-rule="evenodd"/>
      </g>
      <g id="Grupo_914044" data-name="Grupo 914044" transform="translate(614.198 306.725)">
        <path id="Trazado_687098" data-name="Trazado 687098" d="M617.276,1097.757a1.2,1.2,0,0,0-.6-1.387c-.459-.164-.932.19-1.059.791q-3.854,18.492,2.789,33.614a.763.763,0,0,0,1.175.414,1.333,1.333,0,0,0,.313-1.54q-6.282-14.3-2.614-31.891Zm2.208,7.313a77.966,77.966,0,0,0,.093,9.05,42.329,42.329,0,0,0,1.3,7.988,1.239,1.239,0,0,1-.518,1.44c-.448.209-.94-.1-1.1-.686a45.1,45.1,0,0,1-1.395-8.517,82.347,82.347,0,0,1-.1-9.4c.03-.619.433-1.1.91-1.063A1.057,1.057,0,0,1,619.483,1105.07Z" transform="translate(-614.198 -1096.33)" fill="#ede4f1" fill-rule="evenodd"/>
      </g>
      <g id="Grupo_914045" data-name="Grupo 914045" transform="translate(791.519 297.453)">
        <path id="Trazado_687099" data-name="Trazado 687099" d="M2256.213,1012.578a1.139,1.139,0,0,1,1.532-1.685,16.162,16.162,0,0,1,4.8,7.822,24.4,24.4,0,0,1,.3,10.4,1.136,1.136,0,0,1-2.245-.354,22.244,22.244,0,0,0-.25-9.442,13.937,13.937,0,0,0-4.135-6.74Zm-1.98,4.652a7.469,7.469,0,0,1,2.047,3.431,8.91,8.91,0,0,1-.034,4.3,1.138,1.138,0,1,0,2.219.507,11.093,11.093,0,0,0,.015-5.385,9.762,9.762,0,0,0-2.64-4.467,1.14,1.14,0,0,0-1.607,1.618Z" transform="translate(-2253.898 -1010.596)" fill="#fff" fill-rule="evenodd"/>
      </g>
      <g id="Grupo_914046" data-name="Grupo 914046" transform="translate(658.769 210.981)">
        <path id="Trazado_687100" data-name="Trazado 687100" d="M1033.22,212.273l-1.305.755a.927.927,0,0,0-.336,1.262l.291.5c.339.582.19.845.086.94-.291.259-.559.541-.828.822-.078.082-.332.364-1-.02l-.455-.265a.925.925,0,0,0-1.26.334l-.753,1.3a.927.927,0,0,0,.328,1.264l.455.259c.619.362.6.546.522.811-.1.36-.224.722-.3,1.1-.074.332-.041.571-.887.571h-.515a.924.924,0,0,0-.925.923v1.507a.924.924,0,0,0,.925.923h.515c.847,0,.813.239.887.571.075.375.194.736.3,1.1.082.263.1.448-.522.807l-.455.263a.925.925,0,0,0-.328,1.262l.753,1.3a.924.924,0,0,0,1.26.334l.455-.263c.664-.386.917-.1,1-.022.268.282.537.563.828.822.1.1.254.358-.086.941l-.291.494a.927.927,0,0,0,.336,1.262l1.305.757a.925.925,0,0,0,1.26-.334l.283-.492c.347-.593.686-.569.828-.524.418.132.8.218,1.227.33.16.041.429.155.429.859v.528a.92.92,0,0,0,.917.923h1.507a.924.924,0,0,0,.925-.923v-.528c0-.7.269-.819.425-.859.429-.112.813-.2,1.23-.33.142-.045.477-.069.824.524l.287.492a.924.924,0,0,0,1.26.334l1.305-.757a.925.925,0,0,0,.328-1.262l-.283-.494c-.339-.584-.194-.846-.089-.941.291-.259.559-.541.828-.822.082-.082.336-.364,1,.022l.451.263a.927.927,0,0,0,1.264-.334l.757-1.3a.924.924,0,0,0-.336-1.262l-.448-.263c-.619-.36-.6-.544-.526-.807.108-.362.224-.723.3-1.1.071-.332.037-.571.884-.571h.518a.927.927,0,0,0,.925-.923v-1.507a.927.927,0,0,0-.925-.923h-.518c-.846,0-.813-.239-.884-.571-.078-.375-.194-.736-.3-1.1-.078-.265-.093-.449.526-.811l.448-.259a.926.926,0,0,0,.336-1.264l-.757-1.3a.929.929,0,0,0-1.264-.334l-.451.265c-.66.384-.914.1-1,.02-.269-.281-.537-.563-.828-.822-.1-.1-.25-.358.089-.94l.283-.5a.925.925,0,0,0-.328-1.262l-1.305-.755a.923.923,0,0,0-1.26.332l-.287.494c-.347.591-.682.569-.824.522-.418-.132-.8-.216-1.23-.33-.157-.039-.425-.153-.425-.859V211.9a.924.924,0,0,0-.925-.923h-1.507a.92.92,0,0,0-.917.923v.528c0,.707-.268.82-.429.859-.429.114-.809.2-1.227.33-.142.047-.481.069-.828-.522l-.283-.494a.925.925,0,0,0-1.26-.332Zm5.7,5.392a5.911,5.911,0,1,1-5.907,5.911,5.913,5.913,0,0,1,5.907-5.911Zm0-1.477a7.387,7.387,0,1,1-7.384,7.387A7.388,7.388,0,0,1,1038.918,216.189Z" transform="translate(-1026.344 -210.981)" fill="#5696be" fill-rule="evenodd"/>
      </g>
      <g id="Grupo_914047" data-name="Grupo 914047" transform="translate(639.102 310.009)" opacity="0.59">
        <path id="Trazado_687101" data-name="Trazado 687101" d="M858.481,1129.326l-2.655,1.544a1.886,1.886,0,0,0-.679,2.573l.586,1c.69,1.189.391,1.726.175,1.917-.589.526-1.137,1.1-1.685,1.674-.164.164-.675.738-2.021-.045l-.925-.537a1.886,1.886,0,0,0-2.573.679l-1.54,2.651a1.885,1.885,0,0,0,.682,2.569l.914.533c1.264.735,1.234,1.111,1.07,1.648-.216.735-.455,1.473-.615,2.234-.146.679-.078,1.164-1.8,1.164h-1.055a1.881,1.881,0,0,0-1.88,1.879v3.065a1.881,1.881,0,0,0,1.88,1.88h1.055c1.719,0,1.652.485,1.8,1.163.16.761.4,1.5.615,2.238.164.533.194.91-1.07,1.644l-.914.533a1.886,1.886,0,0,0-.682,2.569l1.54,2.651a1.885,1.885,0,0,0,2.573.679l.925-.537c1.346-.783,1.857-.209,2.021-.041.548.57,1.1,1.145,1.685,1.674.216.186.515.727-.175,1.913l-.586,1.007a1.88,1.88,0,0,0,.679,2.569l2.655,1.544a1.88,1.88,0,0,0,2.566-.679l.586-1.007c.7-1.2,1.391-1.156,1.682-1.063.847.269,1.626.444,2.5.667.321.086.865.317.865,1.753v1.074a1.881,1.881,0,0,0,1.879,1.879h3.065a1.884,1.884,0,0,0,1.883-1.879v-1.074c0-1.436.548-1.667.865-1.753.869-.224,1.652-.4,2.5-.667.291-.093.981-.142,1.682,1.063l.582,1.007a1.889,1.889,0,0,0,2.573.679l2.651-1.544a1.887,1.887,0,0,0,.679-2.569l-.585-1.007c-.69-1.186-.388-1.726-.175-1.913.589-.53,1.137-1.1,1.689-1.674.157-.168.671-.742,2.018.041l.925.537a1.88,1.88,0,0,0,2.569-.679l1.544-2.651a1.882,1.882,0,0,0-.679-2.569l-.917-.533c-1.264-.734-1.231-1.111-1.074-1.644.224-.738.459-1.477.619-2.238.142-.679.082-1.163,1.8-1.163h1.052a1.884,1.884,0,0,0,1.883-1.88v-3.065a1.884,1.884,0,0,0-1.883-1.879h-1.052c-1.715,0-1.656-.485-1.8-1.164-.16-.761-.4-1.5-.619-2.234-.157-.537-.19-.914,1.074-1.648l.917-.533a1.88,1.88,0,0,0,.679-2.569l-1.544-2.651a1.881,1.881,0,0,0-2.569-.679l-.925.537c-1.346.783-1.861.209-2.018.045-.552-.574-1.1-1.149-1.689-1.674-.213-.19-.515-.727.175-1.917l.585-1a1.892,1.892,0,0,0-.679-2.573l-2.651-1.544a1.89,1.89,0,0,0-2.573.682l-.582,1c-.7,1.2-1.391,1.156-1.682,1.067-.846-.269-1.629-.448-2.5-.671-.317-.082-.865-.317-.865-1.753v-1.074a1.884,1.884,0,0,0-1.883-1.879h-3.065a1.881,1.881,0,0,0-1.879,1.879v1.074c0,1.436-.544,1.671-.865,1.753-.873.224-1.652.4-2.5.671-.291.089-.981.138-1.682-1.067l-.586-1a1.881,1.881,0,0,0-2.566-.682Zm11.612,10.986a12.034,12.034,0,1,1-12.037,12.033,12.034,12.034,0,0,1,12.037-12.033Zm0-3.006a15.041,15.041,0,1,1-15.043,15.039A15.038,15.038,0,0,1,870.093,1137.307Z" transform="translate(-844.482 -1126.701)" fill="#0b5999" fill-rule="evenodd"/>
      </g>
      <g id="Grupo_914048" data-name="Grupo 914048" transform="translate(682.47 338.268)">
        <path id="Trazado_687102" data-name="Trazado 687102" d="M1259.29,1388.011h41.057a4.613,4.613,0,0,1,4.6,4.6v24.776a4.612,4.612,0,0,1-4.6,4.6h-54.832l9.173-7.469v-21.9A4.614,4.614,0,0,1,1259.29,1388.011Z" transform="translate(-1245.515 -1388.011)" fill="#4dd0e1" fill-rule="evenodd"/>
      </g>
      <g id="Grupo_914049" data-name="Grupo 914049" transform="translate(697.715 344.611)">
        <path id="Trazado_687103" data-name="Trazado 687103" d="M1387.774,1446.664H1423.3a1.3,1.3,0,0,1,1.294,1.294h0a1.3,1.3,0,0,1-1.294,1.294h-35.526a1.3,1.3,0,0,1-1.294-1.294h0a1.3,1.3,0,0,1,1.294-1.294Zm0,18.7H1423.3a1.3,1.3,0,0,1,1.294,1.294h0a1.3,1.3,0,0,1-1.294,1.294h-35.526a1.3,1.3,0,0,1-1.294-1.294h0a1.3,1.3,0,0,1,1.294-1.294Zm0-6.235H1423.3a1.3,1.3,0,0,1,1.294,1.3h0a1.3,1.3,0,0,1-1.294,1.29h-35.526a1.3,1.3,0,0,1-1.294-1.29h0a1.3,1.3,0,0,1,1.294-1.3Zm0-6.235H1423.3a1.3,1.3,0,0,1,1.294,1.3h0a1.3,1.3,0,0,1-1.294,1.29h-35.526a1.3,1.3,0,0,1-1.294-1.29h0A1.3,1.3,0,0,1,1387.774,1452.9Z" transform="translate(-1386.48 -1446.664)" fill="#fff" fill-rule="evenodd"/>
      </g>
      <g id="Grupo_914050" data-name="Grupo 914050" transform="translate(688.996 310.397)">
        <path id="Trazado_687104" data-name="Trazado 687104" d="M1336.221,1130.287h-23.985a6.377,6.377,0,1,0,0,12.753h59.94c-2.976,0-5.407-2.871-5.407-6.377s2.431-6.376,5.407-6.376h-35.955Z" transform="translate(-1305.859 -1130.287)" fill="#b0c0d2" fill-rule="evenodd"/>
      </g>
      <g id="Grupo_914051" data-name="Grupo 914051" transform="translate(686.61 228.082)">
        <path id="Trazado_687105" data-name="Trazado 687105" d="M1286.177,457.81a6.4,6.4,0,0,1,6.377-6.377h20.569l38.409,0c.052,0,.1,0,.149,0h.813c-2.976,0-5.407,2.871-5.407,6.377s2.431,6.377,5.407,6.377h-59.94a6.4,6.4,0,0,1-6.377-6.377Zm30.362-88.691h-24.287a8.485,8.485,0,0,0-8.461,8.459v80.567a7.846,7.846,0,0,0,7.823,7.824h59.918a3.616,3.616,0,0,0,3.106-1.783,3.58,3.58,0,0,0,.5-1.827V372.807a3.7,3.7,0,0,0-3.688-3.688Z" transform="translate(-1283.791 -369.119)" fill="#0b5999" fill-rule="evenodd"/>
      </g>
      <g id="Grupo_914052" data-name="Grupo 914052" transform="translate(704.017 317.042)">
        <path id="Trazado_687106" data-name="Trazado 687106" d="M1444.755,1191.735h9.106v15.334l-4.479-4.441-4.628,4.441Z" transform="translate(-1444.755 -1191.735)" fill="#f59b1d" fill-rule="evenodd"/>
      </g>
      <g id="Grupo_914053" data-name="Grupo 914053" transform="translate(695.071 228.082)">
        <path id="Trazado_687107" data-name="Trazado 687107" d="M1422.274,451.433a3.485,3.485,0,0,0,2.644-2.916v-75.71a3.7,3.7,0,0,0-3.688-3.688h-59.2v82.314H1382.9l38.409,0,.149,0Z" transform="translate(-1362.031 -369.119)" fill="#177bcc" fill-rule="evenodd"/>
      </g>
      <g id="Grupo_914054" data-name="Grupo 914054" transform="translate(709.479 231.596)">
        <path id="Trazado_687108" data-name="Trazado 687108" d="M1507.235,408.07a30.854,30.854,0,0,1,41.4,45.5l.145.188a1.755,1.755,0,0,1-.313,2.457l-4.948,3.83a1.757,1.757,0,0,1-2.457-.313l-.146-.186a30.854,30.854,0,0,1-33.68-51.474Zm2.633,3.4a26.549,26.549,0,1,0,37.245,4.738A26.55,26.55,0,0,0,1509.868,411.475Z" transform="translate(-1495.268 -401.611)" fill="#0b5999" fill-rule="evenodd"/>
      </g>
      <g id="Grupo_914055" data-name="Grupo 914055" transform="translate(757.729 286.199)">
        <path id="Trazado_687109" data-name="Trazado 687109" d="M1946.391,906.53l9.64,12.448-4.945,3.83-9.643-12.448Z" transform="translate(-1941.442 -906.53)" fill="#0b5999" fill-rule="evenodd"/>
      </g>
      <g id="Grupo_914056" data-name="Grupo 914056" transform="translate(766.693 298.283)">
        <path id="Trazado_687110" data-name="Trazado 687110" d="M2025.007,1022.462l4.945-3.83a1.759,1.759,0,0,1,2.457.313l24.246,31.313a1.756,1.756,0,0,1-.313,2.461l-4.945,3.83a1.755,1.755,0,0,1-2.458-.313l-24.246-31.312A1.756,1.756,0,0,1,2025.007,1022.462Z" transform="translate(-2024.327 -1018.268)" fill="#0b5999" fill-rule="evenodd"/>
      </g>
      <g id="Grupo_914057" data-name="Grupo 914057" transform="translate(626.297 370.651)">
        <path id="Trazado_687111" data-name="Trazado 687111" d="M732.031,1694.155c-2.894-1.022-3.125-2.513-4.684-3.237s-1.749-2.044-.216-3.461c1.134.906,2.543,2.021,3.289,1.432.5-.4,2.185-.369,2.517.205,1.469,3.416,3.513,2.331,3.916,3.889C736.9,1695.049,733.359,1694.621,732.031,1694.155Z" transform="translate(-726.073 -1687.457)" fill="#1b2452" fill-rule="evenodd"/>
      </g>
      <g id="Grupo_914058" data-name="Grupo 914058" transform="translate(644.531 372.782)">
        <path id="Trazado_687112" data-name="Trazado 687112" d="M907.252,1711.835c-5.34-.089-9.33-.153-11.176-.735-1.988-.63-1.577-1.842-.436-3.785,5.034,2.32,3.692-.474,6.048-.119a14.955,14.955,0,0,0,7.346,2.677C910.407,1710.888,909.847,1711.787,907.252,1711.835Z" transform="translate(-894.685 -1707.165)" fill="#1b2452" fill-rule="evenodd"/>
      </g>
      <g id="Grupo_914059" data-name="Grupo 914059" transform="translate(638.647 230.995)">
        <path id="Trazado_687113" data-name="Trazado 687113" d="M840.276,412.929a4.4,4.4,0,0,0,2.431-.4,10.786,10.786,0,0,0,1.771-3.112c-.179-.5-.362-1.141-.556-1.909q-4.933-3.348-1.35-4.954a6.359,6.359,0,0,1,1.794,2.493,1.461,1.461,0,0,0,1.294-.873,43.254,43.254,0,0,1-1.324-5.726c1.622-2.405,5.4-2.748,10.419-2.1.235,1.335.421,2.748.571,4.24.888.817.776,3.845-.045,7.333q.616,2.976-3.673,3.248a7.717,7.717,0,0,0,.071,1.665,1.233,1.233,0,0,0,.679.425h0Q852.5,418.17,840.276,412.929Z" transform="translate(-840.276 -396.056)" fill="#fab688" fill-rule="evenodd"/>
      </g>
      <g id="Grupo_914060" data-name="Grupo 914060" transform="translate(635.691 225.164)">
        <path id="Trazado_687114" data-name="Trazado 687114" d="M830.379,348.255c-5.016-.649-8.8-.306-10.419,2.1a43.274,43.274,0,0,0,1.324,5.726,1.464,1.464,0,0,1-1.294.873,6.358,6.358,0,0,0-1.794-2.493q-3.58,1.605,1.35,4.954c.194.768.377,1.406.556,1.909-2.957-.664-5.43-3.306-5.776-4.449-3.449-6.8.4-9.668,2.454-10.714.91-6.731,10.68-.781,15.576-4.026C834.3,344.825,831.9,348.2,830.379,348.255Z" transform="translate(-812.943 -342.136)" fill="#733e19" fill-rule="evenodd"/>
      </g>
      <g id="Grupo_914061" data-name="Grupo 914061" transform="translate(624.156 247.867)">
        <path id="Trazado_687115" data-name="Trazado 687115" d="M765.333,563.988q-3.72,15.936-13.07,24.733a11.693,11.693,0,0,1-5.981-4.607q.134,11.525-.574,22.943-6.83,3.233-18.13-.418l-3.054-3.764c-.783-.153-2.566.714-3.419,2.034-7.156-5.457-11.981-11.325-14.827-17.155q1.152-18.786,5.105-29.646,2-3.074,9.386-6.041,12.227,5.241,12.082.328a73.87,73.87,0,0,1,9.539,4.177q4.956,3.764,8.442,20.411,5.672-7.11,11.769-15.073a5.728,5.728,0,0,1,2.733,2.079Zm-42.455,35.491q3.558-11.7-3.93-28.865-1.879,8.472-4.072,16.672Q717.415,588.495,722.878,599.479Z" transform="translate(-706.276 -552.066)" fill="#f59b1d" fill-rule="evenodd"/>
      </g>
      <g id="Grupo_914062" data-name="Grupo 914062" transform="translate(627.695 300.709)">
        <path id="Trazado_687116" data-name="Trazado 687116" d="M751.175,1045.437q1.734-.134,5.586-3.005,11.3,3.653,18.131.418c.805,12.813-2.342,26.245-6.339,41.213-3.912,6.574-3.744,11.195-5.832,26.357q-1.734,1.242-5.743-.358c-.843-12.929-.261-21.49,3.1-26.316-.526-4.337.85-14.994.91-21.684-2.439,5.444-4.117,12.794-7.294,20.219a165.477,165.477,0,0,0-8.614,27.535,9.449,9.449,0,0,1-6.075-.742q3.255-21.753,7.212-29.948a155.275,155.275,0,0,1,4.076-38.424A14.533,14.533,0,0,1,751.175,1045.437Z" transform="translate(-739 -1040.701)" fill="#1b2452" fill-rule="evenodd"/>
      </g>
      <g id="Grupo_914063" data-name="Grupo 914063" transform="translate(638.982 298.657)">
        <path id="Trazado_687117" data-name="Trazado 687117" d="M849.853,1025.513q-3.848,2.869-5.586,3.005a14.532,14.532,0,0,0-.888-4.736c.854-1.32,2.636-2.187,3.419-2.034Z" transform="translate(-843.379 -1021.731)" fill="#fab688" fill-rule="evenodd"/>
      </g>
      <g id="Grupo_914064" data-name="Grupo 914064" transform="translate(662.363 261.558)">
        <path id="Trazado_687118" data-name="Trazado 687118" d="M1061.382,697.025a117.452,117.452,0,0,0-1.8-18.356q3.625,15.206,7.018,20.182,2.148-.07,5.437-2.545a37.906,37.906,0,0,1-4.676,5.327A11.693,11.693,0,0,1,1061.382,697.025Z" transform="translate(-1059.585 -678.669)" fill="#ea7924" fill-rule="evenodd"/>
      </g>
      <g id="Grupo_914065" data-name="Grupo 914065" transform="translate(636.827 266.415)">
        <path id="Trazado_687119" data-name="Trazado 687119" d="M829.023,755.842a30.115,30.115,0,0,0-1.644-3.4q3.558-11.7-3.93-28.865,10.885,15.475,6.175,33Z" transform="translate(-823.448 -723.582)" fill="#ea7924" fill-rule="evenodd"/>
      </g>
      <g id="Grupo_914066" data-name="Grupo 914066" transform="translate(646.687 245.413)">
        <path id="Trazado_687120" data-name="Trazado 687120" d="M914.62,529.377a8.41,8.41,0,0,0,3.293.692,10.487,10.487,0,0,0,.022,1.354A5.174,5.174,0,0,1,914.62,529.377Z" transform="translate(-914.62 -529.377)" fill="#ed7d57" fill-rule="evenodd"/>
      </g>
      <g id="Grupo_914067" data-name="Grupo 914067" transform="translate(627.724 369.301)">
        <path id="Trazado_687121" data-name="Trazado 687121" d="M757.545,1678.834a8.03,8.03,0,0,0,.3-2.853q3.054,1.1,4.665.38a5.018,5.018,0,0,0,.257,2.1c-1.854-.067-1.011,2.181-5.224.377Zm-13.462-1.253a2.633,2.633,0,0,0-1.887.175c-.671.526-1.865-.31-2.92-1.137a11.307,11.307,0,0,0,.451-1.644,9.315,9.315,0,0,0,4,.712A3.842,3.842,0,0,0,744.083,1677.581Z" transform="translate(-739.276 -1674.975)" fill="#fab688" fill-rule="evenodd"/>
      </g>
      <g id="Grupo_914068" data-name="Grupo 914068" transform="translate(639.795 302.439)">
        <path id="Trazado_687122" data-name="Trazado 687122" d="M850.9,1061.526a10.624,10.624,0,0,0,.075-1.82q1.734-.134,5.59-3.006c.608.194,1.212.38,1.8.544A17.007,17.007,0,0,1,850.9,1061.526Z" transform="translate(-850.896 -1056.701)" fill="#3c3392" fill-rule="evenodd"/>
      </g>
      <g id="Grupo_914069" data-name="Grupo 914069" transform="translate(680.479 248.495)">
        <path id="Trazado_687123" data-name="Trazado 687123" d="M1229.834,569.17c.153-.377.764-1.559,1.365-3.034q2.232-1.152,3.569-5.017a4.488,4.488,0,0,0-3.371-3.242,9.358,9.358,0,0,1-2.6,4.712q.425-3.345-1.1-2.1a1.473,1.473,0,0,1,.022,1.081,3.6,3.6,0,0,0,.187,3.852c-.313.651-.649,1.309-.805,1.665A6,6,0,0,1,1229.834,569.17Z" transform="translate(-1227.101 -557.877)" fill="#fab688" fill-rule="evenodd"/>
      </g>
      <g id="Grupo_914070" data-name="Grupo 914070" transform="translate(713.785 235.903)">
        <path id="Trazado_687124" data-name="Trazado 687124" d="M1545.381,447a26.552,26.552,0,1,0,17.758-5.513A26.55,26.55,0,0,0,1545.381,447Z" transform="translate(-1535.087 -441.441)" fill="#d2e1f1" fill-rule="evenodd"/>
      </g>
      <g id="Grupo_914071" data-name="Grupo 914071" transform="translate(731.857 244.225)">
        <path id="Trazado_687125" data-name="Trazado 687125" d="M1706.17,522.848a4.254,4.254,0,0,1,1.32-3.143,4.343,4.343,0,0,1,3.166-1.311,4.147,4.147,0,0,1,3.08,1.29,4.362,4.362,0,0,1,1.257,3.164,4.415,4.415,0,0,1-1.275,3.177,4.162,4.162,0,0,1-3.114,1.322,4.215,4.215,0,0,1-3.144-1.322,4.368,4.368,0,0,1-1.29-3.177Zm-3.584,32v-1.919h3.774V531.82H1702.2l.033-1.919c2.312-.063,4.538-.16,6.694-.287s4.244-.287,6.257-.481v23.793h3.968v1.919Z" transform="translate(-1702.202 -518.394)" fill="#0b5999" fill-rule="evenodd"/>
      </g>
      <g id="Grupo_914072" data-name="Grupo 914072" transform="translate(757.386 359.654)">
        <path id="Trazado_687126" data-name="Trazado 687126" d="M1958.116,1585.768h-18.347a1.5,1.5,0,0,0-1.5,1.5v4.214a1.5,1.5,0,0,0,1.5,1.5h18.347a1.5,1.5,0,0,0,1.5-1.5v-4.214A1.5,1.5,0,0,0,1958.116,1585.768Z" transform="translate(-1938.27 -1585.768)" fill="#0b5999" fill-rule="evenodd"/>
      </g>
      <g id="Grupo_914073" data-name="Grupo 914073" transform="translate(759.049 366.862)">
        <path id="Trazado_687127" data-name="Trazado 687127" d="M1971.667,1652.423h-18.019l1.768,9.311h14.48Z" transform="translate(-1953.648 -1652.423)" fill="#0b5999" fill-rule="evenodd"/>
      </g>
      <g id="Grupo_914074" data-name="Grupo 914074" transform="translate(759.049 366.862)">
        <path id="Trazado_687128" data-name="Trazado 687128" d="M1953.648,1652.423h18.019l-.321,1.686h-17.377Z" transform="translate(-1953.648 -1652.423)" fill="#1b2452" fill-rule="evenodd"/>
      </g>
      <g id="Grupo_914075" data-name="Grupo 914075" transform="translate(763.734 323.15)">
        <path id="Trazado_687129" data-name="Trazado 687129" d="M1999.561,1248.217q-4.592,12.72-1.066,30.093a33.122,33.122,0,0,1,1.357,5.754c.06.22.115.436.179.656h1.119q.4-6.488.265-13.19a183.71,183.71,0,0,0-1.634-20.819.354.354,0,0,1,.306-.391.348.348,0,0,1,.388.3,184.846,184.846,0,0,1,1.641,20.894q.134,6.712-.265,13.2h.787a36.388,36.388,0,0,1,2.513-10.352Q2007.3,1259.1,1999.561,1248.217Z" transform="translate(-1996.962 -1248.217)" fill="#727997" fill-rule="evenodd"/>
      </g>
      <g id="Grupo_914076" data-name="Grupo 914076" transform="translate(769.409 336.78)">
        <path id="Trazado_687130" data-name="Trazado 687130" d="M2064.3,1374.251q-.7,11.428-11.75,22.874h-1.607q1.779-4.145,4-8.237a116.526,116.526,0,0,1,8.334-13.078.26.26,0,0,0-.108-.369.31.31,0,0,0-.414.052,116,116,0,0,0-8.364,13.126q-2.293,4.229-4.124,8.506h-.828Q2051.236,1379.9,2064.3,1374.251Z" transform="translate(-2049.441 -1374.251)" fill="#b0c0d2" fill-rule="evenodd"/>
      </g>
      <g id="Grupo_914077" data-name="Grupo 914077" transform="translate(752.36 340.3)">
        <path id="Trazado_687131" data-name="Trazado 687131" d="M1891.787,1406.8q.649,10.186,9.912,19.354h2.521q-1.51-3.155-3.311-6.239a95.407,95.407,0,0,0-8.126-11.724.269.269,0,0,1,.1-.369.3.3,0,0,1,.407,0,96.222,96.222,0,0,1,8.151,11.765q1.9,3.244,3.472,6.567h1.227Q1904.085,1410.618,1891.787,1406.8Z" transform="translate(-1891.787 -1406.803)" fill="#b0c0d2" fill-rule="evenodd"/>
      </g>
    </g>
  </g>
</svg>
