<svg xmlns="http://www.w3.org/2000/svg" width="468.954" height="339.487" viewBox="0 0 468.954 339.487">
  <g id="Grupo_928449" data-name="Grupo 928449" transform="translate(-61.762 -39.374)">
    <g id="Background_Complete" data-name="Background Complete" transform="translate(74.227 39.374)">
      <path id="Trazado_710658" data-name="Trazado 710658" d="M219.859,63.827a12.55,12.55,0,0,0-4.708,2.274,6.612,6.612,0,0,1-1.543.9L207.473,41.99a3.432,3.432,0,0,0-4.151-2.516L177.3,45.858l.724,2.953A5.47,5.47,0,0,0,178.9,50.7a11.364,11.364,0,0,1-6.982,17.785,11.47,11.47,0,0,1-13.092-7.671,11.283,11.283,0,0,1-.321-5.689,5.656,5.656,0,0,0-.03-2.458l-.508-2.071-26.383,6.384a4.215,4.215,0,0,0-3.089,5.1l5.665,23.2-1.8.441c-.2.049-.412.095-.623.13a13.868,13.868,0,1,0,4.291,22.881,5.32,5.32,0,0,1,1.062-.387l2.306-.566,6.351,25.885a4.214,4.214,0,0,0,5.1,3.089l72-17.665a3.433,3.433,0,0,0,2.516-4.152L218.9,88.583a6.825,6.825,0,0,1,1.407.157,12.584,12.584,0,0,0,7.723-.782,12.794,12.794,0,0,0-8.176-24.13Z" transform="translate(-112.614 -39.374)" fill="#ebebeb"/>
      <path id="Trazado_710661" data-name="Trazado 710661" d="M524.8,82.389a9.893,9.893,0,0,0-4.113-.252,5.184,5.184,0,0,1-1.406.021L524.707,62.6a2.7,2.7,0,0,0-1.883-3.33L502.47,53.618l-.641,2.309a4.319,4.319,0,0,0-.125,1.642A8.959,8.959,0,0,1,490.042,67.1,9.042,9.042,0,0,1,484,56.779a8.89,8.89,0,0,1,1.973-4.036,4.444,4.444,0,0,0,.928-1.7l.45-1.619-20.6-5.788a3.322,3.322,0,0,0-4.09,2.313L457.6,64.083l-1.406-.39c-.16-.044-.32-.093-.478-.15a10.934,10.934,0,1,0-5.877,17.387,4.19,4.19,0,0,1,.879.144l1.8.5-5.619,20.247a3.322,3.322,0,0,0,2.313,4.09l56.32,15.63a2.7,2.7,0,0,0,3.33-1.883l5.722-20.615a5.367,5.367,0,0,1,.907.65,9.92,9.92,0,0,0,5.612,2.442A10.086,10.086,0,0,0,524.8,82.389Z" transform="translate(-169.267 -40.099)" fill="#f5f5f5"/>
    </g>
    <g id="Puzzle" transform="translate(61.762 140.889)">
      <g id="Grupo_927407" data-name="Grupo 927407">
        <g id="Grupo_927404" data-name="Grupo 927404">
          <path id="Trazado_710664" data-name="Trazado 710664" d="M313.082,273.939a24.607,24.607,0,0,1,12.4,2.716,13.809,13.809,0,0,0,5.627,1.378l5.025-.115.059-55.855a9.581,9.581,0,0,0-9.61-9.552l-53.1.2v-1.145a14.758,14.758,0,0,1,1.558-6.454,29.365,29.365,0,0,0,2.523-17.941,29.857,29.857,0,0,0-59.237,5.113,29.277,29.277,0,0,0,2.534,11.934A14.73,14.73,0,0,1,222.2,210.2l.313,2.511H158.52a9.581,9.581,0,0,0-9.61,9.551v54.615h-4.563a13.979,13.979,0,0,1-6.107-1.474,28.783,28.783,0,0,0-17.29-2.387,28.252,28.252,0,0,0,4.838,56.053,27.712,27.712,0,0,0,11.293-2.4,13.936,13.936,0,0,1,5.659-1.256H148.6l.117,66.8a7.8,7.8,0,0,0,7.825,7.778H327.807c4.322,0,7.709-5.426,7.709-9.722V329.553h-6.933a12.518,12.518,0,0,0-4.671.913A25.93,25.93,0,0,1,288.323,305.5C288.844,292.522,300.05,274.843,313.082,273.939Z" transform="translate(-97.543 -162.467)" fill="#e0e0e0"/>
          <g id="Grupo_927403" data-name="Grupo 927403">
            <path id="Trazado_710665" data-name="Trazado 710665" d="M313.043,273.905s-.152.023-.453.059a12.545,12.545,0,0,0-1.342.2,18.3,18.3,0,0,0-5.024,1.786c-4.179,2.132-9.662,7-13.791,15.136a36.058,36.058,0,0,0-4.059,14.5,26.62,26.62,0,0,0,1.181,8.584,25.448,25.448,0,0,0,4.4,8.294,25.742,25.742,0,0,0,18.039,9.61,25.363,25.363,0,0,0,11.332-1.561,13.514,13.514,0,0,1,5.94-1.121l6.215,0h.132v.133q.007,14.4.016,30.585,0,8.08.007,16.577,0,4.247,0,8.595,0,2.174,0,4.373a12.355,12.355,0,0,1-.15,2.224,11.869,11.869,0,0,1-.614,2.16,11.342,11.342,0,0,1-2.387,3.819,7,7,0,0,1-3.965,2.213,22.468,22.468,0,0,1-2.3.06h-2.289l-4.614,0-18.916.006-39.94.012-87.386.017-11.547,0c-1.944-.018-3.856.04-5.84-.04a8.031,8.031,0,0,1-7.226-8.211q-.006-2.949-.012-5.911-.011-5.926-.021-11.909-.045-23.931-.09-48.716l.214.213H144.9c-1.222.02-2.454-.055-3.649.085a14.041,14.041,0,0,0-3.521.9,36.082,36.082,0,0,1-3.482,1.348,28.094,28.094,0,0,1-28.322-6.882,27.294,27.294,0,0,1-6.412-9.7c-.224-.613-.5-1.208-.683-1.836l-.516-1.894a28.43,28.43,0,0,1,14.6-32.164,28.445,28.445,0,0,1,8.922-2.825,29.4,29.4,0,0,1,9.3.219,28.578,28.578,0,0,1,4.486,1.216c.728.264,1.447.551,2.147.879a22,22,0,0,0,2.094.9c2.847,1.124,5.959.713,9,.79l-.212.212q0-17.718,0-34.981,0-8.628,0-17.131a26.438,26.438,0,0,1,.169-4.271,9.454,9.454,0,0,1,1.692-3.932,9.787,9.787,0,0,1,7.269-4.022l64.676-.023-.193.219c-.107-.861-.21-1.687-.313-2.511v-.024a14.085,14.085,0,0,0-.766-4.511c-.24-.728-.558-1.416-.863-2.137s-.56-1.448-.8-2.183a29.531,29.531,0,0,1-1.429-9.078l.124-2.284c.028-.379.024-.761.079-1.137l.185-1.124c.14-.744.206-1.5.408-2.233l.6-2.182a6.875,6.875,0,0,1,.364-1.067l.415-1.048a14.675,14.675,0,0,1,.911-2.052l1.041-1.984,1.232-1.862a29.18,29.18,0,0,1,6.055-6.4l.853-.69.914-.6c.615-.393,1.214-.808,1.838-1.179a31.768,31.768,0,0,1,3.923-1.854,29.666,29.666,0,0,1,8.318-1.994,29.222,29.222,0,0,1,4.238-.066c.7.047,1.407.059,2.1.135l2.077.314a30.229,30.229,0,0,1,14.57,7.284,29.666,29.666,0,0,1,9.063,28.442,31.267,31.267,0,0,1-2.509,6.992,15.25,15.25,0,0,0-1.08,3.44,17.522,17.522,0,0,0-.225,3.572l-.153-.153,40.392-.13,9.188-.029,2.239-.007c.741-.007,1.479-.009,2.226.045a9.768,9.768,0,0,1,4.145,1.4,9.638,9.638,0,0,1,4.53,6.895,37.417,37.417,0,0,1,.1,4.075q0,2.008-.007,3.965c-.043,20.879-.077,37.477-.1,49.152v.063H336.1c-2.024.027-3.907.121-5.669.085a14.208,14.208,0,0,1-4.7-1.231,31.239,31.239,0,0,0-6.942-2.462,21.335,21.335,0,0,0-4.318-.464c-.478,0-.835.009-1.072.021s-.355.009-.355.009a13.707,13.707,0,0,1,1.427-.063,20.846,20.846,0,0,1,4.331.434,31.13,31.13,0,0,1,6.967,2.438,14.136,14.136,0,0,0,4.67,1.207c1.745.031,3.638-.068,5.658-.1l-.061.063c0-11.674,0-28.273,0-49.152q0-1.958,0-3.965a37.372,37.372,0,0,0-.1-4.043,9.4,9.4,0,0,0-4.426-6.717,9.521,9.521,0,0,0-4.04-1.357c-.72-.05-1.458-.049-2.2-.04l-2.238.01-9.189.039-40.391.169H273.3l0-.153a17.8,17.8,0,0,1,.228-3.627,15.529,15.529,0,0,1,1.1-3.512,30.913,30.913,0,0,0,2.483-6.934,29.337,29.337,0,0,0-8.981-28.12,29.89,29.89,0,0,0-14.4-7.191l-2.053-.309c-.689-.074-1.385-.086-2.08-.132a28.889,28.889,0,0,0-4.188.068,29.371,29.371,0,0,0-8.218,1.974,31.587,31.587,0,0,0-3.874,1.833c-.616.367-1.208.779-1.815,1.167l-.9.6-.842.682a28.823,28.823,0,0,0-5.977,6.326l-1.216,1.839-1.026,1.96a14.44,14.44,0,0,0-.9,2.027l-.409,1.035a6.682,6.682,0,0,0-.359,1.053l-.6,2.155c-.2.719-.263,1.47-.4,2.205l-.181,1.11c-.055.371-.05.748-.078,1.123l-.121,2.255a29.173,29.173,0,0,0,1.414,8.96c.238.725.5,1.445.792,2.154s.626,1.416.872,2.16a14.487,14.487,0,0,1,.788,4.634l0-.024c.1.824.206,1.649.314,2.51l.027.219h-.22l-64.648.044a9.37,9.37,0,0,0-6.962,3.855,9.032,9.032,0,0,0-1.619,3.764,26.242,26.242,0,0,0-.162,4.2q0,8.5,0,17.131,0,17.254,0,34.981v.213H144.3a13.688,13.688,0,0,1-4.566-.814,22.4,22.4,0,0,1-2.13-.915c-.689-.323-1.4-.606-2.113-.865a28.18,28.18,0,0,0-4.419-1.2,28.963,28.963,0,0,0-9.168-.214,27.87,27.87,0,0,0-21.452,16.032,28.378,28.378,0,0,0-1.711,18.431l.508,1.865c.18.619.452,1.205.673,1.809a26.865,26.865,0,0,0,6.316,9.551,27.661,27.661,0,0,0,27.888,6.78,35.858,35.858,0,0,0,3.456-1.337,14.482,14.482,0,0,1,3.628-.926c1.252-.144,2.479-.066,3.7-.087h3.866v.213q.042,24.764.082,48.716.01,5.983.02,11.909,0,2.962.01,5.911a7.617,7.617,0,0,0,6.852,7.8c1.9.078,3.874.022,5.8.04l11.547,0,87.386.017,39.94.011,18.916.007,4.614,0h2.289a22.5,22.5,0,0,0,2.251-.054,6.683,6.683,0,0,0,3.776-2.113,11.014,11.014,0,0,0,2.321-3.71,11.543,11.543,0,0,0,.6-2.1,12.013,12.013,0,0,0,.147-2.168q0-2.2,0-4.373,0-4.347,0-8.595,0-8.495.007-16.577.009-16.16.016-30.585l.133.133-6.215,0a13.233,13.233,0,0,0-5.851,1.1,25.607,25.607,0,0,1-11.441,1.561,25.953,25.953,0,0,1-18.18-9.717,25.637,25.637,0,0,1-4.417-8.366,26.781,26.781,0,0,1-1.175-8.648,36.174,36.174,0,0,1,4.107-14.554c4.161-8.148,9.68-13.017,13.884-15.137a18.021,18.021,0,0,1,5.051-1.757,11.453,11.453,0,0,1,1.347-.185C312.89,273.915,313.043,273.905,313.043,273.905Z" transform="translate(-97.504 -162.433)" fill="#263238"/>
          </g>
        </g>
        <g id="Grupo_927406" data-name="Grupo 927406" transform="translate(182.365 50.443)">
          <path id="Trazado_710666" data-name="Trazado 710666" d="M576.147,286.94a28.6,28.6,0,0,0-11.66,2.476,15.025,15.025,0,0,1-3.9,1.148V231.851a7.825,7.825,0,0,0-7.825-7.825H491.667v6.932a12.459,12.459,0,0,0,.919,4.671,25.914,25.914,0,0,1-25.125,35.589,26.152,26.152,0,0,1-24.823-24.1,25.706,25.706,0,0,1,2.38-12.772,12.861,12.861,0,0,0,1.269-5.459v-4.861l-61.893-.2a9.61,9.61,0,0,0-9.61,9.61l-.059,54.45H370.5c-.478,0-.965-.013-1.449-.049a31.621,31.621,0,1,0-2.929,53,12.119,12.119,0,0,1,2.562-.28H374.1v60.773a9.609,9.609,0,0,0,9.61,9.61H552.758a7.825,7.825,0,0,0,7.825-7.825V341.242a15.572,15.572,0,0,1,3.032,1.11,28.684,28.684,0,0,0,17.528,2.464,29.171,29.171,0,0,0-5-57.876Z" transform="translate(-318.614 -223.625)" fill="#f5f5f5"/>
          <g id="Grupo_927405" data-name="Grupo 927405">
            <path id="Trazado_710667" data-name="Trazado 710667" d="M576.1,286.9s.62.021,1.837.081a14.375,14.375,0,0,1,2.26.216l1.45.233a10.358,10.358,0,0,1,1.642.374l1.836.5c.634.213,1.284.494,1.976.757.344.139.7.267,1.057.423l1.057.549a18.951,18.951,0,0,1,2.211,1.242A29.194,29.194,0,0,1,605.063,314.1c.03.705.093,1.419.1,2.141q-.058,1.081-.118,2.188c-.028.368-.021.742-.078,1.11s-.111.74-.167,1.113-.116.747-.173,1.124c-.088.371-.176.743-.265,1.118a29.109,29.109,0,0,1-3.708,8.813,28.946,28.946,0,0,1-16.732,12.542c-.909.279-1.86.425-2.8.645-.953.15-1.916.285-2.895.348a28.7,28.7,0,0,1-11.9-1.629c-1.973-.665-3.763-1.819-5.818-2.284l.166-.13q.007,14.256.016,30.225,0,7.975.007,16.351,0,4.187,0,8.472,0,2.142,0,4.308,0,1.083,0,2.172c.008.36-.021.734-.038,1.1a8.4,8.4,0,0,1-.187,1.1,8.01,8.01,0,0,1-6.137,5.972,11.1,11.1,0,0,1-2.265.168h-2.254l-4.54,0-18.609.006-39.256.011-85.79.017-11.33,0h-5.711a14.441,14.441,0,0,1-2.9-.2,10.8,10.8,0,0,1-2.745-1.012,9.918,9.918,0,0,1-4.031-4.177,9.39,9.39,0,0,1-.918-2.8,16.372,16.372,0,0,1-.146-2.929q0-5.813,0-11.683,0-23.477,0-47.79l.213.213h-3.905c-.667,0-1.36-.012-2.024.012a12.131,12.131,0,0,0-2,.264l.061-.024a31.713,31.713,0,0,1-12.864,4.064A31.777,31.777,0,0,1,320.312,323.7a32.628,32.628,0,0,1-1.741-10.074,34,34,0,0,1,1.534-10.058,31.755,31.755,0,0,1,4.625-9,34.11,34.11,0,0,1,3.281-3.846l1.869-1.7c.63-.556,1.335-1.021,2-1.536a32.945,32.945,0,0,1,8.937-4.5,34.97,34.97,0,0,1,9.841-1.467,31.688,31.688,0,0,1,18.482,6.105l-.11-.04c1.868.094,3.778.028,5.654.049l-.211.211q.021-17.45.041-34.441.011-8.491.021-16.857l0-2.09c-.007-.691,0-1.392.059-2.1a9.836,9.836,0,0,1,8.088-8.62,26.693,26.693,0,0,1,4.134-.144l4.09.014,8.128.027,16.041.054,31.172.1h.192v.192q0,2.187,0,4.359a12.91,12.91,0,0,1-.614,4.328,16.742,16.742,0,0,1-.812,2.019c-.3.647-.559,1.31-.8,1.976a25.4,25.4,0,0,0,1.4,20.311,25.836,25.836,0,0,0,4.832,6.564,26.772,26.772,0,0,0,6.526,4.689,25.377,25.377,0,0,0,15.324,2.49,25.74,25.74,0,0,0,13.6-6.493,25.283,25.283,0,0,0,4.7-5.762,24.542,24.542,0,0,0,2.82-6.74,25.32,25.32,0,0,0-.3-14.094c-.318-1.125-.841-2.171-1.161-3.316a12.549,12.549,0,0,1-.473-3.477q0-3.461,0-6.853v-.153h.153l44.709.021,10.049.006,4.848,0c.8,0,1.589-.021,2.391.057a8.227,8.227,0,0,1,2.294.622,7.965,7.965,0,0,1,4.739,7.321q0,4.426-.007,8.607c-.024,22.286-.043,39.244-.054,50.054l-.06-.052c2.751-.357,4.823-1.7,6.781-2.233a28.392,28.392,0,0,1,4.891-1.1,27.4,27.4,0,0,1,2.937-.234c.647-.014.963,0,.963,0s-.316.008-.962.031a29.248,29.248,0,0,0-2.931.261,28.7,28.7,0,0,0-4.874,1.122c-1.944.539-4.013,1.89-6.789,2.261l-.06.008v-.059c-.011-10.811-.03-27.768-.055-50.054q0-4.179-.006-8.607a7.736,7.736,0,0,0-4.609-7.1,8,8,0,0,0-2.225-.6c-.768-.073-1.566-.049-2.363-.053l-4.848,0-10.049.006-44.709.021.153-.153q0,3.392,0,6.853a12.239,12.239,0,0,0,.465,3.391c.307,1.1.836,2.166,1.162,3.307a25.65,25.65,0,0,1,.319,14.271,24.873,24.873,0,0,1-2.852,6.83,25.615,25.615,0,0,1-4.755,5.841,26.083,26.083,0,0,1-13.776,6.589,25.737,25.737,0,0,1-15.538-2.515,27.125,27.125,0,0,1-6.619-4.75,26.213,26.213,0,0,1-4.9-6.653,25.777,25.777,0,0,1-1.432-20.609c.247-.676.509-1.35.813-2.005a16.341,16.341,0,0,0,.8-1.979,12.541,12.541,0,0,0,.594-4.211l0-4.359.192.192-31.172-.093-16.041-.048-8.128-.025-4.09-.012a26.447,26.447,0,0,0-4.064.139A9.426,9.426,0,0,0,375,232.4c-.053.673-.064,1.362-.055,2.061l0,2.09q-.007,8.365-.017,16.857-.016,16.983-.034,34.441v.214l-.212,0c-1.889-.021-3.756.047-5.685-.049l-.059,0-.051-.037a31.262,31.262,0,0,0-18.235-6.021,34.576,34.576,0,0,0-9.709,1.448,32.5,32.5,0,0,0-8.816,4.441c-.654.507-1.35.967-1.971,1.515l-1.845,1.676a33.675,33.675,0,0,0-3.236,3.794,31.34,31.34,0,0,0-4.562,8.878A33.554,33.554,0,0,0,319,313.623a31.578,31.578,0,0,0,9.1,21.841,31.643,31.643,0,0,0,25.185,9.158,31.311,31.311,0,0,0,12.691-4.007l.029-.017.032-.007a12.673,12.673,0,0,1,2.074-.273c.7-.025,1.368-.007,2.043-.012h4.118v.214q0,24.293,0,47.79,0,5.869,0,11.683a16.009,16.009,0,0,0,.139,2.861,9.012,9.012,0,0,0,.879,2.679,9.508,9.508,0,0,0,3.86,4,10.387,10.387,0,0,0,2.629.969,14.026,14.026,0,0,0,2.813.191H390.3l11.33,0,85.79.017,39.256.012,18.609.006,4.54,0h2.254a10.717,10.717,0,0,0,2.2-.159,7.681,7.681,0,0,0,5.887-5.722,8.43,8.43,0,0,0,.217-2.128q0-1.09,0-2.172,0-2.167,0-4.308,0-4.285,0-8.472,0-8.373.007-16.351.009-15.949.016-30.225v-.167l.166.038c2.107.483,3.9,1.647,5.842,2.3A28.466,28.466,0,0,0,578.206,345c.97-.061,1.926-.195,2.872-.342.931-.218,1.875-.36,2.777-.635a29.071,29.071,0,0,0,20.316-21.17q.132-.558.265-1.11.087-.561.174-1.115t.168-1.105c.057-.366.051-.737.079-1.1q.062-1.1.122-2.175c0-.717-.064-1.426-.092-2.128a29.088,29.088,0,0,0-13.514-22.743,18.941,18.941,0,0,0-2.2-1.246l-1.051-.551c-.353-.157-.71-.286-1.051-.426-.69-.266-1.336-.548-1.967-.764l-1.827-.511a10.522,10.522,0,0,0-1.637-.381l-1.445-.242a14.62,14.62,0,0,0-2.255-.234C576.724,286.943,576.1,286.9,576.1,286.9Z" transform="translate(-318.571 -223.581)" fill="#263238"/>
          </g>
        </g>
      </g>
    </g>
    <g id="Characters" transform="translate(146.522 88.127)">
      <g id="Grupo_927414" data-name="Grupo 927414" transform="translate(125.76 176.34)">
        <path id="Trazado_710668" data-name="Trazado 710668" d="M381.045,313.25a9.08,9.08,0,0,1,5.224-.893c2.45.536,11.346,6.337,11.346,6.337l7.168-1.339,4.225,20.239-27.963,11.621Z" transform="translate(-357.663 -312.236)" fill="#ae7461"/>
        <path id="Trazado_710669" data-name="Trazado 710669" d="M355.4,320.332s6.406-.809,8.726-1.97,7.853-6.068,9.014-5.979,5.355.893,5.355.893l-1.7,5.087s8.389,5.087,10.887,6.961,10.352,10.263,10.709,12.316-.267,4.462-1.249,5.265-4.552-.8-4.552-.8a4.461,4.461,0,0,1-.8,3.659c-1.339,1.785-4.462,1.161-4.462,1.161s-.268,2.945-1.7,3.48-4.64-1.071-4.64-1.071-.97,2.5-2.136,2.766-4.469-1.7-4.469-1.7-14.279-10.263-17.492-11.78a16.453,16.453,0,0,0-4.194-1.607Z" transform="translate(-352.701 -312.261)" fill="#ffbe9d"/>
        <g id="Grupo_927408" data-name="Grupo 927408" transform="translate(26.2 32.978)">
          <path id="Trazado_710670" data-name="Trazado 710670" d="M386.552,356.3c-.064,0-.1-.252-.256-.627a11.252,11.252,0,0,0-.718-1.425,9.07,9.07,0,0,1-1.1-2.034,5.023,5.023,0,0,1,1.477,1.82,5.3,5.3,0,0,1,.638,1.556C386.674,356.027,386.605,356.307,386.552,356.3Z" transform="translate(-384.462 -352.212)" fill="#eb996e"/>
        </g>
        <g id="Grupo_927409" data-name="Grupo 927409" transform="translate(30.472 30.059)">
          <path id="Trazado_710671" data-name="Trazado 710671" d="M393.391,353.948a22.715,22.715,0,0,1-1.8-2.7c-.976-1.487-2.022-2.478-1.947-2.57a6.292,6.292,0,0,1,2.3,2.33A8.668,8.668,0,0,1,393.391,353.948Z" transform="translate(-389.639 -348.674)" fill="#eb996e"/>
        </g>
        <g id="Grupo_927410" data-name="Grupo 927410" transform="translate(36.403 24.126)">
          <path id="Trazado_710672" data-name="Trazado 710672" d="M400.379,347.538c-.126.031-.524-1.513-1.51-3.178-.971-1.676-2.123-2.778-2.034-2.872a8.76,8.76,0,0,1,3.544,6.051Z" transform="translate(-396.83 -341.482)" fill="#eb996e"/>
        </g>
        <g id="Grupo_927411" data-name="Grupo 927411" transform="translate(35.717 19.043)">
          <path id="Trazado_710673" data-name="Trazado 710673" d="M396.052,335.321a8.036,8.036,0,0,1,.214,4.818,48.615,48.615,0,0,1-.214-4.818Z" transform="translate(-395.998 -335.321)" fill="#eb996e"/>
        </g>
        <path id="Trazado_710674" data-name="Trazado 710674" d="M370.875,323.27s2.231-7.139,3.035-8.031,8.266-2.857,8.266-2.857l2.313,5.98-1.656,1.751-3.569-.234S377.033,325.769,370.875,323.27Z" transform="translate(-355.883 -312.261)" fill="#ae7461"/>
        <path id="Trazado_710675" data-name="Trazado 710675" d="M354.18,342.695s-1.02.786,0,2.66,3.787.535,4.68,0c0,0-1.339,3.123.357,4.1a6.662,6.662,0,0,0,3.748.714s-.089,1.874,2.32,3.124,3.034,0,3.034,0,.268,3.123,3.035,3.391,3.74-.683,3.74-.683l-1.242-1.845s1.606-3.274.356-4.7a4.276,4.276,0,0,0-3.3-1.25s.546-2.9-1.046-3.707a2.929,2.929,0,0,0-4.22,1.3s-.178-3.178-2.5-3.107a5.164,5.164,0,0,0-3.57,1.5Z" transform="translate(-352.881 -317.568)" fill="#ae7461"/>
        <g id="Grupo_927412" data-name="Grupo 927412" transform="translate(10.122 28.231)">
          <path id="Trazado_710676" data-name="Trazado 710676" d="M367.611,346.461a11.741,11.741,0,0,1-2.628,4.466,9.692,9.692,0,0,1,1.194-2.3A9.582,9.582,0,0,1,367.611,346.461Z" transform="translate(-364.971 -346.458)" fill="#6f4439"/>
        </g>
        <g id="Grupo_927413" data-name="Grupo 927413" transform="translate(15 31.043)">
          <path id="Trazado_710677" data-name="Trazado 710677" d="M373.969,349.869a9.725,9.725,0,0,1-3.077,4.5,92.683,92.683,0,0,1,3.077-4.5Z" transform="translate(-370.884 -349.867)" fill="#6f4439"/>
        </g>
      </g>
      <g id="Grupo_927582" data-name="Grupo 927582" transform="translate(0 8.943)">
        <g id="Grupo_927416" data-name="Grupo 927416" transform="translate(4.041 232.119)">
          <g id="Grupo_927415" data-name="Grupo 927415" transform="translate(67.523)">
            <path id="Trazado_710678" data-name="Trazado 710678" d="M304.006,390.693H290.469L287,439.92h13.573c2.311-7.5,8.086-46.567,8.086-46.567Z" transform="translate(-287.003 -390.693)" fill="#263238"/>
          </g>
          <path id="Trazado_710679" data-name="Trazado 710679" d="M213.007,390.693s-8.663,20.315-7.8,28.539,5.731,20.688,5.731,20.688h67.046a154.087,154.087,0,0,0,3.315-17.026c1.444-10.158,5.342-32.2,5.342-32.2Z" transform="translate(-205.15 -390.693)" fill="#263238"/>
        </g>
        <g id="Grupo_927571" data-name="Grupo 927571" transform="translate(14.61)">
          <g id="Grupo_927418" data-name="Grupo 927418">
            <g id="Grupo_927417" data-name="Grupo 927417">
              <path id="Trazado_710680" data-name="Trazado 710680" d="M303.851,145.374c-2.264-2.858-5.063-5.609-5.643-9.21-.533-3.309.914-6.933-.569-9.939-1.826-3.7-7.074-4.42-9.351-7.86-1.1-1.665-1.363-3.775-2.45-5.45-1.854-2.854-5.659-3.772-9.057-3.577s-6.712,1.251-10.114,1.322c-4.667.1-9.394-1.653-13.927-.535-5,1.234-8.229,5.449-11.641,9.515l-4.419,4.692a18.372,18.372,0,0,1-2.9,2.124c-1.814,1.052-3.864,1.739-5.447,3.115a8.245,8.245,0,0,0-.037,11.891,8.814,8.814,0,0,0-6.355,8.348,25.321,25.321,0,0,0,1.3,6.054c.523,2,.789,4.22-.128,6.076s-3.405,3.04-5.158,1.936a9.275,9.275,0,0,0,4.752,6.418,5.548,5.548,0,0,1-3.805,1.475c3.346,9.044,13.388,14.2,23.016,14.705s19.023-2.7,28.13-5.871L296.31,175.1c2.3-.412,3.382-3.136,3.46-5.473s-.4-4.8.539-6.939c1.285-2.938,4.839-4.361,6.177-7.275C308.007,152.1,306.114,148.232,303.851,145.374Z" transform="translate(-217.962 -109.313)" fill="#263238"/>
            </g>
          </g>
          <g id="Grupo_927568" data-name="Grupo 927568" transform="translate(13.468 2.093)">
            <g id="Grupo_927567" data-name="Grupo 927567">
              <g id="Grupo_927560" data-name="Grupo 927560" transform="translate(0 1.82)">
                <g id="Grupo_927559" data-name="Grupo 927559">
                  <g id="Grupo_927424" data-name="Grupo 927424" transform="translate(6.007 10.238)">
                    <g id="Grupo_927423" data-name="Grupo 927423">
                      <g id="Grupo_927422" data-name="Grupo 927422">
                        <g id="Grupo_927421" data-name="Grupo 927421">
                          <g id="Grupo_927420" data-name="Grupo 927420">
                            <g id="Grupo_927419" data-name="Grupo 927419">
                              <path id="Trazado_710681" data-name="Trazado 710681" d="M245.5,169.123a106.956,106.956,0,0,1-3.728-18.078c-.554-6.136-.041-12.476,2.4-18.133.37-.857,3.442-6.58,4.366-6.441.661.1-1.328,5.483-1.022,6.077,2.918,5.662,3.447,12.32,2.609,18.634a83.418,83.418,0,0,1-4.625,17.941" transform="translate(-241.571 -126.468)" fill="#263238"/>
                            </g>
                          </g>
                        </g>
                      </g>
                    </g>
                  </g>
                  <g id="Grupo_927425" data-name="Grupo 927425" transform="translate(7.723 1.924)">
                    <path id="Trazado_710682" data-name="Trazado 710682" d="M246.468,143.852c.294-15.449,9.529-28.154,24.963-27.433l1.423.149a27.623,27.623,0,0,1,24.723,28.144c-.329,13.389-.864,28.178-1.7,35.291-1.736,14.725-16.725,15.463-16.725,15.463-.033,0-.4,24.324-.4,24.324l-35.1-24.318Z" transform="translate(-243.651 -116.39)" fill="#ffbe9d"/>
                  </g>
                  <g id="Grupo_927433" data-name="Grupo 927433" transform="translate(24.623 73.302)">
                    <g id="Grupo_927432" data-name="Grupo 927432">
                      <g id="Grupo_927431" data-name="Grupo 927431">
                        <g id="Grupo_927430" data-name="Grupo 927430">
                          <g id="Grupo_927429" data-name="Grupo 927429">
                            <g id="Grupo_927428" data-name="Grupo 927428">
                              <g id="Grupo_927427" data-name="Grupo 927427">
                                <g id="Grupo_927426" data-name="Grupo 927426">
                                  <path id="Trazado_710683" data-name="Trazado 710683" d="M282.736,210.615a35.814,35.814,0,0,1-18.6-7.7s3.456,12.462,18.308,12.685Z" transform="translate(-264.137 -202.915)" fill="#eb996e"/>
                                </g>
                              </g>
                            </g>
                          </g>
                        </g>
                      </g>
                    </g>
                  </g>
                  <g id="Grupo_927447" data-name="Grupo 927447" transform="translate(52.31 39.543)">
                    <g id="Grupo_927446" data-name="Grupo 927446">
                      <g id="Grupo_927445" data-name="Grupo 927445">
                        <g id="Grupo_927444" data-name="Grupo 927444">
                          <g id="Grupo_927443" data-name="Grupo 927443">
                            <g id="Grupo_927442" data-name="Grupo 927442">
                              <g id="Grupo_927441" data-name="Grupo 927441">
                                <g id="Grupo_927440" data-name="Grupo 927440">
                                  <g id="Grupo_927439" data-name="Grupo 927439">
                                    <g id="Grupo_927438" data-name="Grupo 927438">
                                      <g id="Grupo_927437" data-name="Grupo 927437">
                                        <g id="Grupo_927436" data-name="Grupo 927436">
                                          <g id="Grupo_927435" data-name="Grupo 927435">
                                            <g id="Grupo_927434" data-name="Grupo 927434">
                                              <path id="Trazado_710684" data-name="Trazado 710684" d="M301.93,164.123a2.118,2.118,0,0,1-2.255,1.911,2.026,2.026,0,0,1-1.971-2.128,2.117,2.117,0,0,1,2.252-1.911A2.027,2.027,0,0,1,301.93,164.123Z" transform="translate(-297.7 -161.991)" fill="#263238"/>
                                            </g>
                                          </g>
                                        </g>
                                      </g>
                                    </g>
                                  </g>
                                </g>
                              </g>
                            </g>
                          </g>
                        </g>
                      </g>
                    </g>
                  </g>
                  <g id="Grupo_927462" data-name="Grupo 927462" transform="translate(49.542 33.356)">
                    <g id="Grupo_927461" data-name="Grupo 927461">
                      <g id="Grupo_927460" data-name="Grupo 927460">
                        <g id="Grupo_927459" data-name="Grupo 927459">
                          <g id="Grupo_927458" data-name="Grupo 927458">
                            <g id="Grupo_927457" data-name="Grupo 927457">
                              <g id="Grupo_927456" data-name="Grupo 927456">
                                <g id="Grupo_927455" data-name="Grupo 927455">
                                  <g id="Grupo_927454" data-name="Grupo 927454">
                                    <g id="Grupo_927453" data-name="Grupo 927453">
                                      <g id="Grupo_927452" data-name="Grupo 927452">
                                        <g id="Grupo_927451" data-name="Grupo 927451">
                                          <g id="Grupo_927450" data-name="Grupo 927450">
                                            <g id="Grupo_927449" data-name="Grupo 927449">
                                              <g id="Grupo_927448" data-name="Grupo 927448">
                                                <path id="Trazado_710685" data-name="Trazado 710685" d="M302.656,157.17c-.29.247-1.761-1.1-4.027-1.335-2.26-.265-4.046.725-4.263.422-.108-.136.21-.6.99-1.054a5.809,5.809,0,0,1,3.449-.677,5.585,5.585,0,0,1,3.169,1.4C302.613,156.539,302.8,157.061,302.656,157.17Z" transform="translate(-294.345 -154.491)" fill="#263238"/>
                                              </g>
                                            </g>
                                          </g>
                                        </g>
                                      </g>
                                    </g>
                                  </g>
                                </g>
                              </g>
                            </g>
                          </g>
                        </g>
                      </g>
                    </g>
                  </g>
                  <g id="Grupo_927476" data-name="Grupo 927476" transform="translate(31.805 39.543)">
                    <g id="Grupo_927475" data-name="Grupo 927475">
                      <g id="Grupo_927474" data-name="Grupo 927474">
                        <g id="Grupo_927473" data-name="Grupo 927473">
                          <g id="Grupo_927472" data-name="Grupo 927472">
                            <g id="Grupo_927471" data-name="Grupo 927471">
                              <g id="Grupo_927470" data-name="Grupo 927470">
                                <g id="Grupo_927469" data-name="Grupo 927469">
                                  <g id="Grupo_927468" data-name="Grupo 927468">
                                    <g id="Grupo_927467" data-name="Grupo 927467">
                                      <g id="Grupo_927466" data-name="Grupo 927466">
                                        <g id="Grupo_927465" data-name="Grupo 927465">
                                          <g id="Grupo_927464" data-name="Grupo 927464">
                                            <g id="Grupo_927463" data-name="Grupo 927463">
                                              <path id="Trazado_710686" data-name="Trazado 710686" d="M277.073,164.123a2.118,2.118,0,0,1-2.255,1.911,2.025,2.025,0,0,1-1.971-2.128,2.118,2.118,0,0,1,2.253-1.911A2.027,2.027,0,0,1,277.073,164.123Z" transform="translate(-272.843 -161.991)" fill="#263238"/>
                                            </g>
                                          </g>
                                        </g>
                                      </g>
                                    </g>
                                  </g>
                                </g>
                              </g>
                            </g>
                          </g>
                        </g>
                      </g>
                    </g>
                  </g>
                  <g id="Grupo_927491" data-name="Grupo 927491" transform="translate(27.251 31.933)">
                    <g id="Grupo_927490" data-name="Grupo 927490">
                      <g id="Grupo_927489" data-name="Grupo 927489">
                        <g id="Grupo_927488" data-name="Grupo 927488">
                          <g id="Grupo_927487" data-name="Grupo 927487">
                            <g id="Grupo_927486" data-name="Grupo 927486">
                              <g id="Grupo_927485" data-name="Grupo 927485">
                                <g id="Grupo_927484" data-name="Grupo 927484">
                                  <g id="Grupo_927483" data-name="Grupo 927483">
                                    <g id="Grupo_927482" data-name="Grupo 927482">
                                      <g id="Grupo_927481" data-name="Grupo 927481">
                                        <g id="Grupo_927480" data-name="Grupo 927480">
                                          <g id="Grupo_927479" data-name="Grupo 927479">
                                            <g id="Grupo_927478" data-name="Grupo 927478">
                                              <g id="Grupo_927477" data-name="Grupo 927477">
                                                <path id="Trazado_710687" data-name="Trazado 710687" d="M275.634,155.446c-.29.247-1.764-1.1-4.028-1.335-2.26-.265-4.046.725-4.263.422-.106-.135.209-.6.991-1.053a5.808,5.808,0,0,1,3.448-.678,5.587,5.587,0,0,1,3.169,1.4C275.59,154.815,275.774,155.337,275.634,155.446Z" transform="translate(-267.323 -152.767)" fill="#263238"/>
                                              </g>
                                            </g>
                                          </g>
                                        </g>
                                      </g>
                                    </g>
                                  </g>
                                </g>
                              </g>
                            </g>
                          </g>
                        </g>
                      </g>
                    </g>
                  </g>
                  <g id="Grupo_927505" data-name="Grupo 927505" transform="translate(41.855 33.891)">
                    <g id="Grupo_927504" data-name="Grupo 927504">
                      <g id="Grupo_927503" data-name="Grupo 927503">
                        <g id="Grupo_927502" data-name="Grupo 927502">
                          <g id="Grupo_927501" data-name="Grupo 927501">
                            <g id="Grupo_927500" data-name="Grupo 927500">
                              <g id="Grupo_927499" data-name="Grupo 927499">
                                <g id="Grupo_927498" data-name="Grupo 927498">
                                  <g id="Grupo_927497" data-name="Grupo 927497">
                                    <g id="Grupo_927496" data-name="Grupo 927496">
                                      <g id="Grupo_927495" data-name="Grupo 927495">
                                        <g id="Grupo_927494" data-name="Grupo 927494">
                                          <g id="Grupo_927493" data-name="Grupo 927493">
                                            <g id="Grupo_927492" data-name="Grupo 927492">
                                              <path id="Trazado_710688" data-name="Trazado 710688" d="M285.026,174.129a15.042,15.042,0,0,1,3.75-.276c.585,0,1.145-.056,1.284-.44a2.961,2.961,0,0,0-.205-1.756q-.6-2.185-1.246-4.586c-1.715-6.524-2.891-11.863-2.628-11.929s1.868,5.167,3.582,11.69q.614,2.41,1.172,4.6a3.369,3.369,0,0,1,.06,2.3,1.461,1.461,0,0,1-1.04.746,3.934,3.934,0,0,1-1,.033A14.857,14.857,0,0,1,285.026,174.129Z" transform="translate(-285.026 -155.14)" fill="#263238"/>
                                            </g>
                                          </g>
                                        </g>
                                      </g>
                                    </g>
                                  </g>
                                </g>
                              </g>
                            </g>
                          </g>
                        </g>
                      </g>
                    </g>
                  </g>
                  <g id="Grupo_927519" data-name="Grupo 927519" transform="translate(34.5 53.742)">
                    <g id="Grupo_927518" data-name="Grupo 927518">
                      <g id="Grupo_927517" data-name="Grupo 927517">
                        <g id="Grupo_927516" data-name="Grupo 927516">
                          <g id="Grupo_927515" data-name="Grupo 927515">
                            <g id="Grupo_927514" data-name="Grupo 927514">
                              <g id="Grupo_927513" data-name="Grupo 927513">
                                <g id="Grupo_927512" data-name="Grupo 927512">
                                  <g id="Grupo_927511" data-name="Grupo 927511">
                                    <g id="Grupo_927510" data-name="Grupo 927510">
                                      <g id="Grupo_927509" data-name="Grupo 927509">
                                        <g id="Grupo_927508" data-name="Grupo 927508">
                                          <g id="Grupo_927507" data-name="Grupo 927507">
                                            <g id="Grupo_927506" data-name="Grupo 927506">
                                              <path id="Trazado_710689" data-name="Trazado 710689" d="M276.632,179.206c.371.017.116,2.477,2.038,4.446s4.568,1.972,4.55,2.318c.018.158-.634.417-1.744.33a6.16,6.16,0,0,1-3.814-1.8,5.367,5.367,0,0,1-1.55-3.711C276.127,179.754,276.465,179.174,276.632,179.206Z" transform="translate(-276.111 -179.204)" fill="#263238"/>
                                            </g>
                                          </g>
                                        </g>
                                      </g>
                                    </g>
                                  </g>
                                </g>
                              </g>
                            </g>
                          </g>
                        </g>
                      </g>
                    </g>
                  </g>
                  <g id="Grupo_927529" data-name="Grupo 927529" transform="translate(25.959 23.193)">
                    <g id="Grupo_927528" data-name="Grupo 927528">
                      <g id="Grupo_927527" data-name="Grupo 927527">
                        <g id="Grupo_927526" data-name="Grupo 927526">
                          <g id="Grupo_927525" data-name="Grupo 927525">
                            <g id="Grupo_927524" data-name="Grupo 927524">
                              <g id="Grupo_927523" data-name="Grupo 927523">
                                <g id="Grupo_927522" data-name="Grupo 927522">
                                  <g id="Grupo_927521" data-name="Grupo 927521">
                                    <g id="Grupo_927520" data-name="Grupo 927520">
                                      <path id="Trazado_710690" data-name="Trazado 710690" d="M276.2,144.383c-.289.593-2.52.062-5.213.1-2.693-.014-4.918.539-5.213-.051-.13-.28.305-.821,1.235-1.326a9.062,9.062,0,0,1,7.943-.04C275.891,143.565,276.331,144.1,276.2,144.383Z" transform="translate(-265.757 -142.172)" fill="#263238"/>
                                    </g>
                                  </g>
                                </g>
                              </g>
                            </g>
                          </g>
                        </g>
                      </g>
                    </g>
                  </g>
                  <g id="Grupo_927539" data-name="Grupo 927539" transform="translate(50.037 25.609)">
                    <g id="Grupo_927538" data-name="Grupo 927538">
                      <g id="Grupo_927537" data-name="Grupo 927537">
                        <g id="Grupo_927536" data-name="Grupo 927536">
                          <g id="Grupo_927535" data-name="Grupo 927535">
                            <g id="Grupo_927534" data-name="Grupo 927534">
                              <g id="Grupo_927533" data-name="Grupo 927533">
                                <g id="Grupo_927532" data-name="Grupo 927532">
                                  <g id="Grupo_927531" data-name="Grupo 927531">
                                    <g id="Grupo_927530" data-name="Grupo 927530">
                                      <path id="Trazado_710691" data-name="Trazado 710691" d="M302.618,147.9c-.453.473-1.958-.226-3.832-.449-1.866-.289-3.5-.02-3.812-.6-.132-.277.172-.766.918-1.18a5.586,5.586,0,0,1,6.159.842C302.659,147.111,302.821,147.663,302.618,147.9Z" transform="translate(-294.945 -145.101)" fill="#263238"/>
                                    </g>
                                  </g>
                                </g>
                              </g>
                            </g>
                          </g>
                        </g>
                      </g>
                    </g>
                  </g>
                  <g id="Grupo_927545" data-name="Grupo 927545" transform="translate(0 39.569)">
                    <g id="Grupo_927544" data-name="Grupo 927544">
                      <g id="Grupo_927543" data-name="Grupo 927543">
                        <g id="Grupo_927542" data-name="Grupo 927542">
                          <g id="Grupo_927541" data-name="Grupo 927541">
                            <g id="Grupo_927540" data-name="Grupo 927540">
                              <path id="Trazado_710692" data-name="Trazado 710692" d="M244.883,162.886c-.24-.135-9.816-4.064-10.556,6.05s9.566,8.771,9.6,8.483S244.883,162.886,244.883,162.886Z" transform="translate(-234.289 -162.023)" fill="#ffbe9d"/>
                            </g>
                          </g>
                        </g>
                      </g>
                    </g>
                  </g>
                  <g id="Grupo_927552" data-name="Grupo 927552" transform="translate(2.579 42.761)">
                    <g id="Grupo_927551" data-name="Grupo 927551">
                      <g id="Grupo_927550" data-name="Grupo 927550">
                        <g id="Grupo_927549" data-name="Grupo 927549">
                          <g id="Grupo_927548" data-name="Grupo 927548">
                            <g id="Grupo_927547" data-name="Grupo 927547">
                              <g id="Grupo_927546" data-name="Grupo 927546">
                                <path id="Trazado_710693" data-name="Trazado 710693" d="M241.67,174.038c-.042-.035-.186.111-.492.225a1.768,1.768,0,0,1-1.319-.069c-1.04-.47-1.816-2.232-1.732-4.059a5.85,5.85,0,0,1,.678-2.486,2.042,2.042,0,0,1,1.425-1.256.9.9,0,0,1,1,.559c.115.293.036.49.089.511.026.027.229-.153.178-.577a1.128,1.128,0,0,0-.351-.663,1.336,1.336,0,0,0-.955-.328,2.481,2.481,0,0,0-1.956,1.433,6,6,0,0,0-.818,2.775c-.084,2.043.82,4.026,2.25,4.555a1.892,1.892,0,0,0,1.632-.149C241.635,174.281,241.7,174.059,241.67,174.038Z" transform="translate(-237.416 -165.893)" fill="#eb996e"/>
                              </g>
                            </g>
                          </g>
                        </g>
                      </g>
                    </g>
                  </g>
                  <g id="Grupo_927558" data-name="Grupo 927558" transform="translate(6.312)">
                    <g id="Grupo_927557" data-name="Grupo 927557">
                      <g id="Grupo_927556" data-name="Grupo 927556">
                        <g id="Grupo_927555" data-name="Grupo 927555">
                          <g id="Grupo_927554" data-name="Grupo 927554">
                            <g id="Grupo_927553" data-name="Grupo 927553">
                              <path id="Trazado_710694" data-name="Trazado 710694" d="M291.81,127.117c1.7-.8-2.878-6.419-6.786-8.5-5.906-3.151-15.086-5.449-20.8-4.219-6.877,1.48-12.7,4.479-16.489,10.407a39.885,39.885,0,0,0-5.776,20.037,12.112,12.112,0,0,0,1.028,6.274c1.27,2.329,3.891,3.913,3.574,6.991a4.244,4.244,0,0,0,.852,3.157c1.724,2.09,4.109.384,5.27-1.4,2.48-3.821,3.032-8.537,3.519-13.066.347-3.219.69-6.507-.021-9.666-.386-1.719-1.079-3.364-1.369-5.1a6.092,6.092,0,0,1,1.042-5.006,6.335,6.335,0,0,1,.876-.779,10.575,10.575,0,0,1,10.6-1.319c5.569,2.383,15.108,6.02,17.774,4.25,3.836-2.547,4.827-4.305,4.827-4.305Z" transform="translate(-241.94 -114.057)" fill="#263238"/>
                            </g>
                          </g>
                        </g>
                      </g>
                    </g>
                  </g>
                </g>
              </g>
              <g id="Grupo_927566" data-name="Grupo 927566" transform="translate(14.317)">
                <g id="Grupo_927565" data-name="Grupo 927565">
                  <g id="Grupo_927564" data-name="Grupo 927564">
                    <g id="Grupo_927563" data-name="Grupo 927563">
                      <g id="Grupo_927562" data-name="Grupo 927562">
                        <g id="Grupo_927561" data-name="Grupo 927561">
                          <path id="Trazado_710695" data-name="Trazado 710695" d="M266.543,112.669a22.271,22.271,0,0,1,17.036,2.038c2.671,1.61,5.02,4.062,5.669,7.113s-.866,6.656-3.824,7.644l-.207.112c-4.411,1.176-7.18.417-11.39-1.35-3.541-1.487-6.619-3.93-10.168-5.4a20.613,20.613,0,0,0-12.015-1.125A33.642,33.642,0,0,1,266.543,112.669Z" transform="translate(-251.644 -111.851)" fill="#263238"/>
                        </g>
                      </g>
                    </g>
                  </g>
                </g>
              </g>
            </g>
          </g>
          <g id="Grupo_927569" data-name="Grupo 927569" transform="translate(45.244 1.144)">
            <path id="Trazado_710696" data-name="Trazado 710696" d="M272.808,110.71a4.425,4.425,0,0,1,1.03.1,16.69,16.69,0,0,1,2.724.742,17.355,17.355,0,0,1,3.726,1.921A14.442,14.442,0,0,1,284,117.029a13.753,13.753,0,0,1,2.043,4.719,24.711,24.711,0,0,1,.623,4.14c.083,1.187.087,2.149.074,2.813a4.487,4.487,0,0,1-.073,1.03,5.126,5.126,0,0,1-.094-1.027c-.039-.661-.088-1.617-.21-2.79a27.353,27.353,0,0,0-.7-4.069,13.865,13.865,0,0,0-2.01-4.568,14.574,14.574,0,0,0-3.588-3.477,18.406,18.406,0,0,0-3.612-1.964A36.645,36.645,0,0,0,272.808,110.71Z" transform="translate(-272.808 -110.7)" fill="#455a64"/>
          </g>
          <g id="Grupo_927570" data-name="Grupo 927570" transform="translate(54.557 0.587)">
            <path id="Trazado_710697" data-name="Trazado 710697" d="M284.1,110.03a3.651,3.651,0,0,1,.874.243,7.22,7.22,0,0,1,1,.374l1.265.641a13.041,13.041,0,0,1,5.247,6.17,13.256,13.256,0,0,1,1.074,4.384,14.832,14.832,0,0,1,.039,1.975,14.542,14.542,0,0,1-.232,1.7,8.746,8.746,0,0,1-.375,1.367,6.27,6.27,0,0,1-.407.988,3.626,3.626,0,0,1-.469.779,18.4,18.4,0,0,0,.952-3.189,12.432,12.432,0,0,0,.1-3.588,13.484,13.484,0,0,0-1.076-4.253,13.405,13.405,0,0,0-5.011-6.078l-1.209-.682a8.915,8.915,0,0,0-.955-.435A3.714,3.714,0,0,1,284.1,110.03Z" transform="translate(-284.098 -110.025)" fill="#455a64"/>
          </g>
        </g>
        <g id="Grupo_927581" data-name="Grupo 927581" transform="translate(0 79.061)">
          <path id="Trazado_710698" data-name="Trazado 710698" d="M276.017,232.887c0,1.388,6.957,31.946,9.62,39.452s11.1,82.779,9.986,88.14-3.994,5.147-3.994,5.147-68.125-4.289-75.448-3.646-10.43.429-12.2-7.934.053-51.831-1.5-62.34-1.566-15.6-2.167-31.214c-.521-13.53,2.558-24.384,8.993-32.217s20.68-15.753,20.68-15.753l5.054-7.369,35.757,18.912.817-4.3,2.17,6.7Z" transform="translate(-200.251 -205.153)" fill="#455a64"/>
          <g id="Grupo_927572" data-name="Grupo 927572" transform="translate(8.013 55.643)" opacity="0.3">
            <path id="Trazado_710699" data-name="Trazado 710699" d="M293.087,337.834c-.6-1.518-2.527-1.9-4.148-2.08-15.15-1.68-30.92-5.463-41.985-15.947-4.329-4.1-7.743-9.057-11.033-14.031-7.191-10.873-13.951-22.024-20.709-33.171l-5.247,1.985c3.219,15.74,6.386,27.135,11.627,40.036s9.311,25.419,22.6,29.644c8.588,2.731,24.9.638,33.881-.066A52.559,52.559,0,0,0,289.2,342.46a7.259,7.259,0,0,0,3.012-1.531A2.97,2.97,0,0,0,293.087,337.834Z" transform="translate(-209.965 -272.605)"/>
          </g>
          <g id="Grupo_927577" data-name="Grupo 927577" transform="translate(5.367 19.056)">
            <path id="Trazado_710700" data-name="Trazado 710700" d="M207.556,262.921c.393.7,30.711,65.452,44.247,68.115s55.605,3.285,63.816,1.732,16.244-3,16.244-3,5.944-14.121.518-26.152l-11.3.357s-31.42-1.7-35.858-2.909-8.273-5.376-12.268-5.154l-23.9-55.624s-15.533-14.424-26.629-9.986S204.3,257.138,207.556,262.921Z" transform="translate(-206.758 -228.463)" fill="#455a64"/>
            <g id="Grupo_927573" data-name="Grupo 927573" transform="translate(114.038 75.899)">
              <path id="Trazado_710701" data-name="Trazado 710701" d="M346.151,347.911a5.62,5.62,0,0,1,.224-1.088c.18-.69.4-1.7.638-2.946s.45-2.75.6-4.422a47.429,47.429,0,0,0,.118-5.459,44.637,44.637,0,0,0-1.538-9.788c-.338-1.225-.644-2.211-.88-2.882A5.437,5.437,0,0,1,345,320.26a5.555,5.555,0,0,1,.469,1.008,29.286,29.286,0,0,1,1.015,2.857,39.864,39.864,0,0,1,1.675,9.855,43.091,43.091,0,0,1-.153,5.511,38.584,38.584,0,0,1-.7,4.446,29.321,29.321,0,0,1-.775,2.931A5.477,5.477,0,0,1,346.151,347.911Z" transform="translate(-344.997 -320.26)" fill="#263238"/>
            </g>
            <g id="Grupo_927574" data-name="Grupo 927574" transform="translate(0.798 11.823)">
              <path id="Trazado_710702" data-name="Trazado 710702" d="M249.222,242.586s.161.331.452.986l1.275,2.906,4.836,11.137,17.5,40.529-.165-.1a10.344,10.344,0,0,1,5.3,1.623c1.649.909,3.245,1.966,5,2.767a16.81,16.81,0,0,0,5.686,1.322c1.99.236,4.022.41,6.082.59,8.245.681,16.982,1.218,26.079,1.725h-.017l11.3-.361.142,0,.056.129A29.1,29.1,0,0,1,335,318.8a42.444,42.444,0,0,1-2.773,13.352l-.04.106-.12.022-7.184,1.326-7.865,1.452a52.49,52.49,0,0,1-7.873.811c-5.228.238-10.38.258-15.441.233s-10.031-.146-14.9-.326-9.627-.424-14.266-.778c-2.32-.166-4.607-.389-6.862-.636a47.74,47.74,0,0,1-6.645-1.1,11.544,11.544,0,0,1-2.876-1.66,24.4,24.4,0,0,1-2.444-2.144,52.758,52.758,0,0,1-4.2-4.731,173.717,173.717,0,0,1-12.736-19.159c-7.107-12.143-12.236-22.313-15.758-29.342-1.75-3.521-3.077-6.271-3.967-8.141s-1.335-2.861-1.335-2.861.134.237.37.712l1.043,2.111,4.039,8.1c3.566,7,8.735,17.15,15.869,29.263A174.633,174.633,0,0,0,241.8,324.5a52.209,52.209,0,0,0,4.174,4.691,23.923,23.923,0,0,0,2.411,2.109,11.206,11.206,0,0,0,2.782,1.6,48.287,48.287,0,0,0,6.559,1.074c2.249.242,4.531.463,6.849.625q6.947.522,14.25.763c4.861.176,9.828.29,14.885.314s10.2,0,15.417-.238a52.048,52.048,0,0,0,7.814-.806l7.866-1.453,7.187-1.326-.16.128a42.093,42.093,0,0,0,2.745-13.2,28.7,28.7,0,0,0-2.22-12.78l.2.124-11.3.352h-.018c-9.1-.515-17.838-1.062-26.089-1.755-2.063-.182-4.1-.36-6.094-.6-1-.114-1.989-.243-2.972-.429a11.126,11.126,0,0,1-2.821-.935c-1.786-.82-3.385-1.885-5.017-2.788a10.03,10.03,0,0,0-5.11-1.591l-.12.006-.046-.108-17.36-40.587c-2.054-4.83-3.657-8.6-4.752-11.173l-1.23-2.926C249.351,242.931,249.222,242.586,249.222,242.586Z" transform="translate(-207.725 -242.586)" fill="#263238"/>
            </g>
            <g id="Grupo_927575" data-name="Grupo 927575" transform="translate(4.21)">
              <path id="Trazado_710703" data-name="Trazado 710703" d="M246.779,235.71c-.029.026-.422-.389-1.177-1.089a22.715,22.715,0,0,0-9.354-5.163,21.046,21.046,0,0,0-15.3,1.53A22.709,22.709,0,0,0,212.8,237.9c-.6.834-.9,1.32-.938,1.3a1.517,1.517,0,0,1,.183-.374c.14-.233.318-.6.617-1.022a20.012,20.012,0,0,1,2.81-3.374,21.6,21.6,0,0,1,26.823-2.682,19.964,19.964,0,0,1,3.423,2.751c.376.356.623.679.807.879A1.545,1.545,0,0,1,246.779,235.71Z" transform="translate(-211.861 -228.253)" fill="#263238"/>
            </g>
            <g id="Grupo_927576" data-name="Grupo 927576" transform="translate(62.632 67.496)">
              <path id="Trazado_710704" data-name="Trazado 710704" d="M286.155,310.074a56.785,56.785,0,0,1-3.461,9.245,56.955,56.955,0,0,1,3.461-9.245Z" transform="translate(-282.682 -310.073)" fill="#263238"/>
            </g>
          </g>
          <g id="Grupo_927578" data-name="Grupo 927578" transform="translate(124.747 97.134)">
            <path id="Trazado_710705" data-name="Trazado 710705" d="M353.119,322.986c0-.024.115-.057.311.012a1.181,1.181,0,0,1,.608.595,1.3,1.3,0,0,1-.031,1.285,1.484,1.484,0,0,1-1.435.663,1.391,1.391,0,0,1-1.081-1.153,1.33,1.33,0,0,1,.413-1.218,1.086,1.086,0,0,1,.812-.265c.2.019.3.071.292.1.014.082-.481-.031-.893.387a1.054,1.054,0,0,0-.234.924,1.026,1.026,0,0,0,.764.8,1.132,1.132,0,0,0,1.034-.459,1.017,1.017,0,0,0,.081-.945C353.548,323.124,353.1,323.041,353.119,322.986Z" transform="translate(-351.472 -322.901)" fill="#263238"/>
          </g>
          <g id="Grupo_927579" data-name="Grupo 927579" transform="translate(31.976 8.35)">
            <path id="Trazado_710706" data-name="Trazado 710706" d="M278.432,227.99a5.684,5.684,0,0,1-.815-.422l-2.256-1.289.158-.07c-.445,2.255-.877,5.573-1.634,9.549l-.049.263-.23-.144c-3.32-2.092-7.3-4.483-11.552-7.051-3.169-1.9-6.13-3.811-8.858-5.465s-5.247-3.062-7.356-4.244l-5.007-2.785-1.359-.764a2.592,2.592,0,0,1-.46-.29,2.558,2.558,0,0,1,.5.214l1.4.693c1.207.613,2.944,1.517,5.074,2.666s4.653,2.545,7.413,4.171l8.878,5.437c4.247,2.567,8.223,4.98,11.527,7.107l-.28.118c.79-3.945,1.278-7.267,1.788-9.516l.034-.148.125.078,2.2,1.375A5.72,5.72,0,0,1,278.432,227.99Z" transform="translate(-239.014 -215.275)" fill="#263238"/>
          </g>
          <g id="Grupo_927580" data-name="Grupo 927580" transform="translate(37.002 11.023)" opacity="0.3">
            <path id="Trazado_710707" data-name="Trazado 710707" d="M245.106,218.515l18.66,13.9c4.1,3.059,8.309,6.17,13.184,7.734q-.135-6.483-.27-12.967l-1.91,9.1Z" transform="translate(-245.106 -218.515)"/>
          </g>
        </g>
      </g>
      <g id="Grupo_927691" data-name="Grupo 927691" transform="translate(169.49)">
        <g id="Grupo_927675" data-name="Grupo 927675" transform="translate(52.102)">
          <g id="Grupo_927660" data-name="Grupo 927660">
            <g id="Grupo_927659" data-name="Grupo 927659">
              <g id="Grupo_927584" data-name="Grupo 927584">
                <g id="Grupo_927583" data-name="Grupo 927583">
                  <path id="Trazado_710708" data-name="Trazado 710708" d="M476.426,132.548a6.688,6.688,0,0,1-3.082-12.947,6.958,6.958,0,0,1,5.839-11.846,8.326,8.326,0,0,1,12.422-7.063,9.363,9.363,0,0,1,11.521-.454,6.659,6.659,0,0,1,6.095,11.182" transform="translate(-468.87 -98.473)" fill="#263238"/>
                </g>
              </g>
              <g id="Grupo_927658" data-name="Grupo 927658" transform="translate(5.234 3.019)">
                <g id="Grupo_927652" data-name="Grupo 927652" transform="translate(0 3.503)">
                  <g id="Grupo_927587" data-name="Grupo 927587" transform="translate(0 1.814)">
                    <g id="Grupo_927586" data-name="Grupo 927586">
                      <g id="Grupo_927585" data-name="Grupo 927585">
                        <path id="Trazado_710709" data-name="Trazado 710709" d="M476.584,135.274a28.374,28.374,0,0,1,27.749-26.665l1.469-.031c15.86.6,24.208,14.41,23.167,30.247l.943,56.5h0l-38.539,13.834-.337-20.349s-15.277-2.058-15.775-17.28C475.02,164.182,475.757,149,476.584,135.274Z" transform="translate(-475.215 -108.578)" fill="#ae7461"/>
                      </g>
                    </g>
                  </g>
                  <g id="Grupo_927592" data-name="Grupo 927592" transform="translate(15.695 75.785)">
                    <g id="Grupo_927591" data-name="Grupo 927591">
                      <g id="Grupo_927590" data-name="Grupo 927590">
                        <g id="Grupo_927589" data-name="Grupo 927589">
                          <g id="Grupo_927588" data-name="Grupo 927588">
                            <path id="Trazado_710710" data-name="Trazado 710710" d="M494.241,204.494a36.94,36.94,0,0,0,19.831-6.246s-4.469,11.053-19.69,9.992Z" transform="translate(-494.241 -198.248)" fill="#6f4439"/>
                          </g>
                        </g>
                      </g>
                    </g>
                  </g>
                  <g id="Grupo_927600" data-name="Grupo 927600" transform="translate(5.645 40.267)">
                    <g id="Grupo_927599" data-name="Grupo 927599">
                      <g id="Grupo_927598" data-name="Grupo 927598">
                        <g id="Grupo_927597" data-name="Grupo 927597">
                          <g id="Grupo_927596" data-name="Grupo 927596">
                            <g id="Grupo_927595" data-name="Grupo 927595">
                              <g id="Grupo_927594" data-name="Grupo 927594">
                                <g id="Grupo_927593" data-name="Grupo 927593">
                                  <path id="Trazado_710711" data-name="Trazado 710711" d="M482.058,157.2a2.174,2.174,0,0,0,2.141,2.151,2.08,2.08,0,0,0,2.2-2.005,2.176,2.176,0,0,0-2.139-2.153A2.082,2.082,0,0,0,482.058,157.2Z" transform="translate(-482.058 -155.192)" fill="#263238"/>
                                </g>
                              </g>
                            </g>
                          </g>
                        </g>
                      </g>
                    </g>
                  </g>
                  <g id="Grupo_927609" data-name="Grupo 927609" transform="translate(4.756 33.518)">
                    <g id="Grupo_927608" data-name="Grupo 927608">
                      <g id="Grupo_927607" data-name="Grupo 927607">
                        <g id="Grupo_927606" data-name="Grupo 927606">
                          <g id="Grupo_927605" data-name="Grupo 927605">
                            <g id="Grupo_927604" data-name="Grupo 927604">
                              <g id="Grupo_927603" data-name="Grupo 927603">
                                <g id="Grupo_927602" data-name="Grupo 927602">
                                  <g id="Grupo_927601" data-name="Grupo 927601">
                                    <path id="Trazado_710712" data-name="Trazado 710712" d="M481.017,149.384c.276.279,1.9-.974,4.238-1.015,2.337-.075,4.079,1.094,4.327.8.122-.13-.163-.636-.921-1.165a5.972,5.972,0,0,0-3.471-.993,5.735,5.735,0,0,0-3.366,1.163C481.115,148.743,480.882,149.261,481.017,149.384Z" transform="translate(-480.981 -147.011)" fill="#263238"/>
                                  </g>
                                </g>
                              </g>
                            </g>
                          </g>
                        </g>
                      </g>
                    </g>
                  </g>
                  <g id="Grupo_927617" data-name="Grupo 927617" transform="translate(26.964 40.267)">
                    <g id="Grupo_927616" data-name="Grupo 927616">
                      <g id="Grupo_927615" data-name="Grupo 927615">
                        <g id="Grupo_927614" data-name="Grupo 927614">
                          <g id="Grupo_927613" data-name="Grupo 927613">
                            <g id="Grupo_927612" data-name="Grupo 927612">
                              <g id="Grupo_927611" data-name="Grupo 927611">
                                <g id="Grupo_927610" data-name="Grupo 927610">
                                  <path id="Trazado_710713" data-name="Trazado 710713" d="M507.9,157.2a2.174,2.174,0,0,0,2.142,2.151,2.079,2.079,0,0,0,2.2-2.006,2.176,2.176,0,0,0-2.139-2.152A2.081,2.081,0,0,0,507.9,157.2Z" transform="translate(-507.901 -155.192)" fill="#263238"/>
                                </g>
                              </g>
                            </g>
                          </g>
                        </g>
                      </g>
                    </g>
                  </g>
                  <g id="Grupo_927626" data-name="Grupo 927626" transform="translate(27.765 33.487)">
                    <g id="Grupo_927625" data-name="Grupo 927625">
                      <g id="Grupo_927624" data-name="Grupo 927624">
                        <g id="Grupo_927623" data-name="Grupo 927623">
                          <g id="Grupo_927622" data-name="Grupo 927622">
                            <g id="Grupo_927621" data-name="Grupo 927621">
                              <g id="Grupo_927620" data-name="Grupo 927620">
                                <g id="Grupo_927619" data-name="Grupo 927619">
                                  <g id="Grupo_927618" data-name="Grupo 927618">
                                    <path id="Trazado_710714" data-name="Trazado 710714" d="M508.909,149.346c.275.279,1.9-.974,4.238-1.016,2.336-.074,4.078,1.094,4.326.8.122-.129-.16-.635-.922-1.164a5.968,5.968,0,0,0-3.47-.993,5.734,5.734,0,0,0-3.366,1.162C509.009,148.7,508.774,149.222,508.909,149.346Z" transform="translate(-508.873 -146.973)" fill="#263238"/>
                                  </g>
                                </g>
                              </g>
                            </g>
                          </g>
                        </g>
                      </g>
                    </g>
                  </g>
                  <g id="Grupo_927634" data-name="Grupo 927634" transform="translate(13.666 33.868)">
                    <g id="Grupo_927633" data-name="Grupo 927633">
                      <g id="Grupo_927632" data-name="Grupo 927632">
                        <g id="Grupo_927631" data-name="Grupo 927631">
                          <g id="Grupo_927630" data-name="Grupo 927630">
                            <g id="Grupo_927629" data-name="Grupo 927629">
                              <g id="Grupo_927628" data-name="Grupo 927628">
                                <g id="Grupo_927627" data-name="Grupo 927627">
                                  <path id="Trazado_710715" data-name="Trazado 710715" d="M497.778,166.953a15.432,15.432,0,0,0-3.814-.609c-.6-.05-1.167-.157-1.276-.563a3.046,3.046,0,0,1,.363-1.779l1.674-4.586c2.322-6.527,3.989-11.89,3.726-11.98s-2.359,5.125-4.681,11.653q-.837,2.414-1.6,4.611a3.46,3.46,0,0,0-.262,2.351,1.5,1.5,0,0,0,1,.854,4.056,4.056,0,0,0,1.017.12A15.327,15.327,0,0,0,497.778,166.953Z" transform="translate(-491.782 -147.435)" fill="#263238"/>
                                </g>
                              </g>
                            </g>
                          </g>
                        </g>
                      </g>
                    </g>
                  </g>
                  <g id="Grupo_927638" data-name="Grupo 927638" transform="translate(26.899 25.303)">
                    <g id="Grupo_927637" data-name="Grupo 927637">
                      <g id="Grupo_927636" data-name="Grupo 927636">
                        <g id="Grupo_927635" data-name="Grupo 927635">
                          <path id="Trazado_710716" data-name="Trazado 710716" d="M507.853,139.659c.321.587,2.312-.1,4.78-.228,2.464-.186,4.554.238,4.767-.384.092-.3-.358-.82-1.257-1.277a7.4,7.4,0,0,0-3.72-.7,7.143,7.143,0,0,0-3.553,1.169C508.062,138.8,507.71,139.378,507.853,139.659Z" transform="translate(-507.822 -137.052)" fill="#263238"/>
                        </g>
                      </g>
                    </g>
                  </g>
                  <g id="Grupo_927642" data-name="Grupo 927642" transform="translate(4.264 25.09)">
                    <g id="Grupo_927641" data-name="Grupo 927641">
                      <g id="Grupo_927640" data-name="Grupo 927640">
                        <g id="Grupo_927639" data-name="Grupo 927639">
                          <path id="Trazado_710717" data-name="Trazado 710717" d="M480.46,139.319c.5.521,2.424-.07,4.746-.144,2.319-.14,4.3.27,4.737-.294.193-.274-.127-.8-1-1.286a7.55,7.55,0,0,0-3.876-.792,7.445,7.445,0,0,0-3.765,1.145C480.5,138.512,480.237,139.064,480.46,139.319Z" transform="translate(-480.383 -136.794)" fill="#263238"/>
                        </g>
                      </g>
                    </g>
                  </g>
                  <g id="Grupo_927645" data-name="Grupo 927645" transform="translate(2.649)">
                    <g id="Grupo_927644" data-name="Grupo 927644">
                      <g id="Grupo_927643" data-name="Grupo 927643">
                        <path id="Trazado_710718" data-name="Trazado 710718" d="M478.467,127.876s3.822-9.617,8.375-11.936c5.511-2.807,8.032,3.254,13.306,1.663s10.536-4.284,16.04-.294c6.025,4.367,3.31,7.573,3.814,14.322,2.044,27.36,7.2,35,8.364,22.073.127-1.416,4.027-2.621,4.486-8.6.6-7.759.7-17.168-1.138-22.628-1.551-4.6-4.257-7.749-9.064-11.18-7.589-5.417-17.86-5.328-24.82-4.484S477.589,115.949,478.467,127.876Z" transform="translate(-478.426 -106.379)" fill="#263238"/>
                      </g>
                    </g>
                  </g>
                  <g id="Grupo_927648" data-name="Grupo 927648" transform="translate(51.393 42.845)">
                    <g id="Grupo_927647" data-name="Grupo 927647">
                      <g id="Grupo_927646" data-name="Grupo 927646">
                        <path id="Trazado_710719" data-name="Trazado 710719" d="M537.731,162.4a4.133,4.133,0,0,1,4.381-4.074c2.845.212,6.038,1.76,5.97,7.632-.12,10.416-10.553,8.146-10.567,7.848C537.505,173.606,537.642,166.76,537.731,162.4Z" transform="translate(-537.514 -158.317)" fill="#ae7461"/>
                      </g>
                    </g>
                  </g>
                  <g id="Grupo_927651" data-name="Grupo 927651" transform="translate(53.695 46.225)">
                    <g id="Grupo_927650" data-name="Grupo 927650">
                      <g id="Grupo_927649" data-name="Grupo 927649">
                        <path id="Trazado_710720" data-name="Trazado 710720" d="M540.315,170.633c.046-.033.18.13.485.273a1.814,1.814,0,0,0,1.356.044c1.1-.391,2.052-2.127,2.124-4a5.991,5.991,0,0,0-.479-2.6,2.1,2.1,0,0,0-1.348-1.409.925.925,0,0,0-1.077.485c-.143.29-.079.5-.135.516-.03.026-.221-.177-.133-.606a1.158,1.158,0,0,1,.417-.648,1.37,1.37,0,0,1,1.006-.254,2.551,2.551,0,0,1,1.877,1.637,6.156,6.156,0,0,1,.6,2.91c-.091,2.1-1.188,4.05-2.7,4.468a1.944,1.944,0,0,1-1.656-.295C540.331,170.884,540.279,170.651,540.315,170.633Z" transform="translate(-540.305 -162.415)" fill="#6f4439"/>
                      </g>
                    </g>
                  </g>
                </g>
                <g id="Grupo_927654" data-name="Grupo 927654" transform="translate(9.442)">
                  <g id="Grupo_927653" data-name="Grupo 927653">
                    <path id="Trazado_710721" data-name="Trazado 710721" d="M528.214,132.4a9.881,9.881,0,0,1-4.368,2.126c-1.625.195-3.507-.7-3.815-2.311-.138-.722.022-1.567-.466-2.117-.582-.657-1.627-.426-2.5-.315a6.648,6.648,0,0,1-6.994-4.624c-.748,1.171-2.551,1.158-3.734.429a14.951,14.951,0,0,1-2.9-2.975,4.282,4.282,0,0,0-3.609-1.715,10.278,10.278,0,0,1-2.254.545c-1.37-.094-2.07-1.681-2.3-3.033s-.427-2.933-1.6-3.646c-1.087-.662-2.47-.238-3.725-.027s-2.886-.051-3.233-1.275a2.474,2.474,0,0,1,.428-1.9,6.743,6.743,0,0,1,7.906-2.715,9.139,9.139,0,0,1,16.753-2.113,9.276,9.276,0,0,1,14.893,3.079,6.722,6.722,0,0,1,7.777,9.623c1.893,1.031,3.533,2.858,3.616,5.011s-1.972,4.343-4.064,3.819a3.723,3.723,0,0,1-6.363,3.844" transform="translate(-486.66 -102.133)" fill="#263238"/>
                  </g>
                </g>
                <g id="Grupo_927657" data-name="Grupo 927657" transform="translate(17.119 9.796)">
                  <g id="Grupo_927656" data-name="Grupo 927656">
                    <g id="Grupo_927655" data-name="Grupo 927655">
                      <path id="Trazado_710722" data-name="Trazado 710722" d="M495.972,114.008c-.009,0-.007.066.006.191s.028.313.078.554a6.55,6.55,0,0,0,.8,1.99,7.442,7.442,0,0,0,2.358,2.415,6.939,6.939,0,0,0,4.289,1.129l-.182-.228a3.771,3.771,0,0,0,.268,2.87,10.765,10.765,0,0,0,1.833,2.524,7.781,7.781,0,0,0,1.19,1.171,3.634,3.634,0,0,0,1.662.578,3.8,3.8,0,0,0,3.326-1.269l-.392-.1a7.811,7.811,0,0,0,3.422,5.335,5.7,5.7,0,0,0,3.442,1.05,10.283,10.283,0,0,0,3.353-.808l-.281-.117a8.206,8.206,0,0,0,2.53,3.163,4.367,4.367,0,0,0,3.646.914,5.733,5.733,0,0,0,4.324-4.578l-.233.115a5.361,5.361,0,0,0,3.587.453,5.825,5.825,0,0,0,2.472-1.163,5.051,5.051,0,0,0,1.138-1.3,2.454,2.454,0,0,0,.252-.544,6.246,6.246,0,0,1-1.5,1.7,5.782,5.782,0,0,1-2.413,1.054,5.135,5.135,0,0,1-3.386-.486l-.2-.106-.037.221a5.409,5.409,0,0,1-4.093,4.243,3.967,3.967,0,0,1-3.31-.867,7.812,7.812,0,0,1-2.377-3l-.087-.191-.195.073a9.921,9.921,0,0,1-3.208.77,5.258,5.258,0,0,1-3.178-.978,7.387,7.387,0,0,1-3.235-5.027l-.075-.491-.316.388a3.38,3.38,0,0,1-2.938,1.119,3.234,3.234,0,0,1-1.473-.5,7.623,7.623,0,0,1-1.121-1.1,10.532,10.532,0,0,1-1.792-2.415,3.418,3.418,0,0,1-.28-2.6l.08-.25-.261.022a6.692,6.692,0,0,1-4.109-1.018,7.409,7.409,0,0,1-2.341-2.283A8.027,8.027,0,0,1,495.972,114.008Z" transform="translate(-495.966 -114.007)" fill="#455a64"/>
                    </g>
                  </g>
                </g>
              </g>
            </g>
          </g>
          <g id="Grupo_927674" data-name="Grupo 927674" transform="translate(26.817 60.711)">
            <g id="Grupo_927673" data-name="Grupo 927673">
              <g id="Grupo_927672" data-name="Grupo 927672">
                <g id="Grupo_927671" data-name="Grupo 927671">
                  <g id="Grupo_927670" data-name="Grupo 927670">
                    <g id="Grupo_927669" data-name="Grupo 927669">
                      <g id="Grupo_927668" data-name="Grupo 927668">
                        <g id="Grupo_927667" data-name="Grupo 927667">
                          <g id="Grupo_927666" data-name="Grupo 927666">
                            <g id="Grupo_927665" data-name="Grupo 927665">
                              <g id="Grupo_927664" data-name="Grupo 927664">
                                <g id="Grupo_927663" data-name="Grupo 927663">
                                  <g id="Grupo_927662" data-name="Grupo 927662">
                                    <g id="Grupo_927661" data-name="Grupo 927661">
                                      <path id="Trazado_710723" data-name="Trazado 710723" d="M507.525,172.071c-.371.044.058,2.5-1.735,4.611s-4.452,2.306-4.411,2.652c-.007.16.667.374,1.776.209a6.216,6.216,0,0,0,3.707-2.075,5.409,5.409,0,0,0,1.3-3.839C508.072,172.586,507.69,172.026,507.525,172.071Z" transform="translate(-501.379 -172.068)" fill="#263238"/>
                                    </g>
                                  </g>
                                </g>
                              </g>
                            </g>
                          </g>
                        </g>
                      </g>
                    </g>
                  </g>
                </g>
              </g>
            </g>
          </g>
        </g>
        <g id="Grupo_927690" data-name="Grupo 927690" transform="translate(0 81.817)">
          <g id="Grupo_927676" data-name="Grupo 927676" transform="translate(0 76.62)">
            <path id="Trazado_710724" data-name="Trazado 710724" d="M405.711,311.276c1.32-.528,44.917-5.766,44.917-5.766l17.689-14.976-1.661,43.353-55.666,5.367Z" transform="translate(-405.711 -290.534)" fill="#ff725e"/>
            <path id="Trazado_710725" data-name="Trazado 710725" d="M471.082,298.561c-.53.264-4.9,4.147-4.9,4.147l1.332,33.383Z" transform="translate(-416.298 -291.939)" opacity="0.3"/>
          </g>
          <g id="Grupo_927685" data-name="Grupo 927685" transform="translate(46.876)">
            <path id="Trazado_710726" data-name="Trazado 710726" d="M546.536,393.731H472.9s3.9,20.778,5.342,30.353a122.657,122.657,0,0,0,3.554,16.368h66.694s4.978-12.07,5.845-19.821S546.536,393.731,546.536,393.731Z" transform="translate(-464.349 -231.98)" fill="#263238"/>
            <path id="Trazado_710727" data-name="Trazado 710727" d="M466.053,396.771s-2.057,23.685,0,44.213h25.508V422.069Z" transform="translate(-462.991 -232.513)" fill="#263238"/>
            <path id="Trazado_710728" data-name="Trazado 710728" d="M483.426,245.815l7.936-17.378.986-10.733s15.217-9.564,22.436-13.174a157.722,157.722,0,0,1,16.945-6.877v10.128Z" transform="translate(-466.192 -197.653)" fill="#ebebeb"/>
            <path id="Trazado_710729" data-name="Trazado 710729" d="M546.1,335.34s4.31-57.925,4.6-62.23c0,0,2.546-30.95-2.95-42.735s-17.793-22.144-17.793-22.144l-1.132-6.187-24.02,15.139-11.1,9.657a110.941,110.941,0,0,0-10.477,13.036c-3.152,4.36-6.656,9.971-8.215,17.026-.57,2.579-7.178,33.414-7.376,54.908,0,0-1.016,18.751-2.1,29.373-1.341,13.146-3.384,43.114-2.94,60.87l77.836-2.377c19.235-2.934,15.852-4.846,15.852-4.846Z" transform="translate(-462.535 -198.422)" fill="#ff725e"/>
            <g id="Grupo_927677" data-name="Grupo 927677" transform="translate(4.553 10.128)">
              <path id="Trazado_710730" data-name="Trazado 710730" d="M529.038,209.93s-.181.093-.539.246l-1.588.664c-.679.327-1.5.758-2.473,1.261-.93.575-2.039,1.171-3.187,1.988a88.4,88.4,0,0,0-17.1,15.807l-.045.052-.064.012-7.468,1.373.161-.186c-.117,3.469-.24,7.111-.367,10.879l0,.085-.064.061a103.264,103.264,0,0,0-10.981,12.037,47.292,47.292,0,0,0-3.765,5.69l-.407.734-.311.766a13.4,13.4,0,0,0-.563,1.553c-.332,1.054-.661,2.1-.932,3.159-1.152,4.206-2.1,8.312-2.995,12.224-1.772,7.827-3.248,14.9-4.472,20.848-2.443,11.892-3.819,19.273-3.819,19.273a11.865,11.865,0,0,1,.167-1.354c.135-.884.362-2.183.659-3.854.6-3.342,1.513-8.17,2.7-14.125s2.632-13.039,4.384-20.876c.881-3.918,1.824-8.027,2.975-12.249.271-1.059.6-2.115.935-3.179a13.675,13.675,0,0,1,.576-1.59l.323-.792.411-.744a47.52,47.52,0,0,1,3.8-5.745,102.611,102.611,0,0,1,11.042-12.084l-.068.146c.135-3.768.266-7.41.392-10.878l.006-.158.155-.028,7.472-1.348-.108.064a86.464,86.464,0,0,1,17.266-15.751c1.162-.808,2.285-1.392,3.226-1.955.982-.491,1.818-.908,2.506-1.219l1.614-.615C528.845,209.986,529.038,209.93,529.038,209.93Z" transform="translate(-468.054 -209.93)" fill="#263238"/>
            </g>
            <g id="Grupo_927679" data-name="Grupo 927679" transform="translate(28.322 35.076)">
              <path id="Trazado_710731" data-name="Trazado 710731" d="M508,261l.934,77.293-11.77,75.28H528.2s14.1-57.158,17.386-69.17c3.188-11.663,7.967-70.372,8.39-73.255.167-1.13,3.531-21.405-6.373-30.97" transform="translate(-496.92 -240.173)" fill="#ff725e"/>
              <g id="Grupo_927678" data-name="Grupo 927678">
                <path id="Trazado_710732" data-name="Trazado 710732" d="M547.549,240.173s.224.213.649.645a17.166,17.166,0,0,1,1.694,2.083,25.926,25.926,0,0,1,3.876,9.525,53.282,53.282,0,0,1,.589,16.309c-.465,3.166-.7,6.551-1.043,10.158q-.49,5.4-1.036,11.412c-.741,8-1.576,16.764-2.585,26.168-.518,4.7-1.056,9.563-1.719,14.562a118.989,118.989,0,0,1-2.733,15.322c-5.184,20.647-10.89,43.371-16.888,67.262l-.041.163H524.8l-27.682,0h-.248l.039-.245c4.355-27.765,8.374-53.393,11.806-75.273l0,.029c-.252-23.4-.459-42.726-.6-56.2-.06-6.73-.108-12-.14-15.6-.01-1.788-.018-3.159-.024-4.093s.01-1.4.01-1.4.024.476.045,1.4.042,2.3.075,4.092c.055,3.6.135,8.866.236,15.6.181,13.479.441,32.8.754,56.2v.015l0,.014c-3.411,21.885-7.406,47.516-11.734,75.286l-.21-.245,27.682,0h3.348l-.209.163c6.012-23.892,11.73-46.615,16.926-67.262a118.88,118.88,0,0,0,2.74-15.269c.67-4.992,1.214-9.853,1.74-14.55,1.025-9.4,1.878-18.162,2.637-26.159q.562-6,1.068-11.409c.351-3.592.6-7.016,1.076-10.16a53.437,53.437,0,0,0-.515-16.249,26.181,26.181,0,0,0-3.784-9.51,18.443,18.443,0,0,0-1.657-2.1C547.753,240.407,547.549,240.173,547.549,240.173Z" transform="translate(-496.867 -240.173)" fill="#263238"/>
              </g>
            </g>
            <g id="Grupo_927680" data-name="Grupo 927680" transform="translate(40.296 133.904)">
              <path id="Trazado_710733" data-name="Trazado 710733" d="M526.9,366.869a12.687,12.687,0,0,1-2.4-.695c-1.458-.5-3.451-1.256-5.6-2.21s-4.05-1.925-5.4-2.672a12.666,12.666,0,0,1-2.124-1.313,16.51,16.51,0,0,1,2.264,1.043c1.379.677,3.291,1.6,5.431,2.549s4.106,1.75,5.533,2.318A16.511,16.511,0,0,1,526.9,366.869Z" transform="translate(-511.382 -359.974)" fill="#263238"/>
            </g>
            <g id="Grupo_927681" data-name="Grupo 927681" transform="translate(2.688 68.151)">
              <path id="Trazado_710734" data-name="Trazado 710734" d="M465.8,358.038a.7.7,0,0,1-.007-.2c.006-.159.012-.354.021-.592q.044-.833.122-2.273c.128-2.01.309-4.856.532-8.356.476-7.053,1.156-16.8,2.107-27.544s2.05-20.46,2.944-27.473c.45-3.507.831-6.342,1.118-8.3q.213-1.425.336-2.251l.1-.584a.1.1,0,1,1,.044.006c-.015.158-.034.351-.056.59q-.094.828-.256,2.261c-.236,2-.571,4.831-.982,8.314-.818,7.02-1.866,16.729-2.819,27.474s-1.678,20.48-2.231,27.528c-.28,3.5-.507,6.337-.668,8.345q-.128,1.435-.2,2.268c-.026.238-.046.431-.064.589A.7.7,0,0,1,465.8,358.038Z" transform="translate(-465.793 -280.267)" fill="#263238"/>
            </g>
            <g id="Grupo_927682" data-name="Grupo 927682" transform="translate(58.331 13.864)">
              <path id="Trazado_710735" data-name="Trazado 710735" d="M540.451,225.92a28.84,28.84,0,0,0-7.2-11.458,6.967,6.967,0,0,1,1.573,1.272,20.592,20.592,0,0,1,5.165,8.217A6.892,6.892,0,0,1,540.451,225.92Z" transform="translate(-533.245 -214.459)" fill="#263238"/>
            </g>
            <g id="Grupo_927683" data-name="Grupo 927683" transform="translate(6.33 118.934)">
              <path id="Trazado_710736" data-name="Trazado 710736" d="M474.661,344.249c.022,0,.1.19.076.562a2.244,2.244,0,0,1-.674,1.4,2.139,2.139,0,0,1-2.238.508,2.482,2.482,0,0,1-1.15-.822,2.276,2.276,0,0,1-.465-1.45,3,3,0,0,1,.6-1.8,1.849,1.849,0,0,1,.723-.571c.3-.11.512-.162.758-.24l.031-.009h.027a2.6,2.6,0,0,1,1.5.431,1.933,1.933,0,0,1,.693.983,1.958,1.958,0,0,1,.126,1.008c-.05.011-.1-.363-.332-.928a1.79,1.79,0,0,0-.663-.809,2.362,2.362,0,0,0-1.321-.309l.057-.009c-.224.079-.509.164-.712.247a1.466,1.466,0,0,0-.556.461,2.657,2.657,0,0,0-.495,1.546,1.968,1.968,0,0,0,1.318,1.9,1.835,1.835,0,0,0,1.9-.357,2.26,2.26,0,0,0,.717-1.2A4.326,4.326,0,0,1,474.661,344.249Z" transform="translate(-470.209 -341.827)" fill="#263238"/>
            </g>
            <g id="Grupo_927684" data-name="Grupo 927684" transform="translate(5.176 146.264)">
              <path id="Trazado_710737" data-name="Trazado 710737" d="M473.262,377.379c.022,0,.1.191.076.562a2.241,2.241,0,0,1-.674,1.4,2.137,2.137,0,0,1-2.238.508,2.476,2.476,0,0,1-1.15-.822,2.272,2.272,0,0,1-.465-1.45,3,3,0,0,1,.6-1.8,1.846,1.846,0,0,1,.724-.571c.3-.11.512-.162.758-.24l.031-.01h.027a2.6,2.6,0,0,1,1.5.43,2.293,2.293,0,0,1,.819,1.991c-.05.011-.1-.363-.333-.928a1.79,1.79,0,0,0-.661-.809,2.363,2.363,0,0,0-1.322-.309l.057-.009c-.224.079-.509.165-.712.247a1.466,1.466,0,0,0-.556.461,2.659,2.659,0,0,0-.5,1.546,1.969,1.969,0,0,0,1.319,1.9,1.834,1.834,0,0,0,1.9-.357,2.257,2.257,0,0,0,.717-1.2A4.3,4.3,0,0,1,473.262,377.379Z" transform="translate(-468.81 -374.957)" fill="#263238"/>
            </g>
          </g>
          <g id="Grupo_927686" data-name="Grupo 927686" transform="translate(101.905 27.496)">
            <path id="Trazado_710738" data-name="Trazado 710738" d="M549.724,233.99c-.044.073-1.068-.582-2.878-1.276a20.04,20.04,0,0,0-3.265-.93,20.158,20.158,0,0,0-8.257.114,20.025,20.025,0,0,0-3.238,1.02c-1.791.743-2.8,1.427-2.842,1.355a3.278,3.278,0,0,1,.682-.513,7.232,7.232,0,0,1,.855-.52,12.194,12.194,0,0,1,1.184-.6,18.06,18.06,0,0,1,3.27-1.127,19.153,19.153,0,0,1,8.424-.116,17.992,17.992,0,0,1,3.3,1.036,12.035,12.035,0,0,1,1.2.568,7.221,7.221,0,0,1,.869.5A3.219,3.219,0,0,1,549.724,233.99Z" transform="translate(-529.243 -230.984)" fill="#263238"/>
          </g>
          <g id="Grupo_927687" data-name="Grupo 927687" transform="translate(54.418 23.914)" opacity="0.3">
            <path id="Trazado_710739" data-name="Trazado 710739" d="M471.678,305.529c3.362-4.891,4.595-9.5,6.391-15.161,2.669-8.405,3.414-17.9,7.6-25.664,2.466-4.571,5.366-9.261,9.654-12.192,4.182-2.858,4.8-6.493,4.719-16.322,2.989.031,6.149-2.275,6.524-2.679a16.641,16.641,0,0,0,3.667-6.87c-2.1,2.281-5.594,6.063-5.594,6.063s-7.582,1.409-7.471,1.36c-.186,3.781-.193,7.1-.38,10.879,0,0-14.544,15.432-15.677,18.535S471.678,305.529,471.678,305.529Z" transform="translate(-471.678 -226.642)"/>
          </g>
          <g id="Grupo_927688" data-name="Grupo 927688" transform="translate(108.421 74.688)" opacity="0.3">
            <path id="Trazado_710740" data-name="Trazado 710740" d="M537.141,412.651c18.432-34.889,24.161-80.762,23.064-124.46,0,0-5.29,53.112-7.074,62.23C551.36,359.474,537.141,412.651,537.141,412.651Z" transform="translate(-537.141 -288.191)"/>
          </g>
          <g id="Grupo_927689" data-name="Grupo 927689" transform="translate(72.904 4.511)">
            <path id="Trazado_710741" data-name="Trazado 710741" d="M532.417,203.123a2.319,2.319,0,0,1-.413.315l-1.229.834-4.56,3-15.132,9.751-6.529,4.163.014-.01-2.085,1.614a16.846,16.846,0,0,0-1.863,1.59c-1.143,1.1-2.16,2.177-3.075,3.151l-.165.176-.095-.218-2.381-5.5c-.257-.62-.466-1.119-.627-1.507a.286.286,0,1,1,.083-.036l.7,1.472,2.509,5.445-.26-.042c.9-.992,1.907-2.08,3.048-3.2a16.981,16.981,0,0,1,1.888-1.64l2.067-1.622.007-.006.007,0,6.52-4.182,15.2-9.647,4.633-2.881,1.271-.766A2.4,2.4,0,0,1,532.417,203.123Z" transform="translate(-494.087 -203.122)" fill="#263238"/>
          </g>
        </g>
      </g>
    </g>
    <g id="Speech_Bubble" data-name="Speech Bubble" transform="translate(258.03 78.65)">
      <g id="Grupo_927739" data-name="Grupo 927739">
        <g id="Grupo_927732" data-name="Grupo 927732" transform="translate(26.004)">
          <g id="Grupo_927731" data-name="Grupo 927731">
            <g id="Grupo_927730" data-name="Grupo 927730">
              <g id="Grupo_927729" data-name="Grupo 927729">
                <g id="Grupo_927728" data-name="Grupo 927728">
                  <g id="Grupo_927724" data-name="Grupo 927724" transform="translate(0.189 0.198)">
                    <g id="Grupo_927723" data-name="Grupo 927723">
                      <path id="Trazado_710766" data-name="Trazado 710766" d="M434.115,144.746l-10.306-1.2a33.133,33.133,0,1,1,6.679-9.813l.012-.015Z" transform="translate(-367.176 -87.226)" fill="#fff"/>
                    </g>
                  </g>
                  <g id="Grupo_927727" data-name="Grupo 927727">
                    <g id="Grupo_927726" data-name="Grupo 927726">
                      <g id="Grupo_927725" data-name="Grupo 927725">
                        <path id="Trazado_710767" data-name="Trazado 710767" d="M434.075,144.7s-.093-.252-.256-.729-.4-1.193-.717-2.113l-2.74-8.156.178.032-.012.015a.1.1,0,0,1-.145.017.1.1,0,0,1-.03-.123,33.076,33.076,0,0,0,2.678-16.075,32.464,32.464,0,0,0-.823-5.034,37.206,37.206,0,0,0-1.758-5.163A32.851,32.851,0,0,0,367.676,116a33.468,33.468,0,0,0,1.52,15.043,32.373,32.373,0,0,0,7.482,12.115,32.974,32.974,0,0,0,22.61,9.97l1.411.018a8.916,8.916,0,0,0,1.387-.045l2.7-.238a45.651,45.651,0,0,0,5.013-1.1,32.966,32.966,0,0,0,13.9-8.335.1.1,0,0,1,.082-.028l7.626.951,1.982.253c.448.058.686.1.686.1s-.211-.016-.648-.06l-1.959-.207-7.709-.838.081-.029a32.948,32.948,0,0,1-13.953,8.49,45.737,45.737,0,0,1-5.055,1.133l-2.726.252a9.1,9.1,0,0,1-1.4.049l-1.426-.012a33.293,33.293,0,0,1-22.9-10.027,32.737,32.737,0,0,1-7.6-12.264,33.864,33.864,0,0,1-1.556-15.248A33.1,33.1,0,0,1,373.08,101a14.793,14.793,0,0,1,1.221-1.6l1.279-1.548,1.411-1.416a13.663,13.663,0,0,1,1.459-1.35l1.528-1.26c.5-.434,1.077-.752,1.609-1.132.549-.356,1.073-.75,1.639-1.072l1.717-.921A32.811,32.811,0,0,1,399.5,86.992a33.4,33.4,0,0,1,24.7,10.246,33.072,33.072,0,0,1,6.577,10,37.44,37.44,0,0,1,1.756,5.223,32.582,32.582,0,0,1,.808,5.086,33.07,33.07,0,0,1-2.8,16.184l-.175-.106.012-.014a.1.1,0,0,1,.144-.017.114.114,0,0,1,.035.049l2.641,8.267c.289.915.51,1.613.664,2.1C434.011,144.475,434.075,144.7,434.075,144.7Z" transform="translate(-366.947 -86.985)" fill="#263238"/>
                      </g>
                    </g>
                  </g>
                </g>
              </g>
            </g>
          </g>
        </g>
        <g id="Grupo_927736" data-name="Grupo 927736" transform="translate(44.043 22.088)">
          <g id="Grupo_927735" data-name="Grupo 927735">
            <g id="Grupo_927734" data-name="Grupo 927734">
              <g id="Grupo_927733" data-name="Grupo 927733">
                <path id="Trazado_710768" data-name="Trazado 710768" d="M388.813,125.723l3.958-4.378,8.4,6.741,12.473-14.325,4.08,3.973-16.744,18.42Z" transform="translate(-388.813 -113.761)" fill="#263238"/>
              </g>
            </g>
          </g>
        </g>
        <g id="Grupo_927738" data-name="Grupo 927738" transform="translate(0 11.566)">
          <path id="Trazado_710769" data-name="Trazado 710769" d="M337.8,150.063l6.539-.816a.086.086,0,0,1,.069.025,28.268,28.268,0,0,0,11.919,7.146,39.209,39.209,0,0,0,4.3.944l2.314.2a7.61,7.61,0,0,0,1.189.038l1.21-.016a28.216,28.216,0,0,0,10.035-2.18,27.832,27.832,0,0,0,2.551-1.224c-.257-.1-.515-.193-.77-.3a32.8,32.8,0,0,1-10.838-7.345,32.085,32.085,0,0,1-7.45-12.021,33.188,33.188,0,0,1-1.524-14.946,32.435,32.435,0,0,1,5.744-14.643,14.561,14.561,0,0,1,1.2-1.57l1.253-1.518.539-.54c-.308-.015-.618-.035-.926-.04a28.177,28.177,0,0,0-26.528,17.093,31.866,31.866,0,0,0-1.508,4.427,27.812,27.812,0,0,0-.705,4.316,28.357,28.357,0,0,0,2.3,13.783.091.091,0,0,1-.025.1c-1.016,3.024-1.8,5.353-2.332,6.94q-.4,1.184-.615,1.812c-.139.409-.22.625-.22.625s.2-.032.589-.082Z" transform="translate(-335.439 -101.049)" fill="#f5f5f5"/>
          <g id="Grupo_927737" data-name="Grupo 927737">
            <path id="Trazado_710770" data-name="Trazado 710770" d="M337.783,150.019s-.191.041-.573.1l-1.708.249-.078.011.025-.076,3.108-9.4.034-.049c-.016-.007,0,.053-.018,0l-.057-.134-.116-.27q-.113-.274-.226-.553c-.153-.372-.291-.759-.432-1.152q-.417-1.184-.747-2.5a27.972,27.972,0,0,1-.827-5.7,26.988,26.988,0,0,1,1.343-9.794,24.121,24.121,0,0,1,1.322-3.377,28.207,28.207,0,0,1,10.318-11.829,28.5,28.5,0,0,1,16.918-4.5l.469.026-.331.332-.539.54.013-.014a33.325,33.325,0,0,0-7.832,15.608,32.358,32.358,0,0,0,20.124,36.428l.4.153-.38.181a35.037,35.037,0,0,1-4.46,1.94,28.856,28.856,0,0,1-4.487,1.109,29.949,29.949,0,0,1-8.453.117l-.012,0h0c-.95-.192-1.888-.35-2.8-.553a23.908,23.908,0,0,1-2.607-.764,28.788,28.788,0,0,1-4.522-2.036,28.22,28.22,0,0,1-6.286-4.792c-.012-.078-.186,0-.309,0l-.386.045-.738.087-1.336.157-2.091.24-1.286.139c-.29.029-.44.033-.44.033s.146-.033.434-.076l1.281-.181,2.087-.281,1.333-.177.737-.1.385-.051.2-.026a.463.463,0,0,1,.125-.008.167.167,0,0,1,.087.045l.037.036a28.39,28.39,0,0,0,16.153,7.966l-.017,0a35.594,35.594,0,0,0,4.067.224,27.728,27.728,0,0,0,4.305-.375,28.675,28.675,0,0,0,4.428-1.11,34.9,34.9,0,0,0,4.4-1.93l.021.333a32.7,32.7,0,0,1-20.414-36.852,33.69,33.69,0,0,1,7.93-15.795l.011-.012,0,0,.539-.54.139.358a28.056,28.056,0,0,0-26.9,16.056,23.787,23.787,0,0,0-1.317,3.329,26.73,26.73,0,0,0-1.374,9.683,27.853,27.853,0,0,0,.785,5.65c.215.867.454,1.7.724,2.481.138.391.272.775.42,1.147l.22.549.112.27.056.133c.027.024.054.2-.043.259l.033-.049c-1.458,4.27-2.542,7.472-3.224,9.36l-.053-.064,1.716-.2C337.587,150.027,337.783,150.019,337.783,150.019Z" transform="translate(-335.424 -101.006)" fill="#263238"/>
          </g>
        </g>
      </g>
    </g>
    <g id="Chart_" data-name="Chart
" transform="translate(445.121 58.909)">
      <g id="Grupo_927747" data-name="Grupo 927747">
        <rect id="Rectngulo_321829" data-name="Rectngulo 321829" width="17.605" height="63.449" rx="4.45" transform="translate(58.924 21.852)" fill="#455a64"/>
        <g id="Grupo_927746" data-name="Grupo 927746">
          <g id="Grupo_927740" data-name="Grupo 927740" transform="translate(3.768 59.191)">
            <rect id="Rectngulo_321830" data-name="Rectngulo 321830" width="17.605" height="28.804" rx="4.603" fill="#455a64"/>
          </g>
          <g id="Grupo_927741" data-name="Grupo 927741" transform="translate(30.974 43.528)">
            <path id="Rectngulo_321831" data-name="Rectngulo 321831" d="M4.919,0h7.768a4.918,4.918,0,0,1,4.918,4.918V39.548a4.918,4.918,0,0,1-4.918,4.918H4.919A4.919,4.919,0,0,1,0,39.548V4.919A4.919,4.919,0,0,1,4.919,0Z" fill="#455a64"/>
          </g>
          <g id="Grupo_927743" data-name="Grupo 927743" transform="translate(0 0.885)">
            <g id="Grupo_927742" data-name="Grupo 927742">
              <path id="Trazado_710771" data-name="Trazado 710771" d="M656.027,64.129a3.137,3.137,0,0,1-.422.56L654.3,66.232l-4.968,5.694L632.065,91.389l-.192.217-.244-.16-10.8-7.056.46-.066-.412.486-22.846,26.8-.152.177-.184-.137-8.59-6.378-2.315-1.763a5.419,5.419,0,0,1-.779-.653,5.551,5.551,0,0,1,.862.539l2.392,1.656,8.722,6.2-.335.04,22.69-26.933.411-.486.2-.237.259.17L632,90.881l-.436.057,17.451-19.3,5.115-5.563,1.39-1.468A3.187,3.187,0,0,1,656.027,64.129Z" transform="translate(-586.007 -64.128)" fill="#263238"/>
            </g>
          </g>
          <g id="Grupo_927745" data-name="Grupo 927745" transform="translate(56.195)">
            <g id="Grupo_927744" data-name="Grupo 927744">
              <path id="Trazado_710772" data-name="Trazado 710772" d="M668.513,77.336a23.435,23.435,0,0,1-.245-4.049c-.063-2.5-.1-5.972-.106-9.819l.407.346-.35.059c-3.876.639-7.391,1.18-9.941,1.536a24.6,24.6,0,0,1-4.15.434,24.562,24.562,0,0,1,4.07-.923c2.529-.482,6.031-1.1,9.907-1.739l.35-.058.408-.068v.413c0,3.847-.043,7.315-.106,9.819A23.69,23.69,0,0,1,668.513,77.336Z" transform="translate(-654.128 -63.055)" fill="#263238"/>
            </g>
          </g>
        </g>
      </g>
    </g>
  </g>
</svg>
