<svg xmlns="http://www.w3.org/2000/svg" width="337.869" height="289.343" viewBox="0 0 337.869 289.343">
  <g id="Grupo_924247" data-name="Grupo 924247" transform="translate(-75.787 -59.367)">
    <g id="Grupo_920092" data-name="Grupo 920092" transform="translate(48.8 59.367)">
      <g id="Grupo_920076" data-name="Grupo 920076" transform="translate(199.67 74.056)" opacity="0.8">
        <path id="Trazado_694124" data-name="Trazado 694124" d="M1586.543,652.6a50.293,50.293,0,0,1-3.833,8.181,49.972,49.972,0,0,1-92.97-21.851,49.129,49.129,0,0,1,.063-7.621,50.321,50.321,0,0,1,7.534-22.448c.021-.035.043-.067.063-.1a50.092,50.092,0,0,1,28.48-21.269c1.219-.349,2.457-.653,3.7-.908a49.686,49.686,0,0,1,27.078,2q1.792.651,3.5,1.423a49.62,49.62,0,0,1,20.25,16.718h0a50.149,50.149,0,0,1,7.99,18.13q.459,2.1.741,4.234a49.734,49.734,0,0,1-2.6,23.515Z" transform="translate(-1489.621 -585.559)" fill="#4dd0e1" opacity="0.71"/>
        <g id="Grupo_920075" data-name="Grupo 920075" transform="translate(7.716 1.022)">
          <path id="Trazado_694125" data-name="Trazado 694125" d="M1568.554,613.652c-2.952,2.286-2.169,8.4-7.279,4.956s-8.319-5.323-9.765-2.314,3.08,4.657,1.888,7.936-3.617,3.625-6.172.933-2.632-5.284-6.773-5.2-5.908-1.617-5.707-4.726a4.374,4.374,0,0,0-.136-1.442c.021-.035.043-.067.063-.1a50.092,50.092,0,0,1,28.48-21.269c1.219-.349,2.457-.653,3.7-.908a6.57,6.57,0,0,1,3.813,4.165c1.8,5.253,4.726,4.017,2.243,8.417s-1.462,5.48,1.249,6.287,5.835,1.943,5.408,4.087S1571.506,611.366,1568.554,613.652Z" transform="translate(-1534.61 -591.518)" fill="#5c92bb"/>
          <path id="Trazado_694126" data-name="Trazado 694126" d="M1884.646,843.449a50.313,50.313,0,0,1-3.833,8.181,49.682,49.682,0,0,1-13.958,15.319,5.7,5.7,0,0,1-3.717-1.466c-5-4.47,1.628-9.219,5.119-11.529s-2.992-3.076-6.26-7.579,4.385-10.6-.533-10.933-10.9-.648-11.9-5.917,4.172-4.184,3.267-8.623,3.374-5.27,7.952-4,5.141-2.108,10.815-.576,3,8.516,9.263,10.261,5.475,3.051,5.475,3.051a3.016,3.016,0,0,1,1.174.729A50.044,50.044,0,0,1,1884.646,843.449Z" transform="translate(-1795.439 -777.432)" fill="#3879ac"/>
          <path id="Trazado_694127" data-name="Trazado 694127" d="M1946.243,725.314c-5.959.623-5.556-6.816-10.617-6.375-5.1.445-2.918-3.182-5.444-6.929s-11.043-1.716-9.312-5.506,6.486-.824,8.714-3.549,6.941-.128,6.941-.128a3.6,3.6,0,0,1,.984.124s0,0,0,0a50.148,50.148,0,0,1,7.99,18.13Q1945.96,723.176,1946.243,725.314Z" transform="translate(-1854.436 -682.812)" fill="#3879ac"/>
          <path id="Trazado_694128" data-name="Trazado 694128" d="M1793.968,628.2s4.046-2.865.241-5.527-4.264-1.155-7.416-2.7-5.363.528-3.911,4.193,1.509,9.707,4.764,7.681S1791.253,627.524,1793.968,628.2Z" transform="translate(-1739.926 -614.671)" fill="#3879ac"/>
        </g>
      </g>
      <path id="Trazado_694129" data-name="Trazado 694129" d="M483.587,1743.712h17.424c.934-.792-.646-2.591-2.3-2.712a10.175,10.175,0,0,0-2.659.315c-.24-3.185-1.609-17.5-6.77-16.926-5.8.644,0,6.3,1.64,9.656a79.7,79.7,0,0,1,3.083,7.722c-.471.1-.959.2-1.457.294-.769-2.361-3.631-10.3-7.27-9.842-4.273.542-2.555,3.726.473,5.617,2.222,1.39,4.95,3.366,6.246,4.321a18.529,18.529,0,0,1-3.408.273C485.609,1742.359,484.152,1743.239,483.587,1743.712Z" transform="translate(-455.734 -1455.01)" fill="#a8d29f"/>
      <path id="Trazado_694130" data-name="Trazado 694130" d="M2025.242,1750.359h-16.184c-.867-.736.6-2.406,2.134-2.519a9.46,9.46,0,0,1,2.47.292c.223-2.958,1.495-16.256,6.288-15.721,5.389.6,0,5.856-1.524,8.969a74.025,74.025,0,0,0-2.863,7.172c.438.095.891.188,1.353.273.714-2.193,3.372-9.571,6.752-9.141,3.969.5,2.373,3.461-.44,5.217-2.064,1.291-4.6,3.126-5.8,4.013a17.187,17.187,0,0,0,3.165.254C2023.364,1749.1,2024.717,1749.92,2025.242,1750.359Z" transform="translate(-1720.09 -1461.657)" fill="#a8d29f"/>
      <g id="Grupo_920077" data-name="Grupo 920077" transform="translate(300.977 156.991)">
        <path id="Trazado_694131" data-name="Trazado 694131" d="M2152.862,1200.668s.385-3.831-1.618-3.7-2.534,1.05-2.31,1.786a20.911,20.911,0,0,0,2.172,3.172Z" transform="translate(-2137.129 -1175.043)" fill="#ffb27d"/>
        <path id="Trazado_694132" data-name="Trazado 694132" d="M2191.521,1223.3a32.7,32.7,0,0,1-6.987,5.614c-.452.286-.924.573-1.423.862a52.862,52.862,0,0,1-6.534,3.215c-.276.114-.6.239-.965.37a47.086,47.086,0,0,1-11.376,2.627c-.284.011-.553.011-.8,0-4.96-.2-5.565-19.452-5.565-19.452s.552-1.927,3.1-1.441c0,0,3.87,10.872,5.257,11.759,1.232.788,8.313-9.946,14.408-10.7C2184.737,1215.657,2191.521,1223.3,2191.521,1223.3Z" transform="translate(-2144.571 -1190.004)" fill="#4dd0e1"/>
        <path id="Trazado_694133" data-name="Trazado 694133" d="M2218.449,1802.817s.366,4.238-.53,4.679l-11.465-.023s0-1.323,1.841-1.617,5.077-1.372,5.624-3.774S2218.449,1802.817,2218.449,1802.817Z" transform="translate(-2184.825 -1675.633)" fill="#1c3154"/>
        <path id="Trazado_694134" data-name="Trazado 694134" d="M2227.146,1447.525c.057,2.771.19,5.63.45,8.2,1.238,12.19,1.674,26.918,1.852,29.758.308,4.929,1.282,12.8,1.282,12.8s1.931,1.833,5.7.958a128.186,128.186,0,0,0,3.816-23.285c.011-.2.021-.393.031-.59.081-1.579.165-3.385.252-5.331.574-13.04,1.2-32.411,1.2-32.411l-14.387-3.378S2227,1440.617,2227.146,1447.525Z" transform="translate(-2201.938 -1371.634)" fill="#2a4e96"/>
        <path id="Trazado_694135" data-name="Trazado 694135" d="M2227.146,1447.525c3.646,6.291,10.6,17.88,13.38,22.514.574-13.04,1.2-32.411,1.2-32.411l-14.387-3.378S2227,1440.617,2227.146,1447.525Z" transform="translate(-2201.938 -1371.634)" fill="#233862"/>
        <path id="Trazado_694136" data-name="Trazado 694136" d="M2206.374,1298.779a47.083,47.083,0,0,1-11.376,2.627c.5-.093,4.127-.812,5.47-2.433,1.441-1.742,3.868-6.472,5.8-4.542C2207.175,1295.341,2206.908,1297.136,2206.374,1298.779Z" transform="translate(-2175.333 -1255.417)" fill="#36a8b7"/>
        <path id="Trazado_694137" data-name="Trazado 694137" d="M2386.752,1498.672a22.333,22.333,0,0,1,.747,4.28,15.3,15.3,0,0,1-1.562,4.068c-.544.654-.566-2.842-.927-3.392s-.166,1.306-.455,1.457-.773-1.4-.988-1.957.773-2.473.864-3.849S2386.752,1498.672,2386.752,1498.672Z" transform="translate(-2331.536 -1424.829)" fill="#ffb27d"/>
        <path id="Trazado_694138" data-name="Trazado 694138" d="M2407.211,1778.395s2.041,1.862,1.642,3.185-2.24,2.205-2.488,3.823-1.244,2.5-2.14,2.5h-4.271s-.659-1.138.933-1.481,2.193-2.243,2.094-4.007a31.094,31.094,0,0,1,.149-4.117l3.385-.784Z" transform="translate(-2345.027 -1656.027)" fill="#1c3154"/>
        <path id="Trazado_694139" data-name="Trazado 694139" d="M2241.641,1434.516s13.468,28.815,20.634,41.459,9.406,16.172,9.406,16.172,4.106-1.617,4.479-2.72c0,0-2.741-24.409-7.54-30.359-2.712-3.362-5.9-13.452-6.047-16.98s-3.3-11.95-3.3-11.95Z" transform="translate(-2213.977 -1368.227)" fill="#2a4e96"/>
        <path id="Trazado_694140" data-name="Trazado 694140" d="M2226.91,1256.475a23.34,23.34,0,0,0,11.837,6.145c3.271.626,9.909,1.231,11.555-1.1a4.164,4.164,0,0,0,.3-2.62c-.222-3.284-1.048-9.635,2.682-22.4a21.732,21.732,0,0,0,.717-3.411c.814-6.528.726-11.457-4.938-14.089-8.487-3.945-11.97-.7-11.97-.7a14.216,14.216,0,0,0-6.576,8.256C2226.4,1238.858,2226.91,1256.475,2226.91,1256.475Z" transform="translate(-2201.755 -1191.685)" fill="#4dd0e1"/>
        <path id="Trazado_694141" data-name="Trazado 694141" d="M2295.161,1181.148a6.3,6.3,0,0,1-6.339.415,7.263,7.263,0,0,1-.115-2.605c.046-1.222.161-2.421.161-2.421l3.02-1.982,2.882-1.891C2294.424,1179.166,2295.807,1180.687,2295.161,1181.148Z" transform="translate(-2252.944 -1154.911)" fill="#ffb27d"/>
        <path id="Trazado_694142" data-name="Trazado 694142" d="M2294.419,1184.482a9.279,9.279,0,0,1-5.556,3.609c.046-1.222.177-2.568.177-2.568l3-1.835Z" transform="translate(-2253.1 -1164.044)" fill="#ed985f"/>
        <path id="Trazado_694143" data-name="Trazado 694143" d="M2270.238,1133.609s7.306,2.727,8.932-1.775,3.663-7.181-.933-9.112-6.128-.538-7.042.832S2268.379,1132.784,2270.238,1133.609Z" transform="translate(-2237.018 -1112.746)" fill="#ffb27d"/>
        <path id="Trazado_694144" data-name="Trazado 694144" d="M2279.32,1108.9c.084-.065.255-.1.61-.047a1.457,1.457,0,0,0-.621-.315,1.8,1.8,0,0,0-.866-1.8,1.077,1.077,0,0,1,.361.862c-.777-1.194-2.723-2.336-8.6-3.022-7.744-.9-6.2,4.474-5.323,5.251s3.672-.328,5.483.182,1.635,3.236,2.187,3.724.434-.205,1.354-.42.724,1.2.3,2.061.5,2.291.5,2.291l1.422-1.031c1.422-1.031,3.583-6.16,3.275-7.405C2279.375,1109.121,2279.348,1109.01,2279.32,1108.9Z" transform="translate(-2232.618 -1098.417)" fill="#2c3a64"/>
        <path id="Trazado_694145" data-name="Trazado 694145" d="M2343.31,1335.269c-.222-3.284-1.048-9.635,2.682-22.4a21.788,21.788,0,0,0,.717-3.411h0c-2.771-.914-7.821,1.119-7.821,1.119S2337.7,1327.449,2343.31,1335.269Z" transform="translate(-2294.459 -1268.051)" fill="#36a8b7"/>
        <path id="Trazado_694146" data-name="Trazado 694146" d="M2306.343,1233.426s3.41,1.24,5.585,10.269c1.437,5.966,4.083,14.734,4.381,17.489s-3.025,18.887-3.025,18.887a2.164,2.164,0,0,1-1.617.112,2.671,2.671,0,0,1-1.611-.963s-.794-10.752-.589-15.829c.085-2.109-9.764-15.447-15.08-17.165C2292.3,1245.552,2306.343,1233.426,2306.343,1233.426Z" transform="translate(-2257.502 -1205.251)" fill="#4dd0e1"/>
        <path id="Trazado_694147" data-name="Trazado 694147" d="M2086.991,1086.9a113.422,113.422,0,0,1,21.231,1.814l1.188-2.995,1.3-3.281s-11.419-4.916-18.283-11.761Z" transform="translate(-2085.849 -1070.418)" fill="#aec3ff"/>
        <path id="Trazado_694148" data-name="Trazado 694148" d="M2087.07,1069.247l-5.659,16.7h0a1.506,1.506,0,0,1-.991-1.947l4.98-14.036a1.242,1.242,0,0,1,1.67-.722Z" transform="translate(-2080.333 -1069.142)" fill="#f99746"/>
        <path id="Trazado_694149" data-name="Trazado 694149" d="M2143.193,1171.157h0a2.046,2.046,0,0,0,2.4-1.6l1.948-9.749a2.046,2.046,0,0,0-1.6-2.4h0a2.046,2.046,0,0,0-2.4,1.6l-1.948,9.749A2.046,2.046,0,0,0,2143.193,1171.157Z" transform="translate(-2131.053 -1142.237)" fill="#f99746"/>
        <path id="Trazado_694150" data-name="Trazado 694150" d="M2086.991,1156.015a113.422,113.422,0,0,1,21.231,1.814l1.188-2.995C2098.723,1152.651,2086.991,1156.015,2086.991,1156.015Z" transform="translate(-2085.849 -1139.527)" fill="#739af0"/>
        <path id="Trazado_694151" data-name="Trazado 694151" d="M2192.449,1136.715l3.08.542c-.047,0,2.861.566,3.814-2.011a2.091,2.091,0,0,0,.183-.556c.741-3.213-1.023-3.8-1.023-3.8l-3.964-1.545-1.26,4.457v.016Z" transform="translate(-2173.221 -1119.016)" fill="#f99746"/>
        <path id="Trazado_694152" data-name="Trazado 694152" d="M2192.449,1158.244l3.08.542c-.047,0,2.861.566,3.814-2.011-1.742-1.268-6.063-1.448-6.063-1.448v.016Z" transform="translate(-2173.221 -1140.545)" fill="#ed7d2b"/>
        <path id="Trazado_694153" data-name="Trazado 694153" d="M2146.17,1182.314s1.507.6,1.231,1.264-2.192,1.576-2.495,1.052S2145.223,1181.754,2146.17,1182.314Z" transform="translate(-2133.768 -1162.834)" fill="#ffb27d"/>
        <path id="Trazado_694154" data-name="Trazado 694154" d="M2170.071,1197.85a21.14,21.14,0,0,0,.3-2.249c.018-.708.1-1.286-.066-1.307s-.287.11-.356.338-.329,1.64-.329,1.64l.132,1.363Z" transform="translate(-2154.31 -1172.829)" fill="#ffb27d"/>
      </g>
      <g id="Grupo_920079" data-name="Grupo 920079" transform="translate(75.029 125.776)">
        <path id="Trazado_694155" data-name="Trazado 694155" d="M1261.735,1204.532l-8.536,101.494s-.894,6.152,3.682,6.163c7.524.018,37.452,0,37.452,0s-5.663-1.281-5.594-4.162c.081-3.4,9.977-104.456,9.977-104.456Z" transform="translate(-1169.045 -1149.302)" fill="#2c7cbe"/>
        <path id="Trazado_694156" data-name="Trazado 694156" d="M1309.033,1301.492c-1.48,0-30.453.053-37.781-.041-3.193-.04-3.753-2.839-3.78-4.651a9.084,9.084,0,0,1,.1-1.511l.222-2.638.566-6.724.5-5.94.642-7.633.541-6.443,6.065-72.119,36.98-.96s-4.168,42.293-7.116,73.078c-.329,3.43-.642,6.719-.932,9.789q-.141,1.47-.272,2.872c-.273,2.913-.523,5.587-.741,7.949-.115,1.245-.22,2.4-.316,3.461-.376,4.152-.6,6.8-.6,7.307a4.277,4.277,0,0,0,.072.822C1303.788,1301.345,1308.478,1301.492,1309.033,1301.492Z" transform="translate(-1180.929 -1140.406)" fill="#093355"/>
        <path id="Trazado_694157" data-name="Trazado 694157" d="M779.653,887.135l20.792,83.517,2.847,11.438,9.684,38.9H992.887L957.194,887.135Z" transform="translate(-776.771 -887.135)" fill="#3974a4"/>
        <path id="Trazado_694158" data-name="Trazado 694158" d="M765.731,887.134l-2.882.961,32.374,135.8,3.831-2.905Z" transform="translate(-762.849 -887.134)" fill="#0e2d72"/>
        <path id="Trazado_694159" data-name="Trazado 694159" d="M951.617,1670.539h178.8l4.938-2.905H955.448Z" transform="translate(-919.243 -1533.778)" fill="#0b5999"/>
        <rect id="Rectángulo_321287" data-name="Rectángulo 321287" width="38.714" height="1.84" transform="translate(133.878 162.926) rotate(180)" fill="#479bdf"/>
        <path id="Trazado_694160" data-name="Trazado 694160" d="M1309.245,1684.568l-.2,1.406-36.408,7.355.5-5.94.238-2.822Z" transform="translate(-1185.208 -1547.808)" fill="#0b5999"/>
        <path id="Trazado_694161" data-name="Trazado 694161" d="M1309.039,1770.811c-1.48,0-30.453.054-37.781-.041-3.193-.04-3.753-2.839-3.78-4.651l36.236-6.818c-.376,4.152-.6,6.8-.6,7.307a4.276,4.276,0,0,0,.072.822C1303.794,1770.664,1308.483,1770.811,1309.039,1770.811Z" transform="translate(-1180.934 -1609.724)" fill="#0b5999" opacity="0.4"/>
        <path id="Trazado_694162" data-name="Trazado 694162" d="M779.651,887.134H957.192L986,994.711H806.432Z" transform="translate(-776.769 -887.134)" fill="#0c4370"/>
        <path id="Trazado_694163" data-name="Trazado 694163" d="M1013.15,1017.889H846.917l-5.94-23.664-2.3-9.156-.937-3.734-6.105-24.319-.317-1.266L828.093,942.9l-1.444-5.751-1.232-4.906-2.887-11.5H986.366l3.171,11.5,1.352,4.906,1.586,5.751,10.446,37.892v0l.886,3.21.411,1.49,7.212,26.16Z" transform="translate(-812.295 -914.974)" fill="#84bec5"/>
        <path id="Trazado_694164" data-name="Trazado 694164" d="M989.541,932.236H825.421l-2.887-11.5H986.37Z" transform="translate(-812.298 -914.971)" fill="#0b5999"/>
        <g id="Grupo_920078" data-name="Grupo 920078" transform="translate(16.969 9.523)">
          <path id="Trazado_694165" data-name="Trazado 694165" d="M861.839,944.1a1.086,1.086,0,0,1,1.079-1.438,1.964,1.964,0,0,1,1.8,1.438,1.086,1.086,0,0,1-1.079,1.438A1.964,1.964,0,0,1,861.839,944.1Z" transform="translate(-861.795 -942.66)" fill="#e9f3fe"/>
          <path id="Trazado_694166" data-name="Trazado 694166" d="M889.7,944.1a1.086,1.086,0,0,1,1.079-1.438,1.964,1.964,0,0,1,1.8,1.438,1.086,1.086,0,0,1-1.079,1.438A1.964,1.964,0,0,1,889.7,944.1Z" transform="translate(-884.875 -942.66)" fill="#e9f3fe"/>
          <path id="Trazado_694167" data-name="Trazado 694167" d="M919.695,944.1a1.086,1.086,0,0,1,1.079-1.438,1.964,1.964,0,0,1,1.8,1.438,1.086,1.086,0,0,1-1.079,1.438A1.964,1.964,0,0,1,919.695,944.1Z" transform="translate(-909.728 -942.66)" fill="#e9f3fe"/>
        </g>
      </g>
      <path id="Trazado_694168" data-name="Trazado 694168" d="M1540.865,218.414c6.719-7.889,17.079-23.735,24.055-31.85a2.573,2.573,0,0,0-1.96-4.248h-12.693l11.973-27.072a1.061,1.061,0,0,0-1.821-1.064l-28.949,38.746a1.6,1.6,0,0,0,1.479,2.549l14.37-1.77-8.549,23.485A1.233,1.233,0,0,0,1540.865,218.414Z" transform="translate(-1324.355 -153.744)" fill="#fd9927"/>
      <path id="Trazado_694169" data-name="Trazado 694169" d="M1163.1,566.151c1.512-7.753,2.466-22.153,4.063-30.152a1.961,1.961,0,0,0-2.891-2.088l-8.43,4.748-2.175-22.459a.809.809,0,0,0-1.607-.026l-4.734,36.563a1.221,1.221,0,0,0,1.936,1.14l8.882-6.55,3.106,18.8A.94.94,0,0,0,1163.1,566.151Z" transform="translate(-1006.35 -453.433)" fill="#0b5999"/>
      <g id="Grupo_920083" data-name="Grupo 920083" transform="translate(117.522 71.843)">
        <path id="Trazado_694170" data-name="Trazado 694170" d="M1202.755,758.293l-144.443,12.169a14.459,14.459,0,0,1-14.415-20.306l61.2-136.955a14.459,14.459,0,0,1,25.229-2.126l83.248,124.785A14.459,14.459,0,0,1,1202.755,758.293Z" transform="translate(-1037.131 -599.155)" fill="#fff"/>
        <g id="Grupo_920080" data-name="Grupo 920080">
          <path id="Trazado_694171" data-name="Trazado 694171" d="M1176.706,737.256l-144.443,12.17a19.942,19.942,0,0,1-19.881-28.006l61.2-136.955a19.941,19.941,0,0,1,34.8-2.932l83.247,124.786a19.941,19.941,0,0,1-14.914,30.938Zm-85.675-153.6a8.862,8.862,0,0,0-7.441,5.283l-61.2,136.955a8.975,8.975,0,0,0,8.948,12.605l144.443-12.169A8.975,8.975,0,0,0,1182.5,712.4l-83.247-124.786A8.862,8.862,0,0,0,1091.031,583.656Z" transform="translate(-1010.622 -572.655)" fill="#fd9927"/>
        </g>
        <g id="Grupo_920082" data-name="Grupo 920082" transform="translate(69.613 40.716)">
          <g id="Grupo_920081" data-name="Grupo 920081">
            <path id="Trazado_694172" data-name="Trazado 694172" d="M1423.939,907.534a13.213,13.213,0,0,1,.562-5.245,12.108,12.108,0,0,1,2.472-4.341,12.981,12.981,0,0,1,4.15-3.077,16.184,16.184,0,0,1,5.683-1.459,16.554,16.554,0,0,1,5.89.484,12.91,12.91,0,0,1,4.65,2.335,12.123,12.123,0,0,1,3.163,3.867,13.237,13.237,0,0,1,1.432,5.078,12.924,12.924,0,0,1-.566,5.2,12.2,12.2,0,0,1-2.475,4.3,12.867,12.867,0,0,1-4.193,3.08,16.552,16.552,0,0,1-5.726,1.463,16.186,16.186,0,0,1-5.847-.488,12.942,12.942,0,0,1-4.606-2.339,12.188,12.188,0,0,1-3.16-3.824A12.9,12.9,0,0,1,1423.939,907.534Zm22.331-26.131-20.806,1.753-8.937-70.842,26.7-2.25Z" transform="translate(-1416.528 -810.065)" fill="#fd9927"/>
          </g>
        </g>
      </g>
      <g id="Grupo_920087" data-name="Grupo 920087" transform="translate(59.183 157.426)">
        <path id="Trazado_694173" data-name="Trazado 694173" d="M936.749,1236.277s.453-1.019.746-1.5,1.546-1.9,1.76-1.575,1.067,2.474.613,3.076.029,1.652-2.225,2.287Z" transform="translate(-891.079 -1205.462)" fill="#ffb27d"/>
        <path id="Trazado_694174" data-name="Trazado 694174" d="M790.676,1213.861s11.54,9.633,16.04,8.741c3.518-.7,9.081-2.462,9.081-2.462a3.549,3.549,0,0,1,1.053,3.07s-7.087,6.668-12.136,6.711c-7.892.067-11.614-3.911-11.614-3.911Z" transform="translate(-770.058 -1189.477)" fill="#ed7d2b"/>
        <path id="Trazado_694175" data-name="Trazado 694175" d="M672.668,1797.908s.335,5.4,1.381,5.481c.139.01,5.3.01,5.3.01l6.592-.038a2.139,2.139,0,0,0-1.97-1.924c-1.927-.336-5.152-1.69-6.319-4.237C676.426,1794.522,672.668,1797.908,672.668,1797.908Z" transform="translate(-672.288 -1671.92)" fill="#113c68"/>
        <path id="Trazado_694176" data-name="Trazado 694176" d="M670.453,1486.2a13.747,13.747,0,0,0,3.568.67,13.105,13.105,0,0,0,3.331-.475,91.209,91.209,0,0,1,2.453-11.687c1.088-4.213,2.643-9.631,4.854-16.362,6.114-18.6,7.974-29.488,8.143-30.518.009-.054.013-.081.013-.081l-.02-.009-18.8-8.253s2.323,25.641-.641,35.483a41.422,41.422,0,0,0-1.076,4.715C670.409,1470.369,670.453,1486.2,670.453,1486.2Z" transform="translate(-670.453 -1359.834)" fill="#2a4e96"/>
        <path id="Trazado_694177" data-name="Trazado 694177" d="M693.751,1474.7c1.088-4.213,2.643-9.631,4.854-16.362,6.114-18.6,7.974-29.488,8.143-30.518,0-.031,0-.06-.007-.09l-18.8-8.253s2.323,25.641-.641,35.483C686.887,1456.339,693.751,1474.7,693.751,1474.7Z" transform="translate(-684.398 -1359.834)" fill="#233862"/>
        <path id="Trazado_694178" data-name="Trazado 694178" d="M758.276,1797.908s.335,5.4,1.381,5.481c.139.01,5.3.01,5.3.01l6.592-.038a2.139,2.139,0,0,0-1.97-1.924c-1.927-.336-5.152-1.69-6.319-4.237C762.034,1794.522,758.276,1797.908,758.276,1797.908Z" transform="translate(-743.214 -1671.92)" fill="#15447c"/>
        <path id="Trazado_694179" data-name="Trazado 694179" d="M723.869,1423a267.607,267.607,0,0,1-2.631,37.016c-2.875,20.4-1.9,29.06-1.9,29.06a19.565,19.565,0,0,1-2.772.7,12.577,12.577,0,0,1-4.113-.476s-4.115-20.408-2.935-30.619-5.635-35.039-5.635-35.039Z" transform="translate(-698.15 -1362.753)" fill="#2a4e96"/>
        <path id="Trazado_694180" data-name="Trazado 694180" d="M742.7,1156.606l3.669,2.406,3.342-.945a7.985,7.985,0,0,0,.782-4.007,24.929,24.929,0,0,0-.131-2.668l-4.95-2.185-1.847-.814c.005.029.144,1.516.163,1.734A12.636,12.636,0,0,1,742.7,1156.606Z" transform="translate(-730.309 -1135.237)" fill="#ffb27d"/>
        <path id="Trazado_694181" data-name="Trazado 694181" d="M709,1233.053c-4.567,4.409-21.852,3.668-22.917-1.191s1.162-41.358,8.963-43.651c1.619-.476,10.274,2.322,10.274,2.322a54.869,54.869,0,0,1,2.249,8.076c.173.88.677,10.208,1.055,18.934.176,4.081.325,8.032.4,10.924A31.5,31.5,0,0,1,709,1233.053Z" transform="translate(-683.195 -1168.182)" fill="#f99746"/>
        <path id="Trazado_694182" data-name="Trazado 694182" d="M750.17,1154.124c1,1.7,4.528,3.184,6.4,3.865a24.929,24.929,0,0,0-.131-2.668l-4.95-2.185C750.389,1153.122,749.723,1153.366,750.17,1154.124Z" transform="translate(-736.382 -1139.167)" fill="#fca56b"/>
        <path id="Trazado_694183" data-name="Trazado 694183" d="M744.526,1100.7s-7.976,2.488-9.449-2.5-3.495-8.031,1.536-9.831,6.586-.189,7.483,1.358S746.563,1099.925,744.526,1100.7Z" transform="translate(-722.607 -1084.848)" fill="#ffb27d"/>
        <path id="Trazado_694184" data-name="Trazado 694184" d="M727.018,1076.079s-.509,5.808-1.71,5.556-2.523-.791-2.347.959-1.168,4.752-2.9,4.745c-3.715-.016-7.751-9.547-6.734-11.355C716.262,1070.769,731.259,1069.717,727.018,1076.079Z" transform="translate(-705.842 -1071.683)" fill="#163560"/>
        <path id="Trazado_694185" data-name="Trazado 694185" d="M747.7,1177.377c-.1-.043-5.938-2.661-6.62-2.435s-1.533,2.31-1.533,2.31l10.275,2.323A5.1,5.1,0,0,0,747.7,1177.377Z" transform="translate(-727.696 -1157.221)" fill="#ed7d2b"/>
        <g id="Grupo_920085" data-name="Grupo 920085" transform="translate(20.561 3.678)">
          <path id="Trazado_694186" data-name="Trazado 694186" d="M826.11,1338.922l-32.709,30.8c-.641.6-1.45.8-1.8.427l-1.1-1.173c-.347-.369-.106-1.164.535-1.768l32.709-30.8c.641-.6,1.45-.8,1.8-.427l1.1,1.173C826.992,1337.523,826.751,1338.319,826.11,1338.922Z" transform="translate(-790.342 -1294.178)" fill="#1f4d84"/>
          <path id="Trazado_694187" data-name="Trazado 694187" d="M807.755,1442.661,793.4,1456.175c-.641.6-1.45.8-1.8.427l-1.1-1.173c-.347-.369-.106-1.164.535-1.768l14.353-13.514Z" transform="translate(-790.342 -1380.635)" fill="#739af0"/>
          <path id="Trazado_694188" data-name="Trazado 694188" d="M949.7,1126.248a25.637,25.637,0,1,0,42.493-25.764q-.2-.2-.4-.388a25.638,25.638,0,0,0-42.09,26.152Zm7.328-23.661a23.614,23.614,0,1,1,1.017,33.379A23.585,23.585,0,0,1,957.024,1102.586Z" transform="translate(-921.446 -1093.131)" fill="#1f4d84"/>
          <g id="Grupo_920084" data-name="Grupo 920084" transform="translate(29.162 2.024)" opacity="0.5">
            <path id="Trazado_694189" data-name="Trazado 694189" d="M1001.193,1144.725a23.614,23.614,0,1,1-1.018-33.377A23.516,23.516,0,0,1,1001.193,1144.725Z" transform="translate(-960.382 -1104.933)" fill="#b3cff9"/>
          </g>
        </g>
        <path id="Trazado_694190" data-name="Trazado 694190" d="M741.083,1278.371c-18.023-12.843-16.524-29.98-16.524-29.98,6.587,3.715,13.124,11.93,16.123,19.056C740.858,1271.528,741.007,1275.478,741.083,1278.371Z" transform="translate(-715.254 -1218.086)" fill="#ed7d2b"/>
        <g id="Grupo_920086" data-name="Grupo 920086" transform="translate(8.929 22.353)">
          <path id="Trazado_694191" data-name="Trazado 694191" d="M914.351,1382.229a4.919,4.919,0,0,0,2.3-1.422s.542.037-.089,1.193c-.053.1-.17.345-.258.521a.112.112,0,0,0,.094.161,12,12,0,0,1,2.884.06c.195.041.252.508.244.707a1.8,1.8,0,0,1-.38,1.231,6.3,6.3,0,0,1-2.277,1.193,6.889,6.889,0,0,1-3.524-.443l-1.154-.534.358-2.144.29.061C913.3,1382.909,913.871,1382.347,914.351,1382.229Z" transform="translate(-879.663 -1350.145)" fill="#ffb27d"/>
          <path id="Trazado_694192" data-name="Trazado 694192" d="M728.485,1202.019s-16.194,3.083,4.764,26.534c3.352,3.751,21.461,8.634,21.461,8.634s1.837-1.562.911-2.828c0,0-12.469-9.054-15.212-10.494-1.234-.648-4.79-14.452-6.8-17.776A9.069,9.069,0,0,0,728.485,1202.019Z" transform="translate(-722.516 -1202.019)" fill="#f99746"/>
        </g>
        <path id="Trazado_694193" data-name="Trazado 694193" d="M939.31,1233.956a8.249,8.249,0,0,0,.633-1.546,8.549,8.549,0,0,1,1.045-2.365c.11-.11.473.032.516.5a2.747,2.747,0,0,1-.26,1.024,11.528,11.528,0,0,0-.343,2.035C940.65,1234.424,939.31,1233.956,939.31,1233.956Z" transform="translate(-893.201 -1202.856)" fill="#ffb27d"/>
      </g>
      <g id="Grupo_920089" data-name="Grupo 920089" transform="translate(86.455 71.578)">
        <g id="Grupo_920088" data-name="Grupo 920088">
          <path id="Trazado_694194" data-name="Trazado 694194" d="M975.671,976.416a.977.977,0,0,0-.175,1.045.008.008,0,0,0,0,.005,6.492,6.492,0,0,0,2.051,2.251c.123.1.233.191.329.275l.074.066.057.051c.9.832.562,1.022,2.182,2.71,1.847,1.923,3.119,1.958,3.48,1.783.306-.149-.315-1.169-1-2.315-.033-.055-.066-.111-.1-.167-.092-.152-.183-.307-.274-.46-.807-1.379-.6-2.026-.407-4.078.156-1.667,2.6-9.316,2.6-9.316l-3.54-.611s-1.068,6.091-2.243,7.028c-.628.5-1.332.506-1.935.876q-.064.039-.126.079A4.649,4.649,0,0,0,975.671,976.416Z" transform="translate(-950.39 -899.646)" fill="#ffb27d"/>
          <path id="Trazado_694195" data-name="Trazado 694195" d="M975.671,1014.984a.977.977,0,0,0-.175,1.045.008.008,0,0,0,0,.005,7.519,7.519,0,0,0,2.054,2.244c.122.1.23.195.326.282l.074.066.057.051c.9.832.562,1.022,2.182,2.71,1.847,1.923,3.119,1.958,3.48,1.783.306-.149-.315-1.169-1-2.315a7.873,7.873,0,0,1-3.292-2.428c-1.071-1.368-1.8-3.112-2.528-4.182l-.208-.039A4.647,4.647,0,0,0,975.671,1014.984Z" transform="translate(-950.39 -938.215)" fill="#233862"/>
          <path id="Trazado_694196" data-name="Trazado 694196" d="M1129.675,969.05c.218,1.093,1.776.911,3.516.486s1.327.081,3.8-.193,3.227-1.2,3.3-1.565c.068-.327-1.156-.442-2.469-.594-.165-.018-.331-.039-.5-.06-1.482-.186-2.567-1.143-3.913-1.929-1.275-.744-3.177-3.776-3.177-3.776l-3.4.268s1.781,2.708,2.47,3.885a4.1,4.1,0,0,1,.333,2.315A4.37,4.37,0,0,0,1129.675,969.05Z" transform="translate(-1075.847 -894.482)" fill="#ffb27d"/>
          <path id="Trazado_694197" data-name="Trazado 694197" d="M1146.607,997.385c1.741-.424,1.327.081,3.8-.193s3.227-1.2,3.3-1.565c.068-.327-1.156-.442-2.469-.594l-.012.025a6.982,6.982,0,0,1-3.547,1.1c-1.68.04-3.46-.442-4.621-.423a4.37,4.37,0,0,0,.026,1.162C1143.309,997.992,1144.867,997.81,1146.607,997.385Z" transform="translate(-1089.262 -922.331)" fill="#233862"/>
          <path id="Trazado_694198" data-name="Trazado 694198" d="M1011.158,852.929l-3.178,8.543-4.149,11.155a6.716,6.716,0,0,1-2.2-.2,9.544,9.544,0,0,1-2.13-1.037s1.155-11.978,3.3-18.854a12.242,12.242,0,0,1,1.849-4C1007.983,844.605,1011.158,852.929,1011.158,852.929Z" transform="translate(-970.34 -800.084)" fill="#bc951d"/>
          <path id="Trazado_694199" data-name="Trazado 694199" d="M900.3,791.821c-1.807-.584-6.524-.011-11.639.913a3.47,3.47,0,0,1-3.582-1.619h0L872.2,790.1s-4.251,9.419-1.928,15.422a2.258,2.258,0,0,0,2.249,1.452h0s7.779.014,10.267.014c6.4,0,13.551-4.4,14.475-4.581,1.513-.3,2.117,2.725,3.63,5.9s14.22,14.079,14.22,14.079a11.179,11.179,0,0,0,2.761-.282,2.718,2.718,0,0,0,1.186-.748S904.989,793.336,900.3,791.821Z" transform="translate(-862.703 -752.547)" fill="#feca2e"/>
          <path id="Trazado_694200" data-name="Trazado 694200" d="M850.743,571.872a4.567,4.567,0,0,0-2.459-.641,6.845,6.845,0,0,1-1.187-.073c-4.913-.722-7.874,6.413-8.048,8.57-.32,3.959-2.414,4.562-5.363,7.04-5.912,4.969-4.181,10.747-.95,12.895,1.939,1.288,5.357,0,5.357,0,.048.034,9.35-5.2,13.935-7.718C858.9,590.973,853.5,573.517,850.743,571.872Z" transform="translate(-829.724 -571.108)" fill="#233862"/>
          <path id="Trazado_694201" data-name="Trazado 694201" d="M906.832,645.254a6.058,6.058,0,0,1-3.777.115c-1.431-.633-2.515-2.989-2.494-2.99.651-.03,1.366-.6,1.918-4.335l.277.1,4.662,1.679s-.338,1.5-.557,2.92C906.677,643.94,906.578,645.085,906.832,645.254Z" transform="translate(-888.37 -626.565)" fill="#ffb27d"/>
          <path id="Trazado_694202" data-name="Trazado 694202" d="M918.027,640.305s-.186.807-.458,2.315a5.265,5.265,0,0,1-4.2-3.994Z" transform="translate(-898.978 -627.047)" fill="#ed975d"/>
          <path id="Trazado_694203" data-name="Trazado 694203" d="M916.466,602.867s-6.379-.859-5.783-4.823.174-6.745,4.271-6.364,4.66,2.012,4.783,3.383S918.141,602.989,916.466,602.867Z" transform="translate(-896.723 -588.124)" fill="#ffb27d"/>
          <path id="Trazado_694204" data-name="Trazado 694204" d="M910.668,591.2s-4.085,3.518-6.862,3.8-3.829-.609-3.829-.609a10.846,10.846,0,0,0,2.623-3.552,1.954,1.954,0,0,1,1.611-1.151C906.194,589.517,909.954,589.44,910.668,591.2Z" transform="translate(-887.886 -586.432)" fill="#233862"/>
          <path id="Trazado_694205" data-name="Trazado 694205" d="M947.434,593.377a10.06,10.06,0,0,1,1.8,2.3,7.723,7.723,0,0,1,.208,4.1s2.13-4.138.925-6.149C949.086,591.5,947.434,593.377,947.434,593.377Z" transform="translate(-927.204 -588.926)" fill="#233862"/>
          <path id="Trazado_694206" data-name="Trazado 694206" d="M885.736,674.867c-.2,12.913-.056,10.214-1.469,11.439a5.421,5.421,0,0,1-2.557.553c-3.96.262-10.92-.393-11.184-1.125-.912-2.532-.267-3.319-1.028-7.2-.079-.412-.177-.859-.293-1.345-.634-2.663-1.252-3.568,1-7.845,2.045-3.874,4.17-7.017,4.361-6.9,5.392,3.2,5.827.513,5.827.513S885.833,668.568,885.736,674.867Z" transform="translate(-861.905 -646.779)" fill="#48bdcc"/>
          <path id="Trazado_694207" data-name="Trazado 694207" d="M1007.98,885.874l-4.149,11.155a6.716,6.716,0,0,1-2.2-.2,9.544,9.544,0,0,1-2.13-1.037s1.155-11.978,3.3-18.854Z" transform="translate(-970.34 -824.486)" fill="#feca2e"/>
          <path id="Trazado_694208" data-name="Trazado 694208" d="M937.3,665.444s5.549.943,6.2,3.332,2.791,16.891,2.791,16.891-1.565,1.528-2.868.224-4.1-13.569-4.1-13.569Z" transform="translate(-918.806 -649.265)" fill="#4dd0e1"/>
          <path id="Trazado_694209" data-name="Trazado 694209" d="M885.96,738.642c-3.96.262-10.92-.393-11.184-1.125-.912-2.532-.267-3.319-1.028-7.2l1.912-5.377s-.318,5.988,1.448,7.564,7.23,3.043,8.088,4.359A4.818,4.818,0,0,1,885.96,738.642Z" transform="translate(-866.155 -698.562)" fill="#369aa7"/>
          <path id="Trazado_694210" data-name="Trazado 694210" d="M918.508,787.2s3.907-.868,4.537-.522a9.177,9.177,0,0,1,2.363,2.049c.193.439-1.4-.334-1.922-.473a4.619,4.619,0,0,0-1.659.363,5.515,5.515,0,0,1-2.973.3Z" transform="translate(-903.239 -749.642)" fill="#ffb27d"/>
          <path id="Trazado_694211" data-name="Trazado 694211" d="M842.134,662.444s-5.245.321-7.062,2.853c-2.557,3.564-7.633,18.755-4.728,20.782,3.272,2.283,14.893.6,14.893.6a4.719,4.719,0,0,0-.15-2.682c-.538-.875-9.281-2.29-9.685-2.694s5.047-7.868,5.048-9.078S842.134,662.444,842.134,662.444Z" transform="translate(-829.473 -646.78)" fill="#4dd0e1"/>
          <path id="Trazado_694212" data-name="Trazado 694212" d="M946.061,793.416a7.562,7.562,0,0,0,1.086,1.182.8.8,0,0,0,.442.095l-.551-.993Z" transform="translate(-926.066 -755.29)" fill="#ffb27d"/>
          <path id="Trazado_694213" data-name="Trazado 694213" d="M944.961,787.076l2.379,1.156a.424.424,0,0,1-.394.152,5.682,5.682,0,0,1-1.032-.284Z" transform="translate(-925.155 -750.037)" fill="#ffb27d"/>
        </g>
        <path id="Trazado_694214" data-name="Trazado 694214" d="M943.359,802.915l-24.857-.009v.549l24.636.008Z" transform="translate(-903.234 -763.153)" fill="#233862"/>
        <path id="Trazado_694215" data-name="Trazado 694215" d="M952.394,738.1l18.824.007,5.667-14.079-18.795-.006Z" transform="translate(-931.313 -697.799)" fill="#233862"/>
        <path id="Trazado_694216" data-name="Trazado 694216" d="M1025.624,760.762a.652.652,0,0,0-.639-.9,1.284,1.284,0,0,0-1.154.9.652.652,0,0,0,.639.9A1.284,1.284,0,0,0,1025.624,760.762Z" transform="translate(-990.469 -727.494)" fill="#fff"/>
      </g>
      <g id="Grupo_920091" data-name="Grupo 920091" transform="translate(226.905 164.657)">
        <path id="Trazado_694217" data-name="Trazado 694217" d="M1721.116,1114.169a5.4,5.4,0,0,0-4.291.221c-7.3.3-7.572,7.784-6.715,10.569,1.2,3.912-3.056,7,1.668,8.579,5.481,1.837,10.08-.342,9.767.6C1738.878,1135.507,1726.883,1116.084,1721.116,1114.169Z" transform="translate(-1699.019 -1113.845)" fill="#163560"/>
        <path id="Trazado_694218" data-name="Trazado 694218" d="M1681.016,1253.024a19.139,19.139,0,0,1-1.952,2.952c-1.516,1.9-9.477-2.609-8.791-2.952s4.686-11.867,5.638-13.315,4.2-2.2,4.2-2.2Z" transform="translate(-1666.492 -1216.301)" fill="#feca2e"/>
        <path id="Trazado_694219" data-name="Trazado 694219" d="M1851.3,1776.6s2.2,2.005,1.768,3.43-2.411,2.374-2.68,4.116-1.339,2.691-2.3,2.691h-4.6s-.71-1.225,1.005-1.595,2.361-2.416,2.254-4.315a33.472,33.472,0,0,1,.161-4.432l3.644-.844Z" transform="translate(-1809.916 -1662.147)" fill="#1f447f"/>
        <path id="Trazado_694220" data-name="Trazado 694220" d="M1720.847,1786.147s.791,8.494-.174,8.969l-12.345-.025s0-1.425,1.983-1.741,5.466-1.478,6.056-4.063S1720.847,1786.147,1720.847,1786.147Z" transform="translate(-1698.055 -1670.847)" fill="#1c3154"/>
        <path id="Trazado_694221" data-name="Trazado 694221" d="M1728.949,1244.048a49.135,49.135,0,0,1,0,5.706c-.122,2.063-2.209,4.826-2.505,5.51-.743,1.714-1.581,1.993-1.581,1.993l-6.482,1.589-2.279.558-7.187-2.146s-3.273-9.136-1.959-14.28a39.53,39.53,0,0,1,3.323-8.715s4.884-1.1,13.5-.487Z" transform="translate(-1696.661 -1213.054)" fill="#feca2e"/>
        <path id="Trazado_694222" data-name="Trazado 694222" d="M1780.608,1301.266c-.122,2.063-2.826,4.754-3.123,5.438-.743,1.714-1.581,1.993-1.581,1.993l-6.482,1.589-1.17-3.354s9.471-2.488,7.947-11.253Z" transform="translate(-1747.703 -1264.494)" fill="#bc951d"/>
        <path id="Trazado_694223" data-name="Trazado 694223" d="M1704.224,1379.674s-3.559,11.078-3.788,14.85,6.8,53.58,7.086,55.318c.267,1.638,2.3,2.682,2.3,2.682a3.079,3.079,0,0,0,2.271.175,5.614,5.614,0,0,0,2.438-1.149s2.77-35.523,1.056-48.212a200.969,200.969,0,0,1-1.735-23.663Z" transform="translate(-1691.512 -1334.084)" fill="#233862"/>
        <path id="Trazado_694224" data-name="Trazado 694224" d="M1743.287,1377.748s5.429,7.284,5.935,12.208.794,22.22,1.872,27.021,5.04,14.038,5.04,29.011a2.987,2.987,0,0,1-1.683,1.315,13.856,13.856,0,0,1-1.48.409,2.327,2.327,0,0,1-2.6-1.235c-2.678-5.393-11.21-22.785-11.647-26.4-.31-2.555-3-19.465-8.88-29.387-1.411-2.382.866-11.855.866-11.855Z" transform="translate(-1715.496 -1332.489)" fill="#2a4e96"/>
        <path id="Trazado_694225" data-name="Trazado 694225" d="M1718.258,1369.7a7.46,7.46,0,0,0,4.267,1.187c3.39.068,11.791-.864,11.791-.864a6.948,6.948,0,0,1,.358,2.144s-10.26,2.588-16.205.378A3.757,3.757,0,0,1,1718.258,1369.7Z" transform="translate(-1706.114 -1325.823)" fill="#233862"/>
        <g id="Grupo_920090" data-name="Grupo 920090" transform="translate(14.05 44.487)">
          <path id="Trazado_694226" data-name="Trazado 694226" d="M1731.9,1376.744a1.764,1.764,0,1,1,1.547-1.751A1.66,1.66,0,0,1,1731.9,1376.744Zm0-2.989a1.258,1.258,0,1,0,1.034,1.238A1.151,1.151,0,0,0,1731.9,1373.755Z" transform="translate(-1730.352 -1373.242)" fill="#fff"/>
        </g>
        <path id="Trazado_694227" data-name="Trazado 694227" d="M1671.435,1326.081l-15.421.144-7.589-17.834,15.421-.144Z" transform="translate(-1648.426 -1274.908)" fill="#b5453c"/>
        <path id="Trazado_694228" data-name="Trazado 694228" d="M1732.615,1351.607l-1.13-1.389a3.976,3.976,0,0,0-1.32-.8c-.555-.116-1.727-.792-1.841-.6s.9,1.549.9,1.549l.051.007c-1.164.875-4.1.1-4.467.46-.44.433.605,1.369,1.166,1.895a4.116,4.116,0,0,0,3.414,1.013c.914-.285,2.352-.574,2.352-.574Z" transform="translate(-1711.623 -1308.492)" fill="#ffb27d"/>
        <path id="Trazado_694229" data-name="Trazado 694229" d="M1654.712,1323.921s.969-1.1,1.586-.573-.162,3.128-.749,2.863S1654.374,1324.243,1654.712,1323.921Z" transform="translate(-1653.552 -1287.299)" fill="#ffb27d"/>
        <path id="Trazado_694230" data-name="Trazado 694230" d="M1768.729,1234.67s4.415.487,7.583,6.243c2.5,4.539,6.769,12.907,5.158,15.271-.708,1.038-7.489,4.73-20.57,2.62a3.957,3.957,0,0,1,1.261-2.418s11.008-3.534,10.989-4.237c-.036-1.33-1.488-2.479-7.636-8.63C1763.841,1241.846,1768.729,1234.67,1768.729,1234.67Z" transform="translate(-1741.61 -1213.948)" fill="#feca2e"/>
        <path id="Trazado_694231" data-name="Trazado 694231" d="M1754.534,1203.422c.152-.2-.044-.852-.286-2.06a22.57,22.57,0,0,1-.584-4.69l-.325.055-5.472.92s.125,1.463.128,2.841c0,.011,0,.023,0,.034.007,1.2-.323,3.006.081,3.242C1750.149,1204.979,1753.951,1204.205,1754.534,1203.422Z" transform="translate(-1730.813 -1182.467)" fill="#ffb27d"/>
        <path id="Trazado_694232" data-name="Trazado 694232" d="M1747.867,1197.91s.109,2.063.113,3.441c3.062-.073,4.7-3.046,5.359-4.361Z" transform="translate(-1730.813 -1182.731)" fill="#e8945b"/>
        <path id="Trazado_694233" data-name="Trazado 694233" d="M1727.8,1155.589s7.173-1.022,6.468-5.479-.254-7.591-4.863-7.127-5.228,2.3-5.354,3.85S1725.913,1155.739,1727.8,1155.589Z" transform="translate(-1711.073 -1137.948)" fill="#ffb27d"/>
        <path id="Trazado_694234" data-name="Trazado 694234" d="M1736.2,1139.625s2.792,4.916,5.921,5.21,4.3-.719,4.3-.719a8.62,8.62,0,0,1-3.585-4.585S1737.277,1136.9,1736.2,1139.625Z" transform="translate(-1721.143 -1134.18)" fill="#163560"/>
        <path id="Trazado_694235" data-name="Trazado 694235" d="M1723.631,1144.4a4.494,4.494,0,0,0-1.795,1.929,7.294,7.294,0,0,0-.315,4.245s-2.042-3.318-.7-5.593C1722.236,1142.572,1723.631,1144.4,1723.631,1144.4Z" transform="translate(-1708.026 -1138.611)" fill="#163560"/>
      </g>
    </g>
  </g>
</svg>
