<svg xmlns="http://www.w3.org/2000/svg" width="40.5" height="36" viewBox="0 0 40.5 36">
  <path id="Icon_awesome-cart-arrow-down" data-name="Icon awesome-cart-arrow-down" d="M35.488,22.5H14.876l.46,2.25H34.209a1.688,1.688,0,0,1,1.646,2.061l-.388,1.707A3.939,3.939,0,1,1,31,29.25H16.255a3.937,3.937,0,1,1-4.714-.6L6.6,4.5H1.687A1.687,1.687,0,0,1,0,2.812V1.687A1.687,1.687,0,0,1,1.687,0H8.9A1.688,1.688,0,0,1,10.55,1.349L11.194,4.5H38.812a1.688,1.688,0,0,1,1.646,2.061L37.133,21.186A1.687,1.687,0,0,1,35.488,22.5Zm-7.15-9H25.312V9.281a.844.844,0,0,0-.844-.844H22.781a.844.844,0,0,0-.844.844V13.5H18.912a.844.844,0,0,0-.6,1.44l4.713,4.713a.844.844,0,0,0,1.193,0l4.713-4.713A.844.844,0,0,0,28.338,13.5Z" fill="#ffad02"/>
</svg>
