<svg xmlns="http://www.w3.org/2000/svg" width="254.931" height="250.332" viewBox="0 0 254.931 250.332">
  <g id="Grupo_924249" data-name="Grupo 924249" transform="translate(-78.402 -54.706)">
    <g id="OBJECTS" transform="translate(78.402 54.706)">
      <g id="Grupo_920887" data-name="Grupo 920887" transform="translate(18.769 0)">
        <circle id="Elipse_8070" data-name="Elipse 8070" cx="10.923" cy="10.923" r="10.923" transform="translate(207.57 230.8) rotate(-67.263)" fill="#fd9927"/>
        <circle id="Elipse_8071" data-name="Elipse 8071" cx="21.186" cy="21.186" r="21.186" transform="matrix(0.974, -0.227, 0.227, 0.974, 183.275, 9.605)" fill="#fd9927"/>
        <circle id="Elipse_8072" data-name="Elipse 8072" cx="8.124" cy="8.124" r="8.124" transform="matrix(0.923, -0.386, 0.386, 0.923, 0, 17.025)" fill="#fd9927"/>
      </g>
      <g id="Grupo_920896" data-name="Grupo 920896" transform="translate(109.857 56.168)">
        <path id="Trazado_695260" data-name="Trazado 695260" d="M320.719,288.779a120.63,120.63,0,0,0-18.045-1.621,3.108,3.108,0,0,0-1.621.32,2.865,2.865,0,0,0-1,1.394A23.346,23.346,0,0,0,298.19,297a4.033,4.033,0,0,0,.268,1.964c.559,1.147,1.953,1.612,3.206,1.959q16.554,4.584,33.428,7.956a5.879,5.879,0,0,0,3.017.067,4.077,4.077,0,0,0,1.768-1.311,13.55,13.55,0,0,0,1.992-3.795c1.17-2.956,2.747-5.985,3.576-9.046.9-3.317-2.333-2.863-4.955-3.233C333.9,290.633,327.322,289.582,320.719,288.779Z" transform="translate(-274.641 -194.638)" fill="#8e8e8e"/>
        <g id="Grupo_920889" data-name="Grupo 920889" transform="translate(30.478 52.239)">
          <g id="Grupo_920888" data-name="Grupo 920888" transform="translate(13.501 88.8)">
            <rect id="Rectángulo_321408" data-name="Rectángulo 321408" width="6.529" height="40.357" transform="translate(26.611)" fill="#4a6e99"/>
            <path id="Trazado_695261" data-name="Trazado 695261" d="M329.023,423.83l-.447-2.414,27.449-5.984.447,2.414Z" transform="translate(-328.576 -377.69)" fill="#4a6e99"/>
            <path id="Trazado_695262" data-name="Trazado 695262" d="M405.09,423.83l.447-2.414-27.449-5.984-.447,2.414Z" transform="translate(-344.645 -377.69)" fill="#4a6e99"/>
            <path id="Trazado_695263" data-name="Trazado 695263" d="M373.477,419.342H368.15a3.568,3.568,0,0,1-3.557-3.557h0a3.568,3.568,0,0,1,3.557-3.557h5.327a3.567,3.567,0,0,1,3.557,3.557h0A3.567,3.567,0,0,1,373.477,419.342Z" transform="translate(-340.372 -376.641)" fill="#4a6e99"/>
            <ellipse id="Elipse_8073" data-name="Elipse 8073" cx="4.825" cy="5.01" rx="4.825" ry="5.01" transform="translate(0 43.06)" fill="#3b5362"/>
            <ellipse id="Elipse_8074" data-name="Elipse 8074" cx="4.825" cy="5.01" rx="4.825" ry="5.01" transform="translate(51.241 43.028)" fill="#3b5362"/>
          </g>
          <path id="Trazado_695264" data-name="Trazado 695264" d="M411.664,245.276c.6-1.568,1.219-3.258.82-4.891-.649-2.653-3.584-3.951-6.175-4.816a195.871,195.871,0,0,0-34.552-8.132,6.947,6.947,0,0,0-4.178.29,6.709,6.709,0,0,0-2.5,2.91c-6.1,11.021-8.914,23.507-11.657,35.8-1.644,7.37-3.29,14.752-4.27,22.239a1.97,1.97,0,0,0,1.744,2.609c10.842,3.516,22.2,5.208,33.558,6.171,2.808.237,6.387.339,7.99-2.351,2.06-3.455,3.117-8.085,4.568-11.846l9.318-24.154Z" transform="translate(-321.794 -227.261)" fill="#e9c352"/>
          <path id="Trazado_695265" data-name="Trazado 695265" d="M416.564,237.82a8.671,8.671,0,0,0-6.721,1.574,13.1,13.1,0,0,0-2.9,3.713c-9.648,16.372-13.887,35.276-17.992,53.831-.221,1-.406,2.165.251,2.951a3.253,3.253,0,0,0,1.914.892,36.889,36.889,0,0,0,8.267.754,8.3,8.3,0,0,0,4.288-.967,8.893,8.893,0,0,0,2.877-3.739,181.909,181.909,0,0,0,7.97-19.388l10.18-27.752a11.935,11.935,0,0,0,.962-4.015C425.675,241.191,420.428,238.424,416.564,237.82Z" transform="translate(-334.783 -230.68)" fill="#545252"/>
          <path id="Trazado_695266" data-name="Trazado 695266" d="M317.042,320.708a12.657,12.657,0,0,0-1.5.406C308.3,323.57,307.3,337.55,309.6,343.4c1.933,4.935,8.247,5.186,12.843,6.084a158,158,0,0,0,44.411,2.283c2.9-.262,6.043-.724,8.025-2.8,1.605-1.677,2.1-4.071,2.405-6.343.588-4.4,1.576-10.709.19-15.029-.343-1.069-2.385-1.57-4.74-1.815C370,325.5,322.584,319.56,317.042,320.708Z" transform="translate(-308.5 -257.818)" fill="#636363"/>
        </g>
        <g id="Grupo_920891" data-name="Grupo 920891" transform="translate(46.492 21.305)">
          <g id="Grupo_920890" data-name="Grupo 920890" transform="translate(0 4.686)">
            <path id="Trazado_695267" data-name="Trazado 695267" d="M352.224,201.423c-3.081,1.874-6.666,2.767-9.819,4.516-6.818,3.783-11.079,11.916-9.895,19.623.954,6.207,5.149,11.614,10.427,15.017,5.141,3.315,11.7,4.9,17.489,2.915,3.8-1.3,7.2-4.078,11.218-4.151,3.978-.073,7.5,2.541,11.42,3.244,5.341.958,10.928-1.939,14.008-6.407s3.887-10.222,3.126-15.595a17.914,17.914,0,0,0-2.783-7.79,22.518,22.518,0,0,0-5.965-5.335,31.156,31.156,0,0,1-8.511-8.321c-2.021-3.091-3.872-6.316-7.04-8.387-2.827-1.848-6.91-3.165-10.283-2.192-3.194.921-5.044,3.812-6.8,6.391A21.9,21.9,0,0,1,352.224,201.423Z" transform="translate(-332.313 -188.231)" fill="#c8615a"/>
            <path id="Trazado_695271" data-name="Trazado 695271" d="M356.346,247.821A12.73,12.73,0,0,1,359,239.369a48.507,48.507,0,0,1,6.2-6.574A46.721,46.721,0,0,0,373.366,223a29.538,29.538,0,0,0,3.889-17.763" transform="translate(-340.169 -193.8)" fill="none" stroke="#c8615a" stroke-miterlimit="10" stroke-width="1" opacity="0.5" style="mix-blend-mode: multiply;isolation: isolate"/>
          </g>
          <path id="Trazado_695276" data-name="Trazado 695276" d="M384.616,187.4a11.262,11.262,0,0,0-12.323,3.8c-3.916,4.844-5.63,13.146-1.476,18.359,3.128,3.925,8.232,4.7,12.649,2.56,4.841-2.342,7.467-7.167,8.231-12.335C392.532,194.15,389.523,189.064,384.616,187.4Z" transform="translate(-344.137 -183.088)" fill="#eaab88"/>
          <path id="Trazado_695277" data-name="Trazado 695277" d="M378.366,181.3a10.717,10.717,0,0,0-7.063,1.637,6,6,0,0,0-2.442,6.467,7.213,7.213,0,0,0,3.62,3.8,14.46,14.46,0,0,0,14.412-.565,6.562,6.562,0,0,0,1.378,4.8,2.439,2.439,0,0,0,1.666,1.051c1.8.091,2.517-2,2.631-3.448a9.34,9.34,0,0,0-1.552-5.617C388.291,185.113,383.6,181.688,378.366,181.3Z" transform="translate(-344.205 -181.262)" fill="#c8615a"/>
          <circle id="Elipse_8075" data-name="Elipse 8075" cx="2.524" cy="2.524" r="2.524" transform="translate(44.492 17.842)" fill="#eaab88"/>
        </g>
        <path id="Trazado_695283" data-name="Trazado 695283" d="M337.92,252.551c-3.351,10.343-6.723,20.787-7.764,31.61a125.435,125.435,0,0,0,28.868,6.6,2.392,2.392,0,0,0,2.713-1.2,129.136,129.136,0,0,0,19.655-34.917c1.386-3.722,2.6-7.885,1.148-11.584a13.913,13.913,0,0,0-5.426-6.052,33.378,33.378,0,0,0-17.517-5.76C346.462,230.778,341.469,241.6,337.92,252.551Z" transform="translate(-285.115 -176.324)" fill="#fbb62b"/>
        <g id="Grupo_920892" data-name="Grupo 920892" transform="translate(88.713 12.669)">
          <path id="Trazado_695284" data-name="Trazado 695284" d="M406.149,188.389q.938,1.044,1.917,2.044c4,4.1,8.423,7.791,12.362,11.958a17.516,17.516,0,0,1,4.105,5.993,7.071,7.071,0,0,1-.955,6.917,10.69,10.69,0,0,1-3.747,2.4l-8.572,3.924a83.113,83.113,0,0,1,2.352,16.764,29.774,29.774,0,0,0,21.9-13.577c4.631-7.594,5.118-17.7.718-25.43-4.356-7.654-12.512-12.145-19.6-17.366a31.246,31.246,0,0,1-5.185-4.481,13.174,13.174,0,0,1-1.929-2.859c-.315-.649-.784-3.243-1.893-3.02-.759.153-.521,1.527-.459,2.041a7.776,7.776,0,0,0,.885,2.3,35.507,35.507,0,0,0-2.787-5.151c-.724-1.109-2.062-3.389-2.87-1.985-.586,1.019,1.875,5.3,2.624,7.171-1.816-2.073-2.407-4.087-3.834-6.007-.29-.39-.689-.816-1.171-.741-2.307.359,1.816,7.343,2.37,8.173a57.326,57.326,0,0,0-3.783-4.572c-.944-1.052-1.141.724-1.1,1.383a15.655,15.655,0,0,0,2.672,6.74A56.273,56.273,0,0,0,406.149,188.389Z" transform="translate(-395.883 -168.421)" fill="#eaab88"/>
          <path id="Trazado_695285" data-name="Trazado 695285" d="M411.311,238.092a1.364,1.364,0,0,1,1.5,1.141,76.27,76.27,0,0,1,.087,22.842,2.951,2.951,0,0,1-.488,1.446,2.855,2.855,0,0,1-1.125.745,31.125,31.125,0,0,1-14.582,2.611q-.638-10.637-1.276-21.274c-.1-1.609-.757-4.6.141-6.054.835-1.35,2.516-.993,3.879-.943C400.316,238.639,408.194,238.436,411.311,238.092Z" transform="translate(-395.098 -191.237)" fill="#fbb62b"/>
        </g>
        <g id="Grupo_920893" data-name="Grupo 920893" transform="translate(37.156 12.416)">
          <path id="Trazado_695287" data-name="Trazado 695287" d="M354.8,182.688q-1.112.469-2.235.888c-4.6,1.728-9.334,2.965-13.914,4.765a15.729,15.729,0,0,0-5.454,3.181,6.753,6.753,0,0,0-2.155,5.828,8.721,8.721,0,0,0,1.736,3.317l4.617,6.349a80.155,80.155,0,0,0-8.615,12.357,24.256,24.256,0,0,1-10.335-19.031c-.239-7.756,3.57-15.927,9.953-20.37,6.319-4.4,14.1-4.856,21.406-6.294a26.328,26.328,0,0,0,5.615-1.576,11.837,11.837,0,0,0,2.58-1.529c.5-.393,1.906-2.266,2.62-1.669.489.408-.249,1.4-.506,1.787a7.294,7.294,0,0,1-1.592,1.486,32.657,32.657,0,0,1,4.148-3.015c.983-.6,2.9-1.9,2.905-.481.007,1.028-3.547,3.48-4.862,4.672,2.175-.95,3.434-2.317,5.262-3.294.372-.2.837-.384,1.157-.143,1.529,1.158-4.345,5.115-5.09,5.561a50.313,50.313,0,0,1,4.634-2.18c1.119-.475.531,1,.23,1.509a14.679,14.679,0,0,1-4.719,4.313A49.535,49.535,0,0,1,354.8,182.688Z" transform="translate(-318.43 -168.043)" fill="#eaab88"/>
          <path id="Trazado_695288" data-name="Trazado 695288" d="M351.2,229.12a25.173,25.173,0,0,1-9.035-8.89c-6.1,3.652-10.03,10.035-12.945,16.516a2.224,2.224,0,0,0-.239.778,2.117,2.117,0,0,0,.215.9,22.587,22.587,0,0,0,8.458,9.72A44.491,44.491,0,0,1,351.2,229.12Z" transform="translate(-321.884 -185.135)" fill="#fbb62b"/>
          <path id="Trazado_695289" data-name="Trazado 695289" d="M352.772,232.965a18.051,18.051,0,0,0-6.812,3.867q-1.419,1.129-2.809,2.3c-3.213,2.695-6.368,5.612-8.337,9.315a33.113,33.113,0,0,0,5.2,4.22,1.789,1.789,0,0,1,.239-1.6c3.083-6.1,6.341-12.255,11.228-17.029C351.926,233.594,352.181,233.157,352.772,232.965Z" transform="translate(-323.796 -189.306)" fill="#eceff4" style="mix-blend-mode: multiply;isolation: isolate"/>
        </g>
        <g id="Grupo_920894" data-name="Grupo 920894" transform="translate(67.313 49.862)">
          <path id="Trazado_695291" data-name="Trazado 695291" d="M382.484,223.727a21.323,21.323,0,0,0-1.219,6.44,7.8,7.8,0,0,1-.235,2.158,6.038,6.038,0,0,1-1.062,1.792,20.686,20.686,0,0,1-5.335,5.029,11.414,11.414,0,0,1-7.013,1.8c-1.763-.173-3.656-1.059-4.195-2.746-.487-1.523.288-3.165,1.27-4.427a13.311,13.311,0,0,1,2.59-2.528,14.593,14.593,0,0,0,3.5-2.851,9.453,9.453,0,0,0,1.311-4.534c.243.278.514.2.882.2C376.262,224.108,379.379,224.8,382.484,223.727Z" transform="translate(-363.275 -223.727)" fill="#eaab88"/>
          <path id="Trazado_695292" data-name="Trazado 695292" d="M385.664,224.515a5.06,5.06,0,0,1-3.021.864,17.314,17.314,0,0,1-3.795-.112c-1.177-.134-2.4-.036-3.19-.923a8.535,8.535,0,0,1-1.4,4.415c1.925.584,5-.875,6.867-1.621A14.517,14.517,0,0,0,385.664,224.515Z" transform="translate(-366.872 -223.929)" fill="#eceff4" style="mix-blend-mode: multiply;isolation: isolate"/>
        </g>
        <g id="Grupo_920895" data-name="Grupo 920895" transform="translate(0 96.754)">
          <path id="Trazado_695293" data-name="Trazado 695293" d="M340.731,304.215c.1,1.348-1.263,2.164-2.381,2.576-14.27,5.255-29.03,11.013-43.3,16.269-3.3,19.189-6.537,39.275-8.914,58.622-3.937.013-8.2.287-12.1-.225q-1.152-21.087-2.305-42.174c-.522-9.547-.919-19.751,3.232-28.155a14.62,14.62,0,0,1,3.6-4.878,16.749,16.749,0,0,1,5.058-2.559q14.459-5.315,29.014-10.232c1.547,1.791,3.794,1.757,5.894,2.492C326.052,298.581,333.207,301.583,340.731,304.215Z" transform="translate(-265.876 -293.457)" fill="#2a4e96"/>
          <path id="Trazado_695294" data-name="Trazado 695294" d="M352.675,306.213c.617,5.369,1.2,11.056-.661,16.1-2.822,7.643-10.327,11.394-17.3,12.952-5.812,1.3-12.389,2.357-18.232,1.679q-1.586,9.316-3.17,18.63c-1.757,10.324-3.993,20.864-7.74,30.5-5.356-.732-10.068-.848-15.433-1.512a.611.611,0,0,1-1.019-.029l1.638-43.2a75.689,75.689,0,0,1,1.305-13.378c.96-4.372,2.778-8.638,5.734-11.6a25.778,25.778,0,0,1,6.4-4.364,139.774,139.774,0,0,1,27.264-10.994A124.825,124.825,0,0,0,352.675,306.213Z" transform="translate(-271.675 -295.925)" fill="#2a4e96"/>
          <path id="Trazado_695295" data-name="Trazado 695295" d="M281.029,424.286c-.024,2.785-.172,5.587-.442,8.374q-7.6.248-15.208.8a2.06,2.06,0,0,1-1.787-3.291,18.51,18.51,0,0,1,7.378-6.188C274.189,422.634,277.767,424.8,281.029,424.286Z" transform="translate(-263.178 -336.06)" fill="#3d6480"/>
          <path id="Trazado_695296" data-name="Trazado 695296" d="M301.406,426.66q-.008,2.18-.163,4.358a2.061,2.061,0,0,1-2.06,1.925q-10.794-.039-21.593.21a2.058,2.058,0,0,1-1.442-3.576,25.1,25.1,0,0,1,10.413-5.73c4.061-1.061,8.63.547,12.889.742A2.058,2.058,0,0,1,301.406,426.66Z" transform="translate(-267.204 -336.044)" fill="#4a6e99"/>
          <path id="Trazado_695297" data-name="Trazado 695297" d="M321.192,297.65c-7.269,3.214-14.542,6.43-21.65,10.127-3.038,1.581-6.126,3.317-8.411,6.157-2.5,3.1-3.8,7.258-4.54,11.392-1.242,6.958-1.055,14.1-.8,21.153q.648,17.871,1.841,35.689a3.815,3.815,0,0,1,.9-.108,399.619,399.619,0,0,1,.918-44.739c.453-6.328,1.183-13.025,4.563-18.093,2.434-3.65,5.978-6.033,9.494-8.147a133.654,133.654,0,0,1,23.622-11.256A15.853,15.853,0,0,1,321.192,297.65Z" transform="translate(-270.523 -294.83)" fill="#233862" style="mix-blend-mode: multiply;isolation: isolate"/>
        </g>
        <path id="Trazado_695298" data-name="Trazado 695298" d="M365.606,305.111a166.019,166.019,0,0,0-21.211-1.621,4.205,4.205,0,0,0-1.9.32,2.937,2.937,0,0,0-1.176,1.394,20.476,20.476,0,0,0-2.19,8.128,3.488,3.488,0,0,0,.315,1.964c.657,1.147,2.3,1.612,3.769,1.959q19.458,4.584,39.292,7.956a8.085,8.085,0,0,0,3.546.067,4.819,4.819,0,0,0,2.078-1.311,12.983,12.983,0,0,0,2.341-3.795c1.376-2.956,3.229-5.985,4.2-9.046,1.056-3.317-2.742-2.863-5.824-3.233C381.1,306.965,373.367,305.914,365.606,305.111Z" transform="translate(-288.047 -199.987)" fill="#afafaf"/>
        <path id="Trazado_695300" data-name="Trazado 695300" d="M382,153.545a25.719,25.719,0,0,0,2.126,5.641" transform="translate(-302.095 -150.879)" fill="none" stroke="#fff" stroke-miterlimit="10" stroke-width="1"/>
        <path id="Trazado_695301" data-name="Trazado 695301" d="M393.829,149.581a52.611,52.611,0,0,1,.25,7.17" transform="translate(-305.969 -149.581)" fill="none" stroke="#fff" stroke-miterlimit="10" stroke-width="1"/>
        <path id="Trazado_695302" data-name="Trazado 695302" d="M406.484,152.909l-2.853,6.3" transform="translate(-309.179 -150.671)" fill="none" stroke="#fff" stroke-miterlimit="10" stroke-width="1"/>
        <path id="Trazado_695303" data-name="Trazado 695303" d="M373.849,160.262l1.326,1.808" transform="translate(-299.425 -153.079)" fill="none" stroke="#fff" stroke-miterlimit="10" stroke-width="1"/>
        <path id="Trazado_695304" data-name="Trazado 695304" d="M410.537,163.472a7.247,7.247,0,0,0,2.907-2.241" transform="translate(-311.441 -153.397)" fill="none" stroke="#fff" stroke-miterlimit="10" stroke-width="1"/>
      </g>
      <g id="Grupo_920903" data-name="Grupo 920903" transform="translate(34.185 6.451)">
        <path id="Trazado_695305" data-name="Trazado 695305" d="M210.318,152.021a34.566,34.566,0,0,1-3-3.473c-2.081-3.547.364-8.4-2.289-11.631a14.727,14.727,0,0,0-4.071-2.847c-8.013-4.742-11.891-14.33-9.1-22.495.943-2.761,2.812-5.529,5.869-6.529,2.775-.909,6.266-.291,8.429-2.077a5.293,5.293,0,0,0,1.5-5.075c-.3-1.8-1.1-3.51-1.434-5.306-.956-5.127,2.151-10.447,6.941-13.452s10.978-3.9,16.812-3.32c5.818.581,11.74,2.767,15.062,7.033a12.147,12.147,0,0,1,1.549,12.44,14.884,14.884,0,0,1-10.877,8c-4.223.756-8.641-.127-12.885.529s-8.643,3.958-7.561,7.649c.486,1.657,1.948,2.919,3.073,4.311a8.842,8.842,0,0,1,2.128,7.341,6.72,6.72,0,0,1-5.9,5.058c-2.8.212-6.119-1.239-8.134.49-1.353,1.161-1.154,3.195-.209,4.638a28.4,28.4,0,0,0,3.69,3.777c2.107,2.169,3.351,5.389,1.806,7.9a9.116,9.116,0,0,0-1.322,2.169c-.414,1.539.9,2.962,1.738,4.362.7,1.171.921,2.557-.361,3.165A25.976,25.976,0,0,0,210.318,152.021Z" transform="translate(-163.854 -75.651)" fill="#b0c0d2"/>
        <path id="Trazado_695306" data-name="Trazado 695306" d="M227.433,159.571a4.179,4.179,0,0,1,1.787-3.656,17.668,17.668,0,0,1,3.069-1.168,6.006,6.006,0,0,0,3.869-5c.113-1.9-.819-3.847-.2-5.668.841-2.474,4.555-3.588,7.188-2.469a6.387,6.387,0,0,1,3.748,6.485,10.836,10.836,0,0,1-3.985,6.725,9.662,9.662,0,0,1-2.9,1.855c-1.876.712-4.015.583-6,1.009-2.9.623-4.612,2.559-6,4.5A7.068,7.068,0,0,1,227.433,159.571Z" transform="translate(-175.799 -97.11)" fill="#0b5999"/>
        <path id="Trazado_695307" data-name="Trazado 695307" d="M184.967,102.286c1.319-.718,2.914-.947,4.257-1.629a5.642,5.642,0,0,0,3.146-4.456c.133-1.753-.666-3.444-1.014-5.173s-.073-3.8,1.585-4.77a4.467,4.467,0,0,1,4.528.331,6.471,6.471,0,0,1,2.457,3.605,8.441,8.441,0,0,1-3.319,9.588c-2.522,1.593-5.882,1.8-8.5,3.27-2.878,1.621-4.013,4.318-5.473,6.867C179.315,108.906,183.005,103.354,184.967,102.286Z" transform="translate(-160.691 -78.97)" fill="#0b5999"/>
        <path id="Trazado_695308" data-name="Trazado 695308" d="M252.644,130.788a3.149,3.149,0,0,0-1.378.535A2.66,2.66,0,0,0,250.1,132.7a1.955,1.955,0,0,0,.579,1.9,3.026,3.026,0,0,0,2.8.7,2.511,2.511,0,0,0,1.879-1.956A2.457,2.457,0,0,0,252.644,130.788Z" transform="translate(-183.201 -93.705)" fill="#c7e0e8"/>
        <path id="Trazado_695309" data-name="Trazado 695309" d="M173.449,120.535a1.9,1.9,0,0,0-1.531.564,1.936,1.936,0,0,0-.325.624,2.18,2.18,0,0,0-.149.928,1.812,1.812,0,0,0,1.254,1.412,2.97,2.97,0,0,0,2.073-.1,1.208,1.208,0,0,0,.773-.737,2.118,2.118,0,0,0,.247-1.42C175.556,120.966,174.328,120.579,173.449,120.535Z" transform="translate(-157.459 -90.35)" fill="#c7e0e8"/>
        <g id="Grupo_920897" data-name="Grupo 920897" transform="translate(58.541 56.471)">
          <path id="Trazado_695310" data-name="Trazado 695310" d="M238.554,173.007a69.2,69.2,0,0,1,28.5-11.992c.908-.165.518-1.529-.38-1.378a64.5,64.5,0,0,0-28.8,12.5c-.494.384.163,1.246.675.874Z" transform="translate(-237.704 -159.625)" fill="#fd9927"/>
        </g>
        <g id="Grupo_920898" data-name="Grupo 920898" transform="translate(68.674 64.797)">
          <path id="Trazado_695311" data-name="Trazado 695311" d="M253.207,176.162a99.623,99.623,0,0,1,9.721-3.13.52.52,0,0,0-.276-1,100.206,100.206,0,0,0-9.637,3.433c-.42.175-.249.867.193.7Z" transform="translate(-252.772 -172.005)" fill="#4a6e99"/>
        </g>
        <g id="Grupo_920899" data-name="Grupo 920899" transform="translate(3.488 49.713)">
          <path id="Trazado_695312" data-name="Trazado 695312" d="M189.933,169.011a13.871,13.871,0,0,0-9.693-6.945,13.362,13.362,0,0,0-6.19.087c-1.342.385-2.974,1.582-2.253,3.195.652,1.457,2.625,1.2,3.8.612a5.715,5.715,0,0,0,2.881-3.988c.816-4.042-2.014-7.919-5.266-9.978-5.009-3.169-11.413-2.849-16.875-1.181a.7.7,0,0,0,.375,1.358c4.329-1.178,9.109-1.613,13.4-.026,3.672,1.358,7.586,4.894,7.182,9.167a4.908,4.908,0,0,1-1.089,2.706,3.555,3.555,0,0,1-1.135.891,2.234,2.234,0,0,1-.73.277q-1.294.474-.47-.863c.288-1.083.344-1.017,1.288-1.176a12.229,12.229,0,0,1,1.78-.153,14.449,14.449,0,0,1,2.982.256,13.247,13.247,0,0,1,9.175,6.253c.308.551,1.132.064.844-.493Z" transform="translate(-155.839 -149.576)" fill="#0b5999"/>
        </g>
        <g id="Grupo_920900" data-name="Grupo 920900" transform="translate(76.239 37.707)">
          <path id="Trazado_695313" data-name="Trazado 695313" d="M264.7,139.861a43.188,43.188,0,0,1,14.22-7.027.563.563,0,0,0-.3-1.084,44.248,44.248,0,0,0-14.462,7.41c-.4.307.136,1.007.541.7Z" transform="translate(-264.021 -131.723)" fill="#fd9927"/>
        </g>
        <g id="Grupo_920901" data-name="Grupo 920901" transform="translate(0 37.289)">
          <path id="Trazado_695314" data-name="Trazado 695314" d="M167.84,134.184a24.62,24.62,0,0,0-16.706-2.623c-.843.163-.486,1.449.354,1.287a23.834,23.834,0,0,1,15.79,2.3c.631.338,1.19-.611.562-.962Z" transform="translate(-150.652 -131.101)" fill="#fd9927"/>
        </g>
        <g id="Grupo_920902" data-name="Grupo 920902" transform="translate(77.837 15.087)">
          <path id="Trazado_695315" data-name="Trazado 695315" d="M267.215,117.905c.707-3.5,3.537-6.078,6.628-7.625a7.153,7.153,0,0,1,3.178-.963l.9.121q1.456.228.912,1.49c-.1,1.039-.214,1.161-1.212,1.161-3.349,0-2.208-4.123-1.084-5.8,4.273-6.38,12.994-7.074,19.942-6.88.778.022.761-1.141,0-1.2a30,30,0,0,0-14.021,1.851c-3.489,1.492-7.563,4.463-8.319,8.454-.572,3.021,2.645,6.468,5.542,4.132a2.2,2.2,0,0,0,.382-3.131,4.224,4.224,0,0,0-4.578-1.1c-4.182,1.159-8.334,4.9-9.079,9.27-.09.525.7.759.81.223Z" transform="translate(-266.397 -98.086)" fill="#0b5999"/>
        </g>
      </g>
      <g id="Grupo_920913" data-name="Grupo 920913" transform="translate(0 164.485)">
        <rect id="Rectángulo_321422" data-name="Rectángulo 321422" width="161.479" height="8.742" transform="translate(0 0)" fill="#8e6447"/>
        <rect id="Rectángulo_321423" data-name="Rectángulo 321423" width="4.035" height="76.999" transform="translate(12.673 8.742)" fill="#8e6447"/>
        <rect id="Rectángulo_321424" data-name="Rectángulo 321424" width="4.035" height="76.999" transform="translate(143.177 8.742)" fill="#8e6447"/>
      </g>
      <g id="Grupo_920914" data-name="Grupo 920914" transform="translate(37.521 81.537)">
        <rect id="Rectángulo_321425" data-name="Rectángulo 321425" width="100.77" height="63.109" rx="8.316" transform="translate(0 0)" fill="#979b9e"/>
        <rect id="Rectángulo_321426" data-name="Rectángulo 321426" width="86.677" height="3.345" transform="translate(7.047 55.351)" fill="#7d8082"/>
        <path id="Trazado_695340" data-name="Trazado 695340" d="M203.889,187.306l8.192,5.765-8.192,8.192L213.6,204.3l-3.034,10.013,6.978,25.79L214.2,213.7l10.619-14.867-4.248-5.461,6.978-6.068Z" transform="translate(-171.424 -187.306)" fill="#7d8082"/>
        <rect id="Rectángulo_321427" data-name="Rectángulo 321427" width="16.983" height="14.795" transform="translate(41.894 63.109)" fill="#7d8082"/>
        <rect id="Rectángulo_321428" data-name="Rectángulo 321428" width="55.67" height="7.734" transform="translate(22.226 75.214)" fill="#979b9e"/>
      </g>
      <g id="Grupo_920915" data-name="Grupo 920915" transform="translate(1.764 86.769)">
        <path id="Trazado_695341" data-name="Trazado 695341" d="M118.712,298.9h0a13.842,13.842,0,0,1-13.842-13.842V274.78h27.345l.339,10.281A13.842,13.842,0,0,1,118.712,298.9Z" transform="translate(-103.236 -221.188)" fill="#e9c352"/>
        <path id="Trazado_695342" data-name="Trazado 695342" d="M110.047,256.026c-2.06-.966-4.4-1.506-6.058-3.062a2.163,2.163,0,0,1-.761-1.254.959.959,0,0,1,.77-1.093,1.451,1.451,0,0,1,.8.276l2.336,1.378c-1.913-1.8-3.913-3.74-4.565-6.283a2.385,2.385,0,0,1,.015-1.556,1.058,1.058,0,0,1,1.29-.618,1.6,1.6,0,0,1,.618.617l2.854,4.167a30.035,30.035,0,0,1-2.505-9.922c-.139-1.825.029-3.952,1.512-5.024a1.375,1.375,0,0,1,.911-.312c.613.06.976.7,1.18,1.286,1.477,4.225.05,9.072,1.639,13.257a5.431,5.431,0,0,1,.228-2.124c.438-1.119,1.231-1.5,1.75-.2.512,1.287-.013,2.977.036,4.316.013.349.128.808.478.815.415-.278.532-.821.727-1.28s.65-.929,1.121-.765c.5.173.534.858.475,1.384q-.208,1.855-.416,3.709a3.626,3.626,0,0,1,1.242-.865,1.236,1.236,0,0,1,1.385.336,1.721,1.721,0,0,1,.186,1.185c-.108,1.1-1.086,6.8-2.7,6.293-.762-.24-1.313-2.12-1.839-2.719A8.233,8.233,0,0,0,110.047,256.026Z" transform="translate(-102.441 -207.614)" fill="#95c8ac"/>
        <path id="Trazado_695343" data-name="Trazado 695343" d="M127.858,252.061a10.834,10.834,0,0,1,.152-2.134.931.931,0,0,1,1.789-.15l.009.025q.4-2.5.794-5c.026-.164.055-.331.087-.5a1.464,1.464,0,0,1,2.89.112h0c2.826-4.763.9-11.019,2.766-16.234l.006-.018a.76.76,0,0,1,1.465.129l.654,3.818a35.932,35.932,0,0,1,2.073-8.45,1.751,1.751,0,0,1,1.369-1.143c1.239-.161,1.7,1.083,1.81,2.114.611,5.615-2.761,10.922-3.122,16.559a3.531,3.531,0,0,1,1.28-1.42,1.216,1.216,0,0,1,1.66.454,1.514,1.514,0,0,1,.053.726,5.71,5.71,0,0,1-3.005,4.364,18.593,18.593,0,0,0-2.122,1.019,3.532,3.532,0,0,0-1.423,2.092.483.483,0,0,0,.033.4c.167.22.512.05.732-.118a6.737,6.737,0,0,1,2.468-1.18c.414-.1,1.012-.04,1.05.384a.747.747,0,0,1-.163.456,6.261,6.261,0,0,1-3.8,2.642,1.41,1.41,0,0,1-1.165,2.481c-.7-.143-1.244-.8-1.96-.831-.962-.036-1.543,1.033-1.847,1.946s-.756,2-1.711,2.128c-.281,1.339-2.534,2.354-3,.709a7.268,7.268,0,0,1,.259-2.1C128.016,254.25,127.877,253.149,127.858,252.061Z" transform="translate(-110.692 -204.066)" fill="#95c8ac"/>
        <path id="Trazado_695344" data-name="Trazado 695344" d="M126.572,239.927c-.442-1.666-1.2-3.308-1.078-5.027.2-2.8,2.7-5.033,2.926-7.832a1.269,1.269,0,0,0-.19-.917.993.993,0,0,0-1.395.048,2.878,2.878,0,0,0-.662,1.4c.239-3.846,2.98-7.317,2.709-11.161-.044-.63-.508-1.451-1.081-1.182a.958.958,0,0,0-.35.335,5.685,5.685,0,0,0-.873,1.844,25.992,25.992,0,0,0,.648-12.5,6.7,6.7,0,0,0-.785-2.448,2.587,2.587,0,0,0-2.1-1.311,12.553,12.553,0,0,1-1.312.111c-1.317-.131-1.806-1.772-1.972-3.086s-.635-2.955-1.951-3.107a2.04,2.04,0,0,0-2,1.52,5.735,5.735,0,0,0,.013,2.693c.286,1.677.72,3.516,2.113,4.494a9.356,9.356,0,0,1,1.067.72c1.038.966.742,2.651.365,4.019-.076.276-.236.614-.521.59a.581.581,0,0,1-.379-.278c-.582-.8-1.115-2-2.088-1.839a1.359,1.359,0,0,0-.795,1.871,4.028,4.028,0,0,0,1.633,1.624,3.751,3.751,0,0,1,1.594,1.655,3.806,3.806,0,0,1,.143,1.375c-.007.387-.078.865-.445.989-.59.2-.956-.757-1.57-.859-.64-.106-1,.853-.646,1.395a2.556,2.556,0,0,0,1.69.858,1.642,1.642,0,0,0-.783,3.18c.545.18,1.173.071,1.677.348a1.814,1.814,0,0,1,.617.619,5.429,5.429,0,0,1,.492,3.981c-.258,1.346-.747,2.648-.9,4.011a1.884,1.884,0,0,0,.472,1.73,3.83,3.83,0,0,0,.873.392c1.335.576,1.812,2.3,1.525,3.73a16.214,16.214,0,0,1-1.793,3.958,15.958,15.958,0,0,0-1.629,8.817,4.126,4.126,0,0,0,.525,1.828,3.167,3.167,0,0,0,2.362,1.3c2.613.274,3.318-.66,3.9-3.05A13.957,13.957,0,0,0,126.572,239.927Z" transform="translate(-107.136 -195.087)" fill="#95c8ac"/>
        <ellipse id="Elipse_8079" data-name="Elipse 8079" cx="13.673" cy="1.801" rx="13.673" ry="1.801" transform="translate(1.634 51.791)" fill="#d8a821"/>
      </g>
      <g id="Grupo_920916" data-name="Grupo 920916" transform="translate(33.625 129.813)">
        <path id="Rectángulo_321429" data-name="Rectángulo 321429" d="M0,0H15.915a0,0,0,0,1,0,0V12.847A7.958,7.958,0,0,1,7.958,20.8h0A7.958,7.958,0,0,1,0,12.847V0A0,0,0,0,1,0,0Z" transform="translate(0 13.867)" fill="#a04c4a"/>
        <rect id="Rectángulo_321430" data-name="Rectángulo 321430" width="15.915" height="9.285" transform="translate(0 18.58)" fill="#c8615a"/>
        <rect id="Rectángulo_321431" data-name="Rectángulo 321431" width="2.186" height="10.809" transform="translate(6.973 3.058)" fill="#4a6e99"/>
        <rect id="Rectángulo_321432" data-name="Rectángulo 321432" width="2.186" height="10.809" transform="translate(10.876 2.781)" fill="#c7e0e8"/>
        <rect id="Rectángulo_321433" data-name="Rectángulo 321433" width="2.186" height="13.867" transform="translate(2.854)" fill="#74acc2"/>
      </g>
    </g>
  </g>
</svg>
