<svg xmlns="http://www.w3.org/2000/svg" width="393.23" height="245.188" viewBox="0 0 393.23 245.188">
  <g id="Grupo_928450" data-name="Grupo 928450" transform="translate(-17.681 -28.544)">
    <g id="Background_Simple" data-name="Background Simple" transform="translate(-7.776 28.544)">
      <g id="Grupo_927797" data-name="Grupo 927797" transform="translate(0 0)">
        <path id="Trazado_710873" data-name="Trazado 710873" d="M161.908,78.867C215.794,52.334,271.219,17.64,333.82,31.838a84.474,84.474,0,0,1,49.014,31.407c31.928,42.782,29.331,108.311,11.985,156.469a87.518,87.518,0,0,1-8.727,17.993c-17.606,27.174-47.275,28.454-75.89,20.6-24.217-6.649-45.672-13.488-70.688-6.728-13.856,3.744-27.282,8.89-41.086,12.807-18.8,5.333-38.171,8.955-57.744,9.322C88.9,274.677,29.749,248.26,25.161,190.433a91.051,91.051,0,0,1-.181-11.27c1.035-23.085,8.664-46.2,29.811-58.19,21.262-12.051,46.487-16.815,69.23-25.362C136.953,90.751,149.5,84.975,161.908,78.867Z" transform="translate(5.781 -28.544)" fill="#feca2e" opacity="0.39"/>
      </g>
    </g>
    <g id="Plants" transform="translate(24.043 209.992)">
      <g id="Grupo_927815" data-name="Grupo 927815" transform="translate(346.515 22.26)">
        <g id="Grupo_927798" data-name="Grupo 927798" transform="translate(4.592 4.553)">
          <path id="Trazado_710875" data-name="Trazado 710875" d="M673.683,441.575a.275.275,0,0,1-.248-.279,34.885,34.885,0,0,1,17.336-29.281.275.275,0,1,1,.274.476,34.332,34.332,0,0,0-17.06,28.817.276.276,0,0,1-.281.269Z" transform="translate(-673.435 -411.978)" fill="#fd9927"/>
        </g>
        <g id="Grupo_927801" data-name="Grupo 927801" transform="translate(0 20.923)">
          <g id="Grupo_927799" data-name="Grupo 927799" transform="translate(5.268 3.3)">
            <path id="Trazado_710876" data-name="Trazado 710876" d="M680.937,448.425c-3.1-1.3-6,3.285-5.9,3.387q-.2.842-.358,1.7c.393-.668,2.105-1.5,4.63-1.682C681.807,451.554,683.934,449.556,680.937,448.425Z" transform="translate(-674.68 -448.192)" fill="#fd9927"/>
          </g>
          <g id="Grupo_927800" data-name="Grupo 927800">
            <path id="Trazado_710877" data-name="Trazado 710877" d="M667.395,442.307c-3.085-1.168-3.047,3.378-.825,4.831,2.13,1.5,3.442,2.845,3.631,3.591q.1-.868.243-1.726C670.316,449.025,670.274,443.521,667.395,442.307Z" transform="translate(-664.981 -442.117)" fill="#fd9927"/>
          </g>
        </g>
        <g id="Grupo_927804" data-name="Grupo 927804" transform="translate(2.507 14.746)">
          <g id="Grupo_927802" data-name="Grupo 927802" transform="translate(4.126 4.727)">
            <path id="Trazado_710878" data-name="Trazado 710878" d="M684.191,439.912c-2.836-1.8-6.442,2.185-6.365,2.294q-.336.785-.633,1.589c.5-.579,2.32-1.088,4.837-.835C684.533,443.123,686.956,441.532,684.191,439.912Z" transform="translate(-677.193 -439.447)" fill="#fd9927"/>
          </g>
          <g id="Grupo_927803" data-name="Grupo 927803">
            <path id="Trazado_710879" data-name="Trazado 710879" d="M672.3,431.111c-2.845-1.666-3.555,2.785-1.607,4.578,1.85,1.823,2.919,3.359,2.982,4.115q.242-.825.525-1.634C674.072,438.175,674.936,432.8,672.3,431.111Z" transform="translate(-669.596 -430.744)" fill="#fd9927"/>
          </g>
        </g>
        <g id="Grupo_927807" data-name="Grupo 927807" transform="translate(5.93 9.115)">
          <g id="Grupo_927805" data-name="Grupo 927805" transform="translate(2.99 5.963)">
            <path id="Trazado_710880" data-name="Trazado 710880" d="M688.935,432.132c-2.5-2.242-6.707,1.063-6.647,1.18q-.459.712-.885,1.448c.585-.481,2.463-.67,4.9,0C688.739,435.35,691.389,434.192,688.935,432.132Z" transform="translate(-681.403 -431.354)" fill="#fd9927"/>
          </g>
          <g id="Grupo_927806" data-name="Grupo 927806">
            <path id="Trazado_710881" data-name="Trazado 710881" d="M678.927,420.951c-2.527-2.117-3.963,2.143-2.34,4.231,1.521,2.1,2.321,3.79,2.258,4.54q.374-.765.785-1.511C679.5,428.2,681.241,423.056,678.927,420.951Z" transform="translate(-675.898 -420.376)" fill="#fd9927"/>
          </g>
        </g>
        <g id="Grupo_927810" data-name="Grupo 927810" transform="translate(10.171 4.158)">
          <g id="Grupo_927808" data-name="Grupo 927808" transform="translate(1.881 6.958)">
            <path id="Trazado_710882" data-name="Trazado 710882" d="M695.039,425.24c-2.09-2.627-6.8-.064-6.757.058q-.572.624-1.113,1.277c.656-.375,2.538-.246,4.828.826C694.3,428.387,697.111,427.683,695.039,425.24Z" transform="translate(-687.169 -424.06)" fill="#fd9927"/>
          </g>
          <g id="Grupo_927809" data-name="Grupo 927809">
            <path id="Trazado_710883" data-name="Trazado 710883" d="M687.1,412.052c-2.138-2.51-4.277,1.461-3.023,3.79,1.148,2.328,1.656,4.124,1.47,4.852q.494-.69,1.024-1.356C686.445,419.306,689.026,414.518,687.1,412.052Z" transform="translate(-683.707 -411.25)" fill="#fd9927"/>
          </g>
        </g>
        <g id="Grupo_927813" data-name="Grupo 927813" transform="translate(15.14)">
          <g id="Grupo_927811" data-name="Grupo 927811" transform="translate(0.812 7.653)">
            <path id="Trazado_710884" data-name="Trazado 710884" d="M702.371,419.378c-1.62-2.943-6.729-1.183-6.7-1.056q-.671.523-1.317,1.079c.711-.262,2.549.177,4.63,1.615C701.088,422.37,704,422.136,702.371,419.378Z" transform="translate(-694.351 -417.684)" fill="#fd9927"/>
          </g>
          <g id="Grupo_927812" data-name="Grupo 927812">
            <path id="Trazado_710885" data-name="Trazado 710885" d="M696.664,404.637c-1.686-2.835-4.5.741-3.654,3.251.735,2.493.932,4.352.625,5.039q.605-.6,1.243-1.17C694.751,411.706,698.137,407.4,696.664,404.637Z" transform="translate(-692.855 -403.595)" fill="#fd9927"/>
          </g>
        </g>
        <g id="Grupo_927814" data-name="Grupo 927814" transform="translate(19.659 0.559)">
          <path id="Trazado_710886" data-name="Trazado 710886" d="M701.513,410.428c-.087-.021,3.021-3.824,5.436-5.005,2.339-1.23,3.816.235,3.716,1.384-.081,1.157-1.746,1.947-3.25,2.306C705.9,409.349,701.512,410.346,701.513,410.428Z" transform="translate(-701.33 -404.776)" fill="#fd9927"/>
          <path id="Trazado_710887" data-name="Trazado 710887" d="M701.343,410.458l-.024,0a.188.188,0,0,1-.142-.16.107.107,0,0,1,0-.018.133.133,0,0,1,.056-.133,19.512,19.512,0,0,1,5.483-5.036,3.011,3.011,0,0,1,3.1-.1,1.874,1.874,0,0,1,.879,1.665c-.11,1.566-2.622,2.285-3.39,2.468-1.477.231-5.472,1.141-5.836,1.284A.181.181,0,0,1,701.343,410.458ZM708.7,405a3.236,3.236,0,0,0-1.819.437,19.6,19.6,0,0,0-5.048,4.5c.373-.1.956-.232,1.868-.437,1.175-.264,2.719-.591,3.532-.717,1.441-.344,3.021-1.089,3.1-2.138a1.507,1.507,0,0,0-.716-1.331A1.981,1.981,0,0,0,708.7,405Z" transform="translate(-701.177 -404.624)" fill="#fd9927"/>
        </g>
      </g>
      <g id="Grupo_927833" data-name="Grupo 927833" transform="translate(300.791 30.423)">
        <g id="Grupo_927816" data-name="Grupo 927816" transform="translate(5.208 3.465)">
          <path id="Trazado_710888" data-name="Trazado 710888" d="M603.7,447.525a.208.208,0,0,0,.188-.213A26.547,26.547,0,0,0,590.7,425.03a.209.209,0,0,0-.208.362,26.126,26.126,0,0,1,12.983,21.929.21.21,0,0,0,.213.2Z" transform="translate(-590.387 -425.002)" fill="#fd9927"/>
        </g>
        <g id="Grupo_927819" data-name="Grupo 927819" transform="translate(12.321 15.922)">
          <g id="Grupo_927817" data-name="Grupo 927817" transform="translate(0 2.511)">
            <path id="Trazado_710889" data-name="Trazado 710889" d="M604.6,452.738c2.358-.991,4.563,2.5,4.489,2.578q.152.64.272,1.294c-.3-.508-1.6-1.138-3.523-1.28C603.937,455.12,602.318,453.6,604.6,452.738Z" transform="translate(-603.482 -452.561)" fill="#fd9927"/>
          </g>
          <g id="Grupo_927818" data-name="Grupo 927818" transform="translate(5.73)">
            <path id="Trazado_710890" data-name="Trazado 710890" d="M616.353,448.083c2.347-.889,2.318,2.571.627,3.677-1.62,1.139-2.619,2.165-2.763,2.733q-.076-.661-.185-1.313C614.13,453.2,614.162,449.006,616.353,448.083Z" transform="translate(-614.032 -447.938)" fill="#fd9927"/>
          </g>
        </g>
        <g id="Grupo_927822" data-name="Grupo 927822" transform="translate(10.9 11.221)">
          <g id="Grupo_927820" data-name="Grupo 927820" transform="translate(0 3.597)">
            <path id="Trazado_710891" data-name="Trazado 710891" d="M601.8,446.26c2.159-1.368,4.9,1.662,4.844,1.746q.255.6.482,1.209c-.379-.441-1.766-.828-3.681-.635C601.542,448.7,599.7,447.493,601.8,446.26Z" transform="translate(-600.867 -445.906)" fill="#fd9927"/>
          </g>
          <g id="Grupo_927821" data-name="Grupo 927821" transform="translate(5.868)">
            <path id="Trazado_710892" data-name="Trazado 710892" d="M613.145,439.562c2.164-1.268,2.7,2.119,1.222,3.484-1.407,1.388-2.221,2.557-2.269,3.132q-.184-.627-.4-1.243C611.8,444.938,611.14,440.844,613.145,439.562Z" transform="translate(-611.671 -439.283)" fill="#fd9927"/>
          </g>
        </g>
        <g id="Grupo_927825" data-name="Grupo 927825" transform="translate(8.945 6.936)">
          <g id="Grupo_927823" data-name="Grupo 927823" transform="translate(0 4.538)">
            <path id="Trazado_710893" data-name="Trazado 710893" d="M598.01,440.339c1.9-1.706,5.1.809,5.058.9q.35.542.674,1.1c-.445-.366-1.874-.509-3.728,0C598.159,442.789,596.143,441.908,598.01,440.339Z" transform="translate(-597.266 -439.747)" fill="#fd9927"/>
          </g>
          <g id="Grupo_927824" data-name="Grupo 927824" transform="translate(5.525)">
            <path id="Trazado_710894" data-name="Trazado 710894" d="M608.36,431.83c1.923-1.611,3.016,1.631,1.78,3.22-1.157,1.6-1.766,2.884-1.719,3.454q-.284-.582-.6-1.149C607.923,437.346,606.6,433.432,608.36,431.83Z" transform="translate(-607.439 -431.393)" fill="#fd9927"/>
          </g>
        </g>
        <g id="Grupo_927828" data-name="Grupo 927828" transform="translate(6.498 3.164)">
          <g id="Grupo_927826" data-name="Grupo 927826" transform="translate(0 5.294)">
            <path id="Trazado_710895" data-name="Trazado 710895" d="M593.313,435.094c1.59-2,5.173-.048,5.141.044q.435.475.847.972c-.5-.285-1.931-.187-3.673.628C593.874,437.49,591.735,436.954,593.313,435.094Z" transform="translate(-592.762 -434.196)" fill="#fd9927"/>
          </g>
          <g id="Grupo_927827" data-name="Grupo 927827" transform="translate(4.842)">
            <path id="Trazado_710896" data-name="Trazado 710896" d="M602.221,425.059c1.627-1.91,3.255,1.111,2.3,2.884-.873,1.772-1.26,3.138-1.118,3.692q-.377-.525-.78-1.032C602.721,430.579,600.756,426.936,602.221,425.059Z" transform="translate(-601.676 -424.448)" fill="#fd9927"/>
          </g>
        </g>
        <g id="Grupo_927831" data-name="Grupo 927831" transform="translate(3.604)">
          <g id="Grupo_927829" data-name="Grupo 927829" transform="translate(0 5.823)">
            <path id="Trazado_710897" data-name="Trazado 710897" d="M587.795,430.633c1.233-2.239,5.121-.9,5.1-.8q.511.4,1,.821c-.542-.2-1.94.135-3.523,1.23C588.771,432.911,586.555,432.733,587.795,430.633Z" transform="translate(-587.433 -429.345)" fill="#fd9927"/>
          </g>
          <g id="Grupo_927830" data-name="Grupo 927830" transform="translate(3.902)">
            <path id="Trazado_710898" data-name="Trazado 710898" d="M594.9,419.417c1.283-2.157,3.423.564,2.78,2.473-.56,1.9-.709,3.312-.475,3.835q-.461-.456-.946-.891C596.355,424.8,593.779,421.515,594.9,419.417Z" transform="translate(-594.617 -418.623)" fill="#fd9927"/>
          </g>
        </g>
        <g id="Grupo_927832" data-name="Grupo 927832" transform="translate(0 0.425)">
          <path id="Trazado_710899" data-name="Trazado 710899" d="M588.023,423.823a15.437,15.437,0,0,0-4.137-3.809c-1.78-.936-2.9.178-2.828,1.053s1.329,1.482,2.474,1.755C584.684,423,588.024,423.761,588.023,423.823Z" transform="translate(-580.915 -419.522)" fill="#fd9927"/>
          <path id="Trazado_710900" data-name="Trazado 710900" d="M587.919,423.846l.018,0a.143.143,0,0,0,.108-.122.054.054,0,0,0,0-.014.1.1,0,0,0-.043-.1,14.854,14.854,0,0,0-4.172-3.832,2.291,2.291,0,0,0-2.359-.077,1.425,1.425,0,0,0-.669,1.267c.084,1.192,2,1.739,2.579,1.878,1.124.176,4.164.868,4.441.977A.138.138,0,0,0,587.919,423.846Zm-5.6-4.156a2.457,2.457,0,0,1,1.384.332,14.919,14.919,0,0,1,3.841,3.425c-.284-.074-.727-.176-1.421-.332-.894-.2-2.069-.45-2.687-.546-1.1-.262-2.3-.829-2.356-1.627a1.147,1.147,0,0,1,.545-1.013A1.508,1.508,0,0,1,582.319,419.69Z" transform="translate(-580.798 -419.406)" fill="#fd9927"/>
        </g>
      </g>
      <g id="Grupo_927851" data-name="Grupo 927851" transform="translate(324.062 0.244)">
        <g id="Grupo_927834" data-name="Grupo 927834" transform="translate(7.552 7.488)">
          <path id="Trazado_710901" data-name="Trazado 710901" d="M637.954,425.525a.452.452,0,0,1-.407-.46,57.373,57.373,0,0,1,28.511-48.157.452.452,0,0,1,.451.783,56.466,56.466,0,0,0-28.059,47.393.452.452,0,0,1-.462.442Z" transform="translate(-637.547 -376.848)" fill="#fd9927"/>
        </g>
        <g id="Grupo_927837" data-name="Grupo 927837" transform="translate(0 34.411)">
          <g id="Grupo_927835" data-name="Grupo 927835" transform="translate(8.664 5.427)">
            <path id="Trazado_710902" data-name="Trazado 710902" d="M649.884,436.791c-5.1-2.141-9.86,5.4-9.7,5.571q-.329,1.385-.589,2.8c.646-1.1,3.463-2.46,7.615-2.767C651.315,441.938,654.814,438.651,649.884,436.791Z" transform="translate(-639.594 -436.409)" fill="#fd9927"/>
          </g>
          <g id="Grupo_927836" data-name="Grupo 927836">
            <path id="Trazado_710903" data-name="Trazado 710903" d="M627.612,426.729c-5.073-1.921-5.01,5.556-1.355,7.946,3.5,2.461,5.66,4.679,5.971,5.906q.164-1.427.4-2.839C632.417,437.778,632.348,428.725,627.612,426.729Z" transform="translate(-623.643 -426.417)" fill="#fd9927"/>
          </g>
        </g>
        <g id="Grupo_927840" data-name="Grupo 927840" transform="translate(4.122 24.252)">
          <g id="Grupo_927838" data-name="Grupo 927838" transform="translate(6.786 7.775)">
            <path id="Trazado_710904" data-name="Trazado 710904" d="M655.236,422.79c-4.665-2.955-10.6,3.592-10.468,3.773q-.552,1.29-1.042,2.613c.819-.952,3.816-1.789,7.956-1.374C655.8,428.071,659.783,425.455,655.236,422.79Z" transform="translate(-643.726 -422.026)" fill="#fd9927"/>
          </g>
          <g id="Grupo_927839" data-name="Grupo 927839">
            <path id="Trazado_710905" data-name="Trazado 710905" d="M635.681,408.315c-4.678-2.741-5.846,4.58-2.642,7.529,3.043,3,4.8,5.525,4.9,6.769q.4-1.355.863-2.687C638.593,419.934,640.014,411.086,635.681,408.315Z" transform="translate(-631.232 -407.712)" fill="#fd9927"/>
          </g>
        </g>
        <g id="Grupo_927843" data-name="Grupo 927843" transform="translate(9.752 14.99)">
          <g id="Grupo_927841" data-name="Grupo 927841" transform="translate(4.917 9.807)">
            <path id="Trazado_710906" data-name="Trazado 710906" d="M663.038,409.995c-4.107-3.687-11.03,1.748-10.932,1.94q-.755,1.171-1.456,2.382c.962-.791,4.051-1.1,8.058.008C662.717,415.288,667.075,413.383,663.038,409.995Z" transform="translate(-650.65 -408.715)" fill="#fd9927"/>
          </g>
          <g id="Grupo_927842" data-name="Grupo 927842">
            <path id="Trazado_710907" data-name="Trazado 710907" d="M646.578,391.605c-4.156-3.482-6.519,3.525-3.848,6.959,2.5,3.459,3.817,6.233,3.714,7.467q.615-1.258,1.291-2.484C647.523,403.526,650.384,395.068,646.578,391.605Z" transform="translate(-641.598 -390.66)" fill="#fd9927"/>
          </g>
        </g>
        <g id="Grupo_927846" data-name="Grupo 927846" transform="translate(16.727 6.838)">
          <g id="Grupo_927844" data-name="Grupo 927844" transform="translate(3.093 11.443)">
            <path id="Trazado_710908" data-name="Trazado 710908" d="M673.077,398.659c-3.437-4.321-11.182-.105-11.112.1q-.94,1.027-1.831,2.1c1.079-.616,4.175-.4,7.939,1.358C671.862,403.836,676.486,402.678,673.077,398.659Z" transform="translate(-660.134 -396.718)" fill="#fd9927"/>
          </g>
          <g id="Grupo_927845" data-name="Grupo 927845">
            <path id="Trazado_710909" data-name="Trazado 710909" d="M660.024,376.97c-3.517-4.127-7.033,2.4-4.971,6.233,1.888,3.83,2.723,6.783,2.417,7.98q.815-1.135,1.685-2.231C658.944,388.9,663.19,381.027,660.024,376.97Z" transform="translate(-654.44 -375.65)" fill="#fd9927"/>
          </g>
        </g>
        <g id="Grupo_927849" data-name="Grupo 927849" transform="translate(24.899)">
          <g id="Grupo_927847" data-name="Grupo 927847" transform="translate(1.336 12.586)">
            <path id="Trazado_710910" data-name="Trazado 710910" d="M685.137,389.018c-2.665-4.84-11.068-1.946-11.025-1.738q-1.1.86-2.166,1.774c1.17-.43,4.192.291,7.614,2.656C683.027,393.94,687.815,393.556,685.137,389.018Z" transform="translate(-671.946 -386.233)" fill="#fd9927"/>
          </g>
          <g id="Grupo_927848" data-name="Grupo 927848">
            <path id="Trazado_710911" data-name="Trazado 710911" d="M675.75,364.776c-2.773-4.662-7.4,1.219-6.009,5.346,1.21,4.1,1.533,7.157,1.028,8.288q1-.986,2.044-1.926C672.6,376.4,678.172,369.312,675.75,364.776Z" transform="translate(-669.486 -363.062)" fill="#fd9927"/>
          </g>
        </g>
        <g id="Grupo_927850" data-name="Grupo 927850" transform="translate(32.333 0.919)">
          <path id="Trazado_710912" data-name="Trazado 710912" d="M683.726,374.3c-.143-.033,4.968-6.288,8.941-8.231,3.847-2.023,6.276.386,6.111,2.276-.134,1.9-2.872,3.2-5.345,3.793C690.942,372.525,683.723,374.165,683.726,374.3Z" transform="translate(-683.424 -365.004)" fill="#fd9927"/>
          <path id="Trazado_710913" data-name="Trazado 710913" d="M683.445,374.349l-.04-.006a.309.309,0,0,1-.233-.263.142.142,0,0,1,0-.03.219.219,0,0,1,.092-.218c.732-1.3,5.6-6.614,9.018-8.284,1.9-1,3.757-1.058,5.1-.165a3.082,3.082,0,0,1,1.446,2.738c-.181,2.575-4.314,3.758-5.575,4.059-2.43.379-9,1.876-9.6,2.112A.3.3,0,0,1,683.445,374.349Zm12.1-8.983a5.323,5.323,0,0,0-2.992.718c-3.135,1.534-6.94,5.736-8.3,7.4.613-.159,1.572-.381,3.071-.718,1.933-.434,4.473-.972,5.808-1.18,2.37-.566,4.969-1.791,5.091-3.517a2.478,2.478,0,0,0-1.178-2.189A3.259,3.259,0,0,0,695.548,365.366Z" transform="translate(-683.172 -364.754)" fill="#fd9927"/>
        </g>
      </g>
      <g id="Grupo_927869" data-name="Grupo 927869">
        <g id="Grupo_927852" data-name="Grupo 927852" transform="translate(11.306 7.521)">
          <path id="Trazado_710914" data-name="Trazado 710914" d="M76.728,425.347a.454.454,0,0,0,.41-.462A57.623,57.623,0,0,0,48.5,376.52a.453.453,0,1,0-.453.785,56.713,56.713,0,0,1,28.181,47.6.454.454,0,0,0,.464.443Z" transform="translate(-47.822 -376.458)" fill="#fd9927"/>
        </g>
        <g id="Grupo_927855" data-name="Grupo 927855" transform="translate(26.745 34.561)">
          <g id="Grupo_927853" data-name="Grupo 927853" transform="translate(0 5.451)">
            <path id="Trazado_710915" data-name="Trazado 710915" d="M78.672,436.662c5.118-2.15,9.9,5.427,9.744,5.595q.331,1.391.591,2.809c-.65-1.1-3.478-2.471-7.649-2.779C77.234,441.831,73.72,438.53,78.672,436.662Z" transform="translate(-76.247 -436.278)" fill="#fd9927"/>
          </g>
          <g id="Grupo_927854" data-name="Grupo 927854" transform="translate(12.438)">
            <path id="Trazado_710916" data-name="Trazado 710916" d="M104.183,426.556c5.1-1.929,5.033,5.58,1.361,7.981-3.517,2.472-5.685,4.7-6,5.932q-.165-1.433-.4-2.851C99.358,437.653,99.427,428.561,104.183,426.556Z" transform="translate(-99.146 -426.243)" fill="#fd9927"/>
          </g>
        </g>
        <g id="Grupo_927858" data-name="Grupo 927858" transform="translate(23.661 24.357)">
          <g id="Grupo_927856" data-name="Grupo 927856" transform="translate(0 7.808)">
            <path id="Trazado_710917" data-name="Trazado 710917" d="M72.6,422.6c4.685-2.969,10.642,3.608,10.514,3.79q.555,1.3,1.046,2.625c-.822-.957-3.832-1.8-7.99-1.38C72.034,427.9,68.032,425.276,72.6,422.6Z" transform="translate(-70.57 -421.832)" fill="#fd9927"/>
          </g>
          <g id="Grupo_927857" data-name="Grupo 927857" transform="translate(12.737)">
            <path id="Trazado_710918" data-name="Trazado 710918" d="M97.22,408.061c4.7-2.753,5.872,4.6,2.653,7.562-3.055,3.012-4.822,5.549-4.925,6.8q-.4-1.361-.866-2.7C94.295,419.732,92.868,410.845,97.22,408.061Z" transform="translate(-94.02 -407.456)" fill="#fd9927"/>
          </g>
        </g>
        <g id="Grupo_927861" data-name="Grupo 927861" transform="translate(19.415 15.055)">
          <g id="Grupo_927859" data-name="Grupo 927859" transform="translate(0 9.85)">
            <path id="Trazado_710919" data-name="Trazado 710919" d="M64.368,409.749c4.126-3.7,11.079,1.756,10.98,1.949q.759,1.176,1.462,2.392c-.966-.794-4.069-1.106-8.093.008C64.692,415.065,60.314,413.152,64.368,409.749Z" transform="translate(-62.753 -408.464)" fill="#fd9927"/>
          </g>
          <g id="Grupo_927860" data-name="Grupo 927860" transform="translate(11.994)">
            <path id="Trazado_710920" data-name="Trazado 710920" d="M86.835,391.279c4.174-3.5,6.547,3.541,3.865,6.989-2.513,3.475-3.834,6.26-3.73,7.5q-.618-1.263-1.3-2.495C85.886,403.252,83.013,394.757,86.835,391.279Z" transform="translate(-84.836 -390.329)" fill="#fd9927"/>
          </g>
        </g>
        <g id="Grupo_927864" data-name="Grupo 927864" transform="translate(14.105 6.867)">
          <g id="Grupo_927862" data-name="Grupo 927862" transform="translate(0 11.493)">
            <path id="Trazado_710921" data-name="Trazado 710921" d="M54.172,398.364c3.452-4.34,11.231-.106,11.161.1q.944,1.032,1.838,2.111c-1.084-.62-4.193-.407-7.973,1.364C55.392,403.563,50.747,402.4,54.172,398.364Z" transform="translate(-52.977 -396.415)" fill="#fd9927"/>
          </g>
          <g id="Grupo_927863" data-name="Grupo 927863" transform="translate(10.509)">
            <path id="Trazado_710922" data-name="Trazado 710922" d="M73.508,376.581c3.532-4.146,7.064,2.412,4.993,6.259-1.9,3.847-2.735,6.813-2.427,8.015q-.817-1.14-1.692-2.24C74.593,388.563,70.329,380.655,73.508,376.581Z" transform="translate(-72.326 -375.255)" fill="#fd9927"/>
          </g>
        </g>
        <g id="Grupo_927867" data-name="Grupo 927867" transform="translate(7.823)">
          <g id="Grupo_927865" data-name="Grupo 927865" transform="translate(0 12.64)">
            <path id="Trazado_710923" data-name="Trazado 710923" d="M42.195,388.681c2.676-4.861,11.116-1.954,11.073-1.745q1.11.864,2.175,1.782c-1.175-.432-4.21.293-7.648,2.668C44.314,393.625,39.5,393.238,42.195,388.681Z" transform="translate(-41.41 -385.884)" fill="#fd9927"/>
          </g>
          <g id="Grupo_927866" data-name="Grupo 927866" transform="translate(8.469)">
            <path id="Trazado_710924" data-name="Trazado 710924" d="M57.617,364.334c2.786-4.682,7.431,1.224,6.035,5.369-1.215,4.117-1.539,7.188-1.032,8.324q-1-.99-2.054-1.934C60.777,376.01,55.184,368.889,57.617,364.334Z" transform="translate(-57.003 -362.612)" fill="#fd9927"/>
          </g>
        </g>
        <g id="Grupo_927868" data-name="Grupo 927868" transform="translate(0 0.923)">
          <path id="Trazado_710925" data-name="Trazado 710925" d="M42.69,373.9c.144-.033-4.99-6.315-8.98-8.267-3.863-2.032-6.3.387-6.138,2.286.135,1.911,2.884,3.216,5.368,3.81C35.443,372.116,42.692,373.763,42.69,373.9Z" transform="translate(-27.262 -364.562)" fill="#fd9927"/>
          <path id="Trazado_710926" data-name="Trazado 710926" d="M42.464,373.948a.271.271,0,0,0,.04-.006.31.31,0,0,0,.234-.264.14.14,0,0,0,0-.03.219.219,0,0,0-.093-.219c-.735-1.306-5.629-6.643-9.057-8.319-1.9-1-3.773-1.062-5.12-.166a3.1,3.1,0,0,0-1.452,2.75c.182,2.586,4.332,3.775,5.6,4.077,2.441.381,9.039,1.884,9.64,2.12A.3.3,0,0,0,42.464,373.948Zm-12.155-9.022a5.338,5.338,0,0,1,3,.722c3.148,1.54,6.97,5.761,8.337,7.435-.616-.16-1.579-.382-3.086-.721-1.941-.436-4.492-.977-5.833-1.185-2.38-.569-4.991-1.8-5.113-3.532a2.49,2.49,0,0,1,1.184-2.2A3.275,3.275,0,0,1,30.309,364.926Z" transform="translate(-27.007 -364.311)" fill="#fd9927"/>
        </g>
      </g>
      <g id="Grupo_927887" data-name="Grupo 927887" transform="translate(48.565 22.26)">
        <g id="Grupo_927870" data-name="Grupo 927870" transform="translate(4.592 4.553)">
          <path id="Trazado_710927" data-name="Trazado 710927" d="M125.122,441.575a.275.275,0,0,1-.248-.279,34.884,34.884,0,0,1,17.336-29.281.275.275,0,0,1,.274.476,34.334,34.334,0,0,0-17.061,28.817.275.275,0,0,1-.28.269Z" transform="translate(-124.874 -411.978)" fill="#fd9927"/>
        </g>
        <g id="Grupo_927873" data-name="Grupo 927873" transform="translate(0 20.923)">
          <g id="Grupo_927871" data-name="Grupo 927871" transform="translate(5.268 3.3)">
            <path id="Trazado_710928" data-name="Trazado 710928" d="M132.376,448.425c-3.1-1.3-6,3.285-5.9,3.387q-.2.842-.358,1.7c.393-.668,2.105-1.5,4.63-1.682C133.246,451.554,135.373,449.556,132.376,448.425Z" transform="translate(-126.119 -448.192)" fill="#fd9927"/>
          </g>
          <g id="Grupo_927872" data-name="Grupo 927872">
            <path id="Trazado_710929" data-name="Trazado 710929" d="M118.833,442.307c-3.085-1.168-3.047,3.378-.824,4.831,2.129,1.5,3.441,2.845,3.63,3.591q.1-.868.243-1.726C121.754,449.025,121.713,443.521,118.833,442.307Z" transform="translate(-116.42 -442.117)" fill="#fd9927"/>
          </g>
        </g>
        <g id="Grupo_927876" data-name="Grupo 927876" transform="translate(2.506 14.746)">
          <g id="Grupo_927874" data-name="Grupo 927874" transform="translate(4.126 4.727)">
            <path id="Trazado_710930" data-name="Trazado 710930" d="M135.629,439.912c-2.836-1.8-6.442,2.185-6.365,2.294q-.336.785-.634,1.589c.5-.579,2.32-1.088,4.837-.835C135.972,443.123,138.394,441.532,135.629,439.912Z" transform="translate(-128.631 -439.447)" fill="#fd9927"/>
          </g>
          <g id="Grupo_927875" data-name="Grupo 927875">
            <path id="Trazado_710931" data-name="Trazado 710931" d="M123.739,431.111c-2.844-1.666-3.555,2.785-1.606,4.578,1.85,1.823,2.919,3.359,2.982,4.115q.242-.825.524-1.634C125.51,438.175,126.374,432.8,123.739,431.111Z" transform="translate(-121.035 -430.744)" fill="#fd9927"/>
          </g>
        </g>
        <g id="Grupo_927879" data-name="Grupo 927879" transform="translate(5.929 9.115)">
          <g id="Grupo_927877" data-name="Grupo 927877" transform="translate(2.989 5.963)">
            <path id="Trazado_710932" data-name="Trazado 710932" d="M140.373,432.132c-2.5-2.242-6.707,1.063-6.647,1.18q-.46.712-.885,1.448c.586-.481,2.463-.67,4.9,0C140.178,435.35,142.828,434.192,140.373,432.132Z" transform="translate(-132.841 -431.354)" fill="#fd9927"/>
          </g>
          <g id="Grupo_927878" data-name="Grupo 927878">
            <path id="Trazado_710933" data-name="Trazado 710933" d="M130.366,420.951c-2.527-2.117-3.964,2.143-2.34,4.231,1.521,2.1,2.321,3.79,2.258,4.54q.373-.765.785-1.511C130.94,428.2,132.679,423.056,130.366,420.951Z" transform="translate(-127.337 -420.376)" fill="#fd9927"/>
          </g>
        </g>
        <g id="Grupo_927882" data-name="Grupo 927882" transform="translate(10.171 4.158)">
          <g id="Grupo_927880" data-name="Grupo 927880" transform="translate(1.881 6.958)">
            <path id="Trazado_710934" data-name="Trazado 710934" d="M146.477,425.24c-2.089-2.627-6.8-.064-6.756.058q-.572.624-1.113,1.277c.656-.375,2.538-.246,4.827.826C145.738,428.387,148.55,427.683,146.477,425.24Z" transform="translate(-138.608 -424.06)" fill="#fd9927"/>
          </g>
          <g id="Grupo_927881" data-name="Grupo 927881">
            <path id="Trazado_710935" data-name="Trazado 710935" d="M138.541,412.052c-2.138-2.51-4.277,1.461-3.023,3.79,1.148,2.328,1.656,4.124,1.469,4.852q.5-.69,1.025-1.356C137.884,419.306,140.465,414.518,138.541,412.052Z" transform="translate(-135.146 -411.25)" fill="#fd9927"/>
          </g>
        </g>
        <g id="Grupo_927885" data-name="Grupo 927885" transform="translate(15.14)">
          <g id="Grupo_927883" data-name="Grupo 927883" transform="translate(0.812 7.653)">
            <path id="Trazado_710936" data-name="Trazado 710936" d="M153.81,419.378c-1.62-2.943-6.73-1.183-6.7-1.056q-.671.523-1.317,1.079c.711-.262,2.549.177,4.63,1.615C152.527,422.37,155.438,422.136,153.81,419.378Z" transform="translate(-145.79 -417.684)" fill="#fd9927"/>
          </g>
          <g id="Grupo_927884" data-name="Grupo 927884">
            <path id="Trazado_710937" data-name="Trazado 710937" d="M148.1,404.637c-1.686-2.835-4.5.741-3.654,3.251.735,2.493.932,4.352.625,5.039q.606-.6,1.243-1.17C146.19,411.706,149.576,407.4,148.1,404.637Z" transform="translate(-144.294 -403.595)" fill="#fd9927"/>
          </g>
        </g>
        <g id="Grupo_927886" data-name="Grupo 927886" transform="translate(19.659 0.559)">
          <path id="Trazado_710938" data-name="Trazado 710938" d="M152.952,410.428c-.087-.021,3.021-3.824,5.436-5.005,2.339-1.23,3.816.235,3.716,1.384-.081,1.157-1.746,1.947-3.25,2.306C157.34,409.349,152.951,410.346,152.952,410.428Z" transform="translate(-152.769 -404.776)" fill="#fd9927"/>
          <path id="Trazado_710939" data-name="Trazado 710939" d="M152.782,410.458l-.024,0a.188.188,0,0,1-.142-.16.073.073,0,0,1,0-.018.133.133,0,0,1,.056-.133,19.518,19.518,0,0,1,5.483-5.036,3.012,3.012,0,0,1,3.1-.1,1.874,1.874,0,0,1,.879,1.665c-.11,1.566-2.623,2.285-3.39,2.468-1.477.231-5.472,1.141-5.836,1.284A.182.182,0,0,1,152.782,410.458ZM160.14,405a3.238,3.238,0,0,0-1.819.437,19.6,19.6,0,0,0-5.047,4.5c.373-.1.956-.232,1.868-.437,1.175-.264,2.72-.591,3.532-.717,1.44-.344,3.021-1.089,3.1-2.138a1.507,1.507,0,0,0-.716-1.331A1.983,1.983,0,0,0,160.14,405Z" transform="translate(-152.615 -404.624)" fill="#fd9927"/>
        </g>
      </g>
    </g>
    <g id="Scaffold" transform="translate(28.788 148.823)">
      <g id="Grupo_927888" data-name="Grupo 927888">
        <line id="Línea_1222" data-name="Línea 1222" x2="196.43" y2="92.877" transform="translate(8.54 15.302)" fill="none" stroke="#263238" stroke-linecap="round" stroke-linejoin="round" stroke-width="6"/>
        <line id="Línea_1223" data-name="Línea 1223" x1="196.43" y2="92.877" transform="translate(8.54 15.302)" fill="none" stroke="#263238" stroke-linecap="round" stroke-linejoin="round" stroke-width="6"/>
        <rect id="Rectángulo_321833" data-name="Rectángulo 321833" width="3.558" height="114.584" transform="translate(6.405 2.135)" fill="#263238" stroke="#263238" stroke-linecap="round" stroke-linejoin="round" stroke-width="1"/>
        <rect id="Rectángulo_321834" data-name="Rectángulo 321834" width="3.558" height="114.584" transform="translate(203.191 2.135)" fill="#263238" stroke="#263238" stroke-linecap="round" stroke-linejoin="round" stroke-width="1"/>
        <rect id="Rectángulo_321835" data-name="Rectángulo 321835" width="3.558" height="114.584" transform="translate(107.111 2.135)" fill="#263238" stroke="#263238" stroke-linecap="round" stroke-linejoin="round" stroke-width="1"/>
        <rect id="Rectángulo_321836" data-name="Rectángulo 321836" width="216.713" height="4.27" fill="#263238" stroke="#263238" stroke-linecap="round" stroke-linejoin="round" stroke-width="1"/>
      </g>
    </g>
    <g id="Gears" transform="translate(240.697 34.213)">
      <path id="Trazado_710940" data-name="Trazado 710940" d="M647.221,74.526l1.769-3.712-3.058-2.168c.034-.1.073-.207.106-.314a20.289,20.289,0,0,0,.917-5.8l3.508-1.079-.519-4.079-3.635-.166a20.4,20.4,0,0,0-2.5-5.762l2.313-2.74-2.642-3.151-3.084,1.79a20.151,20.151,0,0,0-5.274-3.5l.46-3.515-3.926-1.223-1.624,3.167a20.18,20.18,0,0,0-6.328-.078l-1.519-3.216-3.964,1.094.351,3.592a20.417,20.417,0,0,0-5.3,3.348l-3.085-1.927-2.743,3.064,2.293,2.9a20.3,20.3,0,0,0-2.476,5.2c-.042.136-.077.273-.116.41l-3.751.048-.651,4.06,3.6,1.238a20.2,20.2,0,0,0,.83,6.033l-3.209,2.122,1.647,3.768,3.793-.928a20.308,20.308,0,0,0,3.893,4.587l-1.581,3.582,3.423,2.279,2.714-2.859a20.318,20.318,0,0,0,5.729,1.772l.609,3.877,4.111.067.734-3.854a20.3,20.3,0,0,0,5.809-1.593l2.579,2.9,3.5-2.167-1.438-3.571a20.192,20.192,0,0,0,4.1-4.522Zm-6.808-6.932a14.738,14.738,0,1,1,.915-3.842" transform="translate(-506.687 -38.982)" fill="none" stroke="#263238" stroke-miterlimit="10" stroke-width="0.75"/>
      <path id="Trazado_710941" data-name="Trazado 710941" d="M598.482,145.783l1.769-3.712-3.058-2.168c.035-.1.074-.207.107-.314a20.308,20.308,0,0,0,.917-5.8l3.508-1.079-.519-4.079-3.635-.166a20.388,20.388,0,0,0-2.5-5.762l2.313-2.74-2.642-3.151-3.085,1.789a20.148,20.148,0,0,0-5.273-3.5l.459-3.515-3.926-1.223-1.624,3.167a20.181,20.181,0,0,0-6.328-.078l-1.519-3.216-3.964,1.094.35,3.593a20.4,20.4,0,0,0-5.3,3.347l-3.085-1.927-2.743,3.063,2.293,2.9a20.32,20.32,0,0,0-2.476,5.2c-.042.136-.077.273-.116.41l-3.75.048-.651,4.06,3.6,1.238a20.218,20.218,0,0,0,.829,6.033l-3.209,2.122,1.647,3.768,3.793-.928a20.31,20.31,0,0,0,3.893,4.587l-1.58,3.582,3.422,2.279,2.714-2.859a20.354,20.354,0,0,0,5.729,1.773l.608,3.876,4.112.067.734-3.854a20.3,20.3,0,0,0,5.809-1.592l2.579,2.9,3.5-2.167-1.438-3.571a20.216,20.216,0,0,0,4.095-4.522Zm-6.809-6.932a14.736,14.736,0,1,1,.916-3.842" transform="translate(-484.421 -71.536)" fill="none" stroke="#263238" stroke-miterlimit="10" stroke-width="0.75"/>
      <g id="Grupo_927889" data-name="Grupo 927889" transform="translate(0 193.517)">
        <path id="Trazado_710942" data-name="Trazado 710942" d="M513.123,433.424l-.544-4.275-6.695-.3a37.566,37.566,0,0,0-4.6-10.613l4.26-5.046-4.866-5.8-5.68,3.3a37.124,37.124,0,0,0-9.712-6.45l.846-6.473L478.9,395.5l-2.991,5.832a37.142,37.142,0,0,0-11.653-.143l-2.8-5.923-7.3,2.015.646,6.616a37.573,37.573,0,0,0-9.765,6.165l-5.681-3.548-5.052,5.642,4.222,5.346a37.4,37.4,0,0,0-4.56,9.579c-.078.251-.142.5-.214.754l-6.907.09-.96,5.982m17-.2a27.164,27.164,0,0,1,53.556-.131" transform="translate(-425.892 -395.27)" fill="none" stroke="#263238" stroke-miterlimit="10" stroke-width="0.75"/>
      </g>
    </g>
    <g id="Floor" transform="translate(18.056 266.1)">
      <line id="Línea_1224" data-name="Línea 1224" x1="392.48" fill="none" stroke="#263238" stroke-linecap="round" stroke-linejoin="round" stroke-width="0.75"/>
    </g>
    <g id="Arrow" transform="translate(95.361 127.237)">
      <g id="Grupo_927891" data-name="Grupo 927891" transform="translate(0 0)">
        <g id="Grupo_927890" data-name="Grupo 927890" transform="translate(2.6 2.889)">
          <path id="Trazado_710943" data-name="Trazado 710943" d="M386.036,215.569l2,7.106L163.1,285.911l18.257,64.942-1.664.442.154.171h12.115l215.266-60.519,2,7.105,53.713-59.6Z" transform="translate(-163.1 -215.569)" fill="#4dd0e1" stroke="#263238" stroke-linecap="round" stroke-linejoin="round" stroke-width="0.75"/>
          <path id="Trazado_710944" data-name="Trazado 710944" d="M667.771,255.266l-2.6-2.889-53.713,59.6,2.6,2.889Z" transform="translate(-367.932 -232.385)" fill="#4dd0e1" stroke="#263238" stroke-linecap="round" stroke-linejoin="round" stroke-width="0.75"/>
        </g>
        <path id="Trazado_710945" data-name="Trazado 710945" d="M381.248,210.249l2,7.105L158.312,280.592l19.194,68.273L402.44,285.628l2,7.105,53.712-59.6Zm68.324,27.882a2.314,2.314,0,1,1,2.314-2.314A2.314,2.314,0,0,1,449.572,238.131Z" transform="translate(-158.312 -210.249)" fill="#0b5999" stroke="#263238" stroke-linecap="round" stroke-linejoin="round" stroke-width="0.75"/>
      </g>
    </g>
    <g id="Characters" transform="translate(42.908 37.793)">
      <g id="Grupo_927906" data-name="Grupo 927906" transform="translate(0 0)">
        <path id="Trazado_710957" data-name="Trazado 710957" d="M284.095,114.877l1.845-.455s.933-.466.818-.9-1.15-.034-1.15-.034-2.23-.735-2.49-.789-1.76,1.268-1.76,1.268l-1.211,1.246s-1.425-.023-1.495.643,0,1.974.638,2.174a29.1,29.1,0,0,0,4.222-.009Z" transform="translate(-160.826 -76.24)" fill="#fff" stroke="#263238" stroke-linecap="round" stroke-linejoin="round" stroke-width="0.75"/>
        <g id="Grupo_927893" data-name="Grupo 927893" transform="translate(68.93 21.059)">
          <path id="Trazado_710958" data-name="Trazado 710958" d="M197.693,145.208l2.953,26.1s-4.28,4.525-5.381,6.6-3.787,13.722-3.787,13.722a1.777,1.777,0,0,0-.612,1.468,4.764,4.764,0,0,1,0,1.468s-2.079,3.547-2.2,5.5.489,2.446,1.223,2.446,2.813-.367,3.669-3.425a46.249,46.249,0,0,0,1.223-6.115s.612-.978,1.1-1.712a14.4,14.4,0,0,0,.734-1.59c.244-.367,12.1-17.513,12.347-18.247s1.957-18.222,1.957-18.222l10.64,17.978s.244,7.215,1.1,8.316,8.655,14.33,8.655,14.33-.734.734-.367,1.1,1.834,2.812,1.834,2.812a8.976,8.976,0,0,0,.489,2.691c.367.489,2.935.489,2.935.489a27.232,27.232,0,0,0,5.993,1.1c2.324,0,2.324-.734.978-1.835a63.7,63.7,0,0,0-5.748-3.546,24.271,24.271,0,0,0-.856-3.669c-.367-.734-.612-.856-.734-1.59s-7.676-22.768-7.676-22.768l-1.223-4.158s-1.712-8.561-3.547-14.431-3.452-7.371-3.452-7.371Z" transform="translate(-188.649 -110.987)" fill="#263238" stroke="#263238" stroke-linecap="round" stroke-linejoin="round" stroke-width="0.75"/>
          <path id="Trazado_710959" data-name="Trazado 710959" d="M234.72,90.035l11.259,13.747L259.067,105l-.216,2.678s-15.087,2.519-15.647,2.267-7.9-7.588-7.9-7.588S232.57,92.845,234.72,90.035Z" transform="translate(-209.32 -86.944)" fill="#0b5999" stroke="#263238" stroke-linecap="round" stroke-linejoin="round" stroke-width="0.75"/>
          <path id="Trazado_710960" data-name="Trazado 710960" d="M218.273,94.62l.283,11.407,5.185,9.992-22.248,2.546.377-10.653-4.9-8.108,6.6-15.46S217.707,86.8,217.9,87.456s.377,4.054.377,4.054" transform="translate(-192.449 -84.345)" fill="#0b5999" stroke="#263238" stroke-linecap="round" stroke-linejoin="round" stroke-width="0.75"/>
        </g>
        <path id="Trazado_710961" data-name="Trazado 710961" d="M410.281,100.115l1.714-.82s.819-.646.619-1.046-1.133.2-1.133.2-2.332-.267-2.6-.267-1.466,1.6-1.466,1.6l-.933,1.466s-1.4.267-1.333.933.4,1.933,1.066,2a29.05,29.05,0,0,0,4.132-.866Z" transform="translate(-218.626 -69.575)" fill="#fff" stroke="#263238" stroke-linecap="round" stroke-linejoin="round" stroke-width="0.75"/>
        <g id="Grupo_927895" data-name="Grupo 927895" transform="translate(124.737)">
          <path id="Trazado_710962" data-name="Trazado 710962" d="M320.264,143.11l1.787,23.991-9.164,21.341a1.783,1.783,0,0,0-1,.879,14.684,14.684,0,0,0-.5,1.883s-2.762,6.277-2.385,8.034,2.134,1.883,3.892.251a8.293,8.293,0,0,0,2.134-5.4,8.5,8.5,0,0,1,.125-1.507,4.425,4.425,0,0,0,1.256-1.13,15.311,15.311,0,0,0,.878-2.134c.126-.5,13.81-18.956,13.935-19.835s1.883-12.93,1.883-12.93l9.792,13.182s4.9,14.437,6.654,17.952a39.689,39.689,0,0,1,2.511,6.152s-.879.879-.628,1.506,1,2.26,1,2.26l.125,1.381s.125.753,1.507,1,6.779-.125,7.783-.125,3.766-.879,3.766-1.507-1.13-.5-2.26-.753-5.523-3.264-5.523-3.264l.125-1.506-1-1.883-6.026-26.112L340.883,143l-1.381-2.636Z" transform="translate(-299.42 -88.877)" fill="#263238" stroke="#263238" stroke-linecap="round" stroke-linejoin="round" stroke-width="0.75"/>
          <path id="Trazado_710963" data-name="Trazado 710963" d="M361.466,82.911l11.019,13.654L385.546,95.1l1.808,1.776s-15.736,6.421-16.335,6.287-9-7.931-9-7.931S359.309,85.717,361.466,82.911Z" transform="translate(-323.027 -62.631)" fill="#b0c0d2" stroke="#263238" stroke-linecap="round" stroke-linejoin="round" stroke-width="0.75"/>
          <path id="Trazado_710964" data-name="Trazado 710964" d="M340.152,86.243s1.807,25.964,2.188,26.439a2.527,2.527,0,0,1,.38,1.807c-.1.475-3.233,1.141-4.089,1.141s-13.981,1.807-13.981,1.807a3.136,3.136,0,0,1-2-.666c-.571-.665-.381-2.853-.381-2.853l-8.084-25.2,9.891-5.135s15.978-1.237,16.168-.761a4.956,4.956,0,0,1,0,1.712" transform="translate(-301.808 -62.539)" fill="#b0c0d2" stroke="#263238" stroke-linecap="round" stroke-linejoin="round" stroke-width="0.75"/>
          <path id="Trazado_710965" data-name="Trazado 710965" d="M331.694,81.161s-1.426.57-1.236,1.807a49.382,49.382,0,0,0,1.617,5.136l5.04-4.09,6.087,2.378s-2.283-4.279-3.709-5.516S333.6,79.449,331.694,81.161Z" transform="translate(-309.233 -61.261)" fill="#fff" stroke="#263238" stroke-linecap="round" stroke-linejoin="round" stroke-width="0.75"/>
          <g id="Grupo_927894" data-name="Grupo 927894" transform="translate(15.957)">
            <path id="Trazado_710966" data-name="Trazado 710966" d="M337.9,52.161s1.617,2,1.712,2.948.476,3.139.476,3.139,1.9,1.807,1.711,2.472-1.616,1.427-1.616,1.427-.381,4.089-.761,4.375A16.27,16.27,0,0,1,336,66.9s1.141,6.847.19,6.562-6.277-4.85-6.562-5.04-.285-3.9-.285-3.9l-3.424-4.089s1.237-5.516,3.9-7.228S337.9,52.161,337.9,52.161Z" transform="translate(-323.125 -48.524)" fill="#fff" stroke="#263238" stroke-linecap="round" stroke-linejoin="round" stroke-width="0.75"/>
            <path id="Trazado_710967" data-name="Trazado 710967" d="M335.933,46.832a5.741,5.741,0,0,1-.856,3.9,13.511,13.511,0,0,1-3.614,3.233,4.512,4.512,0,0,1-.1,1.9c-.285.476-.476.571-.856.381s-1.046-1.237-1.807-1.142a2.328,2.328,0,0,0-1.522,2.568c.286,1.141,2.188,1.9,2.188,1.9s.57,2.283-.666,3.138-1.712.381-1.712.381l-.19-.761a4.587,4.587,0,0,1-1.617.666,4.48,4.48,0,0,1-2.853-1.332,4.171,4.171,0,0,1,.285-1.807,23.049,23.049,0,0,1-1.806-5.326c-.191-1.9.342-5.36,2-6.943,2.187-2.092,8.084-1.521,8.75-1.331S335.552,44.264,335.933,46.832Z" transform="translate(-320.774 -45.573)" fill="#263238" stroke="#263238" stroke-linecap="round" stroke-linejoin="round" stroke-width="0.75"/>
          </g>
          <path id="Trazado_710971" data-name="Trazado 710971" d="M303.759,93.725,291.4,111.247l6.94-1.345,8.1-7.718Z" transform="translate(-291.396 -67.571)" fill="#b0c0d2" stroke="#263238" stroke-linecap="round" stroke-linejoin="round" stroke-width="0.75"/>
        </g>
        <path id="Trazado_710972" data-name="Trazado 710972" d="M436.237,177.294l-23.1-98.923L156.86,107.547s-2.756,2.231-3.218,4.08,0,58.468,0,58.468a3.39,3.39,0,0,1-3.236,2.311H127.528" transform="translate(-91.796 -60.557)" fill="none" stroke="#263238" stroke-linecap="round" stroke-linejoin="round" stroke-width="2"/>
        <g id="Grupo_927896" data-name="Grupo 927896" transform="translate(119.324 38.182)">
          <path id="Trazado_710973" data-name="Trazado 710973" d="M287.219,115.871s-5.848.477-5.788,1.279a4.165,4.165,0,0,0,.655,2.277c.388.306,5.475.234,5.8-.262S288.106,115.942,287.219,115.871Z" transform="translate(-281.43 -115.871)" fill="#fff" stroke="#263238" stroke-linecap="round" stroke-linejoin="round" stroke-width="0.75"/>
        </g>
        <g id="Grupo_927897" data-name="Grupo 927897" transform="translate(124.445 35.35)">
          <path id="Trazado_710974" data-name="Trazado 710974" d="M311.616,111.337a14.817,14.817,0,0,1,3.042-.671,34.059,34.059,0,0,1,4,2.37,2.51,2.51,0,0,1-.474.857c-.38.476-1.331.383-1.711.383a17.229,17.229,0,0,0-2.85,1.812c-.57.381-3.33-.754-3.711-.944a7.791,7.791,0,0,0-1.047-.379s-12.479,6.49-13.43,6.872-4.377-1.229-4.569-1.989,3.511-4.382,4.271-4.763S311.616,111.337,311.616,111.337Z" transform="translate(-290.859 -110.657)" fill="#b0c0d2" stroke="#263238" stroke-linecap="round" stroke-linejoin="round" stroke-width="0.75"/>
          <path id="Trazado_710975" data-name="Trazado 710975" d="M328.446,116.088a17.226,17.226,0,0,1,2.85-1.812c.38,0,1.331.093,1.711-.383a2.511,2.511,0,0,0,.474-.857,34.056,34.056,0,0,0-4-2.37,14.818,14.818,0,0,0-3.042.671s-1.135.156-2.758.386c0,.01-.849,2.19.006,3.043a7.791,7.791,0,0,1,1.047.379C325.116,115.334,327.876,116.469,328.446,116.088Z" transform="translate(-305.682 -110.657)" fill="#fff" stroke="#263238" stroke-linecap="round" stroke-linejoin="round" stroke-width="0.75"/>
        </g>
        <path id="Trazado_710976" data-name="Trazado 710976" d="M413.2,100.287s-5.629,1.656-5.408,2.428.662,1.877,1.1,2.1,5.408-.883,5.629-1.435S414.083,100.176,413.2,100.287Z" transform="translate(-219.832 -70.568)" fill="#fff" stroke="#263238" stroke-linecap="round" stroke-linejoin="round" stroke-width="0.75"/>
        <g id="Grupo_927898" data-name="Grupo 927898" transform="translate(70.243 33.503)">
          <path id="Trazado_710977" data-name="Trazado 710977" d="M215.377,114.79a14.858,14.858,0,0,0-3.1.328s-14,.326-14.8.621l.094-8.485-6.5.66L192.215,119c.106.777-.251,3.42.736,3.145s16.21-3.931,16.21-3.931a7.777,7.777,0,0,1,1,.493c.357.23,2.974,1.667,3.583,1.352a17.235,17.235,0,0,1,3.034-1.483c.379.041,1.313.24,1.744-.191a2.514,2.514,0,0,0,.567-.8A34.046,34.046,0,0,0,215.377,114.79Z" transform="translate(-191.066 -107.255)" fill="#0b5999" stroke="#263238" stroke-linecap="round" stroke-linejoin="round" stroke-width="0.75"/>
          <path id="Trazado_710978" data-name="Trazado 710978" d="M228.739,126.376a17.235,17.235,0,0,1,3.034-1.483c.379.041,1.313.24,1.744-.191a2.514,2.514,0,0,0,.566-.8,34.046,34.046,0,0,0-3.71-2.8,14.858,14.858,0,0,0-3.1.328s-1.146.029-2.784.077c0,.009-1.088,2.082-.333,3.024a7.785,7.785,0,0,1,1,.493C225.514,125.254,228.13,126.691,228.739,126.376Z" transform="translate(-206.062 -113.567)" fill="#fff" stroke="#263238" stroke-linecap="round" stroke-linejoin="round" stroke-width="0.75"/>
        </g>
        <g id="Grupo_927900" data-name="Grupo 927900" transform="translate(56.562 2.206)">
          <path id="Trazado_710979" data-name="Trazado 710979" d="M212.869,88.288s.569,5.465.911,5.351,3.074-2.5,3.074-2.5l4.1,1.708s-1.908-6.477-2.434-7.223S211.959,82.937,212.869,88.288Z" transform="translate(-187.303 -65.635)" fill="#fff" stroke="#263238" stroke-linecap="round" stroke-linejoin="round" stroke-width="0.75"/>
          <g id="Grupo_927899" data-name="Grupo 927899">
            <path id="Trazado_710980" data-name="Trazado 710980" d="M224.217,70.078s.095,1.791.566,1.32a6.017,6.017,0,0,0,.848-1.98Z" transform="translate(-192.53 -58.673)" fill="#fff" stroke="#263238" stroke-linecap="round" stroke-linejoin="round" stroke-width="0.75"/>
            <path id="Trazado_710981" data-name="Trazado 710981" d="M227.322,63.739a10.327,10.327,0,0,1,0,3.111A14.657,14.657,0,0,1,226,69.584c0,.282.188,2.262.188,2.734s0,.754-.66.848a10.635,10.635,0,0,1-1.32.095,17.591,17.591,0,0,1-2.168,3.394c-.66.471-3.771-.943-3.771-.943s-.377,7.919-1.32,7.825-3.865-6.787-3.865-6.787-.754-2.263-.848-2.923,1.791-5.562,3.677-7.448S225.436,61.571,227.322,63.739Z" transform="translate(-187.056 -55.728)" fill="#fff" stroke="#263238" stroke-linecap="round" stroke-linejoin="round" stroke-width="0.75"/>
            <path id="Trazado_710982" data-name="Trazado 710982" d="M221.684,85.317,219.7,84l.943,3.959Z" transform="translate(-190.469 -65.333)" fill="#263238" stroke="#263238" stroke-linecap="round" stroke-linejoin="round" stroke-width="0.75"/>
            <path id="Trazado_710986" data-name="Trazado 710986" d="M208.595,53.875a13.849,13.849,0,0,1-2.451,3.771c-1.6,1.7-5.939,2.639-7.731,3.582a10.317,10.317,0,0,0-5.185,5.373,20.289,20.289,0,0,0-1.414,8.013,17.092,17.092,0,0,1-2.074,8.861c-1.6,2.64-6.033,2.923-8.767,2.074a6.027,6.027,0,0,1-3.583-2.451s-4.054,3.017-8.3,1.6-3.677-7.919-1.791-10.181a7.729,7.729,0,0,1,4.713-2.546s-1.6-5.373,1.6-8.861,8.39-2.074,9.144-2.074,4.933-.735,4.65-1.489.755-6.068,4.432-8.331,6.19-1.964,10.244.016S208.5,51.142,208.595,53.875Z" transform="translate(-165.878 -49.635)" fill="#263238" stroke="#263238" stroke-linecap="round" stroke-linejoin="round" stroke-width="0.75"/>
          </g>
        </g>
        <g id="Grupo_927902" data-name="Grupo 927902" transform="translate(0 8.13)">
          <path id="Trazado_710987" data-name="Trazado 710987" d="M107.386,120.38l12.314.941s-.17,1.267,2.038,1.488a6.927,6.927,0,0,0,3.533-.442l17.317,1.009s4.26,2.863,4.653,2.993,4.218-2.572,4.218-2.572l-4.348-3.173-37.736-9.663Z" transform="translate(-82.594 -83.576)" fill="#263238" stroke="#263238" stroke-linecap="round" stroke-linejoin="round" stroke-width="0.75"/>
          <path id="Trazado_710988" data-name="Trazado 710988" d="M66.326,172.135,82.666,183.4l-8.61,21.824-1.422,1.551L71.6,209.357s-1.422,1.293-.259,2.068,5.171,1.292,5.171,1.292,4.265.646,5.429.776a43.2,43.2,0,0,0,4.654-.129l-.776-1.81-4.007-2.326-1.163-1.293a10.133,10.133,0,0,0,1.034-2.327V203.54s12.633-18.873,12.245-19.26c-.122-.122-5.383-9.671-8.612-11.924C78.279,167.447,66.326,172.135,66.326,172.135Z" transform="translate(-63.835 -110.601)" fill="#263238" stroke="#263238" stroke-linecap="round" stroke-linejoin="round" stroke-width="0.75"/>
          <path id="Trazado_710989" data-name="Trazado 710989" d="M64.135,145.858s-2.091,9.337-2.333,11c-.76,5.23,5.757,6.9,6.4,7.286s25.342,8.924,25.342,8.924l13.96,22.621-.775,1.422,3.49,4.136s.129,1.034.646,1.163,4.912-1.422,6.721-2.2,5.688-2.715,5.688-3.62-2.456-.9-3.361-.776-5.041,0-5.041,0l-1.163-1.68-1.681-.517s-9.436-25.982-9.953-26.5-21.2-15.512-21.2-15.512l-1.163-1.68Z" transform="translate(-61.741 -99.518)" fill="#263238" stroke="#263238" stroke-linecap="round" stroke-linejoin="round" stroke-width="0.75"/>
          <path id="Trazado_710990" data-name="Trazado 710990" d="M80.518,92.245s-7.431,4.619-8.033,6.527-7.016,20.418-7.117,20.719-1.218,1.17.188,1.873,14.578,4.675,15.581,4.073,3.232-5.429,3.232-5.429,6.893-9.89,7.394-10.894-.1-8.836-.3-9.74-.4-1.908-.4-1.908Z" transform="translate(-63.162 -75.025)" fill="#4dd0e1" stroke="#263238" stroke-linecap="round" stroke-linejoin="round" stroke-width="0.75"/>
          <g id="Grupo_927901" data-name="Grupo 927901" transform="translate(17.994)">
            <path id="Trazado_710991" data-name="Trazado 710991" d="M110.2,65.08s1.627,3.486,1.627,3.835a5.027,5.027,0,0,1-.465,1.278s1.859,3.022,1.627,3.6-1.51,1.046-1.51,1.046l-1.279,3.37a3.119,3.119,0,0,1,0,1.859,1.93,1.93,0,0,1-2.324.813,19.215,19.215,0,0,1-2.673-1.51l-1.279,2.44L97.073,77.4V73.68s-2.789-6.972-2.092-9.413,10.226-3.835,12.2-3.718,3.37,1.278,3.486,2.324A4.663,4.663,0,0,1,110.2,65.08Z" transform="translate(-94.869 -60.542)" fill="#fff" stroke="#263238" stroke-linecap="round" stroke-linejoin="round" stroke-width="0.75"/>
            <path id="Trazado_710992" data-name="Trazado 710992" d="M110.2,80.071a3.119,3.119,0,0,0,0-1.859l1.279-3.37c-1.162-1.046-5.346-.581-5.346-.581l-.813-4.531s2.324-1.279,2.092-1.976a20.109,20.109,0,0,0-1.511-2.789c-.232-.349,4.3.116,4.3.116a4.663,4.663,0,0,0,.465-2.208c-.116-1.046-1.51-2.208-3.486-2.324s-11.5,1.278-12.2,3.718,2.092,9.413,2.092,9.413,1.395,1.278,2.324,1.162,2.324-1.743,2.324-1.743a5.374,5.374,0,0,1-.813-2.905c.232-1.162,2.208.581,2.208.581s.465,5.81.465,6.507,1.627,2.092,1.627,2.092a19.214,19.214,0,0,0,2.673,1.511A1.93,1.93,0,0,0,110.2,80.071Z" transform="translate(-94.869 -60.542)" fill="#263238" stroke="#263238" stroke-linecap="round" stroke-linejoin="round" stroke-width="0.75"/>
            <path id="Trazado_710995" data-name="Trazado 710995" d="M118.642,86.722s.521,1.148,2.712,1.3" transform="translate(-105.73 -72.502)" fill="none" stroke="#fff" stroke-linecap="round" stroke-linejoin="round" stroke-width="0.75"/>
          </g>
          <path id="Trazado_710996" data-name="Trazado 710996" d="M95.926,88l-2.231,2.3,10.945,7.129-.714-3.077Z" transform="translate(-76.339 -73.088)" fill="#fff" stroke="#263238" stroke-linecap="round" stroke-linejoin="round" stroke-width="0.75"/>
        </g>
        <g id="Grupo_927904" data-name="Grupo 927904" transform="translate(12.547 26.582)">
          <g id="Grupo_927903" data-name="Grupo 927903" transform="translate(1.034)">
            <path id="Trazado_710997" data-name="Trazado 710997" d="M86.745,97.907s2.326-4.265,6.075-3.232,8.645,5.736,8.645,5.736l11.262,5.252-1.422,7.11-23.913-3.361" transform="translate(-86.745 -94.514)" fill="#4dd0e1" stroke="#263238" stroke-linecap="round" stroke-linejoin="round" stroke-width="0.75"/>
            <path id="Trazado_710998" data-name="Trazado 710998" d="M162.9,122.658a17.29,17.29,0,0,0-3.609.382s-1.335.034-3.243.089l-18.105-5-1.939,5.946,19.657,2.572a9.073,9.073,0,0,1,1.162.574c.417.269,3.464,1.942,4.174,1.575s3.094-1.777,3.534-1.728,1.53.28,2.031-.222a2.93,2.93,0,0,0,.66-.93A39.7,39.7,0,0,0,162.9,122.658Z" transform="translate(-109.251 -105.305)" fill="#fff" stroke="#263238" stroke-linecap="round" stroke-linejoin="round" stroke-width="0.75"/>
            <path id="Trazado_710999" data-name="Trazado 710999" d="M132,113.136l-1.939,9.178,3.878.517,2.2-8.014Z" transform="translate(-106.533 -103.022)" fill="#fff" stroke="#263238" stroke-linecap="round" stroke-linejoin="round" stroke-width="0.75"/>
          </g>
          <line id="Línea_1225" data-name="Línea 1225" x1="9.178" y2="1.68" transform="translate(0 16.061)" fill="#fff" stroke="#263238" stroke-linecap="round" stroke-linejoin="round" stroke-width="0.75"/>
        </g>
        <g id="Grupo_927905" data-name="Grupo 927905" transform="translate(305.632 7.811)">
          <circle id="Elipse_8229" data-name="Elipse 8229" cx="10.028" cy="10.028" r="10.028" transform="matrix(0.971, -0.24, 0.24, 0.971, 0, 4.818)" fill="#4dd0e1" stroke="#263238" stroke-linecap="round" stroke-linejoin="round" stroke-width="0.75"/>
          <circle id="Elipse_8230" data-name="Elipse 8230" cx="5.642" cy="5.642" r="5.642" transform="translate(6.501 6.501)" fill="#263238" stroke="#263238" stroke-linecap="round" stroke-linejoin="round" stroke-width="0.75"/>
        </g>
      </g>
    </g>
  </g>
</svg>
