<svg xmlns="http://www.w3.org/2000/svg" width="158" height="156" viewBox="0 0 158 156">
  <g id="Grupo_940159" data-name="Grupo 940159" transform="translate(-807.396 -864)">
    <ellipse id="Elipse_7689" data-name="Elipse 7689" cx="79" cy="78" rx="79" ry="78" transform="translate(807.396 864)" fill="#0b5999"/>
    <path id="Trazado_686860" data-name="Trazado 686860" d="M57.054,54.909c-2.353-.84-6.2-.882-7.9-1.534-1.176-.462-3.046-.966-3.655-1.7s-.609-5.987-.609-5.987a9.671,9.671,0,0,0,2.08-2.941,32.685,32.685,0,0,0,1.008-5.777s1.386.588,1.933-2.185c.462-2.395,1.344-3.655,1.113-5.42-.252-1.765-1.218-1.344-1.218-1.344s1.218-1.786,1.218-7.857c0-6.26-4.727-12.415-13.571-12.415-8.823,0-13.592,6.176-13.592,12.415,0,6.071,1.2,7.857,1.2,7.857s-.987-.42-1.218,1.344c-.252,1.765.63,3.025,1.113,5.42.546,2.794,1.933,2.185,1.933,2.185A33,33,0,0,0,27.9,42.746a9.671,9.671,0,0,0,2.08,2.941s0,5.252-.609,5.987-2.479,1.239-3.655,1.681c-1.681.651-5.525.735-7.9,1.576A14.826,14.826,0,0,0,8.191,69.047H66.654A14.8,14.8,0,0,0,57.054,54.909Z" transform="translate(848.054 903.252)" fill="#fff"/>
    <path id="Trazado_686861" data-name="Trazado 686861" d="M25.008,37.8s5.021-.168,7.016-1.954c-3.256-4.937-1.492-10.693-2.164-16.07-.672-5.357-3.718-8.571-9.81-8.571h-.084c-5.882,0-9.054,3.193-9.726,8.571-.672,5.357,1.2,11.764-2.143,16.07,2,1.807,7.037,1.744,7.037,1.744h0s.21,3.025-.21,3.529A5.3,5.3,0,0,1,12.4,42.277,48.742,48.742,0,0,0,6.962,43.79C5.324,44.357,2.215,47.4,2.215,51.6H19.084c.462-1.681,3.634-4.685,6.722-6.26a14.106,14.106,0,0,1,5.189-1.092s.8-1.26-1.828-1.744c0,0-3.613-.9-4.033-1.407C24.734,40.639,25.008,37.8,25.008,37.8Z" transform="translate(836.174 910.128)" fill="#fff"/>
  </g>
</svg>
