<svg xmlns="http://www.w3.org/2000/svg" width="1215.405" height="582" viewBox="0 0 1215.405 582">
  <g id="Grupo_940154" data-name="Grupo 940154" transform="translate(-189.929 -1222.216)">
    <path id="Trazado_726958" data-name="Trazado 726958" d="M22,0H1192a22,22,0,0,1,22,22V560a22,22,0,0,1-22,22H22A22,22,0,0,1,0,560V22A22,22,0,0,1,22,0Z" transform="translate(191.334 1222.216)" fill="#f6f6f6"/>
    <g id="Grupo_924152" data-name="Grupo 924152" transform="translate(-21)">
      <g id="Elipse_8190" data-name="Elipse 8190" transform="translate(251.334 1351)" fill="#fff" stroke="#0b5999" stroke-width="2" stroke-dasharray="3">
        <circle cx="65" cy="65" r="65" stroke="none"/>
        <circle cx="65" cy="65" r="64" fill="none"/>
      </g>
      <g id="Elipse_8193" data-name="Elipse 8193" transform="translate(471.334 1351)" fill="#fff" stroke="#0b5999" stroke-width="2" stroke-dasharray="3">
        <circle cx="65" cy="65" r="65" stroke="none"/>
        <circle cx="65" cy="65" r="64" fill="none"/>
      </g>
      <g id="Elipse_8195" data-name="Elipse 8195" transform="translate(691.334 1351)" fill="#fff" stroke="#0b5999" stroke-width="2" stroke-dasharray="3">
        <circle cx="65" cy="65" r="65" stroke="none"/>
        <circle cx="65" cy="65" r="64" fill="none"/>
      </g>
      <g id="Elipse_8197" data-name="Elipse 8197" transform="translate(912.334 1351)" fill="#fff" stroke="#0b5999" stroke-width="2" stroke-dasharray="3">
        <circle cx="65" cy="65" r="65" stroke="none"/>
        <circle cx="65" cy="65" r="64" fill="none"/>
      </g>
      <g id="Elipse_8199" data-name="Elipse 8199" transform="translate(1145.334 1351)" fill="#fff" stroke="#0b5999" stroke-width="2" stroke-dasharray="3">
        <circle cx="65" cy="65" r="65" stroke="none"/>
        <circle cx="65" cy="65" r="64" fill="none"/>
      </g>
    </g>
    <g id="Grupo_924151" data-name="Grupo 924151" transform="translate(-21)">
      <g id="Elipse_8191" data-name="Elipse 8191" transform="translate(361.334 1533)" fill="#fff" stroke="#0b5999" stroke-width="2" stroke-dasharray="3">
        <circle cx="65" cy="65" r="65" stroke="none"/>
        <circle cx="65" cy="65" r="64" fill="none"/>
      </g>
      <g id="Elipse_8192" data-name="Elipse 8192" transform="translate(581.334 1533)" fill="#fff" stroke="#0b5999" stroke-width="2" stroke-dasharray="3">
        <circle cx="65" cy="65" r="65" stroke="none"/>
        <circle cx="65" cy="65" r="64" fill="none"/>
      </g>
      <g id="Elipse_8194" data-name="Elipse 8194" transform="translate(801.334 1533)" fill="#fff" stroke="#0b5999" stroke-width="2" stroke-dasharray="3">
        <circle cx="65" cy="65" r="65" stroke="none"/>
        <circle cx="65" cy="65" r="64" fill="none"/>
      </g>
      <g id="Elipse_8196" data-name="Elipse 8196" transform="translate(1022.334 1533)" fill="#fff" stroke="#0b5999" stroke-width="2" stroke-dasharray="3">
        <circle cx="65" cy="65" r="65" stroke="none"/>
        <circle cx="65" cy="65" r="64" fill="none"/>
      </g>
      <g id="Elipse_8198" data-name="Elipse 8198" transform="translate(1255.334 1533)" fill="#fff" stroke="#0b5999" stroke-width="2" stroke-dasharray="3">
        <circle cx="65" cy="65" r="65" stroke="none"/>
        <circle cx="65" cy="65" r="64" fill="none"/>
      </g>
    </g>
    <g id="Grupo_924153" data-name="Grupo 924153" transform="translate(-21)">
      <line id="Línea_1197" data-name="Línea 1197" y2="115" transform="translate(367.834 1455.716)" fill="none" stroke="#0b5999" stroke-width="2" stroke-dasharray="3"/>
      <line id="Línea_1200" data-name="Línea 1200" y2="115" transform="translate(587.334 1455.716)" fill="none" stroke="#0b5999" stroke-width="2" stroke-dasharray="3"/>
      <line id="Línea_1202" data-name="Línea 1202" y2="115" transform="translate(808.834 1455.716)" fill="none" stroke="#0b5999" stroke-width="2" stroke-dasharray="3"/>
      <line id="Línea_1204" data-name="Línea 1204" y2="115" transform="translate(1030.334 1455.716)" fill="none" stroke="#0b5999" stroke-width="2" stroke-dasharray="3"/>
      <line id="Línea_1206" data-name="Línea 1206" y2="115" transform="translate(1261.334 1455.716)" fill="none" stroke="#0b5999" stroke-width="2" stroke-dasharray="3"/>
      <line id="Línea_1198" data-name="Línea 1198" y2="115" transform="translate(485.834 1455.716)" fill="none" stroke="#0b5999" stroke-width="2" stroke-dasharray="3"/>
      <line id="Línea_1199" data-name="Línea 1199" y2="115" transform="translate(705.334 1455.716)" fill="none" stroke="#0b5999" stroke-width="2" stroke-dasharray="3"/>
      <line id="Línea_1201" data-name="Línea 1201" y2="115" transform="translate(926.834 1455.716)" fill="none" stroke="#0b5999" stroke-width="2" stroke-dasharray="3"/>
      <line id="Línea_1203" data-name="Línea 1203" y2="146" transform="translate(1152.334 1444.5)" fill="none" stroke="#0b5999" stroke-width="2" stroke-dasharray="3"/>
    </g>
    <path id="Trazado_726959" data-name="Trazado 726959" d="M52.429,0A52.429,52.429,0,1,1,0,52.429,52.429,52.429,0,0,1,52.429,0Z" transform="matrix(0.383, -0.924, 0.924, 0.383, 887.24, 1444.909)" fill="#fd9927"/>
    <g id="Grupo_914306" data-name="Grupo 914306" transform="translate(897.437 1358.229)">
      <ellipse id="Elipse_7739" data-name="Elipse 7739" cx="43.691" cy="43.691" rx="43.691" ry="43.691" transform="translate(0 78.758) rotate(-64.33)" fill="#fff"/>
    </g>
    <path id="Trazado_726960" data-name="Trazado 726960" d="M52.429,0A52.429,52.429,0,1,1,0,52.429,52.429,52.429,0,0,1,52.429,0Z" transform="translate(671.409 1453.751) rotate(-75.128)" fill="#5ac8fa"/>
    <g id="Grupo_914310" data-name="Grupo 914310" transform="translate(674.865 1355.86)">
      <g id="Grupo_914309" data-name="Grupo 914309" transform="translate(38.828 38.828)" style="mix-blend-mode: multiply;isolation: isolate">
        <ellipse id="Elipse_7786" data-name="Elipse 7786" cx="30.584" cy="30.584" rx="30.584" ry="30.584"/>
      </g>
      <ellipse id="Elipse_7787" data-name="Elipse 7787" cx="43.691" cy="43.691" rx="43.691" ry="43.691" transform="translate(0 48.989) rotate(-34.099)" fill="#fff"/>
    </g>
    <path id="Trazado_726961" data-name="Trazado 726961" d="M52.429,0A52.429,52.429,0,1,1,0,52.429,52.429,52.429,0,0,1,52.429,0Z" transform="translate(453.938 1458.104) rotate(-79.099)" fill="#feca2e"/>
    <g id="Grupo_914314" data-name="Grupo 914314" transform="translate(453.547 1354.745)">
      <circle id="Elipse_7835" data-name="Elipse 7835" cx="43.691" cy="43.691" r="43.691" transform="translate(0 61.789) rotate(-45)" fill="#fff"/>
    </g>
    <path id="Trazado_726962" data-name="Trazado 726962" d="M52.429,0A52.429,52.429,0,1,1,0,52.429,52.429,52.429,0,0,1,52.429,0Z" transform="translate(231.002 1453.751) rotate(-75.128)" fill="#ff3b30"/>
    <g id="Grupo_914318" data-name="Grupo 914318" transform="translate(234.459 1355.86)">
      <ellipse id="Elipse_7883" data-name="Elipse 7883" cx="43.691" cy="43.691" rx="43.691" ry="43.691" transform="translate(0 48.989) rotate(-34.099)" fill="#fff"/>
    </g>
    <path id="Trazado_726963" data-name="Trazado 726963" d="M52.429,0A52.429,52.429,0,1,1,0,52.429,52.429,52.429,0,0,1,52.429,0Z" transform="matrix(0.383, -0.924, 0.924, 0.383, 1120.895, 1443.258)" fill="#0b5999"/>
    <g id="Grupo_924133" data-name="Grupo 924133" transform="translate(1131.092 1356.578)">
      <ellipse id="Elipse_7739-2" data-name="Elipse 7739" cx="43.691" cy="43.691" rx="43.691" ry="43.691" transform="translate(0 78.758) rotate(-64.33)" fill="#fff"/>
    </g>
    <g id="Grupo_924141" data-name="Grupo 924141" transform="translate(-21 -62.787)">
      <text id="Manual_organizacional" data-name="Manual 
organizacional" transform="translate(210.929 1352.168)" fill="#12263f" font-size="18" font-family="Roboto-Black, Roboto" font-weight="800"><tspan x="69.433" y="19">Manual </tspan><tspan x="39.594" y="44">organizacional</tspan></text>
      <text id="Manual_de_técnicas" data-name="Manual de 
técnicas" transform="translate(436.577 1352.168)" fill="#12263f" font-size="18" font-family="Roboto-Black, Roboto" font-weight="800"><tspan x="57.229" y="19">Manual de </tspan><tspan x="65.223" y="44">técnicas</tspan></text>
      <text id="Manual_de_procedimiento" data-name="Manual de procedimiento" transform="translate(660.225 1352.168)" fill="#12263f" font-size="18" font-family="Roboto-Black, Roboto" font-weight="800"><tspan x="57.229" y="19">Manual de </tspan><tspan x="40.802" y="44">procedimiento</tspan></text>
      <text id="Manual_de_puesto" data-name="Manual de 
puesto" transform="translate(878.334 1352.168)" fill="#12263f" font-size="18" font-family="Roboto-Black, Roboto" font-weight="800"><tspan x="57.229" y="19">Manual de </tspan><tspan x="71.836" y="44">puesto</tspan></text>
      <text id="Manual_de_finanzas" data-name="Manual de 
finanzas" transform="translate(1113.037 1352.168)" fill="#12263f" font-size="18" font-family="Roboto-Black, Roboto" font-weight="800"><tspan x="57.229" y="19">Manual de </tspan><tspan x="64.832" y="44">finanzas</tspan></text>
    </g>
    <path id="Icon_metro-organization" data-name="Icon metro-organization" d="M37.478,18.418H10a5.5,5.5,0,0,0-5.5,5.5v2.748A5.469,5.469,0,0,0,7.247,31.4V40.4H18.24v5.5H29.233V40.4H40.227V31.4a5.469,5.469,0,0,0,2.748-4.734V23.914A5.5,5.5,0,0,0,37.478,18.418ZM15.492,37.656H10V26.663H7.247V23.914A2.75,2.75,0,0,1,10,21.166H13.5a5.435,5.435,0,0,0-.761,2.748v5.5a5.469,5.469,0,0,0,2.748,4.734Zm13.741-5.5v-5.5H26.485v16.49h-5.5V26.663H18.24v5.5a2.748,2.748,0,0,1-2.748-2.748v-5.5a2.75,2.75,0,0,1,2.748-2.748H29.233a2.748,2.748,0,0,1,2.748,2.748v5.5a2.747,2.747,0,0,1-2.748,2.748Zm10.993-5.5H37.478V37.656h-5.5V34.145a5.469,5.469,0,0,0,2.748-4.734v-5.5a5.436,5.436,0,0,0-.762-2.748h3.511a2.748,2.748,0,0,1,2.748,2.748v2.748ZM17.54,15.557a8.142,8.142,0,0,0,12.394,0,5.489,5.489,0,1,0,1.817-7.244,8.222,8.222,0,0,0-16.028,0,5.5,5.5,0,1,0,1.817,7.244Zm17.19-5.384a2.748,2.748,0,1,1-2.748,2.748A2.746,2.746,0,0,1,34.73,10.173Zm-10.993-5.5a5.5,5.5,0,1,1-5.5,5.5,5.5,5.5,0,0,1,5.5-5.5ZM12.744,15.669a2.748,2.748,0,1,1,2.748-2.748A2.748,2.748,0,0,1,12.744,15.669Z" transform="translate(271.942 1405.072)" fill="#ff3b30"/>
    <path id="Icon_awesome-map-signs" data-name="Icon awesome-map-signs" d="M43.576,7.274l-3.72-3.721a2.749,2.749,0,0,0-1.944-.8H24.738V1.374A1.374,1.374,0,0,0,23.364,0H20.615a1.374,1.374,0,0,0-1.374,1.374V2.749H4.81A2.062,2.062,0,0,0,2.749,4.81v6.872A2.062,2.062,0,0,0,4.81,13.743h33.1a2.75,2.75,0,0,0,1.944-.8l3.72-3.72A1.374,1.374,0,0,0,43.576,7.274ZM19.241,42.6a1.374,1.374,0,0,0,1.374,1.374h2.749A1.374,1.374,0,0,0,24.738,42.6v-9.62h-5.5ZM39.168,19.241H24.738V16.492h-5.5v2.749H6.067a2.75,2.75,0,0,0-1.944.8L.4,23.766a1.374,1.374,0,0,0,0,1.944l3.72,3.72a2.749,2.749,0,0,0,1.944.8h33.1a2.062,2.062,0,0,0,2.061-2.061V21.3A2.062,2.062,0,0,0,39.168,19.241Z" transform="translate(492.087 1406)" fill="#feca2e"/>
    <path id="Icon_material-map" data-name="Icon material-map" d="M42.068,4.5l-.343.064L30.261,9.008,17.381,4.5,5.273,8.579A1.082,1.082,0,0,0,4.5,9.609V42.068a1.063,1.063,0,0,0,1.073,1.073l.343-.064,11.464-4.444,12.881,4.508,12.108-4.079a1.082,1.082,0,0,0,.773-1.03V5.573A1.063,1.063,0,0,0,42.068,4.5ZM30.261,38.848l-12.881-4.53V8.794l12.881,4.53Z" transform="translate(710.963 1403.5)" fill="#5ac8fa"/>
    <path id="Icon_material-work" data-name="Icon material-work" d="M39.114,11.025H31.089V7.013A4,4,0,0,0,27.076,3H19.051a4,4,0,0,0-4.013,4.013v4.013H7.013A3.982,3.982,0,0,0,3.02,15.038L3,37.107A4,4,0,0,0,7.013,41.12h32.1a4,4,0,0,0,4.013-4.013V15.038A4,4,0,0,0,39.114,11.025Zm-12.038,0H19.051V7.013h8.025Z" transform="translate(931.708 1406)" fill="#fd9927"/>
    <path id="Icon_awesome-network-wired" data-name="Icon awesome-network-wired" d="M49.666,20.487V19.245A1.241,1.241,0,0,0,48.424,18H26.7V14.9h5.587a2.484,2.484,0,0,0,2.483-2.483V2.483A2.484,2.484,0,0,0,32.283,0h-14.9A2.484,2.484,0,0,0,14.9,2.483v9.933A2.484,2.484,0,0,0,17.383,14.9H22.97V18H1.242A1.241,1.241,0,0,0,0,19.245v1.242a1.241,1.241,0,0,0,1.242,1.242H9.312v3.1H4.967a2.484,2.484,0,0,0-2.483,2.483v9.933a2.484,2.484,0,0,0,2.483,2.483H17.383a2.484,2.484,0,0,0,2.483-2.483V27.316a2.484,2.484,0,0,0-2.483-2.483H13.037v-3.1H36.628v3.1H32.283A2.484,2.484,0,0,0,29.8,27.316v9.933a2.484,2.484,0,0,0,2.483,2.483H44.7a2.484,2.484,0,0,0,2.483-2.483V27.316A2.484,2.484,0,0,0,44.7,24.833H40.353v-3.1h8.071A1.241,1.241,0,0,0,49.666,20.487ZM19.866,9.933V4.967H29.8V9.933ZM14.9,34.766H7.45V29.8H14.9Zm27.316,0h-7.45V29.8h7.45Z" transform="translate(1166.001 1408)" fill="#0b5999"/>
    <path id="Trazado_726964" data-name="Trazado 726964" d="M52.429,0A52.429,52.429,0,1,1,0,52.429,52.429,52.429,0,0,1,52.429,0Z" transform="translate(1013.415 1545)" fill="#feca2e"/>
    <g id="Grupo_914304" data-name="Grupo 914304" transform="translate(1019.165 1551.701)">
      <ellipse id="Elipse_7715" data-name="Elipse 7715" cx="43.691" cy="43.691" rx="43.691" ry="43.691" transform="matrix(0.997, -0.071, 0.071, 0.997, 0, 6.194)" fill="#fff"/>
    </g>
    <path id="Trazado_726965" data-name="Trazado 726965" d="M52.429,0A52.429,52.429,0,1,1,0,52.429,52.429,52.429,0,0,1,52.429,0Z" transform="translate(793.211 1545)" fill="#ff3b30"/>
    <g id="Grupo_914308" data-name="Grupo 914308" transform="translate(783.852 1536.591)">
      <circle id="Elipse_7763" data-name="Elipse 7763" cx="43.691" cy="43.691" r="43.691" transform="translate(0 61.789) rotate(-45)" fill="#fff"/>
    </g>
    <path id="Trazado_726966" data-name="Trazado 726966" d="M52.429,0A52.429,52.429,0,1,1,0,52.429,52.429,52.429,0,0,1,52.429,0Z" transform="translate(573.008 1545)" fill="#0b5999"/>
    <g id="Grupo_914312" data-name="Grupo 914312" transform="translate(578.291 1551.234)">
      <ellipse id="Elipse_7811" data-name="Elipse 7811" cx="43.691" cy="43.691" rx="43.691" ry="43.691" transform="translate(0 7.207) rotate(-4.731)" fill="#fff"/>
    </g>
    <path id="Trazado_726967" data-name="Trazado 726967" d="M52.429,0A52.429,52.429,0,1,1,0,52.429,52.429,52.429,0,0,1,52.429,0Z" transform="translate(352.805 1545)" fill="#fd9927"/>
    <g id="Grupo_914316" data-name="Grupo 914316" transform="translate(343.446 1536.591)">
      <circle id="Elipse_7859" data-name="Elipse 7859" cx="43.691" cy="43.691" r="43.691" transform="translate(0 61.789) rotate(-45)" fill="#fff"/>
    </g>
    <path id="Trazado_726968" data-name="Trazado 726968" d="M52.429,0A52.429,52.429,0,1,1,0,52.429,52.429,52.429,0,0,1,52.429,0Z" transform="translate(1247.07 1545)" fill="#4dd0e1"/>
    <g id="Grupo_924130" data-name="Grupo 924130" transform="translate(1252.821 1550.051)">
      <ellipse id="Elipse_7715-2" data-name="Elipse 7715" cx="43.691" cy="43.691" rx="43.691" ry="43.691" transform="matrix(0.997, -0.071, 0.071, 0.997, 0, 6.194)" fill="#fff"/>
    </g>
    <g id="Grupo_924140" data-name="Grupo 924140" transform="translate(-21 390)">
      <text id="Manual_departamental" data-name="Manual 
departamental" transform="translate(325.284 1295.168)" fill="#12263f" font-size="18" font-family="Roboto-Black, Roboto" font-weight="800"><tspan x="69.433" y="19">Manual </tspan><tspan x="40.13" y="44">departamental</tspan></text>
      <text id="Manual_de_política" data-name="Manual de 
política" transform="translate(548.059 1295.168)" fill="#12263f" font-size="18" font-family="Roboto-Black, Roboto" font-weight="800"><tspan x="57.229" y="19">Manual de </tspan><tspan x="69.323" y="44">política</tspan></text>
      <text id="Manual_de_bienvenida" data-name="Manual de 
bienvenida" transform="translate(765.834 1295.168)" fill="#12263f" font-size="18" font-family="Roboto-Black, Roboto" font-weight="800"><tspan x="57.229" y="19">Manual de </tspan><tspan x="55.045" y="44">bienvenida</tspan></text>
      <text id="Manual_de_sistema" data-name="Manual de
 sistema" transform="translate(986.609 1295.168)" fill="#12263f" font-size="18" font-family="Roboto-Black, Roboto" font-weight="800"><tspan x="57.229" y="19">Manual de</tspan><tspan x="65.047" y="44" xml:space="preserve"> sistema</tspan></text>
      <text id="Manual_de_calidad" data-name="Manual de 
calidad" transform="translate(1220.229 1295.168)" fill="#12263f" font-size="18" font-family="Roboto-Black, Roboto" font-weight="800"><tspan x="57.229" y="19">Manual de </tspan><tspan x="70.197" y="44">calidad</tspan></text>
    </g>
    <path id="Icon_simple-dependabot" data-name="Icon simple-dependabot" d="M18.873.546a3.338,3.338,0,0,1,3.658,0L38.772,11.193a3.333,3.333,0,0,1,1.507,2.791v13.8a3.338,3.338,0,0,1-1.507,2.791L22.531,41.218a3.338,3.338,0,0,1-3.658,0L2.632,30.572A3.334,3.334,0,0,1,1.125,27.78v-13.8a3.338,3.338,0,0,1,1.507-2.791Zm3.134,12.5v1.305H11.566a1.305,1.305,0,0,0-1.305,1.305v5.221h-.87a.435.435,0,0,0-.435.435v4.35a.435.435,0,0,0,.435.435h.87v2.61a1.3,1.3,0,0,0,1.305,1.305H29.838a1.305,1.305,0,0,0,1.305-1.305V26.1h.87a.435.435,0,0,0,.435-.435v-4.35a.435.435,0,0,0-.435-.435h-.87V15.662a1.305,1.305,0,0,0-1.305-1.305H23.312V9.571a.435.435,0,0,0-.435-.435H19.832a.435.435,0,0,0-.435.435v3.045a.435.435,0,0,0,.435.435Zm5.718,8.856L24.99,24.643a.527.527,0,0,1-.745,0L22.6,22.995a.527.527,0,0,1,0-.745l.56-.56a.527.527,0,0,1,.745,0l.713.715,1.8-1.8a.527.527,0,0,1,.745,0l.56.56a.527.527,0,0,1,0,.745ZM16.289,24.641v0a.527.527,0,0,1-.745,0l-1.65-1.648a.526.526,0,0,1,0-.745l.562-.56a.527.527,0,0,1,.743,0l.717.715,1.8-1.8a.527.527,0,0,1,.743,0l.562.56a.527.527,0,0,1,0,.745Z" transform="translate(382.804 1594.566)" fill="#fd9927"/>
    <path id="Icon_map-political" data-name="Icon map-political" d="M12.19,20.513h2.7V36.706h4.048V22.537h4.048V36.706h4.048V22.537h4.048V36.706h4.048V20.513h2.7a1.461,1.461,0,0,0,1.35-1.416,1.361,1.361,0,0,0-.562-1.084l0-.053-.021-.037.136-.033L26.022,11.343V9.428c2.024,1.072,4-.774,7.085.336V5.534c-3.088-1.109-5.06.736-7.085-.336V4.927c0-.335-.639-.607-1.012-.607S24,4.592,24,4.927v6.416L11.287,17.877l.274.021.291.011v0c-1.012.221-.785.779-.785,1.185,0,.672.378,1.417,1.122,1.417Zm1.687,17.205-3.036,3.036H39.179l-3.036-3.036ZM36.143,21.525V36.706h.9l.4.56,2.7,2.529.954.959H49.3V21.525ZM42.215,33.67H39.179V30.634h3.036Zm0-6.072H39.179V24.561h3.036Zm4.048,6.072H44.239V30.634h2.024Zm0-6.072H44.239V24.561h2.024ZM12.98,36.706h.9V21.525H.72V40.755H8.932l.953-.858,2.7-2.631.4-.559ZM5.78,33.67H3.756V30.634H5.78Zm0-6.072H3.756V24.561H5.78Zm5.06,6.072H7.8V30.634h3.036Zm0-6.072H7.8V24.561h3.036Z" transform="translate(600.774 1590.248)" fill="#0b5999"/>
    <path id="Icon_awesome-hand-paper" data-name="Icon awesome-hand-paper" d="M28.742,9a2.857,2.857,0,0,0-2.867,2.868V18h-.562V5.61a2.857,2.857,0,0,0-2.867-2.868,2.813,2.813,0,0,0-2.758,2.812V18h-.562V2.868A2.857,2.857,0,0,0,16.258,0,2.813,2.813,0,0,0,13.5,2.813V18h-.562V5.681A2.857,2.857,0,0,0,10.07,2.813,2.813,2.813,0,0,0,7.313,5.625V22.218l-2.225-3.06A2.813,2.813,0,1,0,.538,22.467L9.369,34.61A3.375,3.375,0,0,0,12.1,36H25.992a3.375,3.375,0,0,0,3.285-2.6l1.864-7.921a13.5,13.5,0,0,0,.359-3.092V11.813A2.812,2.812,0,0,0,28.742,9Z" transform="matrix(0.788, 0.616, -0.616, 0.788, 844.705, 1588.568)" fill="#ff3b30"/>
    <path id="Icon_material-settings-system-daydream" data-name="Icon material-settings-system-daydream" d="M17.136,29.909h12.7a4.886,4.886,0,1,0,0-9.773h-.1a6.807,6.807,0,0,0-12.92-1.915h-.313a5.861,5.861,0,0,0,.625,11.688ZM40.591,4.5H5.409A3.921,3.921,0,0,0,1.5,8.409V35.773a3.921,3.921,0,0,0,3.909,3.909H40.591A3.921,3.921,0,0,0,44.5,35.773V8.409A3.921,3.921,0,0,0,40.591,4.5Zm0,31.292H5.409V8.39H40.591v27.4Z" transform="translate(1043.109 1590.068)" fill="#feca2e"/>
    <path id="Icon_awesome-book-medical" data-name="Icon awesome-book-medical" d="M31.5,25.2V1.8A1.656,1.656,0,0,0,29.7,0H6.75A6.63,6.63,0,0,0,0,6.75v22.5A6.63,6.63,0,0,0,6.75,36H29.7a1.775,1.775,0,0,0,1.8-1.8V33.075a1.945,1.945,0,0,0-.675-1.35,19.9,19.9,0,0,1,0-5.175A1.361,1.361,0,0,0,31.5,25.2ZM10.125,11.813a.562.562,0,0,1,.563-.562h3.938V7.313a.562.562,0,0,1,.563-.562h3.375a.563.563,0,0,1,.563.563V11.25h3.938a.563.563,0,0,1,.563.563v3.375a.563.563,0,0,1-.562.563H19.125v3.938a.563.563,0,0,1-.562.563H15.188a.563.563,0,0,1-.562-.562V15.75H10.688a.562.562,0,0,1-.562-.562ZM26.775,31.5H6.75A2.126,2.126,0,0,1,4.5,29.25,2.255,2.255,0,0,1,6.75,27H26.775Z" transform="translate(1284 1594.568)" fill="#4dd0e1"/>
  </g>
</svg>
