<svg xmlns="http://www.w3.org/2000/svg" width="316.396" height="175.226" viewBox="0 0 316.396 175.226">
  <g id="Grupo_924246" data-name="Grupo 924246" transform="translate(-12.63 -15.02)">
    <g id="Grupo_920074" data-name="Grupo 920074" transform="translate(12.63 15.02)">
      <path id="Trazado_694032" data-name="Trazado 694032" d="M205.675,146.317c44.7-2.585,91.572,10.881,84.683,30.4s36.833-6.933,54.28.1c12.422,5.01,7.456,20.264,13.466,26.41,13.779,14.092,27.871-3.654,45.408,6.994s10.245,110.217,3.1,110.2l-270.436-.494-3.236.1s-19.833-28.6-1.879-45.3,5.627-24.339,3.445-30.794c-2.505-7.411-8.351-20.355,17.119-29.854s18.894-30.168,18.267-34.447-8.924-30.738,35.779-33.324Z" transform="translate(-123.545 -145.999)" fill="#eafcfc"/>
      <rect id="Rectángulo_321268" data-name="Rectángulo 321268" width="20.486" height="158.569" transform="translate(219.924 15.393)" fill="#0b5999" opacity="0.6"/>
      <rect id="Rectángulo_321269" data-name="Rectángulo 321269" width="20.486" height="110.202" transform="translate(191.314 63.761)" fill="#0b5999" opacity="0.6"/>
      <rect id="Rectángulo_321270" data-name="Rectángulo 321270" width="20.486" height="124.214" transform="translate(248.946 49.749)" fill="#0b5999" opacity="0.6"/>
      <rect id="Rectángulo_321271" data-name="Rectángulo 321271" width="20.486" height="129.099" transform="translate(162.704 44.864)" fill="#0b5999" opacity="0.6"/>
      <rect id="Rectángulo_321272" data-name="Rectángulo 321272" width="20.486" height="90.822" transform="translate(134.094 83.141)" fill="#0b5999" opacity="0.6"/>
      <g id="Grupo_920041" data-name="Grupo 920041" transform="translate(134.094 51.939)">
        <rect id="Rectángulo_321273" data-name="Rectángulo 321273" width="20.486" height="122.023" transform="translate(85.83)" fill="#9bc1f9" opacity="0.3" style="mix-blend-mode: multiply;isolation: isolate"/>
        <rect id="Rectángulo_321274" data-name="Rectángulo 321274" width="20.486" height="84.803" transform="translate(57.22 37.22)" fill="#9bc1f9" opacity="0.3" style="mix-blend-mode: multiply;isolation: isolate"/>
        <rect id="Rectángulo_321275" data-name="Rectángulo 321275" width="20.486" height="95.586" transform="translate(114.852 26.437)" fill="#9bc1f9" opacity="0.3" style="mix-blend-mode: multiply;isolation: isolate"/>
        <rect id="Rectángulo_321276" data-name="Rectángulo 321276" width="20.486" height="99.345" transform="translate(28.61 22.678)" fill="#9bc1f9" opacity="0.3" style="mix-blend-mode: multiply;isolation: isolate"/>
        <rect id="Rectángulo_321277" data-name="Rectángulo 321277" width="20.486" height="69.89" transform="translate(0 52.134)" fill="#9bc1f9" opacity="0.3" style="mix-blend-mode: multiply;isolation: isolate"/>
      </g>
      <path id="Trazado_694033" data-name="Trazado 694033" d="M1580.822,308.447,1564.5,320.793l6.227.4-38.968,68.583-21.576-32.348-30.522,71.194-19.632-27.885-24.469,34.589,1.54,6.191,22.919-32.241,20.752,29.476,30.41-70.932,20.934,31.386,43.142-75.929,4.005,4.307Z" transform="translate(-1301.432 -291.84)" fill="#fd9927"/>
      <g id="Grupo_920043" data-name="Grupo 920043" transform="translate(25.23 56.999)">
        <path id="Trazado_694034" data-name="Trazado 694034" d="M460.576,774.677c-23.426-18.654-43.109-42.782-58.012-71.113l-32.22,25.883c17.231,32.757,39.989,60.654,67.074,82.222Z" transform="translate(-370.344 -703.564)" fill="#3c8f7c"/>
        <path id="Trazado_694035" data-name="Trazado 694035" d="M448.508,769.735,428.494,786.07c1.589,2.962,1.012,6.958-1.355,8.985a255.928,255.928,0,0,0,56.238,68.939,5.127,5.127,0,0,1,7.662-1.253l14.6-22.969c-2.253-1.828-2.575-5.565-.768-8.275a224.742,224.742,0,0,1-49.386-60.539A4.368,4.368,0,0,1,448.508,769.735Z" transform="translate(-421.333 -762.97)" fill="#96d9c9"/>
        <g id="Grupo_920042" data-name="Grupo 920042" transform="translate(31.465 41.93)">
          <path id="Trazado_694036" data-name="Trazado 694036" d="M700.805,1139.782c5-6.455,4.954-15.978.236-21.674s-12.814-5.95-18.405-.205-6.116,15.922-.8,22.319S695.814,1146.226,700.805,1139.782Z" transform="translate(-678.134 -1113.719)" fill="#50bfa5"/>
          <path id="Trazado_694037" data-name="Trazado 694037" d="M749.822,1169.09l-1.886,2.093a6.447,6.447,0,0,1-.436,7.465c-1.637,1.874-3.469,2.047-6.263.392-2.029-1.146-3-1.485-3.622-.814-.523.565-.7,1.592.412,2.993a7.646,7.646,0,0,0,1.737,1.626,1.879,1.879,0,0,1,.5,2.385h0a1.348,1.348,0,0,1-2,.58,10.678,10.678,0,0,1-1.829-1.7l-1.631,1.8q-.854-1.071-1.7-2.154l1.776-1.925c-1.436-2.774-1.151-5.531.516-7.28,1.84-1.932,3.968-1.339,6.406.191,1.691,1.055,2.672,1.222,3.372.443.738-.823.5-2.078-.432-3.263a8.293,8.293,0,0,0-2.11-1.9,1.8,1.8,0,0,1-.43-2.384l.053-.09a1.354,1.354,0,0,1,1.912-.588,11.241,11.241,0,0,1,2.314,2.059l1.771-1.931Q749.031,1168.1,749.822,1169.09Z" transform="translate(-727.482 -1161.344)" fill="#3c8f7c"/>
          <path id="Trazado_694038" data-name="Trazado 694038" d="M922.72,1403.655q-8.007-6.857-15.42-14.518l-2.539,3.3q7.511,7.761,15.636,14.721Z" transform="translate(-881.593 -1360.981)" fill="#50bfa5"/>
        </g>
      </g>
      <g id="Grupo_920045" data-name="Grupo 920045" transform="translate(10.368 91.575)">
        <path id="Trazado_694039" data-name="Trazado 694039" d="M325.283,1070.8a227.7,227.7,0,0,1-85.05-29.015l-15.267,35.77a263.271,263.271,0,0,0,98.337,33.548Z" transform="translate(-224.966 -1041.788)" fill="#3c8f7c"/>
        <path id="Trazado_694040" data-name="Trazado 694040" d="M281.715,1097.177l-9.358,22.424c2.825,1.6,4.28,5.043,3.22,7.771a261.351,261.351,0,0,0,82.45,28.128,5.147,5.147,0,0,1,6.028-4.616q.712-12.565,1.423-25.13a5.762,5.762,0,0,1-4.712-6.2,229.5,229.5,0,0,1-72.4-24.7A4.537,4.537,0,0,1,281.715,1097.177Z" transform="translate(-267.512 -1089.424)" fill="#96d9c9"/>
        <g id="Grupo_920044" data-name="Grupo 920044" transform="translate(40.577 25.612)">
          <path id="Trazado_694041" data-name="Trazado 694041" d="M648.819,1310.314A15.984,15.984,0,0,0,638.425,1293a12.35,12.35,0,0,0-16.051,8.537c-2.035,7.188,2.485,15.527,10.223,18.09S647.645,1317.788,648.819,1310.314Z" transform="translate(-621.886 -1292.325)" fill="#50bfa5"/>
          <path id="Trazado_694042" data-name="Trazado 694042" d="M707.2,1320.246q-.305,1.276-.611,2.552c2.651,1.477,3.768,3.887,3.273,6.13-.5,2.26-2.006,3.264-5.236,3.271-2.319.049-3.329.242-3.537,1.066-.177.7.175,1.593,1.821,2.181a8,8,0,0,0,2.3.469,1.738,1.738,0,0,1,1.6,1.658h0a1.328,1.328,0,0,1-1.451,1.406,11.167,11.167,0,0,1-2.416-.483l-.534,2.2q-1.264-.446-2.525-.906l.6-2.367c-2.6-1.522-3.7-3.845-3.113-6.021.65-2.4,2.784-2.938,5.646-2.877,1.982.038,2.913-.293,3.139-1.243.237-1-.584-1.884-1.97-2.386a8.692,8.692,0,0,0-2.755-.507,1.658,1.658,0,0,1-1.539-1.689q0-.048,0-.1a1.332,1.332,0,0,1,1.37-1.37,11.8,11.8,0,0,1,3.013.54l.591-2.369Q706.03,1319.832,707.2,1320.246Z" transform="translate(-689.512 -1316.638)" fill="#3c8f7c"/>
        </g>
      </g>
      <path id="Trazado_694043" data-name="Trazado 694043" d="M958.364,728.884a18.176,18.176,0,0,1-2.094-.836,10.535,10.535,0,0,0-2.388-.9c-1.321-.2-3.591-.068-4.845,1.287-1.562,1.688-4.337.3-3.778,9.148.633,10.009,6.217,8.911,6.353,8.741s4.981-6.4,4.981-6.4,1.694,3.693,1.694,3.558S966.935,731.761,958.364,728.884Z" transform="translate(-861.189 -667.673)" fill="#0e2e35"/>
      <g id="Grupo_920047" data-name="Grupo 920047" transform="translate(27.778 127.197)">
        <path id="Trazado_694044" data-name="Trazado 694044" d="M470.551,1390.24c-23.15,9.147-48.693,13.328-75.282,12.323l5.294,33.943c30.743,1.162,60.276-3.673,87.043-14.248Z" transform="translate(-395.269 -1390.24)" fill="#3c8f7c"/>
        <path id="Trazado_694045" data-name="Trazado 694045" d="M422.492,1441.924l3.474,21.191a6.275,6.275,0,0,1,5.912,4.7,212.735,212.735,0,0,0,72.98-11.946,4.262,4.262,0,0,1,2.273-6.04l-10.5-20.041c-2.251.865-5.076-.451-6.281-2.876a186.809,186.809,0,0,1-64.088,10.491A3.631,3.631,0,0,1,422.492,1441.924Z" transform="translate(-419.709 -1423.162)" fill="#96d9c9"/>
        <g id="Grupo_920046" data-name="Grupo 920046" transform="translate(34.3 15.394)">
          <path id="Trazado_694046" data-name="Trazado 694046" d="M754.561,1550.145c-2.578-6.279-9.459-10.192-15.518-9.153-6.055,1.054-9.6,6.766-7.776,13.176a14.358,14.358,0,0,0,15.75,9.825C753.832,1562.82,757.135,1556.413,754.561,1550.145Z" transform="translate(-730.787 -1540.826)" fill="#50bfa5"/>
          <path id="Trazado_694047" data-name="Trazado 694047" d="M793.956,1560.059l.726,2.226a5.359,5.359,0,0,1,5.2,3.408c.672,1.956.037,3.348-2.313,4.675-1.667.987-2.315,1.549-2.088,2.272.19.611.858,1.161,2.328.944a6.352,6.352,0,0,0,1.891-.577,1.561,1.561,0,0,1,1.925.631h0a1.121,1.121,0,0,1-.411,1.682,8.869,8.869,0,0,1-1.981.615l.621,1.922q-1.126.172-2.256.331l-.651-2.077c-2.594-.115-4.462-1.463-5.031-3.389-.63-2.127.68-3.414,2.793-4.537,1.461-.781,1.988-1.418,1.716-2.246-.287-.873-1.29-1.22-2.53-1.041a6.892,6.892,0,0,0-2.24.735,1.5,1.5,0,0,1-1.9-.678l-.043-.076a1.126,1.126,0,0,1,.369-1.622,9.353,9.353,0,0,1,2.443-.814l-.657-2.076Q792.913,1560.217,793.956,1560.059Z" transform="translate(-783.518 -1558.093)" fill="#3c8f7c"/>
          <path id="Trazado_694048" data-name="Trazado 694048" d="M1007.245,1569.26q-8.259,2.927-16.851,5.093l1.326,3.2q8.705-2.195,17.087-5.165Z" transform="translate(-963.855 -1566.353)" fill="#50bfa5"/>
        </g>
      </g>
      <g id="Grupo_920049" data-name="Grupo 920049" transform="translate(64.865 161.997)">
        <path id="Trazado_694049" data-name="Trazado 694049" d="M758.053,1755.244v8.288c0,1.34,14.948,2.426,33.387,2.426s33.387-1.086,33.387-2.426v-8.288Z" transform="translate(-758.053 -1752.73)" fill="#e59f39"/>
        <g id="Grupo_920048" data-name="Grupo 920048" transform="translate(0 2.514)">
          <path id="Trazado_694050" data-name="Trazado 694050" d="M782.215,1765.865v-10.621H758.053v8.288C758.053,1764.64,768.263,1765.574,782.215,1765.865Z" transform="translate(-758.053 -1755.244)" fill="#eab054"/>
          <path id="Trazado_694051" data-name="Trazado 694051" d="M1005.4,1765.887c2.594.047,5.307.072,8.1.072,4.163,0,8.148-.055,11.823-.156v-10.558H1005.4Z" transform="translate(-980.117 -1755.244)" fill="#eab054"/>
          <path id="Trazado_694052" data-name="Trazado 694052" d="M1213.385,1765.763c11.9-.371,20.227-1.23,20.227-2.23v-8.288h-20.227Z" transform="translate(-1166.837 -1755.244)" fill="#eab054"/>
        </g>
        <ellipse id="Elipse_7998" data-name="Elipse 7998" cx="33.387" cy="2.426" rx="33.387" ry="2.426" transform="translate(0)" fill="#e59f39"/>
        <path id="Trazado_694053" data-name="Trazado 694053" d="M870.691,1739.611c0,.929-12.309,1.682-27.494,1.682s-27.494-.753-27.494-1.682,12.309-1.682,27.494-1.682S870.691,1738.682,870.691,1739.611Z" transform="translate(-809.81 -1737.185)" fill="#f7cc7f"/>
      </g>
      <g id="Grupo_920051" data-name="Grupo 920051" transform="translate(59.153 153.226)">
        <path id="Trazado_694054" data-name="Trazado 694054" d="M702.176,1669.449v8.288c0,1.34,14.948,2.426,33.387,2.426s33.387-1.086,33.387-2.426v-8.288Z" transform="translate(-702.176 -1666.935)" fill="#e59f39"/>
        <g id="Grupo_920050" data-name="Grupo 920050" transform="translate(0 2.514)">
          <path id="Trazado_694055" data-name="Trazado 694055" d="M726.338,1680.07v-10.621H702.176v8.288C702.176,1678.845,712.386,1679.779,726.338,1680.07Z" transform="translate(-702.176 -1669.449)" fill="#eab054"/>
          <path id="Trazado_694056" data-name="Trazado 694056" d="M949.526,1680.092c2.594.047,5.307.072,8.1.072,4.163,0,8.148-.055,11.823-.156v-10.558H949.526Z" transform="translate(-924.24 -1669.449)" fill="#eab054"/>
          <path id="Trazado_694057" data-name="Trazado 694057" d="M1157.508,1679.968c11.9-.371,20.227-1.23,20.227-2.23v-8.288h-20.227Z" transform="translate(-1110.96 -1669.449)" fill="#eab054"/>
        </g>
        <ellipse id="Elipse_7999" data-name="Elipse 7999" cx="33.387" cy="2.426" rx="33.387" ry="2.426" transform="translate(0)" fill="#e59f39"/>
        <path id="Trazado_694058" data-name="Trazado 694058" d="M814.814,1653.816c0,.929-12.309,1.682-27.494,1.682s-27.494-.753-27.494-1.682,12.309-1.682,27.494-1.682S814.814,1652.887,814.814,1653.816Z" transform="translate(-753.933 -1651.39)" fill="#f7cc7f"/>
      </g>
      <g id="Grupo_920053" data-name="Grupo 920053" transform="translate(62.959 144.223)">
        <path id="Trazado_694059" data-name="Trazado 694059" d="M739.405,1581.375v8.288c0,1.34,14.948,2.426,33.387,2.426s33.387-1.086,33.387-2.426v-8.288Z" transform="translate(-739.405 -1578.861)" fill="#e59f39"/>
        <g id="Grupo_920052" data-name="Grupo 920052" transform="translate(0 2.514)">
          <path id="Trazado_694060" data-name="Trazado 694060" d="M763.567,1592v-10.621H739.405v8.288C739.405,1590.771,749.615,1591.7,763.567,1592Z" transform="translate(-739.405 -1581.375)" fill="#eab054"/>
          <path id="Trazado_694061" data-name="Trazado 694061" d="M986.755,1592.018c2.594.047,5.307.072,8.1.072,4.163,0,8.148-.055,11.823-.157v-10.558H986.755Z" transform="translate(-961.469 -1581.375)" fill="#eab054"/>
          <path id="Trazado_694062" data-name="Trazado 694062" d="M1194.737,1591.894c11.9-.371,20.227-1.23,20.227-2.23v-8.288h-20.227Z" transform="translate(-1148.189 -1581.375)" fill="#eab054"/>
        </g>
        <ellipse id="Elipse_8000" data-name="Elipse 8000" cx="33.387" cy="2.426" rx="33.387" ry="2.426" transform="translate(0)" fill="#e59f39"/>
        <path id="Trazado_694063" data-name="Trazado 694063" d="M852.043,1565.741c0,.929-12.309,1.682-27.494,1.682s-27.494-.753-27.494-1.682,12.309-1.682,27.494-1.682S852.043,1564.812,852.043,1565.741Z" transform="translate(-791.162 -1563.315)" fill="#f7cc7f"/>
      </g>
      <g id="Grupo_920055" data-name="Grupo 920055" transform="translate(59.153 135.342)">
        <path id="Trazado_694064" data-name="Trazado 694064" d="M702.176,1494.507v8.288c0,1.34,14.948,2.426,33.387,2.426s33.387-1.086,33.387-2.426v-8.288Z" transform="translate(-702.176 -1491.993)" fill="#e59f39"/>
        <g id="Grupo_920054" data-name="Grupo 920054" transform="translate(0 2.514)">
          <path id="Trazado_694065" data-name="Trazado 694065" d="M726.338,1505.128v-10.621H702.176v8.288C702.176,1503.9,712.386,1504.837,726.338,1505.128Z" transform="translate(-702.176 -1494.507)" fill="#eab054"/>
          <path id="Trazado_694066" data-name="Trazado 694066" d="M949.526,1505.149c2.594.047,5.307.072,8.1.072,4.163,0,8.148-.055,11.823-.157v-10.558H949.526Z" transform="translate(-924.24 -1494.507)" fill="#eab054"/>
          <path id="Trazado_694067" data-name="Trazado 694067" d="M1157.508,1505.026c11.9-.371,20.227-1.23,20.227-2.23v-8.288h-20.227Z" transform="translate(-1110.96 -1494.507)" fill="#eab054"/>
        </g>
        <ellipse id="Elipse_8001" data-name="Elipse 8001" cx="33.387" cy="2.426" rx="33.387" ry="2.426" transform="translate(0)" fill="#e59f39"/>
        <path id="Trazado_694068" data-name="Trazado 694068" d="M814.814,1478.873c0,.929-12.309,1.682-27.494,1.682s-27.494-.753-27.494-1.682,12.309-1.682,27.494-1.682S814.814,1477.944,814.814,1478.873Z" transform="translate(-753.933 -1476.447)" fill="#f7cc7f"/>
      </g>
      <g id="Grupo_920057" data-name="Grupo 920057" transform="translate(228.699 161.385)">
        <path id="Trazado_694069" data-name="Trazado 694069" d="M2424.889,1748.316v7.971c0,1.289-14.375,2.333-32.107,2.333s-32.107-1.045-32.107-2.333v-7.971Z" transform="translate(-2360.675 -1745.898)" fill="#e59f39"/>
        <g id="Grupo_920056" data-name="Grupo 920056" transform="translate(0 2.418)">
          <path id="Trazado_694070" data-name="Trazado 694070" d="M2761.529,1758.53v-10.214h23.235v7.971C2784.764,1757.351,2774.946,1758.25,2761.529,1758.53Z" transform="translate(-2720.55 -1748.316)" fill="#eab054"/>
          <path id="Trazado_694071" data-name="Trazado 694071" d="M2582.687,1758.551c-2.494.045-5.1.069-7.79.069-4,0-7.835-.053-11.37-.151v-10.153h19.16Z" transform="translate(-2542.79 -1748.316)" fill="#eab054"/>
          <path id="Trazado_694072" data-name="Trazado 694072" d="M2380.126,1758.432c-11.439-.357-19.451-1.183-19.451-2.145v-7.971h19.451Z" transform="translate(-2360.675 -1748.316)" fill="#eab054"/>
        </g>
        <ellipse id="Elipse_8002" data-name="Elipse 8002" cx="32.107" cy="2.333" rx="32.107" ry="2.333" transform="translate(0)" fill="#e59f39"/>
        <path id="Trazado_694073" data-name="Trazado 694073" d="M2416.115,1733.283c0,.893,11.837,1.618,26.44,1.618s26.439-.724,26.439-1.618-11.837-1.618-26.439-1.618S2416.115,1732.389,2416.115,1733.283Z" transform="translate(-2410.448 -1730.95)" fill="#f7cc7f"/>
      </g>
      <g id="Grupo_920059" data-name="Grupo 920059" transform="translate(234.192 152.951)">
        <path id="Trazado_694074" data-name="Trazado 694074" d="M2478.623,1665.811v7.971c0,1.289-14.375,2.333-32.107,2.333s-32.107-1.045-32.107-2.333v-7.971Z" transform="translate(-2414.409 -1663.393)" fill="#e59f39"/>
        <g id="Grupo_920058" data-name="Grupo 920058" transform="translate(0 2.418)">
          <path id="Trazado_694075" data-name="Trazado 694075" d="M2815.264,1676.025v-10.214H2838.5v7.971C2838.5,1674.847,2828.681,1675.745,2815.264,1676.025Z" transform="translate(-2774.285 -1665.811)" fill="#eab054"/>
          <path id="Trazado_694076" data-name="Trazado 694076" d="M2636.422,1676.046c-2.494.045-5.1.069-7.79.069-4,0-7.835-.053-11.37-.151v-10.153h19.16Z" transform="translate(-2596.524 -1665.811)" fill="#eab054"/>
          <path id="Trazado_694077" data-name="Trazado 694077" d="M2433.86,1675.927c-11.439-.357-19.451-1.183-19.451-2.145v-7.971h19.451Z" transform="translate(-2414.409 -1665.811)" fill="#eab054"/>
        </g>
        <ellipse id="Elipse_8003" data-name="Elipse 8003" cx="32.107" cy="2.333" rx="32.107" ry="2.333" transform="translate(0)" fill="#e59f39"/>
        <ellipse id="Elipse_8004" data-name="Elipse 8004" cx="26.44" cy="1.618" rx="26.44" ry="1.618" transform="translate(5.668 0.716)" fill="#f7cc7f"/>
      </g>
      <g id="Grupo_920061" data-name="Grupo 920061" transform="translate(230.532 144.292)">
        <path id="Trazado_694078" data-name="Trazado 694078" d="M2442.821,1581.113v7.971c0,1.288-14.375,2.333-32.107,2.333s-32.107-1.045-32.107-2.333v-7.971Z" transform="translate(-2378.607 -1578.695)" fill="#e59f39"/>
        <g id="Grupo_920060" data-name="Grupo 920060" transform="translate(0 2.418)">
          <path id="Trazado_694079" data-name="Trazado 694079" d="M2779.463,1591.327v-10.214H2802.7v7.971C2802.7,1590.149,2792.88,1591.047,2779.463,1591.327Z" transform="translate(-2738.484 -1581.113)" fill="#eab054"/>
          <path id="Trazado_694080" data-name="Trazado 694080" d="M2600.62,1591.348c-2.494.045-5.1.069-7.79.069-4,0-7.836-.053-11.37-.15v-10.153h19.16Z" transform="translate(-2560.722 -1581.113)" fill="#eab054"/>
          <path id="Trazado_694081" data-name="Trazado 694081" d="M2398.058,1591.229c-11.439-.357-19.451-1.183-19.451-2.145v-7.971h19.451Z" transform="translate(-2378.607 -1581.113)" fill="#eab054"/>
        </g>
        <ellipse id="Elipse_8005" data-name="Elipse 8005" cx="32.107" cy="2.333" rx="32.107" ry="2.333" transform="translate(0)" fill="#e59f39"/>
        <ellipse id="Elipse_8006" data-name="Elipse 8006" cx="26.439" cy="1.618" rx="26.439" ry="1.618" transform="translate(5.668 0.716)" fill="#f7cc7f"/>
      </g>
      <g id="Grupo_920063" data-name="Grupo 920063" transform="translate(234.192 135.752)">
        <path id="Trazado_694082" data-name="Trazado 694082" d="M2478.623,1497.576v7.971c0,1.288-14.375,2.333-32.107,2.333s-32.107-1.045-32.107-2.333v-7.971Z" transform="translate(-2414.409 -1495.158)" fill="#e59f39"/>
        <g id="Grupo_920062" data-name="Grupo 920062" transform="translate(0 2.418)">
          <path id="Trazado_694083" data-name="Trazado 694083" d="M2815.264,1507.79v-10.214H2838.5v7.971C2838.5,1506.611,2828.681,1507.51,2815.264,1507.79Z" transform="translate(-2774.285 -1497.576)" fill="#eab054"/>
          <path id="Trazado_694084" data-name="Trazado 694084" d="M2636.422,1507.811c-2.494.045-5.1.069-7.79.069-4,0-7.835-.053-11.37-.151v-10.153h19.16Z" transform="translate(-2596.524 -1497.576)" fill="#eab054"/>
          <path id="Trazado_694085" data-name="Trazado 694085" d="M2433.86,1507.691c-11.439-.357-19.451-1.183-19.451-2.145v-7.971h19.451Z" transform="translate(-2414.409 -1497.576)" fill="#eab054"/>
        </g>
        <ellipse id="Elipse_8007" data-name="Elipse 8007" cx="32.107" cy="2.333" rx="32.107" ry="2.333" transform="translate(0)" fill="#e59f39"/>
        <ellipse id="Elipse_8008" data-name="Elipse 8008" cx="26.44" cy="1.618" rx="26.44" ry="1.618" transform="translate(5.668 0.716)" fill="#f7cc7f"/>
      </g>
      <g id="Grupo_920065" data-name="Grupo 920065" transform="translate(257.163 112.627)">
        <path id="Trazado_694086" data-name="Trazado 694086" d="M2695.293,1266.374l-1.929,6.733c-.312,1.089-12.708-1.507-27.688-5.8s-26.871-8.652-26.559-9.74l1.929-6.733Z" transform="translate(-2639.111 -1250.516)" fill="#e59f39"/>
        <g id="Grupo_920064" data-name="Grupo 920064" transform="translate(0 0.32)">
          <path id="Trazado_694087" data-name="Trazado 694087" d="M2972.5,1356.461l2.471-8.628,19.629,5.622-1.929,6.733C2992.413,1361.089,2983.9,1359.472,2972.5,1356.461Z" transform="translate(-2938.417 -1337.917)" fill="#eab054"/>
          <path id="Trazado_694088" data-name="Trazado 694088" d="M2821.538,1313.2c-2.118-.565-4.328-1.177-6.6-1.827-3.382-.969-6.606-1.941-9.569-2.878l2.457-8.577,16.186,4.636Z" transform="translate(-2788.375 -1294.903)" fill="#eab054"/>
          <path id="Trazado_694089" data-name="Trazado 694089" d="M2655.03,1264.088c-9.577-3.069-16.146-5.706-15.913-6.519l1.929-6.733,16.432,4.707Z" transform="translate(-2639.111 -1250.836)" fill="#eab054"/>
        </g>
        <path id="Trazado_694090" data-name="Trazado 694090" d="M2658.184,1247.958c-.312,1.089,11.579,5.449,26.559,9.74s27.377,6.887,27.688,5.8-11.579-5.449-26.559-9.74S2658.5,1246.869,2658.184,1247.958Z" transform="translate(-2656.229 -1247.71)" fill="#e59f39"/>
        <path id="Trazado_694091" data-name="Trazado 694091" d="M2705.042,1262.272c-.216.755,9.609,4.231,21.944,7.764s22.511,5.786,22.727,5.031-9.609-4.231-21.944-7.764S2705.258,1261.517,2705.042,1262.272Z" transform="translate(-2698.299 -1260.653)" fill="#f7cc7f"/>
      </g>
      <g id="Grupo_920067" data-name="Grupo 920067" transform="translate(241.825 81.839)">
        <path id="Trazado_694092" data-name="Trazado 694092" d="M2543.3,949.5l2.053,6.7c.332,1.083-11.476,5.664-26.373,10.233s-27.244,7.395-27.576,6.312l-2.054-6.7Z" transform="translate(-2489.323 -949.202)" fill="#e59f39"/>
        <g id="Grupo_920066" data-name="Grupo 920066" transform="translate(0.029 0.302)">
          <path id="Trazado_694093" data-name="Trazado 694093" d="M2828.757,964.071l-2.631-8.581,19.521-5.987,2.053,6.7C2847.975,957.1,2839.958,960.379,2828.757,964.071Z" transform="translate(-2791.698 -949.504)" fill="#eab054"/>
          <path id="Trazado_694094" data-name="Trazado 694094" d="M2678.51,1019.388c-2.084.681-4.27,1.373-6.527,2.065-3.363,1.031-6.6,1.974-9.591,2.8l-2.616-8.53,16.1-4.937Z" transform="translate(-2642.354 -1004.525)" fill="#eab054"/>
          <path id="Trazado_694095" data-name="Trazado 694095" d="M2508.3,1070.82c-9.7,2.647-16.646,4.018-16.894,3.21l-2.054-6.7,16.341-5.012Z" transform="translate(-2489.352 -1050.789)" fill="#eab054"/>
        </g>
        <path id="Trazado_694096" data-name="Trazado 694096" d="M2489.079,963.324c.332,1.083,12.678-1.744,27.576-6.312s26.705-9.15,26.373-10.232-12.678,1.743-27.576,6.312S2488.747,962.242,2489.079,963.324Z" transform="translate(-2489.072 -946.549)" fill="#e59f39"/>
        <path id="Trazado_694097" data-name="Trazado 694097" d="M2535.681,975.526c.23.751,10.362-1.691,22.63-5.453s22.026-7.42,21.8-8.171-10.362,1.691-22.63,5.453S2535.451,974.775,2535.681,975.526Z" transform="translate(-2530.913 -960.21)" fill="#f7cc7f"/>
      </g>
      <path id="Trazado_694098" data-name="Trazado 694098" d="M1295.066,1755.836s.794,4.211.794,4.22c.044.549.028,1.936.146,2.415.446,1.8,8.02-2.576,6.033-2.928a8.24,8.24,0,0,1-1.782-1.909,16.712,16.712,0,0,1-1-2.782Z" transform="translate(-1175.303 -1590.381)" fill="#f7a491"/>
      <path id="Trazado_694099" data-name="Trazado 694099" d="M1296.818,1792.838a29.6,29.6,0,0,1-2.95.583c-.995.1-2.272-1.446-2.986-1.154-.786.322-1.213,5.226-1.213,5.226s12.494.569,15.446-.247C1306.285,1796.924,1300.706,1794.327,1296.818,1792.838Z" transform="translate(-1170.457 -1623.938)" fill="#f47458"/>
      <path id="Trazado_694100" data-name="Trazado 694100" d="M1465.474,1753.957s.794,4.211.794,4.22c.044.549.028,1.936.146,2.415.446,1.8,7.88-2.288,5.893-2.64a11.238,11.238,0,0,1-1.642-2.2,16.707,16.707,0,0,1-1-2.782Z" transform="translate(-1328.29 -1588.694)" fill="#f7a491"/>
      <path id="Trazado_694101" data-name="Trazado 694101" d="M1465.348,1792.838a29.609,29.609,0,0,1-2.951.583c-.995.1-2.272-1.446-2.986-1.154-.786.322-1.213,5.226-1.213,5.226s12.494.569,15.446-.247C1474.814,1796.924,1469.235,1794.327,1465.348,1792.838Z" transform="translate(-1321.758 -1623.938)" fill="#f47458"/>
      <path id="Trazado_694102" data-name="Trazado 694102" d="M1038.2,1294.532l22.729-5.272s10.193-2.694,12.653.469,12.908,46.819,12.908,46.819-5.389.469-5.741.234l-12.615-22.391a19.53,19.53,0,0,1-2.327-6.887l-.895-6.411-9.255,2.695s-10.661,2.343-15-.352S1038.2,1294.532,1038.2,1294.532Z" transform="translate(-944.334 -1171.425)" fill="#0e2e35"/>
      <path id="Trazado_694103" data-name="Trazado 694103" d="M1096.941,966.929c.359.015,1.343.343,2.781,3.052,1.837,3.46,4.522,13.912,4.522,13.912l-8.014,2.975-1.03-2.182-1.7-16.8S1096.841,966.925,1096.941,966.929Z" transform="translate(-994.346 -883.006)" fill="#eab054"/>
      <path id="Trazado_694104" data-name="Trazado 694104" d="M898.66,952.191a49.118,49.118,0,0,1,10.594,1.507s1.933,16.561-1.741,29.146c-.822,2.817.68,11.678.68,11.678l-23.748-.312s2.813-21.421,1.753-24.881-1.085-15.519-1.085-15.519.163-.025,5.336-.916A53.944,53.944,0,0,1,898.66,952.191Z" transform="translate(-806.66 -869.775)" fill="#f7cc7f"/>
      <path id="Trazado_694105" data-name="Trazado 694105" d="M855.935,985.813c2.22-.83,3.307,19.108,3.606,27.315a97.065,97.065,0,0,0,12.492-.125c.8-.06,2.653-.736,3.451-.84a8.019,8.019,0,0,1,1.961-.093,37.1,37.1,0,0,1,4.6,2.062c.435.454,1.61,1.6,1.412,2.1s-2.261-1.381-2.261-1.381l-1.008-.564c1.255,1.221,3.648,2.83,3.3,3.416s-2.495-1.061-4.034-2.174c1.32,1.188,2.959,3.314,2.581,3.645-.339.3-2.2-2.163-4.2-2.872-.739-.263-1.475.465-2.056.552a4.194,4.194,0,0,1-1.505.084l-2-.193a10.419,10.419,0,0,0-1.652.24c-.862.183-2.276.375-3.373.642-6.32,1.539-8.428,2.254-10.363,2.252C851.027,1019.875,850.687,987.775,855.935,985.813Z" transform="translate(-777.739 -899.937)" fill="#f7a491"/>
      <path id="Trazado_694106" data-name="Trazado 694106" d="M845.826,988.171c-.416-8.406-.355-18.767,4.373-20.535,1.866-.7,5.154,3.5,4.563,20.706A35.654,35.654,0,0,1,845.826,988.171Z" transform="translate(-771.844 -883.576)" fill="#eab054"/>
      <path id="Trazado_694107" data-name="Trazado 694107" d="M990.256,1118.858l-22.374,1.462a1.462,1.462,0,0,0-1.291.994l-5.792,17.252-12.335.806a.626.626,0,0,0-.584.665h0a.626.626,0,0,0,.665.583l35.106-2.293a2.456,2.456,0,0,0,2.141-1.593l5.927-15.906A1.462,1.462,0,0,0,990.256,1118.858Z" transform="translate(-863.609 -1019.401)" fill="#f47458"/>
      <path id="Trazado_694108" data-name="Trazado 694108" d="M1231.879,1210.292a1.234,1.234,0,1,1-1.141-1.464A1.319,1.319,0,0,1,1231.879,1210.292Z" transform="translate(-1116.381 -1100.175)" fill="#fff"/>
      <path id="Trazado_694109" data-name="Trazado 694109" d="M882.778,1316.679l24.768-4.276s10.708-1.631,13.169,1.532,9.607,44.168,9.607,44.168-5.389.469-5.741.234c-.272-.182-6.8-13.852-9.727-20.011a23.411,23.411,0,0,1-1.944-6.163l-.942-5.581-3.117,1.073a38.041,38.041,0,0,1-17.061,1.826,16.053,16.053,0,0,1-6.046-1.679C881.409,1325.107,882.778,1316.679,882.778,1316.679Z" transform="translate(-804.978 -1192.785)" fill="#184655"/>
      <path id="Trazado_694110" data-name="Trazado 694110" d="M982.259,873.165l.482,3.577s1.08,5.153-.31,6.146-5.908-6.293-5.908-6.293l.477-9.063Z" transform="translate(-889.324 -793.771)" fill="#f7a491"/>
      <path id="Trazado_694111" data-name="Trazado 694111" d="M979.684,870.469a10.281,10.281,0,0,0,5.821,5.728l-.409-3.032-5.258-5.633Z" transform="translate(-892.162 -793.771)" fill="#f47458"/>
      <path id="Trazado_694112" data-name="Trazado 694112" d="M976.552,770.528a4.78,4.78,0,0,1,5.511,4.823,36.151,36.151,0,0,1-.4,4.587c-.64,4.129-3.466,7.764-5.335,7.439s-6.571-3.886-5.743-9.761C971.092,773.989,973.462,771.025,976.552,770.528Z" transform="translate(-883.902 -706.629)" fill="#f7a491"/>
      <path id="Trazado_694113" data-name="Trazado 694113" d="M960.24,830.627a1.392,1.392,0,1,1-1.059-1.877A1.54,1.54,0,0,1,960.24,830.627Z" transform="translate(-872.264 -758.938)" fill="#f7a491"/>
      <path id="Trazado_694114" data-name="Trazado 694114" d="M967.495,764.408s2.26.56,3.1-.889,3.837-4.574,7.649-3.278-3.354-3.151-3.659-3.151-3.964-.025-3.964-.025-2.821,2.312-2.922,2.566-.915,3.024-.915,3.024Z" transform="translate(-880.578 -694.596)" fill="#0e2e35"/>
      <g id="Grupo_920069" data-name="Grupo 920069" transform="translate(197.641 153.272)">
        <rect id="Rectángulo_321278" data-name="Rectángulo 321278" width="56.247" height="20.472" transform="translate(56.247 20.472) rotate(180)" fill="#50bfa5"/>
        <g id="Grupo_920068" data-name="Grupo 920068" transform="translate(0 0)">
          <rect id="Rectángulo_321279" data-name="Rectángulo 321279" width="56.247" height="2.633" transform="translate(56.247 5.617) rotate(180)" fill="#96d9c9"/>
          <rect id="Rectángulo_321280" data-name="Rectángulo 321280" width="56.247" height="2.633" transform="translate(56.247 10.761) rotate(180)" fill="#96d9c9"/>
          <rect id="Rectángulo_321281" data-name="Rectángulo 321281" width="56.247" height="2.633" transform="translate(56.247 15.905) rotate(180)" fill="#96d9c9"/>
          <rect id="Rectángulo_321282" data-name="Rectángulo 321282" width="56.247" height="2.633" transform="translate(56.247 20.472) rotate(180)" fill="#96d9c9"/>
          <rect id="Rectángulo_321283" data-name="Rectángulo 321283" width="11.698" height="20.472" transform="translate(32.637 20.472) rotate(180)" fill="#f7cc7f"/>
        </g>
        <rect id="Rectángulo_321284" data-name="Rectángulo 321284" width="8.494" height="20.472" transform="translate(64.059 20.472) rotate(180)" fill="#3c8f7c"/>
      </g>
      <rect id="Rectángulo_321285" data-name="Rectángulo 321285" width="310.816" height="1.774" transform="translate(5.58 173.452)" fill="#0e2e35"/>
      <path id="Trazado_694115" data-name="Trazado 694115" d="M1072,221.311a5.588,5.588,0,0,0-6.851-4.15,8.226,8.226,0,0,0-9.891-4.369,10.133,10.133,0,0,0-18.2,1.77,6.951,6.951,0,0,0-10.33,6.074c0,.228.012.452.033.675Z" transform="translate(-934.396 -201.564)" fill="#fff" opacity="0.8"/>
      <path id="Trazado_694116" data-name="Trazado 694116" d="M1368.124,519.845a4.229,4.229,0,0,0-5.184-3.141,6.226,6.226,0,0,0-7.485-3.306,7.668,7.668,0,0,0-13.774,1.34,5.26,5.26,0,0,0-7.818,4.6c0,.172.009.342.025.51Z" transform="translate(-1210.134 -472.509)" fill="#fff" opacity="0.8"/>
      <path id="Trazado_694117" data-name="Trazado 694117" d="M736.453,493.327a3.687,3.687,0,0,1,4.521-2.738,5.428,5.428,0,0,1,6.527-2.883,6.687,6.687,0,0,1,12.011,1.168,4.587,4.587,0,0,1,6.817,4.008c0,.15-.008.3-.022.445Z" transform="translate(-673.796 -449.869)" fill="#fff" opacity="0.8"/>
      <g id="Grupo_920070" data-name="Grupo 920070" transform="translate(121.728 61.025)">
        <path id="Trazado_694118" data-name="Trazado 694118" d="M1354.678,748.726l.4,4.85,2.818-3.173,9.112-7.463-7.771,2.448s-3.826,1.859-4,2.1A10.044,10.044,0,0,0,1354.678,748.726Z" transform="translate(-1350.549 -742.94)" fill="#50bfa5"/>
        <path id="Trazado_694119" data-name="Trazado 694119" d="M1314.287,746.641l16.458-3.7-12.328,5.785Z" transform="translate(-1314.287 -742.94)" fill="#96d9c9"/>
        <path id="Trazado_694120" data-name="Trazado 694120" d="M1372.042,752.317l-5.073-2.531,11.072-6.846Z" transform="translate(-1361.584 -742.94)" fill="#96d9c9"/>
      </g>
      <g id="Grupo_920073" data-name="Grupo 920073" transform="translate(115.814 68.802)">
        <g id="Grupo_920071" data-name="Grupo 920071" transform="translate(7.997)">
          <path id="Trazado_694121" data-name="Trazado 694121" d="M1334.789,819.724a6.012,6.012,0,0,1,1.325-.348l-.037-.353a6.281,6.281,0,0,0-1.413.369Z" transform="translate(-1334.664 -819.023)" fill="#3c8f7c"/>
        </g>
        <g id="Grupo_920072" data-name="Grupo 920072" transform="translate(0 1.805)">
          <path id="Trazado_694122" data-name="Trazado 694122" d="M1256.435,864.242a14.414,14.414,0,0,0,1.784-1.951l.283.213a14.746,14.746,0,0,1-1.828,2Zm3.155-4.208c.174-.365.334-.745.475-1.13.16-.436.3-.892.422-1.355l.343.089c-.123.474-.268.942-.432,1.389-.146.4-.31.786-.488,1.161Zm1.432-7.755.354-.008a22.9,22.9,0,0,1-.087,2.7l-.353-.033A22.544,22.544,0,0,0,1261.022,852.279Zm-.5-5.315.351-.05c.148,1.038.254,1.885.333,2.668l-.353.036C1260.771,848.84,1260.665,848,1260.518,846.964Zm-.4-2.67a13.054,13.054,0,0,1-.134-2.692l.354.022a12.706,12.706,0,0,0,.131,2.617l0,.021-.351.048Zm.446-5.356a6.44,6.44,0,0,1,1.539-2.262l.244.258a6.087,6.087,0,0,0-1.455,2.138Z" transform="translate(-1256.435 -836.676)" fill="#3c8f7c"/>
        </g>
      </g>
    </g>
  </g>
</svg>
