<svg xmlns="http://www.w3.org/2000/svg" width="62.781" height="62.78" viewBox="0 0 62.781 62.78">
  <path id="Icon_awesome-book-reader" data-name="Icon awesome-book-reader" d="M43.161,11.771A11.771,11.771,0,1,0,31.39,23.542,11.771,11.771,0,0,0,43.161,11.771ZM28.642,29.563c-7.275-4.453-19.058-5.677-24.988-6.014A3.393,3.393,0,0,0,0,26.87V54.189a3.372,3.372,0,0,0,3.248,3.317c5.353.281,16.184,1.31,23.67,5.08a1.707,1.707,0,0,0,2.511-1.455V30.968a1.631,1.631,0,0,0-.787-1.405Zm30.484-6.014c-5.928.336-17.713,1.561-24.987,6.014a1.662,1.662,0,0,0-.786,1.426V61.127a1.712,1.712,0,0,0,2.519,1.459c7.485-3.767,18.309-4.8,23.661-5.076a3.374,3.374,0,0,0,3.248-3.318V26.87A3.394,3.394,0,0,0,59.126,23.548Z" fill="#fff"/>
</svg>
