<svg xmlns="http://www.w3.org/2000/svg" width="158" height="156" viewBox="0 0 158 156">
  <g id="Grupo_940163" data-name="Grupo 940163" transform="translate(-807.396 -1490)">
    <ellipse id="Elipse_7689" data-name="Elipse 7689" cx="79" cy="78" rx="79" ry="78" transform="translate(807.396 1490)" fill="#0b5999"/>
    <path id="Icon_material-group-add" data-name="Icon material-group-add" d="M35.077,29.423H21.923V16.269H13.154V29.423H0v8.769H13.154V51.346h8.769V38.192H35.077Zm43.846,4.385a13.154,13.154,0,1,0-3.99-25.694,21.635,21.635,0,0,1,3.946,12.54,22.061,22.061,0,0,1-3.946,12.54A13.109,13.109,0,0,0,78.923,33.808ZM57,33.808A13.154,13.154,0,1,0,43.846,20.654,13.1,13.1,0,0,0,57,33.808Zm29.026,9.471c3.639,3.2,6.051,7.278,6.051,12.452V64.5h13.154V55.731C105.231,48.978,94.839,44.813,86.026,43.278ZM57,42.577c-8.769,0-26.308,4.385-26.308,13.154V64.5H83.308V55.731C83.308,46.962,65.769,42.577,57,42.577Z" transform="translate(822.767 1530.5)" fill="#fff"/>
  </g>
</svg>
