<svg xmlns="http://www.w3.org/2000/svg" width="47.275" height="63.034" viewBox="0 0 47.275 63.034">
  <path id="Icon_awesome-file-contract" data-name="Icon awesome-file-contract" d="M27.577,16.743V0H2.955A2.948,2.948,0,0,0,0,2.955V60.079a2.948,2.948,0,0,0,2.955,2.955H44.321a2.948,2.948,0,0,0,2.955-2.955V19.7H30.532A2.963,2.963,0,0,1,27.577,16.743ZM7.879,8.864a.985.985,0,0,1,.985-.985h9.849a.985.985,0,0,1,.985.985v1.97a.985.985,0,0,1-.985.985H8.864a.985.985,0,0,1-.985-.985Zm0,7.879a.985.985,0,0,1,.985-.985h9.849a.985.985,0,0,1,.985.985v1.97a.985.985,0,0,1-.985.985H8.864a.985.985,0,0,1-.985-.985ZM31.617,47.275h5.81a1.97,1.97,0,1,1,0,3.94h-5.81a5.293,5.293,0,0,1-4.757-2.937,1.364,1.364,0,0,0-1.252-.8,1.343,1.343,0,0,0-1.234.762l-.944,1.889a1.968,1.968,0,0,1-1.762,1.088c-.047,0-.092,0-.14-.006A1.963,1.963,0,0,1,19.8,49.867l-2.072-6.212-1.306,3.925a5.315,5.315,0,0,1-5.048,3.636H9.849a1.97,1.97,0,0,1,0-3.94h1.525a1.38,1.38,0,0,0,1.31-.943l2.239-6.727a2.956,2.956,0,0,1,5.608,0l1.709,5.126a5.525,5.525,0,0,1,8.125,1.743A1.4,1.4,0,0,0,31.617,47.275Zm14.8-34.349L34.361.862A2.953,2.953,0,0,0,32.268,0h-.751V15.758H47.275v-.751A2.945,2.945,0,0,0,46.414,12.927Z" fill="#fff"/>
</svg>
