<svg xmlns="http://www.w3.org/2000/svg" xmlns:xlink="http://www.w3.org/1999/xlink" width="373.174" height="365.191" viewBox="0 0 373.174 365.191">
  <defs>
    <linearGradient id="linear-gradient" x1="0.392" y1="0.493" x2="0.819" y2="0.269" gradientUnits="objectBoundingBox">
      <stop offset="0" stop-color="#105b91"/>
      <stop offset="1" stop-color="#0d4d7a"/>
    </linearGradient>
    <linearGradient id="linear-gradient-2" x1="0.375" y1="0.194" x2="0.625" y2="0.806" gradientUnits="objectBoundingBox">
      <stop offset="0" stop-color="#31adcc"/>
      <stop offset="1" stop-color="#198aa6"/>
    </linearGradient>
    <linearGradient id="linear-gradient-3" x1="0.308" y1="0.363" x2="0.639" y2="0.599" gradientUnits="objectBoundingBox">
      <stop offset="0" stop-color="#fdd248"/>
      <stop offset="1" stop-color="#fabd23"/>
    </linearGradient>
    <linearGradient id="linear-gradient-4" x1="0.431" y1="0.276" x2="0.565" y2="0.711" xlink:href="#linear-gradient"/>
    <linearGradient id="linear-gradient-5" x1="0.327" y1="0.212" x2="0.668" y2="0.795" xlink:href="#linear-gradient-2"/>
    <linearGradient id="linear-gradient-6" x1="0.45" y1="0.326" x2="0.542" y2="0.648" xlink:href="#linear-gradient-3"/>
    <linearGradient id="linear-gradient-7" x1="0.412" y1="0.868" x2="0.533" y2="0.173" gradientUnits="objectBoundingBox">
      <stop offset="0" stop-color="#bed2e8"/>
      <stop offset="1" stop-color="#cee0f3"/>
    </linearGradient>
    <linearGradient id="linear-gradient-8" x1="0.852" y1="0.477" x2="0.171" y2="0.546" xlink:href="#linear-gradient"/>
    <linearGradient id="linear-gradient-9" x1="0.717" y1="0.424" x2="0.472" y2="0.508" xlink:href="#linear-gradient"/>
    <linearGradient id="linear-gradient-10" x1="0.414" y1="0.857" x2="0.54" y2="0.141" xlink:href="#linear-gradient-7"/>
    <linearGradient id="linear-gradient-11" x1="0.668" y1="0.318" x2="0.246" y2="0.609" gradientUnits="objectBoundingBox">
      <stop offset="0" stop-color="#38251b"/>
      <stop offset="1" stop-color="#1c120d"/>
    </linearGradient>
    <linearGradient id="linear-gradient-12" x1="0.36" y1="0.429" x2="0.747" y2="0.711" gradientUnits="objectBoundingBox">
      <stop offset="0" stop-color="#4d3529"/>
      <stop offset="1" stop-color="#38251b"/>
    </linearGradient>
    <linearGradient id="linear-gradient-13" x1="0.46" y1="0.85" x2="0.497" y2="0.498" xlink:href="#linear-gradient-7"/>
    <linearGradient id="linear-gradient-14" x1="0.269" y1="0.182" x2="0.611" y2="0.653" xlink:href="#linear-gradient-2"/>
    <linearGradient id="linear-gradient-15" x1="0.371" y1="0.397" x2="0.593" y2="0.575" xlink:href="#linear-gradient-3"/>
    <linearGradient id="linear-gradient-16" x1="0.417" y1="0.382" x2="0.638" y2="0.696" xlink:href="#linear-gradient"/>
    <linearGradient id="linear-gradient-17" x1="0.536" y1="0.498" x2="0" y2="0.486" gradientUnits="objectBoundingBox">
      <stop offset="0" stop-color="#072c47"/>
      <stop offset="1" stop-color="#104e7a"/>
    </linearGradient>
    <linearGradient id="linear-gradient-18" x1="0.344" y1="0.517" x2="0.799" y2="0.495" xlink:href="#linear-gradient"/>
    <linearGradient id="linear-gradient-19" x1="0.503" y1="0.442" x2="0.136" y2="0.784" gradientUnits="objectBoundingBox">
      <stop offset="0" stop-color="#8fba61"/>
      <stop offset="1" stop-color="#799c54"/>
    </linearGradient>
    <linearGradient id="linear-gradient-20" x1="0.777" y1="0.632" x2="0.515" y2="0.474" xlink:href="#linear-gradient-19"/>
    <linearGradient id="linear-gradient-21" x1="0.483" y1="0.106" x2="0.611" y2="0.592" xlink:href="#linear-gradient-11"/>
    <linearGradient id="linear-gradient-22" x1="0.381" y1="0.459" x2="0.712" y2="0.834" xlink:href="#linear-gradient-12"/>
    <linearGradient id="linear-gradient-23" x1="0.383" y1="0.435" x2="0.019" y2="0.69" xlink:href="#linear-gradient-19"/>
    <linearGradient id="linear-gradient-24" x1="0.918" y1="0.452" x2="0.033" y2="0.552" xlink:href="#linear-gradient-19"/>
    <linearGradient id="linear-gradient-25" x1="0.615" y1="0.519" x2="0.373" y2="0.462" xlink:href="#linear-gradient-19"/>
    <linearGradient id="linear-gradient-26" x1="0.816" y1="0.257" x2="0.429" y2="0.433" xlink:href="#linear-gradient-3"/>
    <linearGradient id="linear-gradient-27" x1="0.413" y1="0.303" x2="0.684" y2="0.884" xlink:href="#linear-gradient-2"/>
    <linearGradient id="linear-gradient-28" x1="0.606" y1="0.308" x2="0.368" y2="0.824" xlink:href="#linear-gradient-2"/>
    <linearGradient id="linear-gradient-29" x1="0.252" y1="0.083" x2="0.762" y2="0.892" xlink:href="#linear-gradient-2"/>
    <linearGradient id="linear-gradient-30" x1="0.632" y1="0.285" x2="0.362" y2="0.87" xlink:href="#linear-gradient-2"/>
    <linearGradient id="linear-gradient-31" x1="0.585" y1="0.283" x2="0.31" y2="0.878" xlink:href="#linear-gradient-2"/>
    <linearGradient id="linear-gradient-32" x1="0.348" y1="0.392" x2="0.624" y2="0.589" xlink:href="#linear-gradient-3"/>
    <linearGradient id="linear-gradient-33" x1="0.345" y1="0.234" x2="0.663" y2="0.788" xlink:href="#linear-gradient-2"/>
    <linearGradient id="linear-gradient-34" x1="0.452" y1="0.517" x2="0.375" y2="0.598" xlink:href="#linear-gradient-3"/>
    <linearGradient id="linear-gradient-35" x1="0.401" y1="0.233" x2="0.587" y2="0.796" xlink:href="#linear-gradient-3"/>
    <linearGradient id="linear-gradient-36" x1="0.7" y1="0.327" x2="0.308" y2="0.673" xlink:href="#linear-gradient"/>
    <linearGradient id="linear-gradient-37" x1="1.067" y1="0.371" x2="0.204" y2="0.542" xlink:href="#linear-gradient"/>
    <linearGradient id="linear-gradient-38" x1="0.558" y1="0.24" x2="0.384" y2="0.713" xlink:href="#linear-gradient-3"/>
    <linearGradient id="linear-gradient-39" x1="0.672" y1="0.328" x2="0.21" y2="0.646" gradientUnits="objectBoundingBox">
      <stop offset="0" stop-color="#722e40"/>
      <stop offset="1" stop-color="#48202d"/>
    </linearGradient>
    <linearGradient id="linear-gradient-40" x1="0.47" y1="0.408" x2="0.565" y2="0.703" xlink:href="#linear-gradient"/>
  </defs>
  <g id="Grupo_924122" data-name="Grupo 924122" transform="translate(-563.177 -83.216)">
    <path id="Trazado_686873" data-name="Trazado 686873" d="M963.649,1423.975l119.919-66.317c2.944-1.345,7.27-2.614,10.156-.855l7.388,4.5c1.485.905,6.373,3.911,3.1,5.688-9.616,5.229-111.661,62.144-121.426,67.456a13.709,13.709,0,0,1-7.385,1.132,18.55,18.55,0,0,1-8-2.382l-2.951-1.82c-2.085-1.287-3.241-2.692-3.352-4.04C961,1426.021,961.842,1424.8,963.649,1423.975Z" transform="translate(-318.665 -1019.238)" fill="#eaf4ff" fill-rule="evenodd"/>
    <g id="Grupo_913967" data-name="Grupo 913967" transform="translate(618.326 103.531)">
      <g id="Grupo_913966" data-name="Grupo 913966" transform="translate(0 0)">
        <path id="Trazado_686874" data-name="Trazado 686874" d="M960.1,186.22a6.644,6.644,0,0,1,5.654-.632L970,187.247c1.541,7.976-87.9,300.361-89.866,302.389l-3.789-1.43c-2.487-.979-3.792-3.569-4.157-6.086L840.2,263.784a.12.12,0,0,1,0-.024,15.6,15.6,0,0,1,2.6-10.562,12.291,12.291,0,0,1,4.273-4.12Z" transform="translate(-840.071 -185.214)" fill-rule="evenodd" fill="url(#linear-gradient)"/>
        <path id="Trazado_686875" data-name="Trazado 686875" d="M868.1,257.165l113.025-62.858c4.61-2.555,9-.1,9.813,5.458L1022.928,418.1c.814,5.56-2.25,12.145-6.859,14.7L903.042,495.66c-4.61,2.555-9.009.108-9.823-5.451L861.232,271.87C860.417,266.311,863.494,259.72,868.1,257.165Z" transform="translate(-856.913 -191.686)" fill-rule="evenodd" fill="url(#linear-gradient-2)"/>
      </g>
      <path id="Trazado_686876" data-name="Trazado 686876" d="M868.1,257.166l113.025-62.858c4.61-2.555,9-.1,9.813,5.458l1.638,11.181-129.7,72.132-1.642-11.208C860.417,266.311,863.494,259.72,868.1,257.166Z" transform="translate(-856.913 -191.687)" fill="#11639d" fill-rule="evenodd"/>
    </g>
    <path id="Trazado_686877" data-name="Trazado 686877" d="M1046.224,503.075l-38.545,21.133-.168-1.165,38.545-21.132-4.7-32.029L1002.808,491l-.168-1.165,38.545-21.12-4.69-32.029L997.937,457.82l-.168-1.164,38.546-21.133-4.689-32.042-38.543,21.133-.183-1.164,38.558-21.118-4.7-32.042-38.545,21.125-.168-1.162,38.545-21.128-4.7-32.024-38.545,21.127,4.7,32.025.168,1.164,4.687,32.032.183,1.164,4.687,32.042.168,1.164,4.7,32.017.168,1.165,4.7,32.041.168,1.165,4.7,32.029h0l38.545-21.132-4.7-32.029ZM943.777,379.914l38.545-21.128,4.7,32.024L948.48,411.933l.168,1.165,38.545-21.123h0l4.7,32.032L953.337,445.14l.181,1.165,38.545-21.13,4.686,32.04-38.542,21.12.181,1.164,38.545-21.133h0l4.687,32.029-38.542,21.132.168,1.165,38.542-21.133h0l4.7,32.041-38.542,21.117.168,1.168,38.541-21.118h0l4.7,32.027-38.543,21.132h0l-4.7-32.041-.168-1.168-4.7-32.026-.168-1.165-4.69-32.029-.181-1.164-4.69-32.029-.181-1.165L948.648,413.1l-.168-1.165-4.7-32.019ZM904.214,401.6l4.7,32.024.168,1.165,4.7,32.029.165,1.165,4.689,32.041.181,1.165,4.69,32.017.168,1.164,4.7,32.042.168,1.165,4.7,32.029h0l38.545-21.12-4.7-32.041h0l-38.546,21.132-.168-1.165,38.546-21.133-4.7-32.029h0l-38.545,21.12-.168-1.164,38.545-21.12-4.69-32.03h0l-38.545,21.133-.181-1.165,38.545-21.132-4.69-32.027-38.544,21.118-.165-1.165L952.33,445.7l-4.7-32.041h0l-38.543,21.132-.168-1.165,38.545-21.133-4.7-32.022h0L904.214,401.6Zm118.524-66.222,29.375,200.332L932.407,601.323,903.1,400.954Z" transform="translate(-272.224 -201.939)" fill="#33c1e5" fill-rule="evenodd"/>
    <path id="Trazado_686878" data-name="Trazado 686878" d="M1301.476,1360.1l4.189-2.313a2.636,2.636,0,0,0,1.2-2.158l.224-5.659a2.556,2.556,0,0,1,1.2-2.155,1.218,1.218,0,0,1,1.769.511l2.35,4.225a1.235,1.235,0,0,0,1.77.518l4.186-2.328c1.515-.848,2.66,1.2,1.668,2.98l-2.739,4.926a2.634,2.634,0,0,0-.1,2.469l2.362,4.218a2.67,2.67,0,0,1-.94,3.361,1.277,1.277,0,0,1-1,.126l-4.04-1.185a1.29,1.29,0,0,0-1,.137,2.212,2.212,0,0,0-.837.879l-2.729,4.938a2.2,2.2,0,0,1-.833.888c-.974.54-2.1-.162-2.031-1.714l.244-5.662a1.722,1.722,0,0,0-1.035-1.84l-4.048-1.165C1299.852,1363.676,1299.963,1360.938,1301.476,1360.1Z" transform="translate(-590.292 -1012.575)" fill="#8eb961" fill-rule="evenodd"/>
    <path id="Trazado_686879" data-name="Trazado 686879" d="M1249.164,1026.654c2.358-1.308,4.861.456,4.835,3.869a6.827,6.827,0,0,1-1.943,4.725,4.636,4.636,0,0,1-.956.717c-2.354,1.3-4.844-.458-4.826-3.855a6.812,6.812,0,0,1,1.927-4.732,4.67,4.67,0,0,1,.963-.723Zm2.273,10.912a6.256,6.256,0,0,0,1.283-.959,9.2,9.2,0,0,0,2.614-6.356c.028-4.577-3.329-6.956-6.5-5.2a6.185,6.185,0,0,0-1.3.977,9.135,9.135,0,0,0-2.6,6.353c-.02,4.565,3.333,6.939,6.5,5.184Zm-10.8-3.889a1.732,1.732,0,0,0-.731,1.8l.576,2.682a.849.849,0,0,0,1.267.684l.282-.157a.791.791,0,0,1,1.117.309,8.49,8.49,0,0,0,.513.761,1.582,1.582,0,0,1,.115,1.518l-.148.364a1.406,1.406,0,0,0,.376,1.748l1.942,1.049a.8.8,0,0,0,.787-.028,1.5,1.5,0,0,0,.63-.758l.15-.355a1.481,1.481,0,0,1,.624-.748.907.907,0,0,1,.466-.12c.275,0,.554-.01.83-.035a.889.889,0,0,1,.927.8l.074.35a.849.849,0,0,0,1.267.684l2.164-1.2a1.73,1.73,0,0,0,.734-1.793l-.075-.349a1.826,1.826,0,0,1,.423-1.544c.233-.256.45-.521.666-.794a1.349,1.349,0,0,1,.413-.368.793.793,0,0,1,.779-.029l.254.131a.8.8,0,0,0,.788-.027,1.5,1.5,0,0,0,.63-.758l1.125-2.749a1.408,1.408,0,0,0-.376-1.747l-.257-.139a1.249,1.249,0,0,1-.494-1.307c.052-.369.088-.738.112-1.109a1.675,1.675,0,0,1,.76-1.348l.282-.157a1.729,1.729,0,0,0,.734-1.793l-.577-2.681c-.148-.692-.716-1-1.268-.692l-.282.156a.79.79,0,0,1-1.117-.307,8.11,8.11,0,0,0-.514-.761,1.57,1.57,0,0,1-.112-1.511l.149-.363a1.419,1.419,0,0,0-.378-1.754l-1.942-1.05a.8.8,0,0,0-.787.028,1.506,1.506,0,0,0-.631.757l-.149.363a1.484,1.484,0,0,1-.624.748.9.9,0,0,1-.466.12,6.8,6.8,0,0,0-.831.027.875.875,0,0,1-.925-.788l-.075-.35c-.149-.691-.716-1-1.268-.691l-2.166,1.2a1.732,1.732,0,0,0-.731,1.8l.075.35a1.805,1.805,0,0,1-.419,1.533q-.349.385-.671.805a1.341,1.341,0,0,1-.412.367.792.792,0,0,1-.778.03l-.257-.139a.8.8,0,0,0-.787.029,1.5,1.5,0,0,0-.631.757l-1.124,2.749a1.417,1.417,0,0,0,.377,1.755l.257.138a1.242,1.242,0,0,1,.492,1.3q-.076.553-.112,1.107a1.671,1.671,0,0,1-.76,1.349Z" transform="translate(-541.917 -748.671)" fill-rule="evenodd" fill="url(#linear-gradient-3)"/>
    <path id="Trazado_686880" data-name="Trazado 686880" d="M1490.487,1247.249c1.423,6.612,6.935,9.6,12.281,6.636s8.535-10.775,7.114-17.386-6.943-9.6-12.282-6.636-8.534,10.773-7.113,17.386Zm8.618-2.708a2.168,2.168,0,0,1-1.021-1.5,3.766,3.766,0,0,1,.966-3.317l-1.277-5.936a1.047,1.047,0,0,1,.439-1.076.51.51,0,0,1,.753.415l1.278,5.937a1.823,1.823,0,0,1,2.034,1.653,3.616,3.616,0,0,1-1.534,3.752,2.122,2.122,0,0,1-.725.248l-2.413,8.792a.657.657,0,0,1-.313.421.548.548,0,0,1-.3.07c-.259-.01-.377-.394-.281-.731l2.391-8.725Zm-1.964-16.812c6.295-3.489,12.784.019,14.461,7.815s-2.08,16.994-8.373,20.483-12.794-.025-14.471-7.82S1490.848,1231.218,1497.141,1227.73Z" transform="translate(-740.914 -915.48)" fill="#11639d" fill-rule="evenodd"/>
    <g id="Grupo_913968" data-name="Grupo 913968" transform="translate(732.736 238.577)">
      <path id="Trazado_686881" data-name="Trazado 686881" d="M1415.953,876.769l24.23-13.321a1.227,1.227,0,0,1,1.893,1.069l3.11,26.568a3.017,3.017,0,0,1-1.436,2.831l-24.231,13.32a1.228,1.228,0,0,1-1.885-1.084l-3.11-26.568A2.985,2.985,0,0,1,1415.953,876.769Z" transform="translate(-1414.509 -863.258)" fill-rule="evenodd" fill="url(#linear-gradient-4)"/>
      <path id="Trazado_686882" data-name="Trazado 686882" d="M1434.408,929.689a1.251,1.251,0,0,0-.508,1.654l11.8,15.216a.544.544,0,0,0,.717.109,1.266,1.266,0,0,0,.558-.675l7.165-18.734c.3-.773-.156-1.41-.775-1.084l-3.42,1.8a1.3,1.3,0,0,0-.568.685l-2.963,7.753a1.272,1.272,0,0,1-.562.676.533.533,0,0,1-.712-.109l-6.877-8.838a.543.543,0,0,0-.713-.1Z" transform="translate(-1429.916 -913.575)" fill="#fff" fill-rule="evenodd"/>
    </g>
    <g id="Grupo_913969" data-name="Grupo 913969" transform="translate(678.929 196.433)">
      <path id="Trazado_686883" data-name="Trazado 686883" d="M1145.066,670.1l33.8-18.336a.68.68,0,0,1,1.042.57l.458,2.927a1.555,1.555,0,0,1-.713,1.528l-33.8,18.336a.673.673,0,0,1-1.031-.575l-.46-2.927A1.575,1.575,0,0,1,1145.066,670.1Z" transform="translate(-1144.349 -651.658)" fill="#167b92" fill-rule="evenodd"/>
      <path id="Trazado_686884" data-name="Trazado 686884" d="M1155.14,758.434l17.99-9.843a.681.681,0,0,1,1.042.569l.137.878a1.575,1.575,0,0,1-.713,1.53l-17.988,9.843a.678.678,0,0,1-1.032-.575l-.137-.878A1.571,1.571,0,0,1,1155.14,758.434Z" transform="translate(-1152.416 -729.201)" fill="#167b92" fill-rule="evenodd"/>
    </g>
    <g id="Grupo_913976" data-name="Grupo 913976" transform="translate(625.084 97.652)">
      <g id="Grupo_913970" data-name="Grupo 913970" transform="translate(0 52.912)">
        <path id="Trazado_686885" data-name="Trazado 686885" d="M950.136,534.484a3.549,3.549,0,0,0-1.907,4.69,3.688,3.688,0,0,0,4.933,1.458,3.549,3.549,0,0,0,1.907-4.69A3.689,3.689,0,0,0,950.136,534.484Z" transform="translate(-933.189 -511.632)" fill="#0a3c5f" fill-rule="evenodd"/>
        <path id="Trazado_686886" data-name="Trazado 686886" d="M952.252,540.867c-2.256,2.334.375,5.709,3.372,4.346a3.019,3.019,0,0,1-4.594-.962A2.66,2.66,0,0,1,952.252,540.867Z" transform="translate(-935.508 -517.064)" fill="#1466a0" fill-rule="evenodd"/>
        <path id="Trazado_686887" data-name="Trazado 686887" d="M878.979,422.105c-4.981,2.213-6.23,8.722-3.707,15.5l3.272-1.846c-1.331-4.436-1.349-8.337,2.2-9.916s10.04,1.578,12.819,6.906,2.311,10.695-1.607,12.435a1.853,1.853,0,0,0-1,2.464,1.936,1.936,0,0,0,2.542,1.146c.183-.066.363-.142.541-.221,5.647-2.509,6.9-9.652,2.892-17.331S884.626,419.6,878.979,422.105Z" transform="translate(-874.005 -421.355)" fill="#daeafa" fill-rule="evenodd"/>
        <path id="Trazado_686888" data-name="Trazado 686888" d="M880.15,446.12l2.509-1.416c-1.331-4.436-1.349-8.337,2.205-9.916s10.04,1.578,12.819,6.906,2.311,10.695-1.607,12.435a1.752,1.752,0,0,0-1.123,1.47c1.6-.034,4.163-1.566,5.177-4.847,1.716-5.554-1.51-11.514-5.791-15.089-4.143-3.459-8.825-3.7-11.21-2.439C877.364,436.263,879.3,443.509,880.15,446.12Z" transform="translate(-878.121 -430.302)" fill="#b4cce5" fill-rule="evenodd"/>
      </g>
      <g id="Grupo_913971" data-name="Grupo 913971" transform="translate(19.128 42.312)">
        <path id="Trazado_686889" data-name="Trazado 686889" d="M1046.171,481.264a3.549,3.549,0,0,0-1.907,4.69,3.688,3.688,0,0,0,4.933,1.458,3.549,3.549,0,0,0,1.907-4.69A3.689,3.689,0,0,0,1046.171,481.264Z" transform="translate(-1029.224 -458.412)" fill="#0a3c5f" fill-rule="evenodd"/>
        <path id="Trazado_686890" data-name="Trazado 686890" d="M1048.289,487.647c-2.256,2.334.375,5.71,3.372,4.346a3.019,3.019,0,0,1-4.594-.962A2.66,2.66,0,0,1,1048.289,487.647Z" transform="translate(-1031.545 -463.844)" fill="#1466a0" fill-rule="evenodd"/>
        <path id="Trazado_686891" data-name="Trazado 686891" d="M975.016,368.885c-4.981,2.213-6.23,8.723-3.707,15.5l3.272-1.846c-1.331-4.436-1.348-8.337,2.205-9.916s10.039,1.578,12.819,6.907,2.311,10.694-1.607,12.435a1.853,1.853,0,0,0-1,2.464,1.936,1.936,0,0,0,2.542,1.146c.183-.066.363-.141.541-.221,5.647-2.508,6.9-9.652,2.891-17.331S980.663,366.377,975.016,368.885Z" transform="translate(-970.042 -368.135)" fill="#daeafa" fill-rule="evenodd"/>
        <path id="Trazado_686892" data-name="Trazado 686892" d="M976.186,392.9l2.509-1.416c-1.331-4.436-1.348-8.337,2.205-9.916s10.039,1.578,12.819,6.907,2.311,10.694-1.607,12.435a1.752,1.752,0,0,0-1.123,1.47c1.595-.035,4.163-1.566,5.176-4.847,1.716-5.554-1.509-11.514-5.791-15.089-4.143-3.459-8.825-3.7-11.21-2.439C973.4,383.043,975.34,390.289,976.186,392.9Z" transform="translate(-974.157 -377.082)" fill="#b4cce5" fill-rule="evenodd"/>
      </g>
      <g id="Grupo_913972" data-name="Grupo 913972" transform="translate(38.208 31.711)">
        <path id="Trazado_686893" data-name="Trazado 686893" d="M1141.97,428.038a3.549,3.549,0,0,0-1.907,4.69,3.689,3.689,0,0,0,4.933,1.458,3.549,3.549,0,0,0,1.907-4.69A3.688,3.688,0,0,0,1141.97,428.038Z" transform="translate(-1125.023 -405.186)" fill="#0a3c5f" fill-rule="evenodd"/>
        <path id="Trazado_686894" data-name="Trazado 686894" d="M1144.087,434.422c-2.256,2.334.376,5.709,3.372,4.346a3.019,3.019,0,0,1-4.594-.962A2.66,2.66,0,0,1,1144.087,434.422Z" transform="translate(-1127.343 -410.619)" fill="#1466a0" fill-rule="evenodd"/>
        <path id="Trazado_686895" data-name="Trazado 686895" d="M1070.814,315.659c-4.981,2.213-6.23,8.722-3.707,15.5l3.271-1.846c-1.331-4.436-1.348-8.337,2.205-9.916s10.039,1.578,12.819,6.906,2.311,10.694-1.607,12.435a1.853,1.853,0,0,0-1,2.465,1.935,1.935,0,0,0,2.542,1.146c.183-.066.363-.141.541-.221,5.647-2.509,6.9-9.652,2.891-17.331S1076.461,313.151,1070.814,315.659Z" transform="translate(-1065.84 -314.909)" fill="#daeafa" fill-rule="evenodd"/>
        <path id="Trazado_686896" data-name="Trazado 686896" d="M1071.984,339.674l2.509-1.416c-1.331-4.436-1.348-8.337,2.205-9.916s10.04,1.578,12.819,6.906,2.311,10.694-1.607,12.435a1.751,1.751,0,0,0-1.123,1.47c1.595-.034,4.162-1.566,5.176-4.847,1.716-5.554-1.509-11.513-5.791-15.088-4.143-3.459-8.825-3.7-11.21-2.439C1069.2,329.817,1071.138,337.063,1071.984,339.674Z" transform="translate(-1069.955 -323.856)" fill="#b4cce5" fill-rule="evenodd"/>
      </g>
      <g id="Grupo_913973" data-name="Grupo 913973" transform="translate(57.243 21.153)">
        <path id="Trazado_686897" data-name="Trazado 686897" d="M1237.543,375.031a3.548,3.548,0,0,0-1.907,4.69,3.688,3.688,0,0,0,4.933,1.458,3.549,3.549,0,0,0,1.907-4.69A3.688,3.688,0,0,0,1237.543,375.031Z" transform="translate(-1220.596 -352.179)" fill="#0a3c5f" fill-rule="evenodd"/>
        <path id="Trazado_686898" data-name="Trazado 686898" d="M1239.659,381.415c-2.257,2.334.375,5.709,3.372,4.346a3.019,3.019,0,0,1-4.594-.962A2.659,2.659,0,0,1,1239.659,381.415Z" transform="translate(-1222.916 -357.612)" fill="#1466a0" fill-rule="evenodd"/>
        <path id="Trazado_686899" data-name="Trazado 686899" d="M1166.386,262.652c-4.981,2.213-6.23,8.722-3.707,15.5l3.272-1.846c-1.332-4.436-1.349-8.337,2.205-9.916s10.039,1.578,12.819,6.906,2.311,10.695-1.607,12.435a1.853,1.853,0,0,0-1,2.465,1.935,1.935,0,0,0,2.542,1.145c.183-.066.363-.141.541-.22,5.647-2.509,6.9-9.652,2.891-17.331S1172.033,260.144,1166.386,262.652Z" transform="translate(-1161.412 -261.902)" fill="#daeafa" fill-rule="evenodd"/>
        <path id="Trazado_686900" data-name="Trazado 686900" d="M1167.557,286.667l2.509-1.416c-1.332-4.436-1.349-8.337,2.205-9.916s10.039,1.578,12.819,6.906,2.311,10.695-1.607,12.435a1.751,1.751,0,0,0-1.123,1.47c1.595-.035,4.162-1.566,5.176-4.847,1.716-5.554-1.509-11.513-5.791-15.088-4.143-3.46-8.825-3.7-11.21-2.44C1164.77,276.81,1166.711,284.056,1167.557,286.667Z" transform="translate(-1165.528 -270.849)" fill="#b4cce5" fill-rule="evenodd"/>
      </g>
      <g id="Grupo_913974" data-name="Grupo 913974" transform="translate(76.31 10.557)">
        <path id="Trazado_686901" data-name="Trazado 686901" d="M1333.278,321.828a3.549,3.549,0,0,0-1.907,4.69,3.689,3.689,0,0,0,4.933,1.458,3.549,3.549,0,0,0,1.907-4.69A3.688,3.688,0,0,0,1333.278,321.828Z" transform="translate(-1316.331 -298.976)" fill="#0a3c5f" fill-rule="evenodd"/>
        <path id="Trazado_686902" data-name="Trazado 686902" d="M1335.395,328.212c-2.256,2.334.375,5.709,3.373,4.346a3.019,3.019,0,0,1-4.594-.962A2.66,2.66,0,0,1,1335.395,328.212Z" transform="translate(-1318.651 -304.409)" fill="#1466a0" fill-rule="evenodd"/>
        <path id="Trazado_686903" data-name="Trazado 686903" d="M1262.122,209.45c-4.981,2.213-6.23,8.722-3.707,15.5l3.272-1.845c-1.332-4.436-1.349-8.337,2.205-9.916s10.039,1.578,12.819,6.906,2.311,10.695-1.607,12.435a1.853,1.853,0,0,0-1,2.465,1.935,1.935,0,0,0,2.542,1.146c.183-.066.363-.141.541-.22,5.646-2.509,6.9-9.652,2.891-17.332S1267.769,206.941,1262.122,209.45Z" transform="translate(-1257.148 -208.699)" fill="#daeafa" fill-rule="evenodd"/>
        <path id="Trazado_686904" data-name="Trazado 686904" d="M1263.293,233.464l2.509-1.416c-1.332-4.436-1.349-8.337,2.205-9.916s10.039,1.578,12.819,6.906,2.311,10.695-1.607,12.435a1.751,1.751,0,0,0-1.123,1.47c1.6-.034,4.163-1.566,5.176-4.847,1.716-5.554-1.509-11.513-5.791-15.088-4.143-3.459-8.825-3.7-11.21-2.439C1260.506,223.607,1262.447,230.853,1263.293,233.464Z" transform="translate(-1261.264 -217.647)" fill="#b4cce5" fill-rule="evenodd"/>
      </g>
      <g id="Grupo_913975" data-name="Grupo 913975" transform="translate(95.358)">
        <path id="Trazado_686905" data-name="Trazado 686905" d="M1428.914,268.823a3.548,3.548,0,0,0-1.907,4.69,3.688,3.688,0,0,0,4.933,1.458,3.549,3.549,0,0,0,1.907-4.69A3.688,3.688,0,0,0,1428.914,268.823Z" transform="translate(-1411.967 -245.971)" fill="#0a3c5f" fill-rule="evenodd"/>
        <path id="Trazado_686906" data-name="Trazado 686906" d="M1431.03,275.207c-2.256,2.334.376,5.709,3.372,4.346a3.019,3.019,0,0,1-4.594-.962A2.66,2.66,0,0,1,1431.03,275.207Z" transform="translate(-1414.287 -251.404)" fill="#1466a0" fill-rule="evenodd"/>
        <path id="Trazado_686907" data-name="Trazado 686907" d="M1357.758,156.444c-4.981,2.212-6.23,8.722-3.707,15.5l3.271-1.846c-1.332-4.436-1.349-8.337,2.205-9.916s10.039,1.578,12.819,6.906,2.311,10.694-1.607,12.435a1.853,1.853,0,0,0-1,2.465,1.935,1.935,0,0,0,2.542,1.145c.183-.066.363-.141.541-.22,5.647-2.509,6.9-9.652,2.891-17.331S1363.4,153.936,1357.758,156.444Z" transform="translate(-1352.784 -155.694)" fill="#daeafa" fill-rule="evenodd"/>
        <path id="Trazado_686908" data-name="Trazado 686908" d="M1358.928,180.482l2.532-1.329c-1.332-4.436-1.371-8.447,2.182-10.025s10.039,1.578,12.819,6.907,2.311,10.694-1.607,12.435a1.752,1.752,0,0,0-1.123,1.47c1.6-.035,4.163-1.566,5.177-4.847,1.716-5.554-1.509-11.514-5.791-15.089-4.143-3.459-8.825-3.7-11.21-2.439C1356.141,170.6,1358.082,177.871,1358.928,180.482Z" transform="translate(-1356.899 -164.641)" fill="#b4cce5" fill-rule="evenodd"/>
      </g>
    </g>
    <g id="Grupo_913977" data-name="Grupo 913977" transform="translate(683.84 167.175)">
      <path id="Trazado_686909" data-name="Trazado 686909" d="M1190.664,546.484c.829,7.443-3.3,16.534-9.23,20.293s-11.619-1.082-12.243-6.685.425-7.933,2.12-11.628c1.033.57,2.065,1.139,3.1,1.7a11.627,11.627,0,0,0-1.377,7.5c.4,3.6,4.058,6.71,7.867,4.295s6.461-8.256,5.928-13.035C1188.092,548.11,1189.382,547.3,1190.664,546.484Z" transform="translate(-1169.01 -538.174)" fill="#fcd047" fill-rule="evenodd"/>
      <path id="Trazado_686910" data-name="Trazado 686910" d="M1247.211,508.619c2.217,1.2,3.8,3.815,4.215,7.542-1.282.813-2.572,1.626-3.839,2.433-.266-2.389-1.277-4.074-2.7-4.847Q1246.051,511.189,1247.211,508.619Z" transform="translate(-1229.771 -507.851)" fill="#33c1e5" fill-rule="evenodd"/>
      <path id="Trazado_686911" data-name="Trazado 686911" d="M1187.527,506.383c2.968-1.879,5.818-2.066,8.027-.864q-1.154,2.575-2.326,5.139a5,5,0,0,0-5.155.55,13.106,13.106,0,0,0-4.6,5.628c-1.031-.558-2.062-1.116-3.095-1.686A20.26,20.26,0,0,1,1187.527,506.383Z" transform="translate(-1178.116 -504.761)" fill="#a2d56d" fill-rule="evenodd"/>
    </g>
    <g id="Grupo_913978" data-name="Grupo 913978" transform="translate(693.878 297.798)">
      <path id="Trazado_686912" data-name="Trazado 686912" d="M1220.124,1179.039l33.8-18.335a.68.68,0,0,1,1.042.57l.458,2.927a1.556,1.556,0,0,1-.713,1.528l-33.8,18.336a.673.673,0,0,1-1.031-.575l-.459-2.927A1.576,1.576,0,0,1,1220.124,1179.039Z" transform="translate(-1219.407 -1160.599)" fill="#fff" fill-rule="evenodd"/>
      <path id="Trazado_686913" data-name="Trazado 686913" d="M1306,1222.273l17.99-9.843a.68.68,0,0,1,1.042.569l.138.878a1.576,1.576,0,0,1-.714,1.53l-17.988,9.843a.678.678,0,0,1-1.032-.575l-.137-.878A1.572,1.572,0,0,1,1306,1222.273Z" transform="translate(-1288.177 -1202.023)" fill="#fff" fill-rule="evenodd"/>
    </g>
    <g id="Grupo_913993" data-name="Grupo 913993" transform="translate(723.385 121.11)">
      <g id="Grupo_913982" data-name="Grupo 913982" transform="translate(0)">
        <path id="Trazado_686914" data-name="Trazado 686914" d="M1412.461,416.678l-33.629,19.429,7.344,60.92,33.991-19.638Z" transform="translate(-1376.587 -388.156)" fill-rule="evenodd" opacity="0.5" fill="url(#linear-gradient-5)" style="mix-blend-mode: multiply;isolation: isolate"/>
        <g id="Grupo_913981" data-name="Grupo 913981">
          <path id="Trazado_686915" data-name="Trazado 686915" d="M1395.614,302.388a.791.791,0,0,0,.172-1.157.943.943,0,0,0-1.2-.366l-7.026,4.064a.791.791,0,0,0-.172,1.157.943.943,0,0,0,1.2.366l7.026-4.063Zm-10.566,6.136a.794.794,0,0,0,.168-1.161.944.944,0,0,0-1.206-.363l-3.906,2.26a.794.794,0,0,0-.168,1.161.944.944,0,0,0,1.206.363l3.906-2.26Zm-11.135,6.383-4.524,2.617,7.137,57.385,71.2-41.157-7.138-57.38-41.182,23.823a.945.945,0,0,1-1.207-.362.8.8,0,0,1,.169-1.161l43.557-25.2q3.816,30.672,7.63,61.343c-25.546,14.764-48.832,28.214-74.37,42.99q-3.81-30.674-7.63-61.347l5.316-3.076a.944.944,0,0,1,1.206.362A.8.8,0,0,1,1373.913,314.907Z" transform="translate(-1367.559 -273.474)" fill="#fff" fill-rule="evenodd"/>
          <path id="Trazado_686916" data-name="Trazado 686916" d="M1465.1,308.954l-67.279,38.919,6.62,53.232,67.28-38.923Z" transform="translate(-1391.792 -301.888)" fill-rule="evenodd" fill="url(#linear-gradient-6)"/>
          <g id="Grupo_913980" data-name="Grupo 913980" transform="translate(12.461 13.011)">
            <path id="Trazado_686917" data-name="Trazado 686917" d="M1700.365,345.5l-2.029-1.179-1.48,3.211c-.435.577-1.074.216-.948-.582l1.485-3.176-2.024-1.181c-.5-.567-.382-1.511.695-1.457l2.021,1.15h0l1.484-3.176c.352-.591,1.1-.288.939.507l-1.476,3.205,2.02,1.149C1701.618,344.846,1700.931,345.619,1700.365,345.5Z" transform="translate(-1642.313 -338.799)" fill="#fff" fill-rule="evenodd"/>
            <g id="Grupo_913979" data-name="Grupo 913979" transform="translate(0 25.219)">
              <path id="Trazado_686918" data-name="Trazado 686918" d="M1434.564,490.9l-.447-3.594,37.83-21.886.447,3.6Z" transform="translate(-1433.322 -465.421)" fill="#fff" fill-rule="evenodd"/>
              <path id="Trazado_686919" data-name="Trazado 686919" d="M1430.122,512.113l13.383-7.739.446,3.593-13.379,7.739Z" transform="translate(-1430.122 -496.616)" fill="#fff" fill-rule="evenodd"/>
              <path id="Trazado_686920" data-name="Trazado 686920" d="M1464.01,538.07l-25.358,14.671-.447-3.593,25.358-14.671Z" transform="translate(-1436.596 -520.723)" fill="#fff" fill-rule="evenodd"/>
            </g>
          </g>
        </g>
      </g>
      <g id="Grupo_913992" data-name="Grupo 913992" transform="translate(10.09 80.323)">
        <path id="Trazado_686921" data-name="Trazado 686921" d="M1643.077,1402.31l-35.376-20.148c-3.857-1.762-9.376-3.165-13.306-1.12-3.58,1.863-9.478,5.676-12.085,7.164-1.981,1.13-8.857,5.249-4.574,7.578,12.6,6.85,25.066,14.555,37.858,21.513,2.42,1.316,5.959,1.792,9.674,1.483a25.614,25.614,0,0,0,10.478-3.12q3.19-1.855,6.274-3.652c2.775-1.616,4.246-3.526,4.392-5.292C1646.554,1404.99,1645.445,1403.39,1643.077,1402.31Z" transform="translate(-1544.86 -1239.96)" fill="#eaf4ff" fill-rule="evenodd"/>
        <g id="Grupo_913991" data-name="Grupo 913991">
          <g id="Grupo_913983" data-name="Grupo 913983" transform="translate(63.499 154.653)">
            <path id="Trazado_686922" data-name="Trazado 686922" d="M1757.384,1478.6c-.8-.018-3.5-2.558-6.065-1.276-3.074,1.54-8.912.176-11.858.883-.525.126-1.55-.26-1.753.1-.636,1.129-1.25,2.817.312,3.922a26.729,26.729,0,0,0,5.221,2.46,44.134,44.134,0,0,0,6.6,1.869c2.175.34,3.167.48,3.981,1.109a5.8,5.8,0,0,0,3.037.73,5.118,5.118,0,0,0,3.872-2.7,11.571,11.571,0,0,0-.03-4.287,21.68,21.68,0,0,0-1.369-3.742Z" transform="translate(-1737.036 -1472.237)" fill="#105b90" fill-rule="evenodd"/>
            <path id="Trazado_686923" data-name="Trazado 686923" d="M1807.627,1454.148c.973,2.335.674,5.948,2.979,7.2a3.428,3.428,0,0,0,5.005-1.548c.586-1.335-.193-3.617-.02-6.549Z" transform="translate(-1793.567 -1453.253)" fill="#e7a376" fill-rule="evenodd"/>
            <path id="Trazado_686924" data-name="Trazado 686924" d="M1751.6,1467.893c-1.766.514-6.643.171-9.726.42-1.325.107-2.513.1-3.133,1.3-.57,1.107-.272,2.055,1.019,2.968a21.873,21.873,0,0,0,4.71,2.311,44.133,44.133,0,0,0,6.6,1.869c2.175.34,3.167.48,3.981,1.109a5.792,5.792,0,0,0,3.037.731,5.347,5.347,0,0,0,3.872-2.874,10.636,10.636,0,0,0-.03-4.116,7.5,7.5,0,0,0-.227-.872c-.242-2.32-1.009-3.258-1.73-2.861a4.465,4.465,0,0,0-1.738,2.326,2.27,2.27,0,0,1-1.343,1.281,2.654,2.654,0,0,1-2.961-1.3,8.35,8.35,0,0,1-.811-2.351c0-.079-.005-.158,0-.236-.232-2.028-1.219-1.851-1.069-1.423A1.745,1.745,0,0,1,1751.6,1467.893Z" transform="translate(-1738.177 -1463.381)" fill="#04304f" fill-rule="evenodd"/>
            <path id="Trazado_686925" data-name="Trazado 686925" d="M1738.789,1481.721c.024.784-1.178.858-.831,2.236-.578-.567.229-2.192.585-2.439C1738.689,1481.417,1738.814,1481.375,1738.789,1481.721Z" transform="translate(-1737.612 -1475.831)" fill="#105b90" fill-rule="evenodd"/>
          </g>
          <g id="Grupo_913984" data-name="Grupo 913984" transform="translate(44.478 145.149)">
            <path id="Trazado_686926" data-name="Trazado 686926" d="M1660.81,1416.2c-.747-.292-2.411-3.608-5.255-3.285a14.474,14.474,0,0,1-4.866-.7c-2.986-.849-7.147-3.519-7.857-3.082-1.547.952-1.671,2.688-.585,4.262a21.825,21.825,0,0,0,3.628,3.79,38.266,38.266,0,0,0,5.12,3.894c1.643.911,2.188.831,3.357,2.411a5.491,5.491,0,0,0,2.6,1.646,6.182,6.182,0,0,0,5.08-1.907c.568-1.837,1.552-3.575.921-6.332Z" transform="translate(-1641.533 -1408.38)" fill="#105b90" fill-rule="evenodd"/>
            <path id="Trazado_686927" data-name="Trazado 686927" d="M1715.9,1405.534c.046,2.529-1.561,5.779.122,7.793a3.428,3.428,0,0,0,5.224.4c1.036-1.026,1.151-3.434,2.389-6.1Z" transform="translate(-1700.573 -1405.534)" fill="#e7a376" fill-rule="evenodd"/>
            <path id="Trazado_686928" data-name="Trazado 686928" d="M1652.738,1410.28q-.255-.067-.511-.14c-2.987-.849-6.977-2.906-7.687-2.469-1.548.951-1.842,2.075-.755,3.65a21.825,21.825,0,0,0,3.628,3.791,38.262,38.262,0,0,0,5.12,3.894c1.642.911,2.188.83,3.357,2.411a5.491,5.491,0,0,0,2.6,1.646,6.345,6.345,0,0,0,5.154-1.918,15.231,15.231,0,0,0,1.048-4.387c.249-2.25.094-3.393-.884-3.365a5.425,5.425,0,0,0-3.323,1.481c-1.619,1.01-2.7-.295-2.969-1.909a9.413,9.413,0,0,1,.148-2.133c.025-.075.054-.15.084-.222.53-1.971-.452-2.169-.47-1.717a1.69,1.69,0,0,1-1.5,1.722A13.228,13.228,0,0,1,1652.738,1410.28Z" transform="translate(-1642.817 -1407.197)" fill="#04304f" fill-rule="evenodd"/>
            <path id="Trazado_686929" data-name="Trazado 686929" d="M1644.078,1407.977c-.317.718-1.433.267-1.713,1.659-.277-.76,1.151-1.879,1.579-1.948C1644.119,1407.66,1644.249,1407.675,1644.078,1407.977Z" transform="translate(-1642.17 -1407.251)" fill="#105b90" fill-rule="evenodd"/>
          </g>
          <path id="Trazado_686930" data-name="Trazado 686930" d="M1785.644,831.626c-5.94,6.892-6.03,7.428-17.631,14.244l-2.208-4.345c3.894-7.973,5.059-9.036,10.114-15.242a58.884,58.884,0,0,1-11.892-11.185c-7.567-10.1-3.365-17.118,3.173-15.7,5.7,1.24,14.6,16,19.436,24.323C1788.651,827.191,1789.139,827.57,1785.644,831.626Z" transform="translate(-1691.912 -774.829)" fill-rule="evenodd" fill="url(#linear-gradient-7)"/>
          <path id="Trazado_686931" data-name="Trazado 686931" d="M1774.242,825.641a58.483,58.483,0,0,1-9.936-9.749c-7.566-10.1-3.146-16.916,3.392-15.494C1771.109,801.441,1777.195,808.657,1774.242,825.641Z" transform="translate(-1692.192 -775.625)" fill="#bdd1e7" fill-rule="evenodd" opacity="0.25" style="mix-blend-mode: multiply;isolation: isolate"/>
          <g id="Grupo_913985" data-name="Grupo 913985" transform="translate(58.046 69.118)">
            <path id="Trazado_686932" data-name="Trazado 686932" d="M1713.14,1031.517c-.654,7.329-4.327,30.735-3.305,37.161,1.537,9.663,1.1,21.337,1.081,31.592.259,4.309,6.184,6.561,7.909,3.823,1.385-9.164,3.354-17.193,4.155-22.285.9-5.7.6-12.631-.846-16.379.593-4.094,3.385-14.656,5.717-21.974.841-2.641,5.609-11.175.674-19.657Z" transform="translate(-1709.656 -1023.797)" fill-rule="evenodd" fill="url(#linear-gradient-8)"/>
            <path id="Trazado_686933" data-name="Trazado 686933" d="M1715.491,1393.943c0,.76.023,1.919.022,2.666.259,4.309,6.258,6.646,7.983,3.908.1-.675.25-1.345.358-2.007C1721.535,1401.009,1716.99,1397.762,1715.491,1393.943Z" transform="translate(-1714.328 -1320.221)" fill="#105b90" fill-rule="evenodd"/>
            <path id="Trazado_686934" data-name="Trazado 686934" d="M1709.758,1103.273c1.932,9.69,7.4,22.634,10.379,32.377,1.552-8.348,5.439-22.564,2.078-31.266.338-2.332,1.389-6.761,2.662-11.495-2.586-4.9-.114-8.814-1.335-15.718-6.845-1.193,3.486-9.548-11-.748C1711.246,1086.823,1710.03,1093.361,1709.758,1103.273Z" transform="translate(-1709.738 -1062.753)" fill="#04304f" fill-rule="evenodd" opacity="0.3" style="mix-blend-mode: multiply;isolation: isolate"/>
          </g>
          <g id="Grupo_913986" data-name="Grupo 913986" transform="translate(50.483 73.56)">
            <path id="Trazado_686935" data-name="Trazado 686935" d="M1683.206,1091.369c3.949,8.939,11.235,26.477,15.11,37.448,2,2.914,9.154,2.611,9.14-.108-1.578-9.173-3.433-23.321-6.726-31.366a72.155,72.155,0,0,0-6.067-10.145c-1.042-4.049-2.348-14.983-3.355-20.9.9-4.9,4.853-13.083-2.735-20.2-3.061,2.178-12.527,3.54-16.819,1.115C1671.06,1066.555,1675.807,1074.62,1683.206,1091.369Z" transform="translate(-1671.686 -1046.1)" fill-rule="evenodd" fill="url(#linear-gradient-9)"/>
            <path id="Trazado_686936" data-name="Trazado 686936" d="M1801.358,1451.81c.173.479.516,1.448.678,1.907,2.064,3,9.423,2.688,9.409-.111q-.116-.68-.236-1.394C1809.454,1454,1804.148,1454.024,1801.358,1451.81Z" transform="translate(-1775.531 -1371.005)" fill="#105b90" fill-rule="evenodd"/>
          </g>
          <path id="Trazado_686937" data-name="Trazado 686937" d="M1684.06,825.269c-.637,5.745,1.09,11.4-.668,16.64-.079.542-.129,2.668-.222,3.246-1.158,6.795-15.53,13.67-27.516,7.151-.066-.842.01-1.723-.055-3.283.221-1.457-.408-3.02-.4-3.908.017-3.7,1.168-5.588.616-9.7-1.123-8.371-5.76-16.416-3.195-23a7,7,0,0,1,2.608-2.977c2.832-2.275,17.483-9.735,21.924-10.262C1690.043,797.5,1684.752,819.037,1684.06,825.269Z" transform="translate(-1605.321 -774.719)" fill-rule="evenodd" fill="url(#linear-gradient-10)"/>
          <g id="Grupo_913989" data-name="Grupo 913989" transform="translate(54.536)">
            <path id="Trazado_686938" data-name="Trazado 686938" d="M1695.753,711.822a31.555,31.555,0,0,1-.326,7.044c4.192-.136,10.019-1.233,10.655-4.355-.03-.374-.056-.754-.075-1.126a1.505,1.505,0,0,1,.171-.134c1.5-1,3.99-1.742,5.589-3.569,2.555-2.922,3.912-6.846,1.907-10.8-3.662-7.214-12.518-7.336-17.451-1.5-.963,1.139-.257,2.319-.806,3.419-.107.215-.5.31-.958.688-.632.522-2.472,5.031-2.424,7.385.019.947,2.2,2.283,3.164,2.807A2.543,2.543,0,0,0,1695.753,711.822Z" transform="translate(-1692.035 -689.944)" fill="#f0b186" fill-rule="evenodd"/>
            <path id="Trazado_686939" data-name="Trazado 686939" d="M1709.39,773.926a31.554,31.554,0,0,1-.326,7.044c4.192-.136,10.019-1.233,10.655-4.355-.03-.374-.056-.754-.075-1.126.057-.051.121-.087.171-.134,3.186-2.983-1.076-6.4-6.462-3.456A4.177,4.177,0,0,1,1709.39,773.926Z" transform="translate(-1705.672 -752.048)" fill="#e7a376" fill-rule="evenodd"/>
            <g id="Grupo_913987" data-name="Grupo 913987" transform="translate(4.426 16.086)">
              <path id="Trazado_686940" data-name="Trazado 686940" d="M1715.611,758.564c.083-1,.487-1.189.821-.924a2.675,2.675,0,0,1,.581,2.181c-.163,1.655-1.7,3.138-2.755,1.8,1.156.613,1.7-.869,1.75-1.916C1716.042,758.994,1715.862,758.4,1715.611,758.564Z" transform="translate(-1714.258 -757.532)" fill="#f9bd95" fill-rule="evenodd"/>
              <path id="Trazado_686941" data-name="Trazado 686941" d="M1719.325,765.914c-.616.466-.9.781-.89,1.042.006.182.159.455.7.264A2.354,2.354,0,0,0,1719.325,765.914Z" transform="translate(-1717.603 -764.245)" fill="#e7a376" fill-rule="evenodd"/>
            </g>
            <path id="Trazado_686942" data-name="Trazado 686942" d="M1706.255,799.553c1.241.383,2.4,1.659,2.173,2.477-1.235,5.047-10.486,6.174-16.239,4.959-.069-.015,2.153-2.954,3.255-3.312C1699.064,804.032,1705.138,802.533,1706.255,799.553Z" transform="translate(-1692.157 -775.097)" fill="#e3efff" fill-rule="evenodd"/>
            <g id="Grupo_913988" data-name="Grupo 913988" transform="translate(5.482)">
              <path id="Trazado_686943" data-name="Trazado 686943" d="M1728.62,700.908c1.534-1.637,4.129-2.419,5.794-4.323,1.642-1.878,3.441-4.761,2.343-7.721,1.934-6.083-4.677-10.908-10.244-12a4.325,4.325,0,0,0-4.636,6.379,5.834,5.834,0,0,0-1.339,4.447,4.067,4.067,0,0,1-.282,3.256c-.438,1.026-1.531,3.508.447,1.937,1.279-1.015,2.173,1.228,1.74,2.779a7.1,7.1,0,0,0-.278,3C1722.538,701.912,1727.766,701.819,1728.62,700.908Z" transform="translate(-1719.558 -676.765)" fill-rule="evenodd" fill="url(#linear-gradient-11)"/>
              <path id="Trazado_686944" data-name="Trazado 686944" d="M1743.885,687.716c1.319-5.891-6.428-8.874-9.458-8.944-3.066-.071-5.469,4.975-1.834,6.674C1735.072,686.6,1739.982,684.339,1743.885,687.716Z" transform="translate(-1728.532 -678.372)" fill-rule="evenodd" fill="url(#linear-gradient-12)"/>
            </g>
          </g>
          <g id="Grupo_913990" data-name="Grupo 913990" transform="translate(0 7.035)">
            <path id="Trazado_686945" data-name="Trazado 686945" d="M1426.75,725.438c-.518-.18-1.5.367-3.252-.016a7.229,7.229,0,0,1-3.786-2.788c-.942-3.007-2.452-10.977-.654-10.529a6.915,6.915,0,0,0,2.33,3.552,10,10,0,0,0,4.542,1.534l-.059-.038c-2.489-.355-4.183-1.28-3.228-2.879a6.844,6.844,0,0,0,2.944.811c3.08.195,4.349,2.9,5.009,4.765a15.176,15.176,0,0,0,2.527,3.5l-2.378,4.951A20.263,20.263,0,0,0,1426.75,725.438Z" transform="translate(-1418.218 -712.088)" fill="#f0b186" fill-rule="evenodd"/>
            <path id="Trazado_686946" data-name="Trazado 686946" d="M1655.81,873.186c-1.632-5.912-3.593-11.488-1.723-16.288a7,7,0,0,1,2.605-2.973,3.222,3.222,0,0,1,4.861.687C1666.22,860.742,1662.5,869.777,1655.81,873.186Z" transform="translate(-1606.499 -825.023)" fill="#bdd1e7" fill-rule="evenodd" opacity="0.25" style="mix-blend-mode: multiply;isolation: isolate"/>
            <path id="Trazado_686947" data-name="Trazado 686947" d="M1511.739,781.24c-.726-.339-17.726-2.667-20.778-2.833-1.714-1.857-9.453-9.778-13.752-11.856a12.469,12.469,0,0,1-2.38-1.1c-.52-.478-1.269-1.181-1.559-1.421-1.3.4-2.9,2.224-3.922,3.965.508.658,1.01,1.358,1.506,2.086.37.542.477,1.949.84,2.517,2.257,3.526,7.548,8.049,10.429,11.216a12.342,12.342,0,0,0,4.222,3.529c1.275.573,2.91,1.288,4.421,1.9,3.131,1.26,10.837,4.414,16.378,5.305C1517.334,796.185,1518.416,784.357,1511.739,781.24Z" transform="translate(-1459.165 -753.687)" fill-rule="evenodd" fill="url(#linear-gradient-13)"/>
          </g>
        </g>
      </g>
    </g>
    <g id="Grupo_913997" data-name="Grupo 913997" transform="translate(563.177 117.634)">
      <g id="Grupo_913994" data-name="Grupo 913994" transform="translate(26.652)">
        <path id="Trazado_686948" data-name="Trazado 686948" d="M701.556,379.036l1.869.753,1.934,1.557-2.667,1.476-1.806-.606-2-1.7Z" transform="translate(-698.51 -354.536)" fill="#31accb" fill-rule="evenodd"/>
        <path id="Trazado_686949" data-name="Trazado 686949" d="M711.817,428.21l2.1,1.083,1.7,1.227-2.038,3.125-1.591-.81-2.212-1.5Z" transform="translate(-707.232 -393.916)" fill="#31accb" fill-rule="evenodd"/>
        <path id="Trazado_686950" data-name="Trazado 686950" d="M765.173,436.15l-.571,3.194-3.8-2.31.211-2.938Z" transform="translate(-748.09 -398.629)" fill="#167b92" fill-rule="evenodd"/>
        <path id="Trazado_686951" data-name="Trazado 686951" d="M848.7,297.6l3.8,2.31-2.667,1.476-3.8-2.31Z" transform="translate(-816.347 -289.316)" fill="#1d8fab" fill-rule="evenodd"/>
        <path id="Trazado_686952" data-name="Trazado 686952" d="M753.445,331.139l-3.745-3.077c1.794,1.094,4.2.141,5.893-.979a16.461,16.461,0,0,0,4.331-4.382,15.641,15.641,0,0,0,2.875-7.253c.153-1.785-.178-3.8-1.719-4.738l4.412,2.14C772.522,317.221,760.478,335.535,753.445,331.139Z" transform="translate(-739.202 -299.819)" fill="#167b92" fill-rule="evenodd"/>
        <path id="Trazado_686953" data-name="Trazado 686953" d="M713.581,446.212a6.725,6.725,0,0,0,1.275,1l-3.8-2.31a6.737,6.737,0,0,1-.665-.462,6.852,6.852,0,0,1-.61-.543S713.252,446.012,713.581,446.212Z" transform="translate(-707.231 -406.482)" fill="#167b92" fill-rule="evenodd"/>
        <path id="Trazado_686954" data-name="Trazado 686954" d="M824.094,256.024l3.8,2.31-2.059,3.7-3.781-2.885Z" transform="translate(-797.147 -256.024)" fill="#31accb" fill-rule="evenodd"/>
        <path id="Trazado_686955" data-name="Trazado 686955" d="M836.091,258.334l-3.8-2.31a7.109,7.109,0,0,1,1.61.712l3.8,2.31A7.162,7.162,0,0,0,836.091,258.334Z" transform="translate(-805.341 -256.024)" fill="#167b92" fill-rule="evenodd"/>
        <path id="Trazado_686956" data-name="Trazado 686956" d="M710.519,403.539l4.182,1.8c.15,1.771.332,4.127,1.511,5.425l-3.8-2.31A8.329,8.329,0,0,1,710.519,403.539Z" transform="translate(-707.825 -374.158)" fill="#1d8fab" fill-rule="evenodd"/>
        <path id="Trazado_686957" data-name="Trazado 686957" d="M798.5,273.763l-3.8-2.31a9.359,9.359,0,0,1,5.45-.545l3.8,2.31A9.394,9.394,0,0,0,798.5,273.763Z" transform="translate(-775.234 -267.783)" fill="#1d8fab" fill-rule="evenodd"/>
        <path id="Trazado_686958" data-name="Trazado 686958" d="M716.084,351.177l-3.8-2.31a28.419,28.419,0,0,1,2.783-7.5l4.513,1.927C718.328,345.64,716.608,348.612,716.084,351.177Z" transform="translate(-709.236 -324.367)" fill="#1d8fab" fill-rule="evenodd"/>
        <path id="Trazado_686959" data-name="Trazado 686959" d="M776.906,274.073l-.655,3.175-3.8-2.31L772.66,272Z" transform="translate(-757.419 -268.815)" fill="#167b92" fill-rule="evenodd"/>
        <path id="Trazado_686960" data-name="Trazado 686960" d="M777.313,264.447l-3.8-2.31a23.289,23.289,0,0,1,4.431-2.452l3.8,2.31A23.347,23.347,0,0,0,777.313,264.447Z" transform="translate(-758.27 -258.956)" fill="#31accb" fill-rule="evenodd"/>
        <path id="Trazado_686961" data-name="Trazado 686961" d="M747.031,294.766l-2.8-.421-1-1.889a29.948,29.948,0,0,1,5.82-5.692l3.8,2.31A30.007,30.007,0,0,0,747.031,294.766Z" transform="translate(-734.019 -280.641)" fill="#1d8fab" fill-rule="evenodd"/>
        <path id="Trazado_686962" data-name="Trazado 686962" d="M721.326,317.643l-3.8-2.31a41.486,41.486,0,0,1,3.381-5.185l3.8,2.31A42.029,42.029,0,0,0,721.326,317.643Z" transform="translate(-713.434 -299.367)" fill="#31accb" fill-rule="evenodd"/>
        <path id="Trazado_686963" data-name="Trazado 686963" d="M731.683,295.37c4.1-2.271,7.689-7.771,8.014-12.289s-2.736-6.341-6.838-4.07-7.689,7.773-8.013,12.289,2.738,6.339,6.837,4.07ZM716.46,293.6l2.667-1.476a28.394,28.394,0,0,1,2.783-7.5l-1.739-1.032a41.829,41.829,0,0,1,3.382-5.185l1.738,1.035a29.879,29.879,0,0,1,5.82-5.693l.211-2.941a25.942,25.942,0,0,1,2.226-1.391,21.027,21.027,0,0,1,2.2-1.061l-.211,2.941a9.2,9.2,0,0,1,5.45-.545l2.038-3.125a6.765,6.765,0,0,1,2.885,1.717l-2.037,3.122a8.228,8.228,0,0,1,1.89,4.917l2.667-1.476a18.21,18.21,0,0,1-.023,2.354,23.236,23.236,0,0,1-.328,2.526l-2.667,1.476a28.325,28.325,0,0,1-2.783,7.5l1.739,1.035a41.855,41.855,0,0,1-3.381,5.185l-1.739-1.035a29.867,29.867,0,0,1-5.82,5.693l-.211,2.938a25.115,25.115,0,0,1-2.228,1.4,20.284,20.284,0,0,1-2.2,1.057L729,303.09a9.2,9.2,0,0,1-5.45.545l-2.038,3.125a6.769,6.769,0,0,1-2.885-1.717l2.038-3.125a8.211,8.211,0,0,1-1.89-4.914l-2.667,1.476a18.29,18.29,0,0,1,.023-2.357A23.092,23.092,0,0,1,716.46,293.6Z" transform="translate(-712.279 -265.313)" fill-rule="evenodd" fill="url(#linear-gradient-14)"/>
        <path id="Trazado_686964" data-name="Trazado 686964" d="M697.368,386.447l3.8,2.31a20.708,20.708,0,0,0-.351,4.88l-3.8-2.31A20.557,20.557,0,0,1,697.368,386.447Z" transform="translate(-696.991 -360.471)" fill="#1d8fab" fill-rule="evenodd"/>
      </g>
      <g id="Grupo_913995" data-name="Grupo 913995" transform="translate(10.23 38.836)">
        <path id="Trazado_686965" data-name="Trazado 686965" d="M619.318,579.757l1.956.789,2.024,1.63-2.791,1.545-1.89-.634-2.09-1.784Z" transform="translate(-616.13 -554.115)" fill="#eca729" fill-rule="evenodd"/>
        <path id="Trazado_686966" data-name="Trazado 686966" d="M630.056,631.222l2.2,1.134,1.778,1.284-2.133,3.271-1.664-.848-2.315-1.57Z" transform="translate(-625.258 -595.33)" fill="#eca729" fill-rule="evenodd"/>
        <path id="Trazado_686967" data-name="Trazado 686967" d="M685.9,639.534l-.6,3.342-3.98-2.418.221-3.075Z" transform="translate(-668.019 -600.264)" fill="#df9816" fill-rule="evenodd"/>
        <path id="Trazado_686968" data-name="Trazado 686968" d="M773.316,494.523l3.98,2.418-2.791,1.545-3.98-2.418Z" transform="translate(-739.457 -485.857)" fill="#df9816" fill-rule="evenodd"/>
        <path id="Trazado_686969" data-name="Trazado 686969" d="M673.623,529.629l-3.92-3.221c1.878,1.145,4.394.147,6.167-1.024A17.227,17.227,0,0,0,680.4,520.8a16.368,16.368,0,0,0,3.008-7.591c.16-1.868-.186-3.979-1.8-4.958l4.617,2.239C693.589,515.062,680.984,534.23,673.623,529.629Z" transform="translate(-658.716 -496.849)" fill="#df9816" fill-rule="evenodd"/>
        <path id="Trazado_686970" data-name="Trazado 686970" d="M631.9,650.064a7.064,7.064,0,0,0,1.335,1.052l-3.98-2.418a6.981,6.981,0,0,1-.7-.483,7.147,7.147,0,0,1-.638-.568S631.558,649.854,631.9,650.064Z" transform="translate(-625.257 -608.482)" fill="#df9816" fill-rule="evenodd"/>
        <path id="Trazado_686971" data-name="Trazado 686971" d="M747.565,451.012l3.98,2.418L749.39,457.3l-3.957-3.02Z" transform="translate(-719.362 -451.012)" fill="#df9816" fill-rule="evenodd"/>
        <path id="Trazado_686972" data-name="Trazado 686972" d="M760.119,453.43l-3.98-2.418a7.447,7.447,0,0,1,1.685.746l3.98,2.418A7.48,7.48,0,0,0,760.119,453.43Z" transform="translate(-727.937 -451.012)" fill="#eca729" fill-rule="evenodd"/>
        <path id="Trazado_686973" data-name="Trazado 686973" d="M628.7,605.4l4.377,1.882c.156,1.853.348,4.32,1.582,5.678l-3.98-2.418A8.718,8.718,0,0,1,628.7,605.4Z" transform="translate(-625.878 -574.653)" fill="#df9816" fill-rule="evenodd"/>
        <path id="Trazado_686974" data-name="Trazado 686974" d="M720.774,469.579l-3.98-2.418a9.794,9.794,0,0,1,5.7-.57l3.98,2.418A9.828,9.828,0,0,0,720.774,469.579Z" transform="translate(-696.428 -463.32)" fill="#eca729" fill-rule="evenodd"/>
        <path id="Trazado_686975" data-name="Trazado 686975" d="M634.521,550.6l-3.98-2.418a29.731,29.731,0,0,1,2.913-7.853l4.723,2.017C636.87,544.805,635.07,547.916,634.521,550.6Z" transform="translate(-627.354 -522.541)" fill="#df9816" fill-rule="evenodd"/>
        <path id="Trazado_686976" data-name="Trazado 686976" d="M698.178,469.9l-.686,3.323-3.98-2.418.221-3.078Z" transform="translate(-677.783 -464.401)" fill="#eca729" fill-rule="evenodd"/>
        <path id="Trazado_686977" data-name="Trazado 686977" d="M698.6,459.828l-3.98-2.418a24.358,24.358,0,0,1,4.637-2.567l3.98,2.418A24.4,24.4,0,0,0,698.6,459.828Z" transform="translate(-678.674 -454.081)" fill="#df9816" fill-rule="evenodd"/>
        <path id="Trazado_686978" data-name="Trazado 686978" d="M666.91,491.56l-2.936-.441-1.044-1.977a31.361,31.361,0,0,1,6.091-5.958L673,485.6A31.383,31.383,0,0,0,666.91,491.56Z" transform="translate(-653.292 -476.776)" fill="#df9816" fill-rule="evenodd"/>
        <path id="Trazado_686979" data-name="Trazado 686979" d="M640.008,515.5l-3.98-2.418a43.4,43.4,0,0,1,3.538-5.427l3.98,2.418A44.017,44.017,0,0,0,640.008,515.5Z" transform="translate(-631.748 -496.377)" fill="#eca729" fill-rule="evenodd"/>
        <path id="Trazado_686980" data-name="Trazado 686980" d="M650.848,492.193c4.293-2.376,8.047-8.133,8.386-12.862s-2.863-6.635-7.156-4.259-8.047,8.135-8.387,12.862,2.865,6.634,7.157,4.26Zm-15.932-1.853,2.791-1.545a29.722,29.722,0,0,1,2.912-7.853l-1.82-1.08a43.807,43.807,0,0,1,3.539-5.427l1.82,1.083a31.257,31.257,0,0,1,6.091-5.958l.221-3.078a27.159,27.159,0,0,1,2.329-1.456,21.858,21.858,0,0,1,2.307-1.111l-.221,3.078a9.631,9.631,0,0,1,5.7-.57l2.133-3.271a7.079,7.079,0,0,1,3.019,1.8l-2.132,3.268a8.61,8.61,0,0,1,1.979,5.146l2.791-1.545a19.035,19.035,0,0,1-.023,2.464,24.243,24.243,0,0,1-.344,2.644l-2.791,1.545a29.653,29.653,0,0,1-2.913,7.85l1.82,1.083a43.81,43.81,0,0,1-3.539,5.427l-1.82-1.083a31.26,31.26,0,0,1-6.091,5.958l-.222,3.075a26.4,26.4,0,0,1-2.332,1.46,21.04,21.04,0,0,1-2.3,1.106l.221-3.075a9.632,9.632,0,0,1-5.7.57l-2.133,3.271a7.093,7.093,0,0,1-3.019-1.8l2.133-3.271a8.589,8.589,0,0,1-1.978-5.143l-2.792,1.545a19.141,19.141,0,0,1,.024-2.467A23.99,23.99,0,0,1,634.916,490.34Z" transform="translate(-630.54 -460.735)" fill-rule="evenodd" fill="url(#linear-gradient-15)"/>
        <path id="Trazado_686981" data-name="Trazado 686981" d="M614.935,587.514l3.98,2.418a21.661,21.661,0,0,0-.367,5.107l-3.98-2.418A21.508,21.508,0,0,1,614.935,587.514Z" transform="translate(-614.539 -560.327)" fill="#df9816" fill-rule="evenodd"/>
      </g>
      <g id="Grupo_913996" data-name="Grupo 913996" transform="translate(0 23.948)">
        <path id="Trazado_686982" data-name="Trazado 686982" d="M566.685,470.774l1.436.579,1.486,1.2-2.049,1.134-1.388-.466-1.534-1.31Z" transform="translate(-564.346 -451.95)" fill="#1466a0" fill-rule="evenodd"/>
        <path id="Trazado_686983" data-name="Trazado 686983" d="M574.569,508.557l1.616.832,1.305.943-1.566,2.4-1.222-.622-1.7-1.152Z" transform="translate(-571.046 -482.208)" fill="#1466a0" fill-rule="evenodd"/>
        <path id="Trazado_686984" data-name="Trazado 686984" d="M615.562,514.658l-.439,2.454-2.922-1.775.162-2.257Z" transform="translate(-602.437 -485.83)" fill="#0d4d7b" fill-rule="evenodd"/>
        <path id="Trazado_686985" data-name="Trazado 686985" d="M679.738,408.2l2.922,1.775-2.049,1.134-2.922-1.775Z" transform="translate(-654.881 -401.842)" fill="#0d4d7b" fill-rule="evenodd"/>
        <path id="Trazado_686986" data-name="Trazado 686986" d="M606.553,433.975l-2.878-2.364c1.378.84,3.226.108,4.528-.752a12.656,12.656,0,0,0,3.328-3.367,12.019,12.019,0,0,0,2.209-5.572c.117-1.372-.137-2.921-1.32-3.64l3.389,1.644C621.21,423.282,611.956,437.353,606.553,433.975Z" transform="translate(-595.609 -409.911)" fill="#0d4d7b" fill-rule="evenodd"/>
        <path id="Trazado_686987" data-name="Trazado 686987" d="M575.925,522.389a5.171,5.171,0,0,0,.98.772l-2.922-1.775a5.13,5.13,0,0,1-.511-.354,5.264,5.264,0,0,1-.468-.417S575.671,522.236,575.925,522.389Z" transform="translate(-571.046 -491.864)" fill="#0d4d7b" fill-rule="evenodd"/>
        <path id="Trazado_686988" data-name="Trazado 686988" d="M660.833,376.263l2.922,1.775-1.582,2.843-2.9-2.217Z" transform="translate(-640.129 -376.263)" fill="#1466a0" fill-rule="evenodd"/>
        <path id="Trazado_686989" data-name="Trazado 686989" d="M670.05,378.038l-2.922-1.775a5.458,5.458,0,0,1,1.237.547l2.922,1.775A5.5,5.5,0,0,0,670.05,378.038Z" transform="translate(-646.424 -376.263)" fill="#0d4d7b" fill-rule="evenodd"/>
        <path id="Trazado_686990" data-name="Trazado 686990" d="M573.572,489.6l3.213,1.382c.115,1.361.256,3.171,1.162,4.168l-2.922-1.775A6.4,6.4,0,0,1,573.572,489.6Z" transform="translate(-571.502 -467.028)" fill="#0f5586" fill-rule="evenodd"/>
        <path id="Trazado_686991" data-name="Trazado 686991" d="M641.167,389.891l-2.922-1.775a7.191,7.191,0,0,1,4.187-.419l2.922,1.775A7.219,7.219,0,0,0,641.167,389.891Z" transform="translate(-623.294 -385.297)" fill="#0d4d7b" fill-rule="evenodd"/>
        <path id="Trazado_686992" data-name="Trazado 686992" d="M577.847,449.372l-2.922-1.775a21.821,21.821,0,0,1,2.138-5.764l3.467,1.48A25.546,25.546,0,0,0,577.847,449.372Z" transform="translate(-572.585 -428.773)" fill="#0f5586" fill-rule="evenodd"/>
        <path id="Trazado_686993" data-name="Trazado 686993" d="M624.578,390.13l-.5,2.439-2.922-1.775.162-2.259Z" transform="translate(-609.606 -386.091)" fill="#0d4d7b" fill-rule="evenodd"/>
        <path id="Trazado_686994" data-name="Trazado 686994" d="M624.89,382.735l-2.922-1.775a17.876,17.876,0,0,1,3.4-1.884l2.922,1.775A17.927,17.927,0,0,0,624.89,382.735Z" transform="translate(-610.259 -378.516)" fill="#1466a0" fill-rule="evenodd"/>
        <path id="Trazado_686995" data-name="Trazado 686995" d="M601.623,406.028l-2.155-.323-.767-1.452a23.026,23.026,0,0,1,4.472-4.374l2.922,1.775A23.039,23.039,0,0,0,601.623,406.028Z" transform="translate(-591.626 -395.176)" fill="#0f5586" fill-rule="evenodd"/>
        <path id="Trazado_686996" data-name="Trazado 686996" d="M581.874,423.606l-2.921-1.775a31.822,31.822,0,0,1,2.6-3.984l2.922,1.775A32.294,32.294,0,0,0,581.874,423.606Z" transform="translate(-575.811 -409.565)" fill="#1466a0" fill-rule="evenodd"/>
        <path id="Trazado_686997" data-name="Trazado 686997" d="M589.832,406.493a13.183,13.183,0,0,0,6.157-9.442c.249-3.47-2.1-4.871-5.253-3.127a13.189,13.189,0,0,0-6.157,9.442c-.25,3.472,2.1,4.87,5.253,3.127Zm-11.7-1.36L580.185,404a21.822,21.822,0,0,1,2.138-5.765l-1.336-.793a32.108,32.108,0,0,1,2.6-3.984l1.336.795a22.959,22.959,0,0,1,4.471-4.374l.163-2.259a19.954,19.954,0,0,1,1.71-1.069,16.113,16.113,0,0,1,1.694-.816l-.162,2.26a7.074,7.074,0,0,1,4.187-.419l1.565-2.4a5.2,5.2,0,0,1,2.217,1.32l-1.565,2.4a6.32,6.32,0,0,1,1.452,3.777l2.049-1.134a13.936,13.936,0,0,1-.017,1.809,17.83,17.83,0,0,1-.252,1.941l-2.049,1.134a21.766,21.766,0,0,1-2.138,5.763l1.336.795a32.148,32.148,0,0,1-2.6,3.984l-1.336-.8a22.96,22.96,0,0,1-4.471,4.374l-.162,2.257a19.4,19.4,0,0,1-1.712,1.072,15.6,15.6,0,0,1-1.691.812l.162-2.258a7.07,7.07,0,0,1-4.187.419l-1.566,2.4a5.2,5.2,0,0,1-2.216-1.32l1.566-2.4a6.306,6.306,0,0,1-1.453-3.775l-2.049,1.134a14.043,14.043,0,0,1,.017-1.811A17.715,17.715,0,0,1,578.136,405.132Z" transform="translate(-574.924 -383.399)" fill-rule="evenodd" fill="url(#linear-gradient-16)"/>
        <path id="Trazado_686998" data-name="Trazado 686998" d="M563.467,476.469l2.922,1.775a15.914,15.914,0,0,0-.269,3.75l-2.922-1.775A15.8,15.8,0,0,1,563.467,476.469Z" transform="translate(-563.177 -456.511)" fill="#0f5586" fill-rule="evenodd"/>
      </g>
    </g>
    <g id="Grupo_914008" data-name="Grupo 914008" transform="translate(863.208 140.411)">
      <path id="Trazado_686999" data-name="Trazado 686999" d="M2138.321,1155.484l-36.444-20.755c-3.973-1.815-9.659-3.261-13.707-1.154-3.688,1.919-9.764,5.848-12.45,7.38-2.041,1.164-9.124,5.407-4.712,7.806,12.979,7.057,25.822,14.994,39,22.163,2.493,1.356,6.139,1.846,9.966,1.528a26.388,26.388,0,0,0,10.794-3.215q3.285-1.911,6.462-3.762c2.858-1.665,4.374-3.633,4.524-5.452C2141.9,1158.245,2140.759,1156.6,2138.321,1155.484Z" transform="translate(-2069.586 -980.734)" fill="#eaf4ff" fill-rule="evenodd"/>
      <path id="Trazado_687000" data-name="Trazado 687000" d="M2128.534,517.27c2.737-1.574,12.456-15.549,17.612-23.228,2.926-4.357,2.3-8.443-2.2-10.005-8.9-3.09-11.463,8.047-14.3,13.359-3.171,5.936-6.664,10.647-7.429,15.217C2121.652,515.972,2125.685,518.909,2128.534,517.27Z" transform="translate(-2111.69 -460.974)" fill="#b4cbe5" fill-rule="evenodd"/>
      <g id="Grupo_913998" data-name="Grupo 913998" transform="translate(15.972 70.113)">
        <path id="Trazado_687001" data-name="Trazado 687001" d="M2305.958,1190.183a16.317,16.317,0,0,0,.507,2.273,27.033,27.033,0,0,1,1.271,3.651c.67,2.543-.058,5.95.85,9.548a3.9,3.9,0,0,1-.463,3.862c-.9,1.245-2.61,3.242-4.911,3.167a3.547,3.547,0,0,1-2.458-1.176,5.946,5.946,0,0,1-1.569-4.265,35.215,35.215,0,0,0,.243-4.908c-.109-1.762-.459-2.732-.472-4.665-.014-2.042.065-4.854.059-6.172Z" transform="translate(-2269.242 -1097.016)" fill="#04304f" fill-rule="evenodd"/>
        <path id="Trazado_687002" data-name="Trazado 687002" d="M2165.892,1129.685a12.065,12.065,0,0,1,1.279,5.109c-.372,1.333-1.3,1.875-2.316,2.8l-.734.161c-1.8.99-2.374,4.462-4.027,6.042-1.167,1.116-3.533,1.722-5.887,2.179-2.515.488-4.938-.234-4.335-2.223,1.5-4.941,8.41-10.522,8.418-16.043Z" transform="translate(-2149.779 -1046.984)" fill="#04304f" fill-rule="evenodd"/>
        <path id="Trazado_687003" data-name="Trazado 687003" d="M2159.837,769.887c.446,9.466,3.005,27.181,2.951,36.509,2.486,2.425,7.308,1.674,8.812-.807.741-8.583,1.545-20.777,1.526-25.486a36.918,36.918,0,0,0-1.568-11.045c1.115-10.358,6.7-24.49,5-34.235-.746-4.28-3.679-8.887-4.595-12.418-6.812,8.692-12.3,4.526-15.245,3.771.1,3-.138,2.6.048,5.759.628,10.674,1.444,22.071,2.34,33.146A15.316,15.316,0,0,0,2159.837,769.887Z" transform="translate(-2155.32 -722.404)" fill-rule="evenodd" fill="url(#linear-gradient-17)"/>
        <path id="Trazado_687004" data-name="Trazado 687004" d="M2172.866,789.081c.226-3.727.37-6.972.363-8.979a36.914,36.914,0,0,0-1.568-11.046c1.115-10.357,6.7-24.49,5-34.235-.746-4.28-3.679-8.887-4.595-12.418-6.812,8.692-12.3,4.526-15.245,3.771.011.335.018.627.022.887l9.437,6.832-2.292-.514c.431,12.3,2.267,23.513,2.835,35.643a188.223,188.223,0,0,1,5.994,19.842Z" transform="translate(-2155.421 -722.404)" fill="#04304f" fill-rule="evenodd" opacity="0.3" style="mix-blend-mode: multiply;isolation: isolate"/>
        <path id="Trazado_687005" data-name="Trazado 687005" d="M2194.872,787.019c1.966,9.466,7.569,32.437,9.011,41.765,3.1,1.7,6.978.81,7.988-1.671-.2-8.583-.672-24.021-1.445-28.73a60.353,60.353,0,0,0-3.866-13.488c.006-22.116,2.313-28.011-.948-37.756-1.432-4.28-4.981-8.409-6.463-11.941-1.812,2.908-4.618,7.035-10.891,6.525-.614-.05-5.937-3.778-7.672-4.206,2.552,13.158,9.327,30.344,12.791,44.695A17.008,17.008,0,0,0,2194.872,787.019Z" transform="translate(-2174.448 -732.65)" fill-rule="evenodd" fill="url(#linear-gradient-18)"/>
      </g>
      <path id="Trazado_687006" data-name="Trazado 687006" d="M2165.469,490.15a5.133,5.133,0,0,0-1.959.511c-4.74,2.216-6.506,9.562-7.694,16.045-1.031,5.623-.7,10.275-.885,15.472-.144,4.146-.945,7.937-1.031,11.865a12.55,12.55,0,0,0,.058,3.689,17.828,17.828,0,0,1,.19,2.954c3.762,8.259,23.882,9.472,27.374,4.558a7.4,7.4,0,0,1-.585-2.248c1.794-1.648.644-6.274,1.183-9.4a25.576,25.576,0,0,1,1.734-6.418c3.441-7.03,7.929-12.314,9.13-17.81.827-3.786-3.729-8.889-9.906-13.2C2177.135,492.025,2168.857,489.412,2165.469,490.15Z" transform="translate(-2137.014 -466.195)" fill-rule="evenodd" fill="url(#linear-gradient-19)"/>
      <path id="Trazado_687007" data-name="Trazado 687007" d="M2196.426,597.394a7.184,7.184,0,0,0,4.17-2.294,7.385,7.385,0,0,1-.584-2.248c1.794-1.648.643-6.274,1.183-9.4a25.576,25.576,0,0,1,1.734-6.418c3.441-7.03,7.929-12.313,9.13-17.81.438-2-.631-4.373-2.649-6.8a6.643,6.643,0,0,0-5.357,1.017c-3.438,2.909-4.246,9.716-5.306,14.341-1.608,7.011-6.339,4.569-9.785,2.738a11.668,11.668,0,0,0,6.05,3.273c.8.2,1.45,1.77,1.332,3.38-.357,4.813-.863,10.936-.863,15.835-6.563,2.379-14.235.451-17.879-1.118,5.649,3.523,12.183,3.834,17.972,3.027A2.972,2.972,0,0,1,2196.426,597.394Z" transform="translate(-2156.087 -516.051)" fill-rule="evenodd" opacity="0.35" fill="url(#linear-gradient-20)" style="mix-blend-mode: multiply;isolation: isolate"/>
      <g id="Grupo_914002" data-name="Grupo 914002" transform="translate(17.795)">
        <path id="Trazado_687008" data-name="Trazado 687008" d="M2172.6,524.406c-4.9,6.513-3.622,10.06-2.117,15.839,1.639,6.293-1.233,12.541-3.641,19.392a21.775,21.775,0,0,1-7.786,4.011,34.67,34.67,0,0,0-.124-9.261,19.183,19.183,0,0,0,4.736-10.561c.414-6.566-1.627-12.876,7.452-20.577.192-2.74.7-3.167,1.319-3.314.73-.172.212-.453,1.963.562,1.154.669,2.344,1.327,1.62,2.529C2175.462,523.951,2174.831,524.168,2172.6,524.406Z" transform="translate(-2158.93 -490.012)" fill="#1989a5" fill-rule="evenodd"/>
        <path id="Trazado_687009" data-name="Trazado 687009" d="M2234.7,472.009c-.04-.379-.1-.76-.147-1.168-.135-1.162.341-3.358.247-6l10.14-1.01,2.214-.409a16.6,16.6,0,0,0-.913,9.531c-.672,3.5-7.778,2.747-11.542,2.411C2234.566,474.415,2234.82,473.176,2234.7,472.009Z" transform="translate(-2219.469 -444.889)" fill="#e7a376" fill-rule="evenodd"/>
        <path id="Trazado_687010" data-name="Trazado 687010" d="M2219.78,499.54c-.023-.542.219-1.562.311-2.489.083-.83.041-2.951.2-3.445-.85-.068-2.864,4.2-4.4,5.767A5.087,5.087,0,0,1,2219.78,499.54Z" transform="translate(-2204.552 -469.062)" fill="#a8da74" fill-rule="evenodd"/>
        <path id="Trazado_687011" data-name="Trazado 687011" d="M2246.808,507.451c-1.251,3.266-7.6,3.629-11.592,3.169.528,1.4,1.223,3.161.8,4.232,2.831.179,7.638.466,10.552-2.233A3.422,3.422,0,0,0,2246.808,507.451Z" transform="translate(-2220.022 -480.15)" fill="#a8da74" fill-rule="evenodd"/>
        <path id="Trazado_687012" data-name="Trazado 687012" d="M2218.329,408.721c1.29-.265,5.445-.613,6.6-1,2.13-.718,1.739-2.6,4.1-5.226,2.406-.587,3.458-1.395,4.106-2.526a9.357,9.357,0,0,0-.355-8.948,8.132,8.132,0,0,0-6-3.958c-5.191-.869-8.252.845-10.159,4.87a12.364,12.364,0,0,0-.629,2.187c-.075.934.1,1.159-.013,1.789a1.87,1.87,0,0,1-.683,1.2c-.58.531-1.014,2.127-1.265,4.048a17.028,17.028,0,0,0,.194,5.537C2214.621,408.038,2216.256,408.9,2218.329,408.721Z" transform="translate(-2202.952 -383.561)" fill="#f0b186" fill-rule="evenodd"/>
        <path id="Trazado_687013" data-name="Trazado 687013" d="M2249.284,408.436c1.374-.243,6.5-1.169,8.762-1.679,2.312-.521,4.825-1.058,6.072.692a10.3,10.3,0,0,1-.532,7.217c-1.2,2.421-3.564,4.136-6.521,5.8-1.111.624.091-2.958.053-3.8-.849,1.147-1.473,1.553-1.909,1.518-.315-.026-.7.051-.207-1.59.751-2.514-.32-3.274.747-4.751.855-1.184-.065-1.283-.2-1.887C2253.679,409.492,2251.7,409.9,2249.284,408.436Z" transform="translate(-2231.288 -399.106)" fill-rule="evenodd" fill="url(#linear-gradient-21)"/>
        <path id="Trazado_687014" data-name="Trazado 687014" d="M2281.964,452.626c2.127-.094,1.488,2.144.793,3.411-.478.87-1.226.577-1.719,1.23a1.83,1.83,0,0,1-1.962.8c-1.168-.376.071-1.913.414-2.567C2279.685,454.326,2280.614,452.687,2281.964,452.626Z" transform="translate(-2254.754 -436.243)" fill="#f0b186" fill-rule="evenodd"/>
        <path id="Trazado_687015" data-name="Trazado 687015" d="M2250.952,378.924c-1.584-.043-3.851.965-6.312,1.476-3.389.7-7.075.831-9.385-.6-1.328-.821-2.491-2.334-2.516-3.038C2232.357,366.221,2251.126,370,2250.952,378.924Z" transform="translate(-2218.033 -370.379)" fill-rule="evenodd" fill="url(#linear-gradient-22)"/>
        <path id="Trazado_687016" data-name="Trazado 687016" d="M2219.521,442.6c-1.122,1.717-2.667,1.86-2.935,2.219-.282.379.022,1.273.886,1.854-.735-.678-.862-1.439-.711-1.624C2217.241,444.463,2218.461,444.72,2219.521,442.6Z" transform="translate(-2205.021 -428.216)" fill="#aa6f48" fill-rule="evenodd"/>
        <g id="Grupo_913999" data-name="Grupo 913999" transform="translate(17.02 15.167)">
          <path id="Trazado_687017" data-name="Trazado 687017" d="M2247.135,448.236a3.7,3.7,0,0,0-2.752-1.7A2.594,2.594,0,0,1,2247.135,448.236Z" transform="translate(-2244.383 -446.53)" fill="#aa6f48" fill-rule="evenodd"/>
          <path id="Trazado_687018" data-name="Trazado 687018" d="M2248.858,449.4c-.406-.122-.348-.679-.129-.944a.44.44,0,0,1,.48-.119.552.552,0,0,1,.4.546A.594.594,0,0,1,2248.858,449.4Z" transform="translate(-2247.727 -447.964)" fill="#aa6f48" fill-rule="evenodd"/>
        </g>
        <g id="Grupo_914000" data-name="Grupo 914000" transform="translate(12.903 12.096)">
          <path id="Trazado_687019" data-name="Trazado 687019" d="M2225.124,432.383a1.485,1.485,0,0,0-1.412-1.27,2.221,2.221,0,0,1,1.356,1.422Z" transform="translate(-2223.712 -431.113)" fill="#aa6f48" fill-rule="evenodd"/>
          <path id="Trazado_687020" data-name="Trazado 687020" d="M2224.205,433.693c-.406-.122-.348-.678-.129-.944a.44.44,0,0,1,.48-.119.552.552,0,0,1,.4.545A.594.594,0,0,1,2224.205,433.693Z" transform="translate(-2223.867 -432.312)" fill="#aa6f48" fill-rule="evenodd"/>
        </g>
        <g id="Grupo_914001" data-name="Grupo 914001" transform="translate(11.19 19.58)">
          <path id="Trazado_687021" data-name="Trazado 687021" d="M2215.474,468.724c.215.079.248.215.46.39a2.073,2.073,0,0,1,.74.478,4.089,4.089,0,0,0,2.725,1.328c-1.337.076-3.312.549-4.141-.718-.236-.361-.006-.786-.1-1.06C2215.088,468.936,2215.044,468.566,2215.474,468.724Z" transform="translate(-2215.113 -468.686)" fill="#ea9f6f" fill-rule="evenodd"/>
          <path id="Trazado_687022" data-name="Trazado 687022" d="M2216.149,471.242a5.009,5.009,0,0,0,2.933,1.66,4.782,4.782,0,0,1-3-1.174l.053-.432Z" transform="translate(-2215.89 -470.733)" fill="#aa6f48" fill-rule="evenodd"/>
        </g>
      </g>
      <g id="Grupo_914003" data-name="Grupo 914003" transform="translate(39.221 35.561)">
        <path id="Trazado_687023" data-name="Trazado 687023" d="M2280.3,759.789c-1.043.381-2.85.6-3.613.869-.395.142-3.24,1.219-4.854,1.9-1.726.724-2.447,2.118-3.681,3.581a10.523,10.523,0,0,0-1.612,2.776c-.233.673,1.263,2.351,2.043,2.333,1.772-.041,3.916-1.784,4.41-1.929,4.191-1.223,6.051-1.059,7.735-2.357.719-.554,1.464-2.443,3.021-3.965l-1.916-2.57Z" transform="translate(-2266.51 -717.792)" fill="#f0b186" fill-rule="evenodd"/>
        <path id="Trazado_687024" data-name="Trazado 687024" d="M2311.878,551.56c5.209,5.094,10.477,14.034,15.6,20.624,1.84,2.364.844,4.322-.612,6.461a65.837,65.837,0,0,1-12.607,14.385,4,4,0,0,1-1.693.62c-.393.326-.944.913-1.365,1.254.521-.671-2.288-4.038-3.7-3.813.364-.451.459-.633.836-1.15a4.339,4.339,0,0,1,.3-1.612,57.006,57.006,0,0,1,8.56-12.485,89.644,89.644,0,0,1-11.249-11.044c-.857-.99-1.319-1.471-2.162-2.5-3.578-4.359-2.545-10.5.624-12.6C2306.284,548.471,2308.688,548.44,2311.878,551.56Z" transform="translate(-2294.56 -548.926)" fill-rule="evenodd" fill="url(#linear-gradient-23)"/>
      </g>
      <g id="Grupo_914007" data-name="Grupo 914007" transform="translate(9.754 20.243)">
        <g id="Grupo_914006" data-name="Grupo 914006" transform="translate(8.78)">
          <path id="Trazado_687025" data-name="Trazado 687025" d="M2166.785,487.571a24.509,24.509,0,0,1,3.7-3.976,9.377,9.377,0,0,0,3.074-6.261,1.831,1.831,0,0,0-1.245-1.733,8.537,8.537,0,0,0-1.215-.146,4.923,4.923,0,0,0-1.187-1.461,1.259,1.259,0,0,0-1.516-.326,8.234,8.234,0,0,0-2.341,1.037,14.08,14.08,0,0,0-1.872,2.507c-.583.925-1.368,2.69-1.195,3.423.38,1.611.837,1.992.517,2.964l-.863,2.62Z" transform="translate(-2162.641 -473.245)" fill="#f0b186" fill-rule="evenodd"/>
          <g id="Grupo_914005" data-name="Grupo 914005" transform="translate(0.335)">
            <path id="Trazado_687026" data-name="Trazado 687026" d="M2174.432,474.253a4.461,4.461,0,0,0-.866-1.627,1.329,1.329,0,0,0-1.539-.56,8.693,8.693,0,0,0-2.6.746,14.876,14.876,0,0,0-2.321,2.353,8.184,8.184,0,0,0-1.5,2.627l.957.217,2.172-.474C2172.122,477.556,2173.891,474.433,2174.432,474.253Z" transform="translate(-2165.349 -472.018)" fill="#f0b186" fill-rule="evenodd"/>
            <path id="Trazado_687027" data-name="Trazado 687027" d="M2167.122,496.071c.628.035.436.166,1.014-.082.01.552.394,1.121.636,1.054a.981.981,0,0,0,.635-.73,1.8,1.8,0,0,0-.748-1.779,7.612,7.612,0,0,0-2.39-.2c-.64-.008-.921-.053-1.177.235a2.913,2.913,0,0,0-.482.941,2.776,2.776,0,0,0-.14,2.079C2165.249,497.023,2166.006,495.6,2167.122,496.071Z" transform="translate(-2164.322 -489.886)" fill="#e7a376" fill-rule="evenodd"/>
            <path id="Trazado_687028" data-name="Trazado 687028" d="M2191.257,475a5.2,5.2,0,0,0-1.031-1.7,1.94,1.94,0,0,0-.457-.439l-3.3,4.522c.285.376,1.143,2.041-.057,2.476A11.42,11.42,0,0,0,2191.257,475Z" transform="translate(-2182.009 -472.692)" fill="#e7a376" fill-rule="evenodd"/>
            <g id="Grupo_914004" data-name="Grupo 914004" transform="translate(7.403 1.93)">
              <path id="Trazado_687029" data-name="Trazado 687029" d="M2204.929,485.946a8.964,8.964,0,0,0,.685-2.509,1.2,1.2,0,0,0-.819-1.572,9.144,9.144,0,0,0-1.283-.154l-.834.146a1.5,1.5,0,0,0,1.046,2.275,20.479,20.479,0,0,1-.853,3.968C2202.779,488.41,2204.258,487.41,2204.929,485.946Z" transform="translate(-2202.282 -481.711)" fill="#f0b186" fill-rule="evenodd"/>
              <path id="Trazado_687030" data-name="Trazado 687030" d="M2201.881,482.254a2.067,2.067,0,0,0,2.338,1.891,1.8,1.8,0,0,1-1.906.212A1.281,1.281,0,0,1,2201.881,482.254Z" transform="translate(-2201.489 -482.146)" fill="#e7a376" fill-rule="evenodd"/>
            </g>
          </g>
        </g>
        <path id="Trazado_687031" data-name="Trazado 687031" d="M2133.222,527.63c-.648.876-4.923-.616-5.238-1.457l-.782,1.55a8.87,8.87,0,0,0-1.57,1.5c-3.838,5.858-5.222,11.359-6.9,18.2a4.587,4.587,0,0,0,6.223,5.487c5.5-2.714,7.175-16.807,7.85-21.75.047-.341-.326-1.312-.236-1.641C2132.757,529.028,2133.086,527.93,2133.222,527.63Z" transform="translate(-2118.56 -515.387)" fill-rule="evenodd" fill="url(#linear-gradient-24)"/>
        <path id="Trazado_687032" data-name="Trazado 687032" d="M2144.28,533.49a1.153,1.153,0,0,1-.968.264c-.154.873-.281,1.365-.615,1.654a12.988,12.988,0,0,1-4.437-1.825,8.817,8.817,0,0,0,3.645,2.946c-.268,3.087-3.858,20.09-9.536,22.235a4.353,4.353,0,0,0,3.64.006c5.5-2.713,7.175-16.807,7.851-21.75.047-.341-.326-1.312-.236-1.642C2143.815,534.888,2144.144,533.79,2144.28,533.49Z" transform="translate(-2129.619 -521.247)" fill-rule="evenodd" opacity="0.35" fill="url(#linear-gradient-25)" style="mix-blend-mode: multiply;isolation: isolate"/>
      </g>
    </g>
    <g id="Grupo_914014" data-name="Grupo 914014" transform="translate(835.804 292.604)">
      <g id="Grupo_914010" data-name="Grupo 914010" transform="translate(13.09 94.824)">
        <ellipse id="Elipse_7690" data-name="Elipse 7690" cx="15.026" cy="8.704" rx="15.026" ry="8.704" transform="translate(2.509 30.129)" fill="#eaf4ff"/>
        <g id="Grupo_914009" data-name="Grupo 914009">
          <path id="Trazado_687033" data-name="Trazado 687033" d="M1997.757,1661.665c.741-.011,31.815-.1,34.663-.1-.006.643-.1,1.326-.154,1.966a62.059,62.059,0,0,1-1.325,8.538l-.016.064a36.339,36.339,0,0,1-7.2,15.114,22.106,22.106,0,0,1-4.143,4.039,9.576,9.576,0,0,1-8.69.087,4.946,4.946,0,0,1-.836-.58,31.62,31.62,0,0,1-4.916-5.4,37.748,37.748,0,0,1-5.913-13.592A71.639,71.639,0,0,1,1997.757,1661.665Z" transform="translate(-1997.749 -1651.421)" fill-rule="evenodd" fill="url(#linear-gradient-26)"/>
          <path id="Trazado_687034" data-name="Trazado 687034" d="M2017.957,1612.751c-9.181,0-16.624,4.2-16.624,9.378s7.443,9.378,16.624,9.378,16.624-4.2,16.624-9.378S2027.138,1612.751,2017.957,1612.751Z" transform="translate(-2000.613 -1612.327)" fill="#ecb01a" fill-rule="evenodd"/>
          <path id="Trazado_687035" data-name="Trazado 687035" d="M2019.924,1625.619c-8.911,0-16.135,4.076-16.135,9.1,0,2.454,5.842,6.768,16.183,7.244s15.754-5.077,16.087-7.244C2036.059,1629.695,2028.835,1625.619,2019.924,1625.619Z" transform="translate(-2002.58 -1622.632)" fill="#071a3b" fill-rule="evenodd"/>
          <path id="Trazado_687036" data-name="Trazado 687036" d="M2015.062,1610.619c-9.579,0-17.344,4.5-17.344,10.047s7.766,10.047,17.344,10.047,17.344-4.5,17.344-10.047-7.765-10.047-17.344-10.047Zm0,.7c8.911,0,16.135,4.076,16.135,9.1s-7.224,9.1-16.135,9.1-16.135-4.076-16.135-9.1S2006.151,1611.319,2015.062,1611.319Z" transform="translate(-1997.718 -1610.619)" fill="#fcd148" fill-rule="evenodd"/>
          <path id="Trazado_687037" data-name="Trazado 687037" d="M1999.539,1670.787c1.636,4.564,8.617,7.995,16.981,7.995,8.153,0,14.992-3.259,16.847-7.65l.014-.033-.313-.029-.954-.169-.033,0c-1.875,3.855-8.131,6.689-15.561,6.689-7.6,0-13.966-2.963-15.68-6.951l-.907.041-.394.1Zm33.894.186-.292-.136.3.1Z" transform="translate(-1999.176 -1658.689)" fill="#fcd148" fill-rule="evenodd"/>
        </g>
      </g>
      <g id="Grupo_914013" data-name="Grupo 914013">
        <g id="Grupo_914011" data-name="Grupo 914011" transform="translate(0 32.498)">
          <path id="Trazado_687038" data-name="Trazado 687038" d="M1942.511,1297.686a54.858,54.858,0,0,0-6.088,8.583c.516.921.971,1.866,1.493,2.8-1-.437-1.726-.759-2.453-1-4.406,8.788-4.35,16.757-1.309,23.849a15.645,15.645,0,0,0,6,1.492q-2.167.91-4.332,1.824c3.8,6.47,10.568,9.8,8.5,20.089-.08.4-.158.8-.227,1.21q2.65,1.716,5.3,3.424a18.97,18.97,0,0,0-5.6.138c.154,4.79,3.09,9.834,15.969,14.481a10.836,10.836,0,0,0,5.007-2.505c-.57-4.463.771-12.276,1.918-18.416.933-5,.62-8.5-.49-11.191-1.6.793-3.255,1.366-4.9,2.086a18.624,18.624,0,0,0,2.492-5.825c-4.041-4.438-10.771-6.716-15.407-14.092-.279-.444-.566-.912-.855-1.4-.905.389-1.824.73-2.74,1.132a18.556,18.556,0,0,0,1.572-3.22C1943.352,1315.424,1940.574,1307.341,1942.511,1297.686Z" transform="translate(-1931.996 -1297.686)" fill-rule="evenodd" fill="url(#linear-gradient-27)"/>
          <path id="Trazado_687039" data-name="Trazado 687039" d="M1991.292,1481.058a14.761,14.761,0,0,1,.517,8.54c-.08.4-.157.8-.227,1.21q2.65,1.715,5.3,3.424a18.966,18.966,0,0,0-5.6.138c.154,4.79,3.09,9.834,15.969,14.48a10.838,10.838,0,0,0,5.007-2.505c-.57-4.463.771-12.277,1.918-18.416.933-5,.62-8.5-.49-11.191-1.6.794-3.255,1.366-4.9,2.086a18.619,18.619,0,0,0,2.491-5.826c-2.549-2.8-6.169-4.74-9.658-7.644C1999.819,1471.346,1994.609,1475.047,1991.292,1481.058Z" transform="translate(-1979.476 -1431.96)" fill-rule="evenodd" opacity="0.5" fill="url(#linear-gradient-28)" style="mix-blend-mode: multiply;isolation: isolate"/>
          <path id="Trazado_687040" data-name="Trazado 687040" d="M1949.866,1363.692a20.6,20.6,0,0,1-6.775-5.143,32.165,32.165,0,0,0,5.833,3.428,21.564,21.564,0,0,1-.973-2.27c-2.594-7.178-.96-13.539,1.064-20.411-1.342,5.461-2.5,10.655-1.427,16.058.512-1.685,1.555-2.957,2.927-4.97-1.054,2.452-2.206,4.585-2.371,7.146q.286.915.668,1.841a26.4,26.4,0,0,0,5.408,7.926c-.22-2.194.428-4.041,1.372-6.58a21.506,21.506,0,0,0-.26,7.739c2.972,3.031,6.115,5.817,8.209,9.464,1.088-4.674.821-3.826,1.88-8.447.359,5.057.2,6.986-.846,10.539a17.971,17.971,0,0,1,1.285,5.063c.5,4.709.472,7.639.767,10.179,2.642-5.343,1.427-2.832,4.969-10.424-.33,4.427-.188,4.915-4.358,13.53.67,2.274,1.931,4.715,4.469,8.422a12.925,12.925,0,0,1-2.437,1c-4.633-6.916-4.644-9.6-4.724-14.792a48.3,48.3,0,0,0-7.317-10.186c2.5.951,4.479,2.372,7.217,6.574-.059-1.24-.155-2.62-.322-4.188-.445-4.191-2.432-7.373-4.915-10.334a38.49,38.49,0,0,0-8.013-2.528,14.482,14.482,0,0,1,6.145.415C1954.765,1369.935,1951.957,1367.156,1949.866,1363.692Z" transform="translate(-1940.881 -1331.008)" fill-rule="evenodd" opacity="0.5" fill="url(#linear-gradient-29)" style="mix-blend-mode: multiply;isolation: isolate"/>
        </g>
        <g id="Grupo_914012" data-name="Grupo 914012" transform="translate(16.527)">
          <path id="Trazado_687041" data-name="Trazado 687041" d="M2046.089,1134.52a76.58,76.58,0,0,0-12.3,8.04c.2,1.461.307,2.921.509,4.4-1.071-1.078-1.855-1.869-2.677-2.552-10.218,9.167-14.22,19.55-13.895,30.32,2.58,2.552,3.327,3.059,7.038,5.008q-3.281.075-6.561.156c1.631,10.351,8.723,18.132.779,30.452-.308.478-.615.963-.913,1.456q2.567,3.584,5.142,7.162c-3.5-1.653-4.881-2.221-7.351-2.686-2.249,6.3-1.012,14.359,13.346,26.981,1.683.511,6.486.132,7.786-.7,1.542-6.09,7.28-15.558,11.909-22.948,3.768-6.015,5.152-10.727,5.085-14.792-2.487.212-4.927.11-7.433.206,2.932-2.395,4.36-3.556,6.216-6.3-2.981-7.832-10.561-14.234-12.814-26.188-.135-.72-.269-1.475-.394-2.261-1.375.043-2.744.017-4.139.07a25.9,25.9,0,0,0,3.689-3.38C2038.113,1158,2038.636,1146.076,2046.089,1134.52Z" transform="translate(-2014.976 -1134.52)" fill-rule="evenodd" fill="url(#linear-gradient-30)"/>
          <path id="Trazado_687042" data-name="Trazado 687042" d="M2052.48,1214.611a28.756,28.756,0,0,1-6.174-10.148c2.046,2.812,3.617,5.493,5.826,7.437a30.052,30.052,0,0,1-.1-3.447c.3-10.653,5.675-18.084,11.819-25.978-4.536,6.41-8.7,12.565-10.065,20.136,1.527-1.928,3.532-3.046,6.344-4.961-2.624,2.646-5.21,4.829-6.735,8.073q-.1,1.335-.073,2.734a36.857,36.857,0,0,0,2.974,13.064c.836-2.964,2.623-5.032,5.147-7.848-1.725,2.885-3.733,6.429-4.295,9.923,2.312,5.459,4.971,10.685,5.827,16.494,3.8-5.517,3.023-4.552,6.762-10.016-2.119,6.755-3.316,9.178-6.487,13.262a25.116,25.116,0,0,1-.918,7.235c-1.752,6.377-3.292,10.168-4.208,13.619,6.166-5.593,3.3-2.95,11.787-11-2.691,5.583-2.758,6.29-12.58,15.353-.292,3.3.1,7.113,1.5,13.229a18.013,18.013,0,0,1-3.678.055c-2.484-11.354-1.126-14.849,1.426-21.636-.814-5.61-2.1-12.1-4.3-16.976,2.767,2.516,4.608,5.372,6.016,12.232.558-1.641,1.138-3.484,1.724-5.607,1.565-5.673.61-10.823-1.1-15.941a53.759,53.759,0,0,0-9.119-7.382,20.211,20.211,0,0,1,7.773,3.681C2055.653,1225.228,2053.425,1220.182,2052.48,1214.611Z" transform="translate(-2040.066 -1172.924)" fill-rule="evenodd" opacity="0.5" fill="url(#linear-gradient-31)" style="mix-blend-mode: multiply;isolation: isolate"/>
        </g>
      </g>
    </g>
    <g id="Grupo_914016" data-name="Grupo 914016" transform="translate(574.159 331.035)">
      <g id="Grupo_914015" data-name="Grupo 914015" transform="translate(1.714 7.826)">
        <path id="Trazado_687043" data-name="Trazado 687043" d="M664.083,1366.769l-37.161,21.55.121,42.192,37.162-21.554Z" transform="translate(-626.922 -1366.769)" fill-rule="evenodd" fill="url(#linear-gradient-32)"/>
        <path id="Trazado_687044" data-name="Trazado 687044" d="M656.062,1457.606c4.025-2.228,7.545-7.625,7.863-12.06s-2.684-6.221-6.71-3.994-7.545,7.628-7.863,12.059,2.687,6.22,6.71,3.994Zm-14.938-1.738,2.618-1.449a27.861,27.861,0,0,1,2.731-7.363l-1.707-1.013a41.054,41.054,0,0,1,3.318-5.088l1.706,1.016a29.312,29.312,0,0,1,5.711-5.586l.208-2.886a25.563,25.563,0,0,1,2.184-1.365,20.622,20.622,0,0,1,2.163-1.041l-.208,2.885a9.033,9.033,0,0,1,5.348-.535l2-3.067a6.642,6.642,0,0,1,2.831,1.685l-2,3.064a8.076,8.076,0,0,1,1.855,4.825l2.617-1.448a17.873,17.873,0,0,1-.022,2.31,22.635,22.635,0,0,1-.322,2.479l-2.618,1.448a27.785,27.785,0,0,1-2.731,7.36l1.707,1.015a41.1,41.1,0,0,1-3.318,5.088l-1.707-1.016a29.293,29.293,0,0,1-5.711,5.586l-.207,2.883a24.782,24.782,0,0,1-2.187,1.369,19.94,19.94,0,0,1-2.161,1.038l.207-2.883a9.028,9.028,0,0,1-5.348.535l-2,3.067a6.653,6.653,0,0,1-2.831-1.685l2-3.067a8.058,8.058,0,0,1-1.855-4.822l-2.617,1.449a17.969,17.969,0,0,1,.022-2.313A22.611,22.611,0,0,1,641.124,1455.869Z" transform="translate(-637.998 -1417.709)" fill="#fff" fill-rule="evenodd"/>
      </g>
      <path id="Trazado_687045" data-name="Trazado 687045" d="M651.95,1335.023a.661.661,0,0,0-.663-1.145l-3.334,1.934a.661.661,0,1,0,.663,1.145l3.334-1.934Zm-6.432,3.788a.661.661,0,0,0-.663-1.145l-5.394,3.129a.661.661,0,0,0,.663,1.145l5.395-3.129Zm-8.773,5.091a.66.66,0,0,0-.658-1.145l-9.546,5.5a.66.66,0,0,0,.658,1.145l9.546-5.5Zm-13.028,7.493-4.074,2.364.135,46.944,41.373-24-.136-46.941-2.736,1.587a.662.662,0,0,1-.663-1.145l4.714-2.733.145,49.994L618.463,1403q-.069-25-.144-50l4.735-2.746a.661.661,0,1,1,.663,1.144Z" transform="translate(-618.319 -1327.475)" fill="#e3efff" fill-rule="evenodd"/>
    </g>
    <g id="Grupo_914033" data-name="Grupo 914033" transform="translate(588.504 204.495)">
      <path id="Trazado_687046" data-name="Trazado 687046" d="M937.886,1736.989l-36.822-20.971c-4.014-1.834-9.76-3.294-13.849-1.165-3.726,1.939-9.865,5.908-12.579,7.456-2.062,1.176-9.219,5.464-4.761,7.887,13.113,7.13,26.09,15.149,39.405,22.393,2.518,1.37,6.2,1.865,10.069,1.544a26.66,26.66,0,0,0,10.906-3.248q3.319-1.93,6.53-3.8c2.888-1.682,4.42-3.67,4.571-5.509C941.5,1739.778,940.35,1738.113,937.886,1736.989Z" transform="translate(-832.966 -1510.314)" fill="#eaf4ff" fill-rule="evenodd"/>
      <g id="Grupo_914032" data-name="Grupo 914032" transform="translate(0)">
        <path id="Trazado_687047" data-name="Trazado 687047" d="M925.446,711.916,885.6,735.183l5.789,51.079.8,5.042,4.369,2.69,36.593-21.368Z" transform="translate(-846.712 -707.976)" fill-rule="evenodd" opacity="0.5" fill="url(#linear-gradient-33)" style="mix-blend-mode: multiply;isolation: isolate"/>
        <g id="Grupo_914018" data-name="Grupo 914018" transform="translate(25.351 81.924)">
          <g id="Grupo_914017" data-name="Grupo 914017">
            <path id="Trazado_687048" data-name="Trazado 687048" d="M823.214,1109.46c1.71.982,3.822.334,4.415,2.12a20.581,20.581,0,0,1,.57,2.451,6.8,6.8,0,0,1-2.971,2.04,2.233,2.233,0,0,0-.4-.6c-.633-.651-1.443-1.032-3.431-1.755-2.016-.733-2.278-.979-3.169-4.809-.653-2.806-.992-4.355.127-5.1C820.97,1102.068,821.3,1107.344,823.214,1109.46Z" transform="translate(-817.622 -1103.463)" fill="#e7a376" fill-rule="evenodd"/>
            <path id="Trazado_687049" data-name="Trazado 687049" d="M821.417,1116.33c1.71.982,3.849.522,4.443,2.308.15.45.273.874.379,1.288a5.282,5.282,0,0,1-1.011.427,2.232,2.232,0,0,0-.4-.6c-.633-.651-1.443-1.032-3.431-1.755-2.016-.733-2.278-.979-3.169-4.809a11.172,11.172,0,0,1-.544-4.09c.093-.434.837-.4.979.2C819.386,1112.378,819.506,1114.213,821.417,1116.33Z" transform="translate(-817.622 -1107.744)" fill="#da9569" fill-rule="evenodd"/>
            <path id="Trazado_687050" data-name="Trazado 687050" d="M823.84,1107.4a12.4,12.4,0,0,0,2.082,4.491c.4.557.448,1.052,1.06,1.37.256.133.657-.239,1.162-.622-.091.542-.382.972.1,1.065,3.138.611,3.484,1.366,3.858,4.493l0,0c-1.178-2.326-2.369-2.282-4.177-3.185l-1.094-.923A15.1,15.1,0,0,1,823.84,1107.4Z" transform="translate(-822.602 -1106.618)" fill="#da9569" fill-rule="evenodd"/>
          </g>
          <path id="Trazado_687051" data-name="Trazado 687051" d="M880.572,1174.087c-1.253-.958-3.7-1.137-5.481-1.87-2.942-1.208-6.448-3.036-9.428-3.862-.458-1.93-7.135-12.144-8.6-14.016-1.037.087-2.827,1.332-3.879,2.468,1.949,4.12,3.279,9.79,5.418,13.3a15.779,15.779,0,0,0,1.224,2.588,21.818,21.818,0,0,0,4.182,3.243c2.2,1.361,7.31,4.846,11.315,6.425,2.941,1.159,3.031-1.2,4.11-2.265C880.839,1177.1,883.066,1175.993,880.572,1174.087Z" transform="translate(-846.105 -1144.206)" fill-rule="evenodd" fill="url(#linear-gradient-34)"/>
        </g>
        <g id="Grupo_914020" data-name="Grupo 914020" transform="translate(49.949 67.457)">
          <g id="Grupo_914019" data-name="Grupo 914019">
            <path id="Trazado_687052" data-name="Trazado 687052" d="M967.527,1055.353a1.973,1.973,0,0,0,.43-2.349c-.473-.871-2.416-1.974-2.566-2.131-.24-.249-.521-2.609-2.066-1.924a17.261,17.261,0,0,0,.727,2.765C964.636,1052.492,966.66,1055.585,967.527,1055.353Z" transform="translate(-958.904 -1045.241)" fill="#e7a376" fill-rule="evenodd"/>
            <path id="Trazado_687053" data-name="Trazado 687053" d="M946.268,1037.229c1.59,1.167,3.761.758,4.151,2.6a20.639,20.639,0,0,1,.293,2.5,6.806,6.806,0,0,1-3.18,1.7,2.207,2.207,0,0,0-.334-.638c-.557-.718-1.319-1.187-3.213-2.127-1.921-.953-2.154-1.226-2.613-5.133-.336-2.861-.5-4.438.7-5.054C944.863,1029.633,944.6,1034.913,946.268,1037.229Z" transform="translate(-941.127 -1030.827)" fill="#e7a376" fill-rule="evenodd"/>
            <path id="Trazado_687054" data-name="Trazado 687054" d="M948.351,1046.106c.1.464.174.9.233,1.323a5.27,5.27,0,0,1-1.052.311,2.207,2.207,0,0,0-.334-.638c-.557-.718-1.319-1.186-3.213-2.127-1.921-.954-2.154-1.227-2.613-5.133a11.18,11.18,0,0,1-.085-4.125c.142-.42.877-.3.95.308.329,2.728.164,4.7,1.243,6.627C943.938,1043.471,947.96,1044.264,948.351,1046.106Z" transform="translate(-941.127 -1034.543)" fill="#da9569" fill-rule="evenodd"/>
            <path id="Trazado_687055" data-name="Trazado 687055" d="M956.826,1063.071c-.151.528-.84.646-.374.792,2.474.776,3.2,1.477,3.41,3.425a6.688,6.688,0,0,0-4.128-3.182l-1.357.322C955.335,1063.849,955.934,1063.6,956.826,1063.071Z" transform="translate(-951.737 -1056.649)" fill="#da9569" fill-rule="evenodd"/>
          </g>
          <path id="Trazado_687056" data-name="Trazado 687056" d="M992.456,1112.7c-.98-1.236-3.305-2.008-4.856-3.155-2.557-1.891-5.508-4.523-8.2-6.053.028-1.984-3.944-13.522-4.9-15.694-1.027-.17-3.067.6-4.365,1.443.881,4.472.782,10.3,2,14.226a15.835,15.835,0,0,0,.553,2.809,21.84,21.84,0,0,0,3.26,4.169c1.8,1.86,5.9,6.489,9.4,9,2.568,1.844,3.952,1.506,5.258.74C993.643,1118.408,994.407,1115.164,992.456,1112.7Z" transform="translate(-964.36 -1076.436)" fill-rule="evenodd" fill="url(#linear-gradient-35)"/>
        </g>
        <g id="Grupo_914025" data-name="Grupo 914025" transform="translate(53.385 134.215)">
          <g id="Grupo_914022" data-name="Grupo 914022" transform="translate(27.645 63.782)">
            <path id="Trazado_687057" data-name="Trazado 687057" d="M1101.034,1686.249a16.963,16.963,0,0,0,1.4,5.8c.387.422.87.677,1.1,1.159,1.213,2.58,1.479,5.065.635,18.306l-3.108.066-.4-4.677c-.385-1.9-1.45-4.67-1.88-6.388-.938-3.742-1.028-5.619-1.6-8.374Z" transform="translate(-1097.181 -1686.249)" fill="#e7a376" fill-rule="evenodd"/>
            <g id="Grupo_914021" data-name="Grupo 914021" transform="translate(3.005 5.453)">
              <path id="Trazado_687058" data-name="Trazado 687058" d="M1149.27,1760.654a4.986,4.986,0,0,0,1.052-.154c.16-.179.462-1.057.242-1.222C1150.173,1759.018,1149.376,1760.4,1149.27,1760.654Z" transform="translate(-1141.9 -1750.16)" fill="#1f202b" fill-rule="evenodd"/>
              <path id="Trazado_687059" data-name="Trazado 687059" d="M1121.235,1739.737c-.371,1.183.156,2.324.529,3.553,1.3,4.293,2.062,4.534,1.511,6.476a8.684,8.684,0,0,1-1.9,3.409,10.99,10.99,0,0,1-2.177,2.4c-1.628,1.125-3.078,1.651-2.724-.607a10.867,10.867,0,0,1,.531-2.094c1.153-2.68,2.5-3.855,1.769-7.2-.54-2.483-1.4-4.119-.283-5.792Z" transform="translate(-1115.593 -1734.537)" fill="#161a40" fill-rule="evenodd"/>
              <path id="Trazado_687060" data-name="Trazado 687060" d="M1117.652,1716.151a14,14,0,0,0,3.279,6.6c-.259-.069-.922.608-1.287,1.357-2.687-3.089-3.993-4.59-4.82-3.26a42.452,42.452,0,0,0,.831,4.712,4.7,4.7,0,0,1-.09,2.448c-1.055,2.533-2.989,6.23-2.251,7.44a4.376,4.376,0,0,1-.549-2.418c0-1.748.3-4.115.34-5.571.051-1.966-.693-3.672-.812-6.35a21.4,21.4,0,0,1,0-2.243c.113-1.894.32-4.405,1.652-5.116a3.425,3.425,0,0,1,2.344.254A2.8,2.8,0,0,1,1117.652,1716.151Z" transform="translate(-1112.267 -1713.627)" fill="#0a416d" fill-rule="evenodd"/>
            </g>
          </g>
          <path id="Trazado_687061" data-name="Trazado 687061" d="M1007.733,1404.091l-9.479-27.468-.308-7.544a7.081,7.081,0,0,1,.984-3.067c5,1.472,7.792,3.059,13.16,2.87,1.61,2.395,3.816,6.875,3.9,10.261.159,6.6-.359,11,1.656,22.022,5.989,20.163,2.883,19.462,5.174,32.859.193,1.429-4.208,2.565-5.706,1.675Z" transform="translate(-990.063 -1366.011)" fill-rule="evenodd" fill="url(#linear-gradient-36)"/>
          <path id="Trazado_687062" data-name="Trazado 687062" d="M1007.733,1404.091l-9.479-27.468-.308-7.544a7.081,7.081,0,0,1,.984-3.067c1.01.3,1.93.6,2.8.891l5.575,8.91c2.141,4.366,2.681,10,4.228,11.3-1.76,4.266-1,12.842-.369,17.551,1.8-.6,3.459-.858,5.232-1.52-1.218,1.013-3.459,2.027-4.706,3.3a138.748,138.748,0,0,1,4.123,24.868Z" transform="translate(-990.063 -1366.011)" fill="#0a3c5f" fill-rule="evenodd" opacity="0.3" style="mix-blend-mode: multiply;isolation: isolate"/>
          <g id="Grupo_914024" data-name="Grupo 914024" transform="translate(2.259 74.819)">
            <path id="Trazado_687063" data-name="Trazado 687063" d="M990.008,1741.668c.075,2.107,2.078,4.147,2.312,5.514.538,3.141-1.738,1.508-4.314,5.545-1.031-.009-3.3,3.708-6.376,3.9a1.652,1.652,0,0,1-.572-2.88c.622-.362,1.177-.094,1.688-.539,1.066-.943,2.322-8.683,2.073-10.911Z" transform="translate(-978.296 -1741.668)" fill="#e7a376" fill-rule="evenodd"/>
            <g id="Grupo_914023" data-name="Grupo 914023" transform="translate(0 3.105)">
              <path id="Trazado_687064" data-name="Trazado 687064" d="M982.606,1757.258c-2.5.307-4.826,6.4-6.757,9.05-.938,1.286-2.925-.04-2.119-.385a20.872,20.872,0,0,0-3.036.029c-1.566.252-1.016,1.82.048,2.556,2.37,1.637,4.472,2.559,6.621,1.475a10.254,10.254,0,0,0,1.317-.877,6.579,6.579,0,0,0,.877-.711c.7-.833.962-2.176,1.6-3.317.21-.378.382-.459.517-.357.261.365-.008,5.844-.138,6.941.07.315,1.139.563,1.352.323l1.983-9.733a3.472,3.472,0,0,0-.26-2.493A21.646,21.646,0,0,0,982.606,1757.258Z" transform="translate(-969.721 -1757.258)" fill="#0a416d" fill-rule="evenodd"/>
              <path id="Trazado_687065" data-name="Trazado 687065" d="M1001.711,1799.88a4.46,4.46,0,0,0,1.272-.423,10.254,10.254,0,0,0,1.317-.877,6.566,6.566,0,0,0,.877-.711c.753-.9,1.121-2.579,1.957-3.728-.279-.172-1.008-.154-1.739,1.05-1.1,2.019-1.852,3.506-3.3,4.485A2.245,2.245,0,0,1,1001.711,1799.88Z" transform="translate(-995.34 -1786.733)" fill="#161a40" fill-rule="evenodd"/>
            </g>
          </g>
          <path id="Trazado_687066" data-name="Trazado 687066" d="M959.566,1417.668a53.663,53.663,0,0,1-.9-16.829c.18-3.066-.139-4.572.871-7.544a18,18,0,0,1,1.463-3.067c4.766,1.472,8.321,2.917,13.719,2.727a15.48,15.48,0,0,1,1.859,8.985c-.872,6.6-3.138,11.989-3.869,23.3,1.854,13.18.493,22.072.222,34.845-.03,1.429-4.609,2.566-5.967,1.675C964.127,1446.79,962.378,1432.3,959.566,1417.668Z" transform="translate(-958.379 -1385.405)" fill-rule="evenodd" fill="url(#linear-gradient-37)"/>
        </g>
        <path id="Trazado_687067" data-name="Trazado 687067" d="M984.776,1220.408c5.58-.631,5.593,8.567,3.652,12.9-5.049,11.267-1.783,13.01-2.246,18.146l.1,2.068c-4.8,7.144-18.7,6.586-20.392,1.424.091-.321.16-1.678.282-2.015-.329-4.529,1.844-8.1,1.423-11.183-.707-5.184-3.528-7.007-2.009-11.439a25.484,25.484,0,0,1,7.242-5.683A37.628,37.628,0,0,1,984.776,1220.408Z" transform="translate(-910.413 -1115.167)" fill-rule="evenodd" fill="url(#linear-gradient-38)"/>
        <path id="Trazado_687068" data-name="Trazado 687068" d="M987.78,1220.408c5.58-.631,5.593,8.567,3.652,12.9-5.05,11.267-1.783,13.01-2.246,18.146l.1,2.068c-4.8,7.144-18.7,6.586-20.392,1.424.083-.295.149-1.459.253-1.911,5.062,4.839,12.388,3.558,16.719.976a5.8,5.8,0,0,0-.1-3.521c-3.484-3.751-4.948-3.729-5.552-12.839-.1-1.483-1.715-3.557-2.935-5.535-1.233-2-1.728-4.346-.446-6.132,2.014.475,6.63.174,7.079-.648.156-.286-.638-2.8-.509-3.109C986.853,1220.706,985.752,1220.637,987.78,1220.408Z" transform="translate(-913.417 -1115.167)" fill="#f9bc23" fill-rule="evenodd" opacity="0.35" style="mix-blend-mode: multiply;isolation: isolate"/>
        <g id="Grupo_914027" data-name="Grupo 914027" transform="translate(59.362 84.293)">
          <g id="Grupo_914026" data-name="Grupo 914026">
            <path id="Trazado_687069" data-name="Trazado 687069" d="M1001.793,1187.869c0,1.883-6.967,2.274-8.97.778l.055-.443c.268-2.8.642-5,.062-7.155-1.142.2-3.719-.274-3.861-.682,8.158-3.865,17.143-6.026,17.523-3.015-1.153,1.846-3.247,2.856-4.434,3.955a4.228,4.228,0,0,0-.883,1.686h0A19.932,19.932,0,0,0,1001.793,1187.869Z" transform="translate(-988.942 -1163.871)" fill="#da9569" fill-rule="evenodd"/>
            <path id="Trazado_687070" data-name="Trazado 687070" d="M988.555,1131.894c.5.526,5.033.119,5.369.216,3.232.933,6.813,1.5,7.689.685,1.187-1.1,3.281-2.11,4.434-3.955,1.843-2.948,2.483-6.614.145-9.821-4.064-5.577-12.814-4.255-15.127.432-.948,1.922-.406,2.228-.823,3.567-.769,2.466-.83,1.454-1.535,5.478C988.439,1130.027,988.223,1131.545,988.555,1131.894Z" transform="translate(-988.386 -1115.357)" fill="#e7a376" fill-rule="evenodd"/>
          </g>
          <path id="Trazado_687071" data-name="Trazado 687071" d="M1009.587,1220.941c-.184,1.668-4.878,2.844-7.725,2.18-.3-.071-.494-.129-.6-.323a6.119,6.119,0,0,0-1.688,2.7c2.461,2.372,10.236.981,11.181-1.8A2.09,2.09,0,0,0,1009.587,1220.941Z" transform="translate(-997.343 -1199.912)" fill="#f9bc23" fill-rule="evenodd"/>
        </g>
        <g id="Grupo_914028" data-name="Grupo 914028" transform="translate(60.859 82.679)">
          <path id="Trazado_687072" data-name="Trazado 687072" d="M1002.384,1107.824c-5.663-1.484-7.35,6.672-6.086,10.878.9,3,1.782,2.572,2.708,5.769-.217,3.778-.854,8.372-.352,11.016a14.8,14.8,0,0,0,1.464,4.265c1.417,2.65,3.663,3.212,4.272,4.72,1.2,2.979.367,4.869,1.62,7.332,2.156,4.239,7.227,8.066,15.9,6.83,5.981-.852,12.292-3.936,14.837-7.79,2.635-3.99,3.151-12.115-2.894-13.165-6.475-1.125-4.48-4.351-4.369-9.377.076-3.451-.819-7.109-5.784-8.463a14.724,14.724,0,0,1-4.726-2.484c-3.516-2.4-2.44-5.6-6.255-8.225C1008.838,1106.462,1004.28,1107.25,1002.384,1107.824Z" transform="translate(-995.902 -1107.253)" fill-rule="evenodd" fill="url(#linear-gradient-39)"/>
          <path id="Trazado_687073" data-name="Trazado 687073" d="M999.025,1112.038c-2.936,1.765-3.692,7.282-2.727,10.5.9,3,1.782,2.572,2.708,5.769-.217,3.778-.854,8.372-.352,11.016a14.8,14.8,0,0,0,1.465,4.265c1.417,2.649,3.663,3.211,4.272,4.719,1.2,2.979.367,4.868,1.62,7.332,2.156,4.239,7.227,8.066,15.9,6.83,5.981-.852,12.292-3.936,14.837-7.79a12.361,12.361,0,0,0,1.854-5.919c-5.039,3.95-9.023,7.169-14.39,7.543-5.948.414-9.348-1.719-11.242-5.321-2.516-4.786-1.355-5.061-3.488-7.848-3.118-4.075-4.642-4.473-5.363-5.875-3.046-5.922.146-6.636-3.228-12.151C997.572,1119.689,995.814,1116.964,999.025,1112.038Z" transform="translate(-995.902 -1111.085)" fill="#401d29" fill-rule="evenodd"/>
        </g>
        <g id="Grupo_914031" data-name="Grupo 914031">
          <path id="Trazado_687074" data-name="Trazado 687074" d="M718.394,721.05a.792.792,0,0,0,.172-1.157.943.943,0,0,0-1.2-.366l-7.025,4.064a.791.791,0,0,0-.172,1.157.943.943,0,0,0,1.2.366l7.026-4.063Zm-10.566,6.136a.794.794,0,0,0,.168-1.161.944.944,0,0,0-1.206-.363l-3.905,2.26a.794.794,0,0,0-.168,1.161.943.943,0,0,0,1.206.363l3.906-2.259Zm-11.135,6.383-4.523,2.617,7.137,57.385,71.2-41.157-7.138-57.38-41.182,23.823a.944.944,0,0,1-1.206-.362.8.8,0,0,1,.168-1.161l43.557-25.2q3.817,30.672,7.63,61.343c-25.546,14.764-48.832,28.214-74.369,42.99q-3.81-30.674-7.63-61.348l5.316-3.076a.944.944,0,0,1,1.206.362A.794.794,0,0,1,696.693,733.569Z" transform="translate(-690.339 -692.136)" fill="#fff" fill-rule="evenodd"/>
          <path id="Trazado_687075" data-name="Trazado 687075" d="M787.879,727.616,720.6,766.535l6.62,53.232,67.28-38.923Z" transform="translate(-714.573 -720.55)" fill-rule="evenodd" fill="url(#linear-gradient-40)"/>
          <g id="Grupo_914030" data-name="Grupo 914030" transform="translate(12.461 13.011)">
            <path id="Trazado_687076" data-name="Trazado 687076" d="M1023.145,764.159l-2.028-1.179-1.48,3.211c-.435.577-1.075.216-.948-.582l1.485-3.176-2.024-1.18c-.5-.567-.382-1.511.695-1.456l2.021,1.15h0l1.484-3.176c.352-.591,1.1-.288.939.508l-1.476,3.205,2.02,1.149C1024.4,763.508,1023.711,764.281,1023.145,764.159Z" transform="translate(-965.093 -757.461)" fill="#fff" fill-rule="evenodd"/>
            <g id="Grupo_914029" data-name="Grupo 914029" transform="translate(0 25.219)">
              <path id="Trazado_687077" data-name="Trazado 687077" d="M757.345,909.563l-.447-3.594,37.83-21.886.447,3.6Z" transform="translate(-756.102 -884.083)" fill="#fff" fill-rule="evenodd"/>
              <path id="Trazado_687078" data-name="Trazado 687078" d="M752.9,930.775l13.383-7.739.446,3.593-13.379,7.739Z" transform="translate(-752.903 -915.278)" fill="#fff" fill-rule="evenodd"/>
              <path id="Trazado_687079" data-name="Trazado 687079" d="M786.79,956.732,761.432,971.4l-.447-3.593,25.358-14.67Z" transform="translate(-759.376 -939.385)" fill="#fff" fill-rule="evenodd"/>
            </g>
          </g>
        </g>
      </g>
    </g>
    <g id="Grupo_914036" data-name="Grupo 914036" transform="translate(824.333 83.216)">
      <g id="Grupo_914035" data-name="Grupo 914035">
        <g id="Grupo_914034" data-name="Grupo 914034" transform="translate(0 5.065)">
          <path id="Trazado_687080" data-name="Trazado 687080" d="M1948.4,275.024a33.263,33.263,0,0,1-11.522,12.15,14.078,14.078,0,0,1-8.131,2.19l-2.18,5.637c3.031.266,6.569-.6,10.324-2.77,5.727-3.306,10.885-8.964,14.612-15.4Z" transform="translate(-1916.178 -241.887)" fill="#f8c527" fill-rule="evenodd"/>
          <path id="Trazado_687081" data-name="Trazado 687081" d="M1880.4,200.208c-3.726,6.432-6.02,13.722-6,20.264.026,8.786,4.194,14.087,10.39,14.614l2.18-5.637c-4.868-.436-8.165-4.578-8.184-11.508a32.758,32.758,0,0,1,4.738-15.955Z" transform="translate(-1874.402 -181.972)" fill="#33c1e5" fill-rule="evenodd"/>
          <path id="Trazado_687082" data-name="Trazado 687082" d="M1919.111,111.5c-5.69,3.287-10.848,8.927-14.577,15.381l3.122,1.777a33.108,33.108,0,0,1,11.471-12.12,14.146,14.146,0,0,1,8.147-2.2l2.2-5.651C1926.441,108.428,1922.885,109.325,1919.111,111.5Z" transform="translate(-1898.533 -108.646)" fill="#11639d" fill-rule="evenodd"/>
        </g>
        <path id="Trazado_687083" data-name="Trazado 687083" d="M1941.539,88.354l.663.194-1.69,3.442a39.949,39.949,0,0,1,7.264-5.476c13.017-7.515,24.411-1.9,24.456,13.965.028,9.971-4.537,21.794-11.968,31.14l-.3-.4c7.271-9.132,11.71-20.674,11.682-30.4-.044-15.492-11.162-20.979-23.857-13.649a38.783,38.783,0,0,0-7.053,5.314l2.607-.727-.193,1.038-4.4,1.245,2.792-5.684Zm15.995,45.7.235.48a50.2,50.2,0,0,1-4.64,4.425L1953,138.4a47.593,47.593,0,0,0,4.531-4.343Zm-6.369,6.43a35.974,35.974,0,0,1-3.266,2.134v-.657a34.9,34.9,0,0,0,3.194-2.092Z" transform="translate(-1925.932 -83.216)" fill="#e3efff" fill-rule="evenodd"/>
      </g>
      <path id="Trazado_687084" data-name="Trazado 687084" d="M2021.105,108.308l-2.2,5.65c4.886.425,8.182,4.564,8.2,11.476a33.07,33.07,0,0,1-4.721,15.967l3.1,1.807c3.742-6.462,6.02-13.722,6-20.3C2031.471,114.137,2027.285,108.867,2021.105,108.308Z" transform="translate(-1990.128 -103.311)" fill="#a8da74" fill-rule="evenodd"/>
    </g>
  </g>
</svg>
